<svg xmlns="http://www.w3.org/2000/svg" xmlns:xlink="http://www.w3.org/1999/xlink" width="3000" zoomAndPan="magnify" viewBox="0 0 2250 1265.999941" height="1688" preserveAspectRatio="xMidYMid meet" version="1.0"><defs><clipPath id="be1c904e01"><path d="M 702 74.53125 L 1114 74.53125 L 1114 486 L 702 486 Z M 702 74.53125 " clip-rule="nonzero"/></clipPath><clipPath id="12c50ac1b5"><path d="M 1114 606 L 1701 606 L 1701 1191.28125 L 1114 1191.28125 Z M 1114 606 " clip-rule="nonzero"/></clipPath></defs><path fill="#f1863d" d="M 1124.390625 673.535156 L 1181.265625 616.660156 C 1183.6875 614.238281 1186.105469 611.816406 1188.527344 610.609375 C 1155.855469 564.625 1109.871094 528.320312 1056.625 507.75 C 1014.273438 535.582031 962.238281 552.523438 907.785156 552.523438 C 853.328125 552.523438 801.292969 535.582031 758.941406 507.75 C 681.492188 538.003906 618.570312 600.925781 589.527344 682.003906 C 568.953125 740.089844 555.644531 801.804688 550.804688 863.519531 C 548.382812 891.351562 571.375 915.554688 600.417969 915.554688 L 1046.945312 915.554688 L 1046.945312 859.890625 C 1046.945312 819.957031 1074.777344 786.074219 1113.5 778.8125 C 1092.929688 746.140625 1096.558594 701.367188 1124.390625 673.535156 Z M 1124.390625 673.535156 " fill-opacity="1" fill-rule="nonzero"/><g clip-path="url(#be1c904e01)"><path fill="#f1863d" d="M 907.785156 485.96875 C 1021.53125 485.96875 1113.5 394 1113.5 280.25 C 1113.5 166.5 1021.53125 74.53125 907.785156 74.53125 C 794.035156 74.53125 702.066406 166.5 702.066406 280.25 C 703.277344 394 795.242188 485.96875 907.785156 485.96875 Z M 907.785156 485.96875 " fill-opacity="1" fill-rule="nonzero"/></g><g clip-path="url(#12c50ac1b5)"><path fill="#f1863d" d="M 1687.089844 842.949219 L 1631.425781 836.898438 C 1626.585938 818.746094 1619.324219 801.804688 1610.855469 786.074219 L 1645.945312 742.507812 C 1650.785156 736.457031 1650.785156 726.777344 1644.738281 720.726562 L 1586.652344 663.851562 C 1580.601562 657.800781 1570.921875 657.800781 1564.871094 662.644531 L 1521.304688 697.734375 C 1505.574219 689.265625 1488.632812 682.003906 1470.480469 677.164062 L 1464.429688 621.5 C 1463.222656 613.027344 1455.960938 606.976562 1447.488281 606.976562 L 1367.621094 606.976562 C 1359.152344 606.976562 1351.890625 613.027344 1350.679688 621.5 L 1344.628906 675.953125 C 1326.480469 680.792969 1309.539062 688.054688 1293.804688 696.527344 L 1250.242188 661.433594 C 1244.191406 656.59375 1234.511719 656.59375 1228.460938 662.644531 L 1171.585938 719.515625 C 1165.535156 725.566406 1165.535156 735.25 1170.375 741.300781 L 1205.46875 784.863281 C 1197 800.59375 1189.738281 817.535156 1184.898438 835.6875 L 1129.230469 841.738281 C 1120.761719 842.949219 1114.710938 850.207031 1114.710938 858.679688 L 1114.710938 938.546875 C 1114.710938 947.015625 1120.761719 954.277344 1129.230469 955.488281 L 1184.898438 961.539062 C 1189.738281 979.691406 1197 996.632812 1205.46875 1012.363281 L 1170.375 1055.925781 C 1165.535156 1061.976562 1165.535156 1071.65625 1171.585938 1077.707031 L 1228.460938 1134.582031 C 1234.511719 1140.632812 1244.191406 1140.632812 1250.242188 1135.792969 L 1293.804688 1100.699219 C 1309.539062 1109.171875 1326.480469 1116.429688 1344.628906 1121.273438 L 1350.679688 1176.9375 C 1351.890625 1185.40625 1359.152344 1191.457031 1367.621094 1191.457031 L 1447.488281 1191.457031 C 1455.960938 1191.457031 1463.222656 1185.40625 1464.429688 1176.9375 L 1470.480469 1121.273438 C 1488.632812 1116.429688 1505.574219 1109.171875 1521.304688 1100.699219 L 1564.871094 1135.792969 C 1570.921875 1140.632812 1580.601562 1140.632812 1586.652344 1134.582031 L 1643.527344 1077.707031 C 1649.578125 1071.65625 1649.578125 1061.976562 1644.738281 1055.925781 L 1609.644531 1012.363281 C 1618.113281 996.632812 1625.375 979.691406 1630.214844 961.539062 L 1685.878906 955.488281 C 1694.351562 954.277344 1700.402344 947.015625 1700.402344 938.546875 L 1700.402344 858.679688 C 1701.609375 851.417969 1695.5625 844.15625 1687.089844 842.949219 Z M 1407.554688 1013.574219 C 1344.628906 1013.574219 1293.804688 962.75 1293.804688 899.824219 C 1293.804688 836.898438 1344.628906 786.074219 1407.554688 786.074219 C 1470.480469 786.074219 1521.304688 836.898438 1521.304688 899.824219 C 1521.304688 962.75 1470.480469 1013.574219 1407.554688 1013.574219 Z M 1407.554688 1013.574219 " fill-opacity="1" fill-rule="nonzero"/></g></svg>