<svg xmlns="http://www.w3.org/2000/svg" xmlns:xlink="http://www.w3.org/1999/xlink" zoomAndPan="magnify" preserveAspectRatio="xMidYMid meet" version="1.0" viewBox="589.23 97.23 1071.75 1071.75"><defs><clipPath id="8a12b84404"><path d="M 589.234375 97.234375 L 1660.984375 97.234375 L 1660.984375 1168.984375 L 589.234375 1168.984375 Z M 589.234375 97.234375 " clip-rule="nonzero"/></clipPath><clipPath id="31cc3583fa"><path d="M 754 776 L 1497 776 L 1497 1168.984375 L 754 1168.984375 Z M 754 776 " clip-rule="nonzero"/></clipPath></defs><g clip-path="url(#8a12b84404)"><path fill="#d9deeb" d="M 1660.984375 633.109375 C 1660.984375 642.398438 1660.804688 651.507812 1660.269531 660.617188 C 1660.269531 660.796875 1660.269531 660.972656 1660.269531 660.972656 C 1659.914062 668.121094 1659.375 675.085938 1658.660156 682.050781 C 1658.660156 684.195312 1658.304688 686.519531 1658.125 688.660156 C 1657.949219 690.449219 1657.769531 692.414062 1657.410156 694.199219 C 1655.804688 710.097656 1653.304688 725.636719 1650.085938 741 C 1648.300781 749.75 1646.335938 758.503906 1644.015625 766.898438 C 1641.871094 775.472656 1639.550781 784.046875 1636.871094 792.441406 C 1634.546875 799.585938 1632.226562 806.910156 1629.546875 813.878906 C 1629.011719 815.84375 1628.296875 817.628906 1627.582031 819.59375 C 1624.902344 827.097656 1621.863281 834.417969 1618.828125 841.5625 C 1616.863281 846.386719 1614.71875 851.210938 1612.21875 856.03125 C 1610.433594 860.675781 1608.289062 865.144531 1605.96875 869.609375 C 1602.394531 876.933594 1598.644531 884.257812 1594.535156 891.402344 C 1585.425781 908.191406 1575.242188 924.445312 1564.347656 939.988281 C 1560.238281 945.882812 1556.132812 951.597656 1551.84375 957.136719 C 1546.484375 964.101562 1541.125 970.890625 1535.410156 977.5 C 1530.585938 983.394531 1525.40625 989.109375 1520.226562 994.824219 C 1517.726562 997.683594 1515.046875 1000.539062 1512.1875 1003.21875 C 1508.4375 1007.507812 1504.328125 1011.4375 1500.222656 1015.546875 L 1500.042969 1015.722656 C 1499.683594 1016.082031 1499.148438 1016.4375 1498.792969 1016.796875 C 1497.898438 1017.6875 1497.007812 1018.582031 1496.113281 1019.296875 C 1491.289062 1024.121094 1486.46875 1028.761719 1481.464844 1033.050781 C 1475.570312 1038.410156 1469.496094 1043.589844 1463.246094 1048.769531 C 1461.460938 1050.199219 1459.496094 1051.628906 1457.53125 1053.234375 C 1452.707031 1057.164062 1447.707031 1060.917969 1442.523438 1064.667969 C 1436.453125 1069.3125 1430.199219 1073.597656 1423.769531 1077.886719 C 1418.410156 1081.636719 1413.050781 1085.03125 1407.695312 1088.246094 C 1403.40625 1091.105469 1398.941406 1093.78125 1394.296875 1096.285156 C 1388.757812 1099.679688 1383.042969 1102.894531 1377.328125 1105.929688 C 1369.824219 1109.859375 1362.324219 1113.789062 1354.464844 1117.363281 C 1344.640625 1122.183594 1334.636719 1126.472656 1324.453125 1130.402344 C 1318.738281 1132.902344 1312.84375 1135.046875 1306.949219 1137.1875 C 1298.910156 1140.226562 1290.695312 1142.90625 1282.300781 1145.40625 C 1274.617188 1147.90625 1266.757812 1150.050781 1258.898438 1152.015625 C 1254.074219 1153.445312 1249.253906 1154.515625 1244.25 1155.410156 C 1240.144531 1156.660156 1235.855469 1157.550781 1231.570312 1158.265625 C 1221.03125 1160.589844 1210.492188 1162.375 1199.59375 1163.625 C 1192.808594 1164.695312 1186.019531 1165.589844 1179.054688 1166.304688 C 1161.371094 1168.089844 1143.328125 1168.984375 1125.109375 1168.984375 C 1106.890625 1168.984375 1088.847656 1168.089844 1071.164062 1166.304688 C 1064.199219 1165.589844 1057.410156 1164.695312 1050.621094 1163.625 C 1039.726562 1162.375 1029.1875 1160.589844 1018.648438 1158.265625 C 1014.359375 1157.550781 1010.074219 1156.660156 1005.964844 1155.410156 C 1000.964844 1154.515625 996.140625 1153.445312 991.320312 1152.015625 C 983.460938 1150.050781 975.601562 1147.90625 967.917969 1145.40625 C 959.523438 1142.90625 951.308594 1140.226562 943.269531 1137.1875 C 937.375 1135.046875 931.480469 1132.902344 925.761719 1130.402344 C 915.582031 1126.472656 905.578125 1122.183594 895.753906 1117.363281 C 887.894531 1113.789062 880.390625 1109.859375 872.890625 1105.929688 C 867.175781 1102.894531 861.636719 1099.679688 856.097656 1096.285156 C 851.457031 1093.78125 846.988281 1091.105469 842.523438 1088.246094 C 837.164062 1085.03125 831.804688 1081.636719 826.449219 1077.886719 C 820.015625 1073.597656 813.765625 1069.3125 807.691406 1064.667969 C 802.511719 1060.917969 797.511719 1057.164062 792.6875 1053.234375 C 790.722656 1051.628906 788.757812 1050.199219 786.972656 1048.769531 C 780.71875 1043.589844 774.648438 1038.410156 768.75 1033.050781 C 763.75 1028.761719 758.925781 1024.121094 754.105469 1019.296875 C 753.210938 1018.582031 752.320312 1017.6875 751.425781 1016.796875 C 751.066406 1016.4375 750.53125 1016.082031 750.175781 1015.722656 L 749.996094 1015.546875 C 745.886719 1011.4375 741.78125 1007.507812 738.027344 1003.21875 C 735.171875 1000.539062 732.492188 997.683594 729.992188 994.824219 C 724.808594 989.109375 719.628906 983.394531 714.808594 977.5 C 709.089844 970.890625 703.734375 964.101562 698.375 957.136719 C 694.085938 951.597656 689.976562 945.882812 685.871094 939.988281 C 674.972656 924.445312 664.792969 908.191406 655.683594 891.402344 C 651.574219 884.257812 647.824219 876.933594 644.25 869.609375 C 641.929688 865.144531 639.785156 860.675781 638 856.03125 C 635.496094 851.210938 633.355469 846.386719 631.390625 841.566406 C 628.351562 834.417969 625.316406 827.097656 622.636719 819.59375 C 621.921875 817.628906 621.207031 815.84375 620.671875 813.878906 C 617.992188 806.910156 615.671875 799.585938 613.347656 792.441406 C 610.667969 784.046875 608.347656 775.472656 606.203125 766.898438 C 603.882812 758.503906 601.917969 749.75 600.128906 741 C 596.914062 725.636719 594.414062 710.097656 592.804688 694.199219 C 592.449219 692.414062 592.269531 690.449219 592.09375 688.660156 C 591.914062 686.519531 591.554688 684.195312 591.554688 682.050781 C 590.839844 675.085938 590.304688 668.121094 589.949219 660.976562 C 589.949219 660.976562 589.949219 660.796875 589.949219 660.617188 C 589.414062 651.507812 589.234375 642.398438 589.234375 633.109375 C 589.234375 337.128906 829.128906 97.234375 1125.109375 97.234375 C 1421.089844 97.234375 1660.984375 337.128906 1660.984375 633.109375 Z M 1660.984375 633.109375 " fill-opacity="1" fill-rule="nonzero"/><path fill="#d9deeb" d="M 1660.984375 633.109375 C 1660.984375 642.398438 1660.804688 651.507812 1660.269531 660.617188 C 1660.269531 660.796875 1660.269531 660.972656 1660.269531 660.972656 C 1659.914062 668.121094 1659.375 675.085938 1658.660156 682.050781 C 1658.660156 684.195312 1658.304688 686.519531 1658.125 688.660156 C 1657.949219 690.449219 1657.769531 692.414062 1657.410156 694.199219 C 1655.804688 710.097656 1653.304688 725.636719 1650.085938 741 C 1648.300781 749.75 1646.335938 758.503906 1644.015625 766.898438 C 1641.871094 775.472656 1639.550781 784.046875 1636.871094 792.441406 C 1634.546875 799.585938 1632.226562 806.910156 1629.546875 813.878906 C 1629.011719 815.84375 1628.296875 817.628906 1627.582031 819.59375 C 1624.902344 827.097656 1621.863281 834.417969 1618.828125 841.5625 C 1616.863281 846.386719 1614.71875 851.210938 1612.21875 856.03125 C 1610.433594 860.675781 1608.289062 865.144531 1605.96875 869.609375 C 1602.394531 876.933594 1598.644531 884.257812 1594.535156 891.402344 C 1585.425781 908.191406 1575.242188 924.445312 1564.347656 939.988281 C 1560.238281 945.882812 1556.132812 951.597656 1551.84375 957.136719 C 1546.484375 964.101562 1541.125 970.890625 1535.410156 977.5 C 1530.585938 983.394531 1525.40625 989.109375 1520.226562 994.824219 C 1517.726562 997.683594 1515.046875 1000.539062 1512.1875 1003.21875 C 1508.4375 1007.507812 1504.328125 1011.4375 1500.222656 1015.546875 L 1500.042969 1015.722656 C 1499.683594 1016.082031 1499.148438 1016.4375 1498.792969 1016.796875 C 1497.898438 1017.6875 1497.007812 1018.582031 1496.113281 1019.296875 C 1491.289062 1024.121094 1486.46875 1028.761719 1481.464844 1033.050781 C 1475.570312 1038.410156 1469.496094 1043.589844 1463.246094 1048.769531 C 1461.460938 1050.199219 1459.496094 1051.628906 1457.53125 1053.234375 C 1452.707031 1057.164062 1447.707031 1060.917969 1442.523438 1064.667969 C 1436.453125 1069.3125 1430.199219 1073.597656 1423.769531 1077.886719 C 1418.410156 1081.636719 1413.050781 1085.03125 1407.695312 1088.246094 C 1403.40625 1091.105469 1398.941406 1093.78125 1394.296875 1096.285156 C 1388.757812 1099.679688 1383.042969 1102.894531 1377.328125 1105.929688 C 1369.824219 1109.859375 1362.324219 1113.789062 1354.464844 1117.363281 C 1344.640625 1122.183594 1334.636719 1126.472656 1324.453125 1130.402344 C 1318.738281 1132.902344 1312.84375 1135.046875 1306.949219 1137.1875 C 1298.910156 1140.226562 1290.695312 1142.90625 1282.300781 1145.40625 C 1274.617188 1147.90625 1266.757812 1150.050781 1258.898438 1152.015625 C 1254.074219 1153.445312 1249.253906 1154.515625 1244.25 1155.410156 C 1240.144531 1156.660156 1235.855469 1157.550781 1231.570312 1158.265625 C 1221.03125 1160.589844 1210.492188 1162.375 1199.59375 1163.625 C 1192.808594 1164.695312 1186.019531 1165.589844 1179.054688 1166.304688 C 1161.371094 1168.089844 1143.328125 1168.984375 1125.109375 1168.984375 C 1106.890625 1168.984375 1088.847656 1168.089844 1071.164062 1166.304688 C 1064.199219 1165.589844 1057.410156 1164.695312 1050.621094 1163.625 C 1039.726562 1162.375 1029.1875 1160.589844 1018.648438 1158.265625 C 1014.359375 1157.550781 1010.074219 1156.660156 1005.964844 1155.410156 C 1000.964844 1154.515625 996.140625 1153.445312 991.320312 1152.015625 C 983.460938 1150.050781 975.601562 1147.90625 967.917969 1145.40625 C 959.523438 1142.90625 951.308594 1140.226562 943.269531 1137.1875 C 937.375 1135.046875 931.480469 1132.902344 925.761719 1130.402344 C 915.582031 1126.472656 905.578125 1122.183594 895.753906 1117.363281 C 887.894531 1113.789062 880.390625 1109.859375 872.890625 1105.929688 C 867.175781 1102.894531 861.636719 1099.679688 856.097656 1096.285156 C 851.457031 1093.78125 846.988281 1091.105469 842.523438 1088.246094 C 837.164062 1085.03125 831.804688 1081.636719 826.449219 1077.886719 C 820.015625 1073.597656 813.765625 1069.3125 807.691406 1064.667969 C 802.511719 1060.917969 797.511719 1057.164062 792.6875 1053.234375 C 790.722656 1051.628906 788.757812 1050.199219 786.972656 1048.769531 C 780.71875 1043.589844 774.648438 1038.410156 768.75 1033.050781 C 763.75 1028.761719 758.925781 1024.121094 754.105469 1019.296875 C 753.210938 1018.582031 752.320312 1017.6875 751.425781 1016.796875 C 751.066406 1016.4375 750.53125 1016.082031 750.175781 1015.722656 L 749.996094 1015.546875 C 745.886719 1011.4375 741.78125 1007.507812 738.027344 1003.21875 C 735.171875 1000.539062 732.492188 997.683594 729.992188 994.824219 C 724.808594 989.109375 719.628906 983.394531 714.808594 977.5 C 709.089844 970.890625 703.734375 964.101562 698.375 957.136719 C 694.085938 951.597656 689.976562 945.882812 685.871094 939.988281 C 674.972656 924.445312 664.792969 908.191406 655.683594 891.402344 C 651.574219 884.257812 647.824219 876.933594 644.25 869.609375 C 641.929688 865.144531 639.785156 860.675781 638 856.03125 C 635.496094 851.210938 633.355469 846.386719 631.390625 841.566406 C 628.351562 834.417969 625.316406 827.097656 622.636719 819.59375 C 621.921875 817.628906 621.207031 815.84375 620.671875 813.878906 C 617.992188 806.910156 615.671875 799.585938 613.347656 792.441406 C 610.667969 784.046875 608.347656 775.472656 606.203125 766.898438 C 603.882812 758.503906 601.917969 749.75 600.128906 741 C 596.914062 725.636719 594.414062 710.097656 592.804688 694.199219 C 592.449219 692.414062 592.269531 690.449219 592.09375 688.660156 C 591.914062 686.519531 591.554688 684.195312 591.554688 682.050781 C 590.839844 675.085938 590.304688 668.121094 589.949219 660.976562 C 589.949219 660.976562 589.949219 660.796875 589.949219 660.617188 C 589.414062 651.507812 589.234375 642.398438 589.234375 633.109375 C 589.234375 337.128906 829.128906 97.234375 1125.109375 97.234375 C 1421.089844 97.234375 1660.984375 337.128906 1660.984375 633.109375 Z M 1660.984375 633.109375 " fill-opacity="1" fill-rule="nonzero"/></g><path fill="#a4a8b3" d="M 1321.597656 508.070312 C 1321.597656 511.289062 1321.519531 514.5 1321.359375 517.710938 C 1321.203125 520.925781 1320.964844 524.128906 1320.652344 527.332031 C 1320.335938 530.53125 1319.941406 533.722656 1319.46875 536.902344 C 1318.996094 540.082031 1318.449219 543.25 1317.820312 546.40625 C 1317.195312 549.558594 1316.488281 552.695312 1315.707031 555.8125 C 1314.925781 558.933594 1314.070312 562.03125 1313.136719 565.109375 C 1312.203125 568.1875 1311.195312 571.238281 1310.109375 574.265625 C 1309.027344 577.292969 1307.871094 580.292969 1306.640625 583.265625 C 1305.410156 586.234375 1304.105469 589.171875 1302.730469 592.082031 C 1301.355469 594.988281 1299.910156 597.859375 1298.394531 600.695312 C 1296.878906 603.53125 1295.296875 606.328125 1293.640625 609.085938 C 1291.988281 611.84375 1290.269531 614.558594 1288.480469 617.234375 C 1286.695312 619.90625 1284.84375 622.535156 1282.929688 625.117188 C 1281.015625 627.703125 1279.035156 630.234375 1276.996094 632.722656 C 1274.957031 635.207031 1272.855469 637.640625 1270.695312 640.023438 C 1268.539062 642.40625 1266.320312 644.734375 1264.046875 647.007812 C 1261.773438 649.28125 1259.445312 651.5 1257.0625 653.660156 C 1254.679688 655.820312 1252.246094 657.917969 1249.757812 659.957031 C 1247.273438 662 1244.738281 663.976562 1242.15625 665.890625 C 1239.574219 667.808594 1236.945312 669.660156 1234.273438 671.445312 C 1231.597656 673.230469 1228.882812 674.953125 1226.125 676.605469 C 1223.367188 678.257812 1220.570312 679.84375 1217.734375 681.359375 C 1214.898438 682.875 1212.023438 684.320312 1209.117188 685.695312 C 1206.210938 687.070312 1203.273438 688.371094 1200.300781 689.601562 C 1197.332031 690.832031 1194.332031 691.988281 1191.304688 693.074219 C 1188.277344 694.15625 1185.222656 695.164062 1182.144531 696.097656 C 1179.070312 697.03125 1175.972656 697.890625 1172.851562 698.671875 C 1169.730469 699.453125 1166.597656 700.15625 1163.441406 700.785156 C 1160.289062 701.410156 1157.121094 701.960938 1153.941406 702.433594 C 1150.757812 702.902344 1147.570312 703.296875 1144.367188 703.613281 C 1141.167969 703.929688 1137.960938 704.164062 1134.75 704.324219 C 1131.539062 704.480469 1128.324219 704.558594 1125.109375 704.558594 C 1121.894531 704.558594 1118.679688 704.480469 1115.46875 704.324219 C 1112.257812 704.164062 1109.050781 703.929688 1105.851562 703.613281 C 1102.648438 703.296875 1099.460938 702.902344 1096.277344 702.433594 C 1093.097656 701.960938 1089.929688 701.410156 1086.777344 700.785156 C 1083.621094 700.15625 1080.484375 699.453125 1077.367188 698.671875 C 1074.246094 697.890625 1071.148438 697.03125 1068.070312 696.097656 C 1064.996094 695.164062 1061.941406 694.15625 1058.914062 693.074219 C 1055.886719 691.988281 1052.886719 690.832031 1049.917969 689.601562 C 1046.945312 688.371094 1044.007812 687.070312 1041.101562 685.695312 C 1038.191406 684.320312 1035.320312 682.875 1032.484375 681.359375 C 1029.648438 679.84375 1026.851562 678.257812 1024.09375 676.605469 C 1021.335938 674.953125 1018.621094 673.230469 1015.945312 671.445312 C 1013.273438 669.660156 1010.644531 667.808594 1008.0625 665.890625 C 1005.480469 663.976562 1002.945312 662 1000.457031 659.957031 C 997.972656 657.917969 995.539062 655.820312 993.15625 653.660156 C 990.773438 651.5 988.445312 649.28125 986.171875 647.007812 C 983.898438 644.734375 981.679688 642.40625 979.519531 640.023438 C 977.363281 637.640625 975.261719 635.207031 973.222656 632.722656 C 971.183594 630.234375 969.203125 627.703125 967.289062 625.117188 C 965.375 622.535156 963.523438 619.90625 961.734375 617.234375 C 959.949219 614.558594 958.230469 611.84375 956.574219 609.085938 C 954.921875 606.328125 953.339844 603.53125 951.824219 600.695312 C 950.308594 597.859375 948.863281 594.988281 947.488281 592.082031 C 946.113281 589.171875 944.808594 586.234375 943.578125 583.265625 C 942.347656 580.292969 941.191406 577.292969 940.105469 574.265625 C 939.023438 571.238281 938.015625 568.1875 937.082031 565.109375 C 936.148438 562.03125 935.292969 558.933594 934.511719 555.8125 C 933.730469 552.695312 933.023438 549.558594 932.398438 546.40625 C 931.769531 543.25 931.21875 540.082031 930.75 536.902344 C 930.277344 533.722656 929.882812 530.53125 929.566406 527.332031 C 929.253906 524.128906 929.015625 520.925781 928.859375 517.710938 C 928.699219 514.5 928.621094 511.289062 928.621094 508.070312 C 928.621094 504.855469 928.699219 501.640625 928.859375 498.429688 C 929.015625 495.21875 929.253906 492.011719 929.566406 488.8125 C 929.882812 485.613281 930.277344 482.421875 930.75 479.242188 C 931.21875 476.058594 931.769531 472.894531 932.398438 469.738281 C 933.023438 466.585938 933.730469 463.449219 934.511719 460.328125 C 935.292969 457.210938 936.148438 454.113281 937.082031 451.035156 C 938.015625 447.957031 939.023438 444.90625 940.105469 441.875 C 941.191406 438.847656 942.347656 435.851562 943.578125 432.878906 C 944.808594 429.90625 946.113281 426.96875 947.488281 424.0625 C 948.863281 421.15625 950.308594 418.285156 951.824219 415.449219 C 953.339844 412.613281 954.921875 409.816406 956.574219 407.058594 C 958.230469 404.296875 959.949219 401.582031 961.734375 398.910156 C 963.523438 396.234375 965.375 393.605469 967.289062 391.023438 C 969.203125 388.441406 971.183594 385.90625 973.222656 383.421875 C 975.261719 380.933594 977.363281 378.5 979.519531 376.117188 C 981.679688 373.734375 983.898438 371.40625 986.171875 369.132812 C 988.445312 366.859375 990.773438 364.644531 993.15625 362.484375 C 995.539062 360.324219 997.972656 358.226562 1000.457031 356.183594 C 1002.945312 354.144531 1005.480469 352.167969 1008.0625 350.25 C 1010.644531 348.335938 1013.273438 346.484375 1015.945312 344.699219 C 1018.621094 342.910156 1021.335938 341.191406 1024.09375 339.539062 C 1026.851562 337.886719 1029.648438 336.300781 1032.484375 334.785156 C 1035.320312 333.269531 1038.191406 331.824219 1041.101562 330.449219 C 1044.007812 329.074219 1046.945312 327.769531 1049.917969 326.539062 C 1052.886719 325.308594 1055.886719 324.152344 1058.914062 323.070312 C 1061.941406 321.988281 1064.996094 320.976562 1068.070312 320.042969 C 1071.148438 319.109375 1074.246094 318.253906 1077.367188 317.472656 C 1080.484375 316.691406 1083.621094 315.988281 1086.777344 315.359375 C 1089.929688 314.730469 1093.097656 314.183594 1096.277344 313.710938 C 1099.460938 313.238281 1102.648438 312.84375 1105.851562 312.53125 C 1109.050781 312.214844 1112.257812 311.980469 1115.46875 311.820312 C 1118.679688 311.664062 1121.894531 311.585938 1125.109375 311.585938 C 1128.324219 311.585938 1131.539062 311.664062 1134.75 311.820312 C 1137.960938 311.980469 1141.167969 312.214844 1144.367188 312.53125 C 1147.570312 312.84375 1150.757812 313.238281 1153.941406 313.710938 C 1157.121094 314.183594 1160.289062 314.730469 1163.441406 315.359375 C 1166.597656 315.988281 1169.730469 316.691406 1172.851562 317.472656 C 1175.972656 318.253906 1179.070312 319.109375 1182.144531 320.042969 C 1185.222656 320.976562 1188.277344 321.988281 1191.304688 323.070312 C 1194.332031 324.152344 1197.332031 325.308594 1200.300781 326.539062 C 1203.273438 327.769531 1206.210938 329.074219 1209.117188 330.449219 C 1212.023438 331.824219 1214.898438 333.269531 1217.734375 334.785156 C 1220.570312 336.300781 1223.367188 337.886719 1226.125 339.539062 C 1228.882812 341.191406 1231.597656 342.910156 1234.273438 344.699219 C 1236.945312 346.484375 1239.574219 348.335938 1242.15625 350.25 C 1244.738281 352.167969 1247.273438 354.144531 1249.757812 356.183594 C 1252.246094 358.226562 1254.679688 360.324219 1257.0625 362.484375 C 1259.445312 364.644531 1261.773438 366.859375 1264.046875 369.132812 C 1266.320312 371.40625 1268.539062 373.734375 1270.695312 376.117188 C 1272.855469 378.5 1274.957031 380.933594 1276.996094 383.421875 C 1279.035156 385.90625 1281.015625 388.441406 1282.929688 391.023438 C 1284.84375 393.605469 1286.695312 396.234375 1288.480469 398.910156 C 1290.269531 401.582031 1291.988281 404.296875 1293.640625 407.058594 C 1295.296875 409.816406 1296.878906 412.613281 1298.394531 415.449219 C 1299.910156 418.285156 1301.355469 421.15625 1302.730469 424.0625 C 1304.105469 426.96875 1305.410156 429.90625 1306.640625 432.878906 C 1307.871094 435.851562 1309.027344 438.847656 1310.109375 441.875 C 1311.195312 444.90625 1312.203125 447.957031 1313.136719 451.035156 C 1314.070312 454.113281 1314.925781 457.210938 1315.707031 460.328125 C 1316.488281 463.449219 1317.195312 466.585938 1317.820312 469.738281 C 1318.449219 472.894531 1319 476.058594 1319.46875 479.242188 C 1319.941406 482.421875 1320.335938 485.613281 1320.652344 488.8125 C 1320.964844 492.011719 1321.203125 495.21875 1321.359375 498.429688 C 1321.519531 501.640625 1321.597656 504.855469 1321.597656 508.070312 Z M 1321.597656 508.070312 " fill-opacity="1" fill-rule="nonzero"/><g clip-path="url(#31cc3583fa)"><path fill="#a4a8b3" d="M 1496.113281 1019.296875 C 1491.289062 1024.121094 1486.46875 1028.761719 1481.464844 1033.050781 C 1475.570312 1038.410156 1469.496094 1043.589844 1463.246094 1048.769531 C 1461.460938 1050.199219 1459.496094 1051.628906 1457.53125 1053.234375 C 1452.707031 1057.164062 1447.707031 1060.914062 1442.527344 1064.667969 C 1436.453125 1069.3125 1430.199219 1073.597656 1423.769531 1077.886719 C 1418.410156 1081.636719 1413.050781 1085.03125 1407.695312 1088.246094 C 1403.40625 1091.105469 1398.941406 1093.78125 1394.296875 1096.285156 C 1388.757812 1099.675781 1383.042969 1102.894531 1377.328125 1105.929688 C 1369.824219 1109.859375 1362.324219 1113.789062 1354.464844 1117.363281 C 1344.640625 1122.183594 1334.636719 1126.472656 1324.453125 1130.402344 C 1318.738281 1132.902344 1312.84375 1135.046875 1306.949219 1137.1875 C 1298.910156 1140.226562 1290.695312 1142.90625 1282.300781 1145.40625 C 1274.617188 1147.90625 1266.757812 1150.050781 1258.898438 1152.015625 C 1254.078125 1153.445312 1249.253906 1154.515625 1244.253906 1155.410156 C 1240.144531 1156.660156 1235.855469 1157.550781 1231.570312 1158.265625 C 1221.03125 1160.589844 1210.492188 1162.375 1199.597656 1163.625 C 1192.808594 1164.695312 1186.019531 1165.589844 1179.054688 1166.304688 C 1161.371094 1168.089844 1143.328125 1168.984375 1125.109375 1168.984375 C 1106.890625 1168.984375 1088.847656 1168.089844 1071.164062 1166.304688 C 1064.199219 1165.589844 1057.410156 1164.695312 1050.621094 1163.625 C 1039.726562 1162.375 1029.1875 1160.589844 1018.648438 1158.265625 C 1014.363281 1157.550781 1010.074219 1156.660156 1005.964844 1155.410156 C 1000.964844 1154.515625 996.140625 1153.445312 991.320312 1152.015625 C 983.460938 1150.050781 975.601562 1147.90625 967.917969 1145.40625 C 959.523438 1142.90625 951.308594 1140.226562 943.269531 1137.1875 C 937.375 1135.046875 931.480469 1132.902344 925.761719 1130.402344 C 915.582031 1126.472656 905.578125 1122.183594 895.753906 1117.363281 C 887.894531 1113.789062 880.394531 1109.859375 872.890625 1105.929688 C 867.175781 1102.894531 861.636719 1099.675781 856.101562 1096.285156 C 851.457031 1093.78125 846.988281 1091.105469 842.523438 1088.246094 C 837.164062 1085.03125 831.808594 1081.636719 826.449219 1077.886719 C 820.015625 1073.597656 813.765625 1069.3125 807.691406 1064.667969 C 802.511719 1060.917969 797.511719 1057.164062 792.6875 1053.234375 C 790.722656 1051.628906 788.757812 1050.199219 786.972656 1048.769531 C 780.71875 1043.589844 774.648438 1038.410156 768.753906 1033.050781 C 763.75 1028.761719 758.929688 1024.121094 754.105469 1019.296875 C 778.398438 871.394531 915.402344 776.007812 1125.109375 776.007812 C 1334.816406 776.007812 1471.820312 871.394531 1496.113281 1019.296875 Z M 1496.113281 1019.296875 " fill-opacity="1" fill-rule="nonzero"/></g></svg>