<svg xmlns="http://www.w3.org/2000/svg" fill="none" viewBox="0 0 1269.92 828.32">
<path d="M564.706 759.499C211.206 701.999 81.7058 347.999 81.7058 347.999C1274.72 224.549 1353.3 275.164 1224.71 419.999C1224.71 419.999 918.206 816.999 564.706 759.499Z" fill="#EBB84A" fill-opacity="0.73"/>
<path d="M22.2058 168C150.206 16.0001 452.77 42.2292 494.706 77.0001C536.641 111.771 1156.43 117.382 1236.71 350.499C1316.98 583.617 565.61 572.014 461.206 786.825C356.802 1001.64 -105.794 320 22.2058 168Z" fill="#F1863D" fill-opacity="0.36"/>
<path d="M1203.71 373C1145.71 126.5 482.206 -28.0004 546.206 130.5C610.206 289.001 141.206 79.0003 46.7058 245.5C-47.7943 412 11.2058 650 278.706 601C546.206 552 648.473 860.292 823.706 767.5C823.706 767.5 1261.71 619.5 1203.71 373Z" fill="#EBB84A" fill-opacity="0.49"/>
<path d="M354.706 726.501C27.1346 699.596 -4.28097 610.725 56.7058 395.501L219.206 132.501C436.007 167.141 559.612 162.921 786.706 79.0007C966.09 44.1772 1107.5 -46.5003 1181.21 165.5C1286.21 467.5 936.823 404.967 916.206 675.001C706.073 548.308 583.733 549.961 354.706 726.501Z" fill="#F1863D" fill-opacity="0.74"/>
<circle cx="1020.71" cy="752" r="25" fill="#F1863D" fill-opacity="0.36"/>
<circle cx="198.706" cy="25" r="25" fill="#F1863D" fill-opacity="0.36"/>
</svg>