<svg xmlns="http://www.w3.org/2000/svg" xmlns:xlink="http://www.w3.org/1999/xlink" width="3000" zoomAndPan="magnify" viewBox="0 0 2250 1265.999941" height="1688" preserveAspectRatio="xMidYMid meet" version="1.0"><defs><clipPath id="08e9ac43b8"><path d="M 318 84.050781 L 1932 84.050781 L 1932 1139.300781 L 318 1139.300781 Z M 318 84.050781 " clip-rule="nonzero"/></clipPath></defs><g clip-path="url(#08e9ac43b8)"><path fill="#f1863d" d="M 1930.976562 557.125 C 1930.976562 809.214844 1820.890625 983.121094 1570.277344 1014.140625 C 1554.574219 1027.359375 1525.652344 1050.507812 1492.097656 1071.554688 C 1434.554688 1107.652344 1405.222656 1124.730469 1383.765625 1138.140625 C 1379.070312 1141.078125 1373.066406 1137.320312 1373.648438 1131.808594 L 1387.523438 1022.246094 C 1327.957031 1023.628906 1256.792969 1024.5 1182.933594 1023.660156 C 1025.351562 1021.875 755.042969 1015.414062 755.042969 1015.414062 C 654.261719 1008.121094 551.972656 994.101562 483.140625 946.070312 C 368.421875 866.015625 318.679688 719.449219 318.679688 557.125 C 322.203125 444.15625 332.820312 337.546875 376.589844 266.917969 C 460.105469 132.15625 622.777344 86.867188 795.597656 86.867188 C 795.597656 86.867188 959.234375 93.476562 1124.828125 86.867188 C 1283.515625 80.53125 1475.027344 86.867188 1475.027344 86.867188 C 1627.066406 93.042969 1777.046875 150.28125 1858.671875 251.484375 C 1921.015625 328.777344 1934.75 431.710938 1930.976562 557.125 Z M 1930.976562 557.125 " fill-opacity="1" fill-rule="nonzero"/></g></svg>