<svg xmlns="http://www.w3.org/2000/svg" xmlns:xlink="http://www.w3.org/1999/xlink" zoomAndPan="magnify" preserveAspectRatio="xMidYMid meet" version="1.0" viewBox="614.61 80.43 1018.89 1105.14"><defs><clipPath id="944be69386"><path d="M 614.558594 80.425781 L 1470 80.425781 L 1470 1185.925781 L 614.558594 1185.925781 Z M 614.558594 80.425781 " clip-rule="nonzero"/></clipPath></defs><g clip-path="url(#944be69386)"><path fill="#f1863d" d="M 737.699219 100.585938 L 823.648438 100.585938 C 824.707031 88.914062 834.789062 80.425781 846.460938 80.425781 L 1236.945312 80.425781 C 1248.617188 80.425781 1258.699219 89.445312 1259.230469 100.585938 L 1345.707031 100.585938 C 1379.664062 100.585938 1409.90625 114.914062 1432.71875 136.664062 C 1455 158.949219 1468.796875 189.71875 1468.796875 223.675781 L 1468.796875 326.070312 L 1427.945312 349.945312 L 1427.945312 224.207031 C 1427.945312 201.921875 1418.925781 180.699219 1403.539062 166.375 C 1389.214844 151.519531 1367.992188 141.96875 1345.707031 141.96875 L 1259.230469 141.96875 C 1258.167969 153.640625 1248.085938 162.660156 1236.945312 162.660156 L 846.460938 162.660156 C 834.789062 162.660156 824.707031 153.640625 823.648438 141.96875 L 737.699219 141.96875 C 715.414062 141.96875 694.191406 150.988281 679.335938 166.375 C 665.011719 180.699219 655.460938 201.921875 655.460938 224.207031 L 655.460938 1063.003906 C 655.460938 1085.289062 664.480469 1106.511719 679.335938 1120.835938 C 694.191406 1135.691406 714.882812 1145.242188 737.699219 1145.242188 L 1346.238281 1145.242188 C 1368.523438 1145.242188 1389.746094 1136.222656 1404.070312 1120.835938 C 1418.925781 1106.511719 1428.472656 1085.289062 1428.472656 1063.003906 L 1428.472656 545.1875 L 1469.328125 521.3125 L 1469.328125 1062.476562 C 1469.328125 1096.429688 1455 1127.203125 1433.25 1149.484375 C 1410.964844 1171.769531 1380.195312 1185.5625 1346.238281 1185.5625 L 737.699219 1185.5625 C 703.742188 1185.5625 672.96875 1171.238281 650.6875 1149.484375 C 628.40625 1127.203125 614.609375 1096.429688 614.609375 1062.476562 L 614.609375 223.675781 C 614.609375 189.71875 628.40625 159.476562 650.6875 136.664062 C 672.96875 114.382812 703.742188 100.585938 737.699219 100.585938 Z M 737.699219 100.585938 " fill-opacity="1" fill-rule="nonzero"/></g><path fill="#f1863d" d="M 788.628906 674.644531 C 782.265625 668.808594 782.265625 659.257812 788.628906 653.421875 C 794.464844 647.054688 804.015625 647.054688 809.851562 653.421875 L 837.441406 681.007812 L 891.027344 588.695312 C 894.742188 581.796875 904.289062 579.144531 911.71875 583.386719 C 918.617188 587.101562 921.269531 596.652344 917.023438 604.078125 L 854.949219 712.3125 C 853.886719 713.375 853.359375 714.964844 851.765625 716.027344 C 845.929688 721.863281 836.378906 721.863281 830.542969 716.027344 L 788.628906 674.113281 Z M 788.628906 674.644531 " fill-opacity="1" fill-rule="nonzero"/><path fill="#f1863d" d="M 972.730469 673.582031 C 964.242188 673.582031 957.875 667.214844 957.875 658.726562 C 957.875 650.238281 964.242188 643.871094 972.730469 643.871094 L 1285.226562 643.871094 C 1293.714844 643.871094 1300.082031 650.238281 1300.082031 658.726562 C 1300.082031 667.214844 1293.714844 673.582031 1285.226562 673.582031 Z M 972.730469 673.582031 " fill-opacity="1" fill-rule="nonzero"/><path fill="#f1863d" d="M 788.628906 832.214844 C 782.265625 826.378906 782.265625 816.832031 788.628906 810.996094 C 794.464844 804.628906 804.015625 804.628906 809.851562 810.996094 L 837.441406 838.582031 L 891.027344 746.265625 C 894.742188 739.371094 904.289062 736.71875 911.71875 740.960938 C 918.617188 744.675781 921.269531 754.226562 917.023438 761.652344 L 854.949219 869.886719 C 853.886719 870.945312 853.359375 872.539062 851.765625 873.597656 C 845.929688 879.433594 836.378906 879.433594 830.542969 873.597656 L 788.628906 831.6875 Z M 788.628906 832.214844 " fill-opacity="1" fill-rule="nonzero"/><path fill="#f1863d" d="M 972.730469 831.15625 C 964.242188 831.15625 957.875 824.789062 957.875 816.300781 C 957.875 807.8125 964.242188 801.445312 972.730469 801.445312 L 1285.226562 801.445312 C 1293.714844 801.445312 1300.082031 807.8125 1300.082031 816.300781 C 1300.082031 824.789062 1293.714844 831.15625 1285.226562 831.15625 Z M 972.730469 831.15625 " fill-opacity="1" fill-rule="nonzero"/><path fill="#f1863d" d="M 788.628906 989.789062 C 782.265625 983.953125 782.265625 974.402344 788.628906 968.566406 C 794.464844 962.203125 804.015625 962.203125 809.851562 968.566406 L 837.441406 996.15625 L 891.027344 903.839844 C 894.742188 896.945312 904.289062 894.289062 911.71875 898.535156 C 918.617188 902.25 921.269531 911.800781 917.023438 918.695312 L 854.949219 1027.457031 C 853.886719 1028.519531 853.359375 1030.113281 851.765625 1031.171875 C 845.929688 1037.007812 836.378906 1037.007812 830.542969 1031.171875 L 788.628906 989.257812 Z M 788.628906 989.789062 " fill-opacity="1" fill-rule="nonzero"/><path fill="#f1863d" d="M 972.730469 988.730469 C 964.242188 988.730469 957.875 982.363281 957.875 973.875 C 957.875 965.382812 964.242188 958.488281 972.730469 958.488281 L 1285.226562 958.488281 C 1293.714844 958.488281 1300.082031 965.382812 1300.082031 973.875 C 1300.082031 982.363281 1293.714844 988.730469 1285.226562 988.730469 Z M 972.730469 988.730469 " fill-opacity="1" fill-rule="nonzero"/><path fill="#f1863d" d="M 1042.234375 234.816406 C 1119.695312 234.816406 1182.300781 297.421875 1182.300781 374.882812 C 1182.300781 452.34375 1119.695312 514.945312 1042.234375 514.945312 C 964.773438 514.945312 902.167969 452.34375 902.167969 374.882812 C 902.167969 297.421875 964.773438 234.816406 1042.234375 234.816406 Z M 1042.234375 302.195312 C 1064.515625 302.195312 1083.085938 320.234375 1083.085938 343.050781 C 1083.085938 365.332031 1065.046875 383.902344 1042.234375 383.902344 C 1019.949219 383.902344 1001.382812 365.863281 1001.382812 343.050781 C 1001.382812 320.765625 1019.421875 302.195312 1042.234375 302.195312 Z M 1014.113281 395.574219 L 1070.351562 395.574219 C 1096.878906 395.574219 1118.101562 416.796875 1118.101562 443.324219 L 1118.101562 447.035156 L 966.363281 447.035156 L 966.363281 443.324219 C 966.363281 416.796875 987.585938 395.574219 1014.113281 395.574219 Z M 1014.113281 395.574219 " fill-opacity="1" fill-rule="evenodd"/><path fill="#f1863d" d="M 1584.988281 303.257812 L 1631.675781 383.902344 C 1635.390625 390.269531 1633.265625 398.226562 1626.898438 401.941406 L 1354.199219 559.511719 C 1351.542969 561.105469 1348.890625 561.636719 1345.707031 561.105469 L 1271.960938 549.964844 C 1267.71875 549.433594 1264.535156 547.3125 1262.410156 543.597656 C 1260.289062 539.882812 1260.289062 536.167969 1261.351562 532.457031 L 1288.410156 462.953125 C 1289.46875 460.300781 1291.59375 457.648438 1294.246094 456.585938 L 1566.949219 299.011719 C 1573.316406 295.300781 1581.273438 297.421875 1584.988281 303.789062 Z M 1569.070312 326.070312 C 1570.660156 329.253906 1569.601562 332.96875 1566.949219 334.558594 L 1323.425781 475.15625 C 1320.242188 476.746094 1316.527344 475.6875 1314.9375 473.035156 C 1313.34375 469.851562 1314.40625 466.136719 1317.058594 464.542969 L 1560.582031 323.949219 C 1563.765625 322.355469 1567.480469 323.417969 1569.070312 326.070312 Z M 1569.070312 326.070312 " fill-opacity="1" fill-rule="evenodd"/></svg>