<svg xmlns="http://www.w3.org/2000/svg" xmlns:xlink="http://www.w3.org/1999/xlink" width="3000" zoomAndPan="magnify" viewBox="0 0 2250 1265.999941" height="1688" preserveAspectRatio="xMidYMid meet" version="1.0"><defs><clipPath id="4b20b4d334"><path d="M 515.128906 23.128906 L 1734.628906 23.128906 L 1734.628906 1242.628906 L 515.128906 1242.628906 Z M 515.128906 23.128906 " clip-rule="nonzero"/></clipPath></defs><g clip-path="url(#4b20b4d334)"><path fill="#f1863d" d="M 1633.21875 1202.207031 L 616.773438 1202.207031 C 583.144531 1202.207031 555.789062 1174.847656 555.789062 1141.21875 L 555.789062 389.050781 L 1694.207031 389.050781 L 1694.207031 1141.21875 C 1694.207031 1174.847656 1666.847656 1202.207031 1633.21875 1202.207031 Z M 616.773438 145.101562 L 738.746094 145.101562 L 738.746094 206.089844 C 738.746094 239.71875 766.105469 267.078125 799.734375 267.078125 C 833.363281 267.078125 860.722656 239.71875 860.722656 206.089844 L 860.722656 145.101562 L 1064.011719 145.101562 L 1064.011719 206.089844 C 1064.011719 239.71875 1091.367188 267.078125 1124.996094 267.078125 C 1158.628906 267.078125 1185.984375 239.71875 1185.984375 206.089844 L 1185.984375 145.101562 L 1389.273438 145.101562 L 1389.273438 206.089844 C 1389.273438 239.71875 1416.628906 267.078125 1450.257812 267.078125 C 1483.890625 267.078125 1511.246094 239.71875 1511.246094 206.089844 L 1511.246094 145.101562 L 1633.21875 145.101562 C 1666.847656 145.101562 1694.207031 172.460938 1694.207031 206.089844 L 1694.207031 348.390625 L 555.789062 348.390625 L 555.789062 206.089844 C 555.789062 172.460938 583.144531 145.101562 616.773438 145.101562 Z M 779.40625 84.117188 C 779.40625 72.910156 788.527344 63.789062 799.734375 63.789062 C 810.941406 63.789062 820.0625 72.910156 820.0625 84.117188 L 820.0625 206.089844 C 820.0625 217.296875 810.941406 226.417969 799.734375 226.417969 C 788.527344 226.417969 779.40625 217.296875 779.40625 206.089844 Z M 1104.667969 84.117188 C 1104.667969 72.910156 1113.789062 63.789062 1124.996094 63.789062 C 1136.203125 63.789062 1145.324219 72.910156 1145.324219 84.117188 L 1145.324219 206.089844 C 1145.324219 217.296875 1136.203125 226.417969 1124.996094 226.417969 C 1113.789062 226.417969 1104.667969 217.296875 1104.667969 206.089844 Z M 1429.929688 84.117188 C 1429.929688 72.910156 1439.050781 63.789062 1450.257812 63.789062 C 1461.464844 63.789062 1470.589844 72.910156 1470.589844 84.117188 L 1470.589844 206.089844 C 1470.589844 217.296875 1461.464844 226.417969 1450.257812 226.417969 C 1439.050781 226.417969 1429.929688 217.296875 1429.929688 206.089844 Z M 1633.21875 104.445312 L 1511.246094 104.445312 L 1511.246094 84.117188 C 1511.246094 50.488281 1483.890625 23.128906 1450.257812 23.128906 C 1416.628906 23.128906 1389.273438 50.488281 1389.273438 84.117188 L 1389.273438 104.445312 L 1185.984375 104.445312 L 1185.984375 84.117188 C 1185.984375 50.488281 1158.628906 23.128906 1124.996094 23.128906 C 1091.367188 23.128906 1064.011719 50.488281 1064.011719 84.117188 L 1064.011719 104.445312 L 860.722656 104.445312 L 860.722656 84.117188 C 860.722656 50.488281 833.363281 23.128906 799.734375 23.128906 C 766.105469 23.128906 738.746094 50.488281 738.746094 84.117188 L 738.746094 104.445312 L 616.773438 104.445312 C 560.730469 104.445312 515.128906 150.046875 515.128906 206.089844 L 515.128906 1141.21875 C 515.128906 1197.261719 560.730469 1242.863281 616.773438 1242.863281 L 1633.21875 1242.863281 C 1689.261719 1242.863281 1734.863281 1197.261719 1734.863281 1141.21875 L 1734.863281 206.089844 C 1734.863281 150.046875 1689.261719 104.445312 1633.21875 104.445312 " fill-opacity="1" fill-rule="nonzero"/></g><path fill="#f1863d" d="M 1572.234375 612.667969 L 1531.574219 612.667969 L 1531.574219 572.011719 L 1572.234375 572.011719 Z M 1592.5625 531.351562 L 1511.246094 531.351562 C 1500.019531 531.351562 1490.917969 540.453125 1490.917969 551.679688 L 1490.917969 632.996094 C 1490.917969 644.222656 1500.019531 653.324219 1511.246094 653.324219 L 1592.5625 653.324219 C 1603.789062 653.324219 1612.890625 644.222656 1612.890625 632.996094 L 1612.890625 551.679688 C 1612.890625 540.453125 1603.789062 531.351562 1592.5625 531.351562 " fill-opacity="1" fill-rule="nonzero"/><path fill="#f1863d" d="M 1165.65625 1019.246094 L 1124.996094 1019.246094 L 1124.996094 978.589844 L 1165.65625 978.589844 Z M 1185.984375 937.929688 L 1104.667969 937.929688 C 1093.441406 937.929688 1084.339844 947.03125 1084.339844 958.257812 L 1084.339844 1039.574219 C 1084.339844 1050.800781 1093.441406 1059.902344 1104.667969 1059.902344 L 1185.984375 1059.902344 C 1197.210938 1059.902344 1206.3125 1050.800781 1206.3125 1039.574219 L 1206.3125 958.257812 C 1206.3125 947.03125 1197.210938 937.929688 1185.984375 937.929688 " fill-opacity="1" fill-rule="nonzero"/><path fill="#f1863d" d="M 962.367188 612.667969 L 921.707031 612.667969 L 921.707031 572.011719 L 962.367188 572.011719 Z M 982.695312 531.351562 L 901.378906 531.351562 C 890.152344 531.351562 881.050781 540.453125 881.050781 551.679688 L 881.050781 632.996094 C 881.050781 644.222656 890.152344 653.324219 901.378906 653.324219 L 982.695312 653.324219 C 993.921875 653.324219 1003.023438 644.222656 1003.023438 632.996094 L 1003.023438 551.679688 C 1003.023438 540.453125 993.921875 531.351562 982.695312 531.351562 " fill-opacity="1" fill-rule="nonzero"/><path fill="#f1863d" d="M 759.078125 815.957031 L 718.417969 815.957031 L 718.417969 775.300781 L 759.078125 775.300781 Z M 779.40625 734.640625 L 698.089844 734.640625 C 686.863281 734.640625 677.761719 743.742188 677.761719 754.96875 L 677.761719 836.285156 C 677.761719 847.511719 686.863281 856.613281 698.089844 856.613281 L 779.40625 856.613281 C 790.632812 856.613281 799.734375 847.511719 799.734375 836.285156 L 799.734375 754.96875 C 799.734375 743.742188 790.632812 734.640625 779.40625 734.640625 " fill-opacity="1" fill-rule="nonzero"/><path fill="#f1863d" d="M 962.367188 815.957031 L 921.707031 815.957031 L 921.707031 775.300781 L 962.367188 775.300781 Z M 982.695312 734.640625 L 901.378906 734.640625 C 890.152344 734.640625 881.050781 743.742188 881.050781 754.96875 L 881.050781 836.285156 C 881.050781 847.511719 890.152344 856.613281 901.378906 856.613281 L 982.695312 856.613281 C 993.921875 856.613281 1003.023438 847.511719 1003.023438 836.285156 L 1003.023438 754.96875 C 1003.023438 743.742188 993.921875 734.640625 982.695312 734.640625 " fill-opacity="1" fill-rule="nonzero"/><path fill="#f1863d" d="M 759.078125 1019.246094 L 718.417969 1019.246094 L 718.417969 978.589844 L 759.078125 978.589844 Z M 779.40625 937.929688 L 698.089844 937.929688 C 686.863281 937.929688 677.761719 947.03125 677.761719 958.257812 L 677.761719 1039.574219 C 677.761719 1050.800781 686.863281 1059.902344 698.089844 1059.902344 L 779.40625 1059.902344 C 790.632812 1059.902344 799.734375 1050.800781 799.734375 1039.574219 L 799.734375 958.257812 C 799.734375 947.03125 790.632812 937.929688 779.40625 937.929688 " fill-opacity="1" fill-rule="nonzero"/><path fill="#f1863d" d="M 962.367188 1019.246094 L 921.707031 1019.246094 L 921.707031 978.589844 L 962.367188 978.589844 Z M 982.695312 937.929688 L 901.378906 937.929688 C 890.152344 937.929688 881.050781 947.03125 881.050781 958.257812 L 881.050781 1039.574219 C 881.050781 1050.800781 890.152344 1059.902344 901.378906 1059.902344 L 982.695312 1059.902344 C 993.921875 1059.902344 1003.023438 1050.800781 1003.023438 1039.574219 L 1003.023438 958.257812 C 1003.023438 947.03125 993.921875 937.929688 982.695312 937.929688 " fill-opacity="1" fill-rule="nonzero"/><path fill="#f1863d" d="M 1313.734375 704.40625 C 1309.226562 709.023438 1307.183594 715.511719 1308.226562 721.875 L 1320.683594 798.238281 L 1256.808594 762.929688 C 1253.738281 761.242188 1250.355469 760.398438 1246.96875 760.398438 C 1243.585938 760.398438 1240.199219 761.242188 1237.132812 762.929688 L 1173.257812 798.238281 L 1185.714844 721.875 C 1186.757812 715.511719 1184.714844 709.023438 1180.207031 704.40625 L 1126.515625 649.386719 L 1199.792969 638.1875 C 1206.492188 637.164062 1212.238281 632.867188 1215.117188 626.734375 L 1246.96875 558.867188 L 1278.824219 626.734375 C 1281.703125 632.867188 1287.449219 637.164062 1294.148438 638.1875 L 1367.425781 649.386719 Z M 1412.667969 615.167969 L 1311.015625 599.636719 L 1265.375 502.386719 C 1262.027344 495.25 1254.851562 490.695312 1246.96875 490.695312 C 1239.089844 490.695312 1231.914062 495.25 1228.566406 502.386719 L 1182.925781 599.636719 L 1081.273438 615.167969 C 1073.738281 616.320312 1067.484375 621.582031 1065.0625 628.808594 C 1062.640625 636.035156 1064.46875 644.003906 1069.789062 649.464844 L 1143.9375 725.460938 L 1126.398438 833.011719 C 1125.144531 840.691406 1128.390625 848.414062 1134.753906 852.902344 C 1141.117188 857.390625 1149.484375 857.847656 1156.292969 854.074219 L 1246.96875 803.957031 L 1337.644531 854.074219 C 1340.722656 855.769531 1344.109375 856.613281 1347.484375 856.613281 C 1351.59375 856.613281 1355.691406 855.363281 1359.1875 852.902344 C 1365.550781 848.414062 1368.792969 840.691406 1367.542969 833.011719 L 1350.003906 725.460938 L 1424.152344 649.464844 C 1429.472656 644.003906 1431.300781 636.035156 1428.878906 628.808594 C 1426.457031 621.582031 1420.203125 616.320312 1412.667969 615.167969 " fill-opacity="1" fill-rule="nonzero"/><path fill="#f1863d" d="M 1572.234375 815.957031 L 1531.574219 815.957031 L 1531.574219 775.300781 L 1572.234375 775.300781 Z M 1592.5625 734.640625 L 1511.246094 734.640625 C 1500.019531 734.640625 1490.917969 743.742188 1490.917969 754.96875 L 1490.917969 836.285156 C 1490.917969 847.511719 1500.019531 856.613281 1511.246094 856.613281 L 1592.5625 856.613281 C 1603.789062 856.613281 1612.890625 847.511719 1612.890625 836.285156 L 1612.890625 754.96875 C 1612.890625 743.742188 1603.789062 734.640625 1592.5625 734.640625 " fill-opacity="1" fill-rule="nonzero"/><path fill="#f1863d" d="M 1572.234375 1019.246094 L 1531.574219 1019.246094 L 1531.574219 978.589844 L 1572.234375 978.589844 Z M 1592.5625 937.929688 L 1511.246094 937.929688 C 1500.019531 937.929688 1490.917969 947.03125 1490.917969 958.257812 L 1490.917969 1039.574219 C 1490.917969 1050.800781 1500.019531 1059.902344 1511.246094 1059.902344 L 1592.5625 1059.902344 C 1603.789062 1059.902344 1612.890625 1050.800781 1612.890625 1039.574219 L 1612.890625 958.257812 C 1612.890625 947.03125 1603.789062 937.929688 1592.5625 937.929688 " fill-opacity="1" fill-rule="nonzero"/><path fill="#f1863d" d="M 1368.945312 1019.246094 L 1328.285156 1019.246094 L 1328.285156 978.589844 L 1368.945312 978.589844 Z M 1389.273438 937.929688 L 1307.957031 937.929688 C 1296.730469 937.929688 1287.628906 947.03125 1287.628906 958.257812 L 1287.628906 1039.574219 C 1287.628906 1050.800781 1296.730469 1059.902344 1307.957031 1059.902344 L 1389.273438 1059.902344 C 1400.5 1059.902344 1409.601562 1050.800781 1409.601562 1039.574219 L 1409.601562 958.257812 C 1409.601562 947.03125 1400.5 937.929688 1389.273438 937.929688 " fill-opacity="1" fill-rule="nonzero"/></svg>