<svg xmlns="http://www.w3.org/2000/svg" xmlns:xlink="http://www.w3.org/1999/xlink" width="3000" zoomAndPan="magnify" viewBox="0 0 2250 1265.999941" height="1688" preserveAspectRatio="xMidYMid meet" version="1.0"><defs><clipPath id="8ae71a5c36"><path d="M 564.070312 173 L 1686 173 L 1686 1164.269531 L 564.070312 1164.269531 Z M 564.070312 173 " clip-rule="nonzero"/></clipPath><clipPath id="ac8a5f0bae"><path d="M 701 101.519531 L 741 101.519531 L 741 256 L 701 256 Z M 701 101.519531 " clip-rule="nonzero"/></clipPath><clipPath id="f66ceb991b"><path d="M 901 101.519531 L 942 101.519531 L 942 256 L 901 256 Z M 901 101.519531 " clip-rule="nonzero"/></clipPath><clipPath id="b1eceec0fb"><path d="M 1101 101.519531 L 1142 101.519531 L 1142 256 L 1101 256 Z M 1101 101.519531 " clip-rule="nonzero"/></clipPath><clipPath id="5bb59d4bde"><path d="M 1301 101.519531 L 1342 101.519531 L 1342 256 L 1301 256 Z M 1301 101.519531 " clip-rule="nonzero"/></clipPath><clipPath id="7485ca2cad"><path d="M 1502 101.519531 L 1543 101.519531 L 1543 256 L 1502 256 Z M 1502 101.519531 " clip-rule="nonzero"/></clipPath></defs><g clip-path="url(#8ae71a5c36)"><path fill="#f1863d" d="M 637.308594 173.6875 L 1612.113281 173.6875 C 1652.339844 173.6875 1685.464844 206.8125 1685.464844 246.441406 L 1685.464844 1091.121094 C 1685.464844 1131.34375 1652.339844 1164.46875 1612.113281 1164.46875 L 637.308594 1164.46875 C 597.085938 1164.46875 564.554688 1131.34375 564.554688 1091.121094 L 564.554688 246.441406 C 564.554688 206.8125 597.085938 173.6875 637.308594 173.6875 Z M 637.308594 173.6875 " fill-opacity="1" fill-rule="evenodd"/></g><path fill="#f4f5f6" d="M 1620.992188 392.542969 L 1620.992188 992.921875 C 1620.992188 1043.203125 1579.585938 1084.609375 1529.898438 1084.609375 L 742.011719 1084.609375 C 691.730469 1084.609375 650.324219 1043.203125 650.324219 992.921875 L 650.324219 392.542969 Z M 1620.992188 392.542969 " fill-opacity="1" fill-rule="evenodd"/><path fill="#bbbdbf" d="M 719.53125 668.777344 L 825.410156 668.777344 L 825.410156 774.652344 L 719.53125 774.652344 Z M 719.53125 668.777344 " fill-opacity="1" fill-rule="nonzero"/><path fill="#bbbdbf" d="M 719.53125 819.027344 L 825.410156 819.027344 L 825.410156 924.902344 L 719.53125 924.902344 Z M 719.53125 819.027344 " fill-opacity="1" fill-rule="nonzero"/><path fill="#bbbdbf" d="M 866.816406 518.535156 L 972.691406 518.535156 L 972.691406 624.410156 L 866.816406 624.410156 Z M 866.816406 518.535156 " fill-opacity="1" fill-rule="nonzero"/><path fill="#bbbdbf" d="M 866.816406 668.777344 L 972.691406 668.777344 L 972.691406 774.652344 L 866.816406 774.652344 Z M 866.816406 668.777344 " fill-opacity="1" fill-rule="nonzero"/><path fill="#bbbdbf" d="M 866.816406 819.027344 L 972.691406 819.027344 L 972.691406 924.902344 L 866.816406 924.902344 Z M 866.816406 819.027344 " fill-opacity="1" fill-rule="nonzero"/><path fill="#bbbdbf" d="M 1014.695312 518.535156 L 1120.570312 518.535156 L 1120.570312 624.410156 L 1014.695312 624.410156 Z M 1014.695312 518.535156 " fill-opacity="1" fill-rule="nonzero"/><path fill="#bbbdbf" d="M 1014.695312 668.777344 L 1120.570312 668.777344 L 1120.570312 774.652344 L 1014.695312 774.652344 Z M 1014.695312 668.777344 " fill-opacity="1" fill-rule="nonzero"/><path fill="#bbbdbf" d="M 1014.695312 819.027344 L 1120.570312 819.027344 L 1120.570312 924.902344 L 1014.695312 924.902344 Z M 1014.695312 819.027344 " fill-opacity="1" fill-rule="nonzero"/><path fill="#bbbdbf" d="M 1161.984375 518.535156 L 1267.863281 518.535156 L 1267.863281 624.410156 L 1161.984375 624.410156 Z M 1161.984375 518.535156 " fill-opacity="1" fill-rule="nonzero"/><path fill="#bbbdbf" d="M 1161.984375 668.777344 L 1267.863281 668.777344 L 1267.863281 774.652344 L 1161.984375 774.652344 Z M 1161.984375 668.777344 " fill-opacity="1" fill-rule="nonzero"/><path fill="#bbbdbf" d="M 1161.984375 819.027344 L 1267.863281 819.027344 L 1267.863281 924.902344 L 1161.984375 924.902344 Z M 1161.984375 819.027344 " fill-opacity="1" fill-rule="nonzero"/><path fill="#bbbdbf" d="M 1309.855469 518.535156 L 1415.730469 518.535156 L 1415.730469 624.410156 L 1309.855469 624.410156 Z M 1309.855469 518.535156 " fill-opacity="1" fill-rule="nonzero"/><path fill="#bbbdbf" d="M 1309.855469 668.777344 L 1415.730469 668.777344 L 1415.730469 774.652344 L 1309.855469 774.652344 Z M 1309.855469 668.777344 " fill-opacity="1" fill-rule="nonzero"/><path fill="#f1863d" d="M 1457.144531 518.535156 L 1563.023438 518.535156 L 1563.023438 624.410156 L 1457.144531 624.410156 Z M 1457.144531 518.535156 " fill-opacity="1" fill-rule="nonzero"/><path fill="#f1863d" d="M 1457.144531 668.777344 L 1563.023438 668.777344 L 1563.023438 774.652344 L 1457.144531 774.652344 Z M 1457.144531 668.777344 " fill-opacity="1" fill-rule="nonzero"/><path fill="#d0d2d4" d="M 1403.320312 1084.609375 L 1620.992188 866.9375 L 1465.425781 866.9375 C 1431.707031 866.9375 1403.320312 894.738281 1403.320312 929.042969 Z M 1403.320312 1084.609375 " fill-opacity="1" fill-rule="evenodd"/><path fill="#bbbdbf" d="M 1620.992188 866.9375 L 1403.320312 1084.609375 L 1529.898438 1084.609375 C 1579.585938 1084.609375 1620.992188 1043.203125 1620.992188 992.921875 L 1620.992188 866.925781 Z M 1620.992188 866.9375 " fill-opacity="1" fill-rule="evenodd"/><g clip-path="url(#ac8a5f0bae)"><path fill="#2b4e72" d="M 720.714844 101.519531 C 731.953125 101.519531 740.820312 110.398438 740.820312 121.628906 L 740.820312 235.199219 C 740.820312 246.441406 731.945312 255.308594 720.714844 255.308594 C 710.070312 255.308594 701.191406 246.429688 701.191406 235.199219 L 701.191406 121.628906 C 701.191406 110.386719 710.070312 101.519531 720.714844 101.519531 Z M 720.714844 101.519531 " fill-opacity="1" fill-rule="evenodd"/></g><g clip-path="url(#f66ceb991b)"><path fill="#2b4e72" d="M 921.238281 101.519531 C 932.476562 101.519531 941.34375 110.398438 941.34375 121.628906 L 941.34375 235.199219 C 941.34375 246.441406 932.46875 255.308594 921.238281 255.308594 C 909.996094 255.308594 901.128906 246.429688 901.128906 235.199219 L 901.128906 121.628906 C 901.128906 110.386719 910.007812 101.519531 921.238281 101.519531 Z M 921.238281 101.519531 " fill-opacity="1" fill-rule="evenodd"/></g><g clip-path="url(#b1eceec0fb)"><path fill="#2b4e72" d="M 1121.761719 101.519531 C 1132.40625 101.519531 1141.28125 110.398438 1141.28125 121.628906 L 1141.28125 235.199219 C 1141.28125 246.441406 1132.40625 255.308594 1121.761719 255.308594 C 1110.523438 255.308594 1101.652344 246.429688 1101.652344 235.199219 L 1101.652344 121.628906 C 1101.652344 110.386719 1110.53125 101.519531 1121.761719 101.519531 Z M 1121.761719 101.519531 " fill-opacity="1" fill-rule="evenodd"/></g><g clip-path="url(#5bb59d4bde)"><path fill="#2b4e72" d="M 1321.691406 101.519531 C 1332.929688 101.519531 1341.796875 110.398438 1341.796875 121.628906 L 1341.796875 235.199219 C 1341.796875 246.441406 1332.921875 255.308594 1321.691406 255.308594 C 1310.449219 255.308594 1301.582031 246.429688 1301.582031 235.199219 L 1301.582031 121.628906 C 1301.582031 110.386719 1310.457031 101.519531 1321.691406 101.519531 Z M 1321.691406 101.519531 " fill-opacity="1" fill-rule="evenodd"/></g><g clip-path="url(#7485ca2cad)"><path fill="#2b4e72" d="M 1522.214844 101.519531 C 1532.859375 101.519531 1542.320312 110.398438 1542.320312 121.628906 L 1542.320312 235.199219 C 1542.320312 246.441406 1532.859375 255.308594 1522.214844 255.308594 C 1510.972656 255.308594 1502.105469 246.429688 1502.105469 235.199219 L 1502.105469 121.628906 C 1502.105469 110.386719 1510.980469 101.519531 1522.214844 101.519531 Z M 1522.214844 101.519531 " fill-opacity="1" fill-rule="evenodd"/></g></svg>