<svg xmlns="http://www.w3.org/2000/svg" xmlns:xlink="http://www.w3.org/1999/xlink" width="3000" zoomAndPan="magnify" viewBox="0 0 2250 1265.999941" height="1688" preserveAspectRatio="xMidYMid meet" version="1.0"><defs><clipPath id="bcbc34ce61"><path d="M 678.03125 177 L 1572.03125 177 L 1572.03125 1088.90625 L 678.03125 1088.90625 Z M 678.03125 177 " clip-rule="nonzero"/></clipPath></defs><g clip-path="url(#bcbc34ce61)"><path fill="#ebb84a" d="M 1254.375 518.597656 C 1253.605469 524.972656 1258.113281 530.800781 1264.488281 531.570312 C 1270.863281 532.339844 1276.691406 527.777344 1277.460938 521.402344 L 1309.613281 262.199219 C 1422.722656 324.417969 1501.375 442.089844 1508.136719 579.660156 L 1572.003906 606.703125 L 1572.003906 672.765625 L 677.984375 672.765625 L 677.984375 606.703125 L 741.90625 579.660156 C 748.664062 442.089844 827.316406 324.417969 940.429688 262.199219 L 972.527344 521.402344 C 973.296875 527.777344 979.125 532.339844 985.5 531.570312 C 991.875 530.800781 996.4375 524.972656 995.613281 518.597656 L 962.46875 250.984375 L 960.160156 232.519531 C 958.566406 219.878906 965.710938 208.113281 977.695312 203.664062 C 1023.589844 186.515625 1073.273438 177.171875 1124.996094 177.171875 C 1176.769531 177.171875 1226.398438 186.515625 1272.347656 203.664062 C 1284.277344 208.113281 1291.421875 219.878906 1289.828125 232.519531 C 1278.007812 327.878906 1266.191406 423.238281 1254.375 518.597656 Z M 1054.039062 987.207031 L 972.035156 1077.125 C 967.195312 1082.457031 961.316406 1085.535156 954.226562 1086.46875 C 929.21875 1089.765625 907.066406 1089.601562 887.773438 1085.917969 L 1044.140625 809.953125 C 1056.5625 809.457031 1069.09375 809.128906 1081.734375 808.964844 L 1089.265625 821.273438 L 1164.011719 821.273438 L 1171.542969 808.964844 C 1244.859375 810.0625 1315.761719 816.164062 1373.96875 828.96875 C 1470.8125 850.296875 1482.078125 974.621094 1436.40625 1041.5625 C 1410.078125 1080.09375 1364.292969 1095.042969 1299.054688 1086.46875 C 1291.964844 1085.535156 1286.082031 1082.457031 1281.246094 1077.125 L 1199.242188 987.207031 C 1179.949219 966.046875 1155.273438 955.109375 1126.636719 955.109375 C 1098 955.109375 1073.328125 966.046875 1054.039062 987.207031 Z M 709.917969 852.382812 L 677.984375 852.382812 L 677.984375 941.257812 L 709.917969 941.257812 Z M 1572.003906 852.382812 L 1543.367188 852.382812 L 1543.367188 941.257812 L 1572.003906 941.257812 Z M 1499.230469 974.894531 L 1501.320312 974.894531 C 1512.753906 974.894531 1522.042969 964.839844 1522.042969 952.472656 L 1522.042969 841.117188 C 1522.042969 828.808594 1512.753906 818.691406 1501.320312 818.691406 L 1492.03125 818.691406 C 1477.964844 779.613281 1457.792969 750.429688 1431.519531 731.25 C 1374.910156 689.914062 1296.804688 723.445312 1234.480469 723.445312 L 1018.808594 723.445312 C 956.480469 723.445312 878.378906 689.917969 821.769531 731.25 C 795.496094 750.429688 775.324219 779.617188 761.253906 818.691406 L 751.96875 818.691406 C 740.535156 818.691406 731.246094 828.804688 731.246094 841.117188 L 731.246094 952.472656 C 731.246094 964.839844 740.535156 974.894531 751.96875 974.894531 L 754.054688 974.894531 C 745.757812 894.925781 784.558594 811 871.125 791.925781 C 952.691406 773.953125 1043.265625 769.996094 1126.644531 770.929688 C 1210.019531 769.996094 1300.601562 773.953125 1382.164062 791.925781 C 1468.726562 810.996094 1507.53125 894.925781 1499.230469 974.894531 Z M 864.800781 1079.433594 C 858.703125 1077.125 853.039062 1074.265625 847.707031 1071.023438 L 994.019531 812.921875 C 1001.492188 812.316406 1009.078125 811.765625 1016.71875 811.324219 Z M 829.296875 1056.515625 C 824.734375 1052.007812 820.613281 1047.007812 816.875 1041.5625 C 771.203125 974.621094 782.46875 850.296875 879.3125 828.96875 C 905.859375 823.089844 935.046875 818.636719 965.878906 815.449219 Z M 843.585938 592.082031 C 837.15625 592.082031 831.933594 586.859375 831.933594 580.429688 C 831.933594 574 837.15625 568.777344 843.585938 568.777344 L 1406.457031 568.777344 C 1412.886719 568.777344 1418.109375 574 1418.109375 580.429688 C 1418.109375 586.859375 1412.886719 592.082031 1406.457031 592.082031 Z M 843.585938 592.082031 " fill-opacity="1" fill-rule="evenodd"/></g></svg>