<svg xmlns="http://www.w3.org/2000/svg" xmlns:xlink="http://www.w3.org/1999/xlink" width="3000" zoomAndPan="magnify" viewBox="0 0 2250 1265.999941" height="1688" preserveAspectRatio="xMidYMid meet" version="1.0"><defs><clipPath id="57a5485cd6"><path d="M 551 661 L 1132 661 L 1132 1139.144531 L 551 1139.144531 Z M 551 661 " clip-rule="nonzero"/></clipPath><clipPath id="cce0ab5a34"><path d="M 1044 103.394531 L 1140 103.394531 L 1140 372 L 1044 372 Z M 1044 103.394531 " clip-rule="nonzero"/></clipPath><clipPath id="a0abf398f4"><path d="M 1146 103.394531 L 1235 103.394531 L 1235 431 L 1146 431 Z M 1146 103.394531 " clip-rule="nonzero"/></clipPath><clipPath id="a80d71fd87"><path d="M 1146 103.394531 L 1196 103.394531 L 1196 261 L 1146 261 Z M 1146 103.394531 " clip-rule="nonzero"/></clipPath><clipPath id="7ca581cda6"><path d="M 1078 103.394531 L 1128 103.394531 L 1128 201 L 1078 201 Z M 1078 103.394531 " clip-rule="nonzero"/></clipPath></defs><path fill="#f1863d" d="M 522.117188 665.769531 L 626.082031 658.988281 L 684.675781 710.542969 L 928.183594 710.542969 L 989.785156 648.9375 C 993.027344 650.523438 996.632812 651.417969 1000.46875 651.417969 C 1013.992188 651.417969 1024.96875 640.4375 1024.96875 626.914062 C 1024.96875 613.390625 1013.992188 602.410156 1000.46875 602.410156 C 986.941406 602.410156 975.964844 613.390625 975.964844 626.914062 C 975.964844 632.964844 978.179688 638.519531 981.851562 642.820312 L 924.050781 700.621094 L 688.378906 700.621094 L 629.519531 648.804688 L 521.886719 655.816406 L 465.636719 590.210938 L 388.195312 590.210938 L 388.195312 600.128906 L 461.074219 600.128906 L 513.121094 660.875 L 477.574219 700.621094 L 341.273438 700.621094 L 341.273438 710.542969 L 482.074219 710.542969 Z M 1000.5 612.332031 C 1008.535156 612.332031 1015.082031 618.878906 1015.082031 626.914062 C 1015.082031 634.949219 1008.535156 641.496094 1000.5 641.496094 C 992.464844 641.496094 985.917969 634.949219 985.917969 626.914062 C 985.917969 618.878906 992.464844 612.332031 1000.5 612.332031 Z M 1000.5 612.332031 " fill-opacity="1" fill-rule="nonzero"/><path fill="#f1863d" d="M 1411.0625 369.023438 C 1408.515625 358.210938 1398.828125 350.109375 1387.222656 350.109375 C 1373.730469 350.109375 1362.71875 361.085938 1362.71875 374.613281 C 1362.71875 388.136719 1373.695312 399.113281 1387.222656 399.113281 C 1399.257812 399.113281 1409.246094 390.382812 1411.328125 378.941406 L 1491.679688 378.941406 L 1663.167969 225.082031 L 1691.804688 225.082031 L 1691.804688 215.160156 L 1659.363281 215.160156 L 1487.878906 369.023438 Z M 1387.222656 389.195312 C 1379.1875 389.195312 1372.640625 382.648438 1372.640625 374.613281 C 1372.640625 366.574219 1379.1875 360.027344 1387.222656 360.027344 C 1395.257812 360.027344 1401.804688 366.574219 1401.804688 374.613281 C 1401.804688 382.648438 1395.257812 389.195312 1387.222656 389.195312 Z M 1387.222656 389.195312 " fill-opacity="1" fill-rule="nonzero"/><path fill="#f1863d" d="M 1511.949219 495.503906 L 1305.414062 495.503906 L 1251.347656 547.421875 C 1247.445312 544.808594 1242.75 543.253906 1237.691406 543.253906 C 1224.167969 543.253906 1213.1875 554.234375 1213.1875 567.757812 C 1213.1875 581.28125 1224.167969 592.261719 1237.691406 592.261719 C 1251.214844 592.261719 1262.195312 581.28125 1262.195312 567.757812 C 1262.195312 562.863281 1260.738281 558.332031 1258.257812 554.496094 L 1309.382812 505.425781 L 1516.25 505.425781 L 1692.433594 315.15625 L 1746.628906 315.15625 L 1746.628906 305.238281 L 1688.101562 305.238281 L 1511.917969 495.503906 Z M 1237.691406 582.339844 C 1229.65625 582.339844 1223.109375 575.792969 1223.109375 567.757812 C 1223.109375 559.722656 1229.65625 553.175781 1237.691406 553.175781 C 1245.726562 553.175781 1252.273438 559.722656 1252.273438 567.757812 C 1252.273438 575.792969 1245.726562 582.339844 1237.691406 582.339844 Z M 1237.691406 582.339844 " fill-opacity="1" fill-rule="nonzero"/><path fill="#f1863d" d="M 1824.171875 510.75 L 1706.882812 510.75 L 1629.371094 596.492188 L 1370.917969 596.492188 C 1369.628906 584.191406 1359.179688 574.570312 1346.550781 574.570312 C 1333.023438 574.570312 1322.046875 585.546875 1322.046875 599.070312 C 1322.046875 612.597656 1333.023438 623.574219 1346.550781 623.574219 C 1357.496094 623.574219 1366.785156 616.367188 1369.925781 606.414062 L 1633.769531 606.414062 L 1711.28125 520.667969 L 1824.171875 520.667969 Z M 1346.550781 613.65625 C 1338.511719 613.65625 1331.964844 607.105469 1331.964844 599.070312 C 1331.964844 591.035156 1338.511719 584.488281 1346.550781 584.488281 C 1354.585938 584.488281 1361.132812 591.035156 1361.132812 599.070312 C 1361.132812 607.105469 1354.585938 613.65625 1346.550781 613.65625 Z M 1346.550781 613.65625 " fill-opacity="1" fill-rule="nonzero"/><path fill="#f1863d" d="M 1756.582031 853.722656 L 1706.980469 895.421875 L 1620.675781 810.238281 L 1368.96875 810.238281 C 1366.652344 799.09375 1356.765625 790.695312 1344.960938 790.695312 C 1331.4375 790.695312 1320.457031 801.675781 1320.457031 815.199219 C 1320.457031 828.722656 1331.4375 839.703125 1344.960938 839.703125 C 1356.765625 839.703125 1366.652344 831.300781 1368.96875 820.160156 L 1616.609375 820.160156 L 1706.453125 908.8125 L 1760.21875 863.609375 L 1908.757812 863.609375 L 1908.757812 853.6875 L 1756.617188 853.6875 Z M 1344.960938 829.78125 C 1336.925781 829.78125 1330.378906 823.234375 1330.378906 815.199219 C 1330.378906 807.164062 1336.925781 800.617188 1344.960938 800.617188 C 1352.996094 800.617188 1359.542969 807.164062 1359.542969 815.199219 C 1359.542969 823.234375 1352.996094 829.78125 1344.960938 829.78125 Z M 1344.960938 829.78125 " fill-opacity="1" fill-rule="nonzero"/><path fill="#f1863d" d="M 1586.617188 868.964844 L 1399.589844 868.964844 C 1397.273438 857.824219 1387.386719 849.421875 1375.582031 849.421875 C 1362.058594 849.421875 1351.078125 860.402344 1351.078125 873.925781 C 1351.078125 887.449219 1362.058594 898.429688 1375.582031 898.429688 C 1387.386719 898.429688 1397.273438 890.03125 1399.589844 878.886719 L 1582.582031 878.886719 L 1685.949219 979.875 L 1784.292969 979.875 L 1784.292969 969.953125 L 1690.019531 969.953125 L 1586.648438 868.964844 Z M 1375.550781 888.507812 C 1367.511719 888.507812 1360.964844 881.960938 1360.964844 873.925781 C 1360.964844 865.890625 1367.511719 859.34375 1375.550781 859.34375 C 1382.328125 859.34375 1387.949219 864.007812 1389.601562 870.257812 L 1389.601562 877.597656 C 1387.949219 883.847656 1382.292969 888.507812 1375.550781 888.507812 Z M 1375.550781 888.507812 " fill-opacity="1" fill-rule="nonzero"/><path fill="#f1863d" d="M 1263.054688 754.421875 C 1273.769531 751.808594 1281.738281 742.152344 1281.738281 730.644531 C 1281.738281 717.121094 1270.757812 706.144531 1257.234375 706.144531 C 1243.710938 706.144531 1232.730469 717.121094 1232.730469 730.644531 C 1232.730469 742.75 1241.558594 752.800781 1253.132812 754.785156 L 1253.132812 849.820312 L 1295.425781 903.851562 L 1295.425781 1061.878906 L 1305.347656 1061.878906 L 1305.347656 900.445312 L 1263.054688 846.414062 Z M 1242.652344 730.644531 C 1242.652344 722.609375 1249.199219 716.0625 1257.234375 716.0625 C 1265.269531 716.0625 1271.816406 722.609375 1271.816406 730.644531 C 1271.816406 738.679688 1265.269531 745.230469 1257.234375 745.230469 C 1249.199219 745.230469 1242.652344 738.679688 1242.652344 730.644531 Z M 1242.652344 730.644531 " fill-opacity="1" fill-rule="nonzero"/><path fill="#f1863d" d="M 1192.589844 771.484375 C 1205.21875 770.523438 1215.207031 759.945312 1215.207031 747.082031 C 1215.207031 733.589844 1204.226562 722.578125 1190.703125 722.578125 C 1177.179688 722.578125 1166.199219 733.554688 1166.199219 747.082031 C 1166.199219 757.792969 1173.113281 766.886719 1182.667969 770.195312 L 1182.667969 926.371094 L 1243.742188 990.984375 L 1243.742188 1087.671875 L 1253.664062 1087.671875 L 1253.664062 987.050781 L 1192.589844 922.4375 Z M 1176.085938 747.082031 C 1176.085938 739.046875 1182.636719 732.496094 1190.671875 732.496094 C 1198.707031 732.496094 1205.253906 739.046875 1205.253906 747.082031 C 1205.253906 755.117188 1198.707031 761.664062 1190.671875 761.664062 C 1182.636719 761.664062 1176.085938 755.117188 1176.085938 747.082031 Z M 1176.085938 747.082031 " fill-opacity="1" fill-rule="nonzero"/><g clip-path="url(#57a5485cd6)"><path fill="#f1863d" d="M 966.9375 789.242188 L 1067.496094 690.964844 L 1082.96875 690.964844 C 1085.285156 702.109375 1095.140625 710.507812 1106.976562 710.507812 C 1120.5 710.507812 1131.480469 699.53125 1131.480469 686.003906 C 1131.480469 672.480469 1120.5 661.503906 1106.976562 661.503906 C 1095.171875 661.503906 1085.285156 669.902344 1082.96875 681.046875 L 1063.460938 681.046875 L 957.316406 784.777344 L 948.089844 920.617188 L 691.71875 919.425781 L 691.71875 1043.066406 L 589.175781 1129.667969 L 551.050781 1129.667969 L 551.050781 1139.589844 L 592.78125 1139.589844 L 701.640625 1047.660156 L 701.640625 929.378906 L 957.347656 930.570312 L 966.9375 789.207031 Z M 1106.945312 671.421875 C 1114.980469 671.421875 1121.527344 677.96875 1121.527344 686.003906 C 1121.527344 694.039062 1114.980469 700.589844 1106.945312 700.589844 C 1100.660156 700.589844 1095.335938 696.554688 1093.285156 690.964844 L 1093.652344 690.964844 L 1093.652344 681.046875 L 1093.285156 681.046875 C 1095.335938 675.457031 1100.660156 671.421875 1106.945312 671.421875 Z M 1106.945312 671.421875 " fill-opacity="1" fill-rule="nonzero"/></g><path fill="#f1863d" d="M 710.433594 878.886719 L 895.082031 878.886719 C 897.398438 890.03125 907.25 898.429688 919.089844 898.429688 C 932.613281 898.429688 943.589844 887.449219 943.589844 873.925781 C 943.589844 860.402344 932.613281 849.421875 919.089844 849.421875 C 907.285156 849.421875 897.398438 857.824219 895.082031 868.964844 L 706.402344 868.964844 L 614.804688 958.214844 L 445.335938 958.214844 L 445.335938 968.136719 L 618.839844 968.136719 Z M 919.089844 859.34375 C 927.125 859.34375 933.671875 865.890625 933.671875 873.925781 C 933.671875 881.960938 927.125 888.507812 919.089844 888.507812 C 911.054688 888.507812 904.507812 881.960938 904.507812 873.925781 C 904.507812 865.890625 911.054688 859.34375 919.089844 859.34375 Z M 919.089844 859.34375 " fill-opacity="1" fill-rule="nonzero"/><path fill="#f1863d" d="M 570.460938 531.25 L 631.535156 580.585938 L 829.90625 580.585938 L 858.078125 635.777344 L 909.101562 635.777344 C 912.675781 644.902344 921.535156 651.417969 931.917969 651.417969 C 945.410156 651.417969 956.421875 640.4375 956.421875 626.914062 C 956.421875 613.390625 945.445312 602.410156 931.917969 602.410156 C 918.394531 602.410156 908.011719 612.828125 907.484375 625.855469 L 864.164062 625.855469 L 835.992188 570.667969 L 635.042969 570.667969 L 573.964844 521.332031 L 517.949219 521.332031 L 470.101562 471.199219 L 462.925781 478.046875 L 513.71875 531.25 Z M 931.953125 612.332031 C 939.988281 612.332031 946.535156 618.878906 946.535156 626.914062 C 946.535156 634.949219 939.988281 641.496094 931.953125 641.496094 C 924.378906 641.496094 918.230469 635.710938 917.5 628.335938 L 917.5 625.890625 L 917.46875 625.890625 C 918.03125 618.351562 924.28125 612.363281 931.953125 612.363281 Z M 931.953125 612.332031 " fill-opacity="1" fill-rule="nonzero"/><path fill="#f1863d" d="M 783.910156 498.382812 L 964.523438 498.382812 L 1039.1875 585.84375 C 1035.652344 590.078125 1033.535156 595.535156 1033.535156 601.484375 C 1033.535156 615.011719 1044.511719 625.988281 1058.039062 625.988281 C 1071.5625 625.988281 1082.539062 615.011719 1082.539062 601.484375 C 1082.539062 587.960938 1071.5625 576.984375 1058.039062 576.984375 C 1054.035156 576.984375 1050.300781 577.976562 1046.960938 579.660156 L 969.121094 488.460938 L 788.011719 488.460938 L 676.441406 378.050781 L 567.519531 378.050781 L 567.519531 387.96875 L 672.339844 387.96875 Z M 1072.585938 601.453125 C 1072.585938 609.488281 1066.039062 616.035156 1058.003906 616.035156 C 1049.96875 616.035156 1043.421875 609.488281 1043.421875 601.453125 C 1043.421875 593.417969 1049.96875 586.871094 1058.003906 586.871094 C 1066.039062 586.871094 1072.585938 593.417969 1072.585938 601.453125 Z M 1072.585938 601.453125 " fill-opacity="1" fill-rule="nonzero"/><path fill="#f1863d" d="M 667.511719 283.511719 L 762.054688 376.230469 L 964.160156 376.230469 C 966.671875 387.078125 976.394531 395.210938 988 395.210938 C 1001.527344 395.210938 1012.503906 384.234375 1012.503906 370.710938 C 1012.503906 357.183594 1001.527344 346.207031 988 346.207031 C 975.996094 346.207031 965.976562 354.902344 963.929688 366.3125 L 766.121094 366.3125 L 677.433594 279.34375 L 677.433594 230.570312 L 574.890625 132.789062 L 568.046875 139.964844 L 667.511719 234.804688 Z M 988 356.125 C 996.035156 356.125 1002.582031 362.675781 1002.582031 370.710938 C 1002.582031 378.746094 996.035156 385.292969 988 385.292969 C 979.964844 385.292969 973.417969 378.746094 973.417969 370.710938 C 973.417969 362.675781 979.964844 356.125 988 356.125 Z M 988 356.125 " fill-opacity="1" fill-rule="nonzero"/><path fill="#f1863d" d="M 931.222656 336.285156 L 968.722656 300.441406 C 971.535156 301.566406 974.542969 302.195312 977.75 302.195312 C 991.273438 302.195312 1002.253906 291.214844 1002.253906 277.691406 C 1002.253906 264.167969 991.273438 253.1875 977.75 253.1875 C 964.226562 253.1875 953.246094 264.167969 953.246094 277.691406 C 953.246094 284.371094 955.925781 290.390625 960.257812 294.820312 L 927.257812 326.367188 L 851.398438 326.367188 L 735.402344 212.679688 L 728.457031 219.757812 L 847.367188 336.285156 L 931.257812 336.285156 Z M 977.71875 263.109375 C 985.753906 263.109375 992.300781 269.65625 992.300781 277.691406 C 992.300781 285.726562 985.753906 292.273438 977.71875 292.273438 C 969.683594 292.273438 963.132812 285.726562 963.132812 277.691406 C 963.132812 269.65625 969.683594 263.109375 977.71875 263.109375 Z M 977.71875 263.109375 " fill-opacity="1" fill-rule="nonzero"/><path fill="#f1863d" d="M 1018.222656 364.097656 L 1098.082031 435.753906 L 1098.082031 478.011719 C 1086.9375 480.328125 1078.539062 490.179688 1078.539062 502.019531 C 1078.539062 515.542969 1089.515625 526.523438 1103.042969 526.523438 C 1116.566406 526.523438 1127.542969 515.542969 1127.542969 502.019531 C 1127.542969 490.214844 1119.144531 480.328125 1108.003906 478.011719 L 1108.003906 431.320312 L 1028.144531 359.664062 L 1028.144531 264.367188 L 1002.320312 215.027344 L 1002.320312 148.132812 L 992.398438 148.132812 L 992.398438 217.476562 L 1018.222656 266.8125 L 1018.222656 364.128906 Z M 1117.625 501.988281 C 1117.625 510.023438 1111.078125 516.570312 1103.042969 516.570312 C 1095.007812 516.570312 1088.460938 510.023438 1088.460938 501.988281 C 1088.460938 493.949219 1095.007812 487.402344 1103.042969 487.402344 C 1111.078125 487.402344 1117.625 493.949219 1117.625 501.988281 Z M 1117.625 501.988281 " fill-opacity="1" fill-rule="nonzero"/><g clip-path="url(#cce0ab5a34)"><path fill="#f1863d" d="M 1112.167969 322.894531 C 1099.867188 324.183594 1090.246094 334.632812 1090.246094 347.265625 C 1090.246094 360.757812 1101.222656 371.769531 1114.746094 371.769531 C 1128.273438 371.769531 1139.25 360.789062 1139.25 347.265625 C 1139.25 336.320312 1132.007812 326.996094 1122.089844 323.886719 L 1122.089844 263.738281 L 1053.96875 183.878906 L 1053.96875 103.492188 L 1044.050781 103.492188 L 1044.050781 187.550781 L 1112.167969 267.40625 L 1112.167969 322.925781 Z M 1129.363281 347.265625 C 1129.363281 355.300781 1122.816406 361.847656 1114.78125 361.847656 C 1106.746094 361.847656 1100.199219 355.300781 1100.199219 347.265625 C 1100.199219 339.230469 1106.746094 332.683594 1114.78125 332.683594 C 1122.816406 332.683594 1129.363281 339.230469 1129.363281 347.265625 Z M 1129.363281 347.265625 " fill-opacity="1" fill-rule="nonzero"/></g><path fill="#f1863d" d="M 1234.847656 293.167969 L 1224.925781 293.167969 L 1224.925781 359.003906 C 1213.785156 361.320312 1205.386719 371.207031 1205.386719 383.011719 C 1205.386719 396.535156 1216.363281 407.511719 1229.886719 407.511719 C 1243.414062 407.511719 1254.390625 396.535156 1254.390625 383.011719 C 1254.390625 371.207031 1245.992188 361.320312 1234.847656 359.003906 Z M 1244.46875 383.011719 C 1244.46875 391.046875 1237.921875 397.59375 1229.886719 397.59375 C 1221.851562 397.59375 1215.304688 391.046875 1215.304688 383.011719 C 1215.304688 376.726562 1219.339844 371.402344 1224.925781 369.355469 L 1224.925781 370.082031 L 1234.847656 370.082031 L 1234.847656 369.355469 C 1240.4375 371.402344 1244.46875 376.726562 1244.46875 383.011719 Z M 1244.46875 383.011719 " fill-opacity="1" fill-rule="nonzero"/><path fill="#f1863d" d="M 1012.769531 490.28125 C 1012.769531 503.804688 1023.746094 514.785156 1037.269531 514.785156 C 1050.796875 514.785156 1061.773438 503.804688 1061.773438 490.28125 C 1061.773438 478.476562 1053.375 468.589844 1042.230469 466.273438 L 1042.230469 409.761719 L 795.320312 409.761719 L 795.320312 419.683594 L 1032.3125 419.683594 L 1032.3125 466.273438 C 1021.167969 468.589844 1012.769531 478.476562 1012.769531 490.28125 Z M 1051.855469 490.28125 C 1051.855469 498.316406 1045.304688 504.863281 1037.269531 504.863281 C 1029.234375 504.863281 1022.6875 498.316406 1022.6875 490.28125 C 1022.6875 482.246094 1029.234375 475.699219 1037.269531 475.699219 C 1045.304688 475.699219 1051.855469 482.246094 1051.855469 490.28125 Z M 1051.855469 490.28125 " fill-opacity="1" fill-rule="nonzero"/><path fill="#f1863d" d="M 1148.441406 523.710938 C 1134.917969 523.710938 1123.941406 534.691406 1123.941406 548.214844 C 1123.941406 561.738281 1134.917969 572.71875 1148.441406 572.71875 C 1161.96875 572.71875 1172.945312 561.738281 1172.945312 548.214844 C 1172.945312 543.519531 1171.589844 539.152344 1169.308594 535.417969 L 1343.738281 367.800781 L 1345.257812 366.34375 L 1345.257812 305.269531 L 1429.347656 296.175781 L 1529.210938 205.835938 L 1522.566406 198.496094 L 1425.117188 286.6875 L 1335.371094 296.375 L 1335.371094 362.144531 L 1162.5625 528.207031 C 1158.5625 525.398438 1153.734375 523.746094 1148.476562 523.746094 Z M 1148.441406 562.796875 C 1140.40625 562.796875 1133.859375 556.25 1133.859375 548.214844 C 1133.859375 540.179688 1140.40625 533.632812 1148.441406 533.632812 C 1156.480469 533.632812 1163.027344 540.179688 1163.027344 548.214844 C 1163.027344 556.25 1156.480469 562.796875 1148.441406 562.796875 Z M 1148.441406 562.796875 " fill-opacity="1" fill-rule="nonzero"/><g clip-path="url(#a0abf398f4)"><path fill="#f1863d" d="M 1171.128906 430.957031 C 1184.652344 430.957031 1195.628906 419.980469 1195.628906 406.457031 C 1195.628906 394.648438 1187.230469 384.796875 1176.121094 382.480469 L 1176.121094 312.246094 L 1234.847656 253.519531 L 1234.847656 103.492188 L 1224.929688 103.492188 L 1224.929688 249.417969 L 1166.199219 308.144531 L 1166.199219 382.449219 C 1155.058594 384.730469 1146.625 394.617188 1146.625 406.457031 C 1146.625 419.980469 1157.601562 430.957031 1171.128906 430.957031 Z M 1167.457031 392.402344 L 1174.796875 392.402344 C 1181.046875 394.054688 1185.710938 399.675781 1185.710938 406.457031 C 1185.710938 414.492188 1179.164062 421.039062 1171.128906 421.039062 C 1163.09375 421.039062 1156.542969 414.492188 1156.542969 406.457031 C 1156.542969 399.675781 1161.207031 394.054688 1167.457031 392.402344 Z M 1167.457031 392.402344 " fill-opacity="1" fill-rule="nonzero"/></g><g clip-path="url(#a80d71fd87)"><path fill="#f1863d" d="M 1171.160156 260.265625 C 1184.683594 260.265625 1195.664062 249.285156 1195.664062 235.761719 C 1195.664062 223.957031 1187.265625 214.070312 1176.152344 211.789062 L 1176.152344 103.492188 L 1166.234375 103.492188 L 1166.234375 211.789062 C 1155.089844 214.070312 1146.65625 223.957031 1146.65625 235.796875 C 1146.65625 249.320312 1157.636719 260.296875 1171.160156 260.296875 Z M 1171.160156 221.179688 C 1179.195312 221.179688 1185.742188 227.726562 1185.742188 235.761719 C 1185.742188 243.796875 1179.195312 250.34375 1171.160156 250.34375 C 1163.125 250.34375 1156.578125 243.796875 1156.578125 235.761719 C 1156.578125 227.726562 1163.125 221.179688 1171.160156 221.179688 Z M 1171.160156 221.179688 " fill-opacity="1" fill-rule="nonzero"/></g><path fill="#f1863d" d="M 1280.679688 353.480469 C 1294.203125 353.480469 1305.183594 342.503906 1305.183594 328.980469 C 1305.183594 316.644531 1296.023438 306.460938 1284.183594 304.742188 L 1284.183594 131.964844 L 1274.265625 131.964844 L 1274.265625 305.335938 C 1263.847656 308.179688 1256.175781 317.667969 1256.175781 328.945312 C 1256.175781 342.46875 1267.15625 353.449219 1280.679688 353.449219 Z M 1280.679688 314.394531 C 1288.714844 314.394531 1295.261719 320.941406 1295.261719 328.980469 C 1295.261719 337.015625 1288.714844 343.5625 1280.679688 343.5625 C 1272.644531 343.5625 1266.097656 337.015625 1266.097656 328.980469 C 1266.097656 320.941406 1272.644531 314.394531 1280.679688 314.394531 Z M 1280.679688 314.394531 " fill-opacity="1" fill-rule="nonzero"/><path fill="#f1863d" d="M 1327.007812 454.402344 C 1338.777344 454.402344 1348.664062 446.035156 1350.980469 434.925781 L 1485.628906 434.925781 L 1517.605469 402.949219 L 1510.59375 395.941406 L 1481.53125 425.003906 L 1351.011719 425.003906 C 1348.730469 413.828125 1338.84375 405.398438 1327.007812 405.398438 C 1313.480469 405.398438 1302.503906 416.375 1302.503906 429.898438 C 1302.503906 443.425781 1313.480469 454.402344 1327.007812 454.402344 Z M 1327.007812 415.316406 C 1335.042969 415.316406 1341.589844 421.863281 1341.589844 429.898438 C 1341.589844 437.933594 1335.042969 444.484375 1327.007812 444.484375 C 1318.972656 444.484375 1312.421875 437.933594 1312.421875 429.898438 C 1312.421875 421.863281 1318.972656 415.316406 1327.007812 415.316406 Z M 1327.007812 415.316406 " fill-opacity="1" fill-rule="nonzero"/><g clip-path="url(#7ca581cda6)"><path fill="#f1863d" d="M 1103.042969 200.808594 C 1116.535156 200.808594 1127.542969 189.832031 1127.542969 176.308594 C 1127.542969 164.503906 1119.144531 154.613281 1108.003906 152.300781 L 1108.003906 103.492188 L 1098.082031 103.492188 L 1098.082031 152.300781 C 1086.9375 154.613281 1078.539062 164.46875 1078.539062 176.308594 C 1078.539062 189.796875 1089.515625 200.808594 1103.042969 200.808594 Z M 1103.042969 161.726562 C 1111.078125 161.726562 1117.625 168.273438 1117.625 176.308594 C 1117.625 184.34375 1111.078125 190.890625 1103.042969 190.890625 C 1095.007812 190.890625 1088.460938 184.34375 1088.460938 176.308594 C 1088.460938 168.273438 1095.007812 161.726562 1103.042969 161.726562 Z M 1103.042969 161.726562 " fill-opacity="1" fill-rule="nonzero"/></g><path fill="#f1863d" d="M 929.539062 535.417969 L 719 535.417969 L 617.054688 442.761719 L 610.375 450.105469 L 715.128906 545.335938 L 929.503906 545.335938 C 931.820312 556.480469 941.675781 564.878906 953.511719 564.878906 C 967.035156 564.878906 978.015625 553.902344 978.015625 540.378906 C 978.015625 526.851562 967.035156 515.875 953.511719 515.875 C 941.707031 515.875 931.820312 524.273438 929.503906 535.417969 Z M 968.09375 540.378906 C 968.09375 548.414062 961.546875 554.960938 953.511719 554.960938 C 945.476562 554.960938 938.929688 548.414062 938.929688 540.378906 C 938.929688 532.34375 945.476562 525.792969 953.511719 525.792969 C 961.546875 525.792969 968.09375 532.34375 968.09375 540.378906 Z M 968.09375 540.378906 " fill-opacity="1" fill-rule="nonzero"/><path fill="#f1863d" d="M 1434.671875 553.96875 L 1597.429688 553.96875 L 1685.785156 470.40625 L 1678.972656 463.199219 L 1593.496094 544.046875 L 1434.671875 544.046875 C 1432.359375 532.902344 1422.472656 524.503906 1410.667969 524.503906 C 1397.175781 524.503906 1386.164062 535.484375 1386.164062 549.007812 C 1386.164062 562.53125 1397.140625 573.511719 1410.667969 573.511719 C 1422.472656 573.511719 1432.359375 565.113281 1434.671875 553.96875 Z M 1396.117188 549.007812 C 1396.117188 540.972656 1402.664062 534.425781 1410.699219 534.425781 C 1418.734375 534.425781 1425.28125 540.972656 1425.28125 549.007812 C 1425.28125 557.042969 1418.734375 563.589844 1410.699219 563.589844 C 1402.664062 563.589844 1396.117188 557.042969 1396.117188 549.007812 Z M 1396.117188 549.007812 " fill-opacity="1" fill-rule="nonzero"/><path fill="#f1863d" d="M 1278.464844 598.113281 C 1264.9375 598.113281 1253.960938 609.089844 1253.960938 622.617188 C 1253.960938 636.140625 1264.9375 647.117188 1278.464844 647.117188 C 1282.132812 647.117188 1285.605469 646.292969 1288.746094 644.835938 L 1340.398438 705.085938 L 1596.171875 705.085938 L 1657.25 639.316406 L 1746.695312 639.316406 L 1746.695312 629.394531 L 1652.917969 629.394531 L 1591.839844 695.164062 L 1344.960938 695.164062 L 1296.75 638.917969 C 1300.617188 634.585938 1303 628.898438 1303 622.648438 C 1303 609.125 1292.019531 598.144531 1278.496094 598.144531 Z M 1263.882812 622.617188 C 1263.882812 614.582031 1270.429688 608.03125 1278.464844 608.03125 C 1286.5 608.03125 1293.046875 614.582031 1293.046875 622.617188 C 1293.046875 625.855469 1291.953125 628.832031 1290.167969 631.246094 L 1290.070312 631.113281 L 1284.582031 635.808594 C 1282.730469 636.667969 1280.679688 637.199219 1278.496094 637.199219 C 1270.460938 637.199219 1263.914062 630.652344 1263.914062 622.617188 Z M 1263.882812 622.617188 " fill-opacity="1" fill-rule="nonzero"/><path fill="#f1863d" d="M 1119.742188 750.1875 C 1119.742188 736.699219 1108.761719 725.6875 1095.238281 725.6875 C 1081.714844 725.6875 1070.734375 736.664062 1070.734375 750.1875 C 1070.734375 761.433594 1078.375 770.921875 1088.691406 773.765625 L 1088.691406 846.019531 L 999.441406 935.265625 L 999.441406 1079.4375 L 1009.363281 1079.4375 L 1009.363281 939.367188 L 1098.609375 850.117188 L 1098.609375 774.394531 C 1110.515625 772.742188 1119.742188 762.523438 1119.742188 750.15625 Z M 1080.65625 750.1875 C 1080.65625 742.152344 1087.203125 735.605469 1095.238281 735.605469 C 1103.273438 735.605469 1109.820312 742.152344 1109.820312 750.1875 C 1109.820312 757.066406 1105.027344 762.789062 1098.609375 764.339844 L 1098.609375 763.546875 L 1089.386719 763.546875 C 1084.261719 761.300781 1080.65625 756.175781 1080.65625 750.1875 Z M 1080.65625 750.1875 " fill-opacity="1" fill-rule="nonzero"/><path fill="#f1863d" d="M 898.71875 788.050781 C 912.210938 788.050781 923.222656 777.074219 923.222656 763.546875 C 923.222656 750.023438 912.242188 739.046875 898.71875 739.046875 C 886.914062 739.046875 877.027344 747.445312 874.710938 758.589844 L 676.410156 758.589844 L 644.695312 726.875 L 457.074219 726.875 L 457.074219 736.796875 L 640.597656 736.796875 L 672.308594 768.507812 L 874.710938 768.507812 C 877.027344 779.652344 886.882812 788.050781 898.71875 788.050781 Z M 898.71875 748.964844 C 906.753906 748.964844 913.300781 755.511719 913.300781 763.546875 C 913.300781 771.582031 906.753906 778.128906 898.71875 778.128906 C 891.875 778.128906 886.1875 773.402344 884.601562 767.019531 L 884.601562 760.042969 C 886.1875 753.695312 891.875 748.933594 898.71875 748.933594 Z M 898.71875 748.964844 " fill-opacity="1" fill-rule="nonzero"/><path fill="#f1863d" d="M 827.558594 817.316406 L 598.503906 817.316406 L 579.71875 786.792969 L 504.128906 786.792969 L 504.128906 796.714844 L 574.164062 796.714844 L 592.945312 827.234375 L 828.1875 827.234375 C 831.0625 837.585938 840.519531 845.191406 851.765625 845.191406 C 865.289062 845.191406 876.265625 834.210938 876.265625 820.6875 C 876.265625 807.164062 865.289062 796.183594 851.765625 796.183594 C 839.398438 796.183594 829.179688 805.410156 827.527344 817.316406 Z M 866.378906 820.6875 C 866.378906 828.722656 859.832031 835.269531 851.796875 835.269531 C 844.953125 835.269531 839.265625 830.542969 837.675781 824.160156 L 837.675781 817.316406 L 837.644531 817.316406 C 839.164062 810.898438 844.917969 806.105469 851.796875 806.105469 C 859.832031 806.105469 866.378906 812.652344 866.378906 820.6875 Z M 866.378906 820.6875 " fill-opacity="1" fill-rule="nonzero"/><path fill="#f1863d" d="M 1058.039062 966.085938 C 1044.511719 966.085938 1033.535156 977.0625 1033.535156 990.585938 C 1033.535156 1002.691406 1042.363281 1012.742188 1053.902344 1014.726562 L 1053.902344 1113.566406 L 1063.824219 1113.566406 L 1063.824219 1014.394531 C 1074.539062 1011.785156 1082.539062 1002.128906 1082.539062 990.621094 C 1082.539062 977.097656 1071.5625 966.117188 1058.039062 966.117188 Z M 1058.039062 1005.171875 C 1050.003906 1005.171875 1043.453125 998.621094 1043.453125 990.585938 C 1043.453125 982.550781 1050.003906 976.003906 1058.039062 976.003906 C 1066.074219 976.003906 1072.621094 982.550781 1072.621094 990.585938 C 1072.621094 998.621094 1066.074219 1005.171875 1058.039062 1005.171875 Z M 1058.039062 1005.171875 " fill-opacity="1" fill-rule="nonzero"/><path fill="#f1863d" d="M 963.234375 954.808594 C 951.195312 954.808594 941.210938 963.503906 939.128906 974.945312 L 799.949219 974.945312 L 755.671875 1027.855469 L 755.671875 1113.53125 L 765.589844 1113.53125 L 765.589844 1031.457031 L 804.578125 984.867188 L 939.359375 984.867188 C 941.871094 995.714844 951.59375 1003.816406 963.199219 1003.816406 C 976.726562 1003.816406 987.703125 992.835938 987.703125 979.3125 C 987.703125 965.789062 976.726562 954.808594 963.199219 954.808594 Z M 963.234375 993.894531 C 955.199219 993.894531 948.652344 987.347656 948.652344 979.3125 C 948.652344 971.277344 955.199219 964.730469 963.234375 964.730469 C 971.269531 964.730469 977.816406 971.277344 977.816406 979.3125 C 977.816406 987.347656 971.269531 993.894531 963.234375 993.894531 Z M 963.234375 993.894531 " fill-opacity="1" fill-rule="nonzero"/><path fill="#f1863d" d="M 1197.019531 1005.171875 C 1183.496094 1005.171875 1172.515625 1016.148438 1172.515625 1029.671875 C 1172.515625 1041.476562 1180.914062 1051.363281 1192.058594 1053.679688 L 1192.058594 1113.566406 L 1201.980469 1113.566406 L 1201.980469 1053.679688 C 1213.121094 1051.367188 1221.523438 1041.476562 1221.523438 1029.671875 C 1221.523438 1016.148438 1210.542969 1005.171875 1197.019531 1005.171875 Z M 1197.019531 1044.253906 C 1188.984375 1044.253906 1182.4375 1037.707031 1182.4375 1029.671875 C 1182.4375 1021.636719 1188.984375 1015.089844 1197.019531 1015.089844 C 1205.054688 1015.089844 1211.601562 1021.636719 1211.601562 1029.671875 C 1211.601562 1037.707031 1205.054688 1044.253906 1197.019531 1044.253906 Z M 1197.019531 1044.253906 " fill-opacity="1" fill-rule="nonzero"/><path fill="#f1863d" d="M 1351.410156 756.769531 L 1634.464844 756.769531 L 1695.539062 693.347656 L 1857.867188 693.347656 L 1857.867188 683.425781 L 1691.339844 683.425781 L 1630.265625 746.847656 L 1353.0625 746.847656 C 1352.5 733.820312 1341.753906 723.40625 1328.625 723.40625 C 1315.5 723.40625 1304.125 734.382812 1304.125 747.90625 C 1304.125 761.433594 1315.101562 772.410156 1328.625 772.410156 C 1339.007812 772.410156 1347.871094 765.894531 1351.441406 756.769531 Z M 1314.011719 747.90625 C 1314.011719 739.871094 1320.558594 733.324219 1328.59375 733.324219 C 1336.628906 733.324219 1343.175781 739.871094 1343.175781 747.90625 C 1343.175781 755.941406 1336.628906 762.488281 1328.59375 762.488281 C 1320.558594 762.488281 1314.011719 755.941406 1314.011719 747.90625 Z M 1314.011719 747.90625 " fill-opacity="1" fill-rule="nonzero"/><path fill="#f1863d" d="M 1147.683594 789.96875 C 1134.15625 789.96875 1123.179688 800.945312 1123.179688 814.472656 C 1123.179688 826.277344 1131.578125 836.164062 1142.722656 838.476562 L 1142.722656 972.730469 L 1100.429688 1010.328125 L 1100.429688 1113.566406 L 1110.351562 1113.566406 L 1110.351562 1014.792969 L 1152.644531 977.195312 L 1152.644531 838.476562 C 1163.785156 836.164062 1172.183594 826.308594 1172.183594 814.472656 C 1172.183594 800.980469 1161.207031 789.96875 1147.683594 789.96875 Z M 1147.683594 829.054688 C 1139.648438 829.054688 1133.101562 822.507812 1133.101562 814.472656 C 1133.101562 806.4375 1139.648438 799.890625 1147.683594 799.890625 C 1155.71875 799.890625 1162.265625 806.4375 1162.265625 814.472656 C 1162.265625 822.507812 1155.71875 829.054688 1147.683594 829.054688 Z M 1147.683594 829.054688 " fill-opacity="1" fill-rule="nonzero"/></svg>