<svg xmlns="http://www.w3.org/2000/svg" xmlns:xlink="http://www.w3.org/1999/xlink" width="3000" zoomAndPan="magnify" viewBox="0 0 2250 1265.999941" height="1688" preserveAspectRatio="xMidYMid meet" version="1.0"><defs><clipPath id="0c1ce46b25"><path d="M 1069 222 L 1220 222 L 1220 1111.507812 L 1069 1111.507812 Z M 1069 222 " clip-rule="nonzero"/></clipPath><clipPath id="6852853521"><path d="M 1001.792969 779 L 1043 779 L 1043 820 L 1001.792969 820 Z M 1001.792969 779 " clip-rule="nonzero"/></clipPath><clipPath id="b4c6ce3ff9"><path d="M 1198 211.507812 L 1230 211.507812 L 1230 243 L 1198 243 Z M 1198 211.507812 " clip-rule="nonzero"/></clipPath><clipPath id="c09549c602"><path d="M 1299 278 L 1330.292969 278 L 1330.292969 310 L 1299 310 Z M 1299 278 " clip-rule="nonzero"/></clipPath></defs><g clip-path="url(#0c1ce46b25)"><path fill="#ffffff" d="M 1219.1875 227.015625 L 1219.1875 633.605469 C 1219.1875 634.847656 1218.695312 636.042969 1217.816406 636.925781 L 1079.066406 775.675781 L 1079.066406 1106.8125 C 1079.0625 1109.40625 1076.960938 1111.507812 1074.367188 1111.507812 C 1071.773438 1111.507812 1069.671875 1109.40625 1069.671875 1106.8125 L 1069.671875 773.730469 C 1069.671875 772.488281 1070.167969 771.292969 1071.046875 770.410156 L 1209.796875 631.660156 L 1209.796875 227.015625 C 1209.796875 224.421875 1211.898438 222.320312 1214.492188 222.320312 C 1217.082031 222.320312 1219.1875 224.421875 1219.1875 227.015625 Z M 1219.1875 227.015625 " fill-opacity="1" fill-rule="nonzero"/></g><path fill="#ffffff" d="M 1149.128906 703.667969 C 1149.128906 704.871094 1148.667969 706.070312 1147.753906 706.988281 C 1145.921875 708.820312 1142.945312 708.820312 1141.109375 706.988281 L 1083.109375 648.984375 C 1082.226562 648.101562 1081.734375 646.910156 1081.734375 645.664062 L 1081.734375 400.449219 C 1081.734375 397.851562 1083.839844 395.753906 1086.429688 395.753906 C 1089.023438 395.753906 1091.125 397.855469 1091.125 400.449219 L 1091.125 643.71875 L 1147.753906 700.347656 C 1148.671875 701.265625 1149.128906 702.464844 1149.128906 703.667969 Z M 1149.128906 703.667969 " fill-opacity="1" fill-rule="nonzero"/><path fill="#ffffff" d="M 1079.0625 1002.292969 C 1079.0625 1003.496094 1078.601562 1004.695312 1077.6875 1005.613281 C 1075.855469 1007.445312 1072.882812 1007.445312 1071.046875 1005.613281 L 1018.785156 953.351562 C 1017.902344 952.472656 1017.414062 951.277344 1017.414062 950.03125 L 1017.414062 815.078125 C 1017.414062 812.484375 1019.515625 810.382812 1022.105469 810.382812 C 1024.699219 810.382812 1026.800781 812.484375 1026.800781 815.078125 L 1026.800781 948.089844 L 1077.683594 998.972656 C 1078.601562 999.890625 1079.058594 1001.089844 1079.058594 1002.292969 Z M 1079.0625 1002.292969 " fill-opacity="1" fill-rule="nonzero"/><path fill="#ffffff" d="M 1141.949219 298.226562 L 1141.949219 466.777344 C 1141.949219 468.023438 1141.453125 469.214844 1140.574219 470.097656 L 1089.75 520.921875 C 1087.917969 522.753906 1084.945312 522.753906 1083.109375 520.921875 C 1081.277344 519.089844 1081.277344 516.117188 1083.109375 514.28125 L 1132.558594 464.832031 L 1132.558594 298.226562 C 1132.558594 295.632812 1134.660156 293.53125 1137.253906 293.53125 C 1139.84375 293.53125 1141.949219 295.632812 1141.949219 298.226562 Z M 1141.949219 298.226562 " fill-opacity="1" fill-rule="nonzero"/><path fill="#ffffff" d="M 1270.085938 504.96875 L 1270.085938 654.640625 C 1270.085938 655.886719 1269.589844 657.078125 1268.710938 657.960938 L 1116.539062 810.132812 L 1116.539062 1025.261719 C 1116.539062 1027.855469 1114.433594 1029.957031 1111.84375 1029.957031 C 1109.25 1029.957031 1107.148438 1027.855469 1107.148438 1025.261719 L 1107.148438 808.1875 C 1107.148438 806.941406 1107.644531 805.746094 1108.523438 804.867188 L 1260.695312 652.695312 L 1260.695312 504.96875 C 1260.695312 502.375 1262.796875 500.273438 1265.390625 500.273438 C 1267.980469 500.273438 1270.085938 502.375 1270.085938 504.96875 Z M 1270.085938 504.96875 " fill-opacity="1" fill-rule="nonzero"/><path fill="#ffffff" d="M 1319.394531 298.226562 L 1319.394531 551.191406 C 1319.394531 552.4375 1318.898438 553.628906 1318.019531 554.511719 L 1268.707031 603.828125 C 1266.875 605.660156 1263.902344 605.660156 1262.066406 603.828125 C 1260.230469 601.992188 1260.230469 599.019531 1262.066406 597.183594 L 1310.003906 549.246094 L 1310.003906 298.226562 C 1310.003906 295.632812 1312.105469 293.53125 1314.695312 293.53125 C 1317.289062 293.53125 1319.390625 295.632812 1319.390625 298.226562 Z M 1319.394531 298.226562 " fill-opacity="1" fill-rule="nonzero"/><g clip-path="url(#6852853521)"><path fill="#ffffff" d="M 1042.3125 799.570312 C 1042.3125 810.710938 1033.25 819.777344 1022.105469 819.777344 C 1010.964844 819.777344 1001.902344 810.710938 1001.902344 799.570312 C 1001.902344 788.429688 1010.964844 779.367188 1022.105469 779.367188 C 1033.25 779.367188 1042.3125 788.429688 1042.3125 799.570312 Z M 1011.296875 799.570312 C 1011.296875 805.53125 1016.144531 810.382812 1022.105469 810.382812 C 1028.066406 810.382812 1032.917969 805.53125 1032.917969 799.570312 C 1032.917969 793.609375 1028.066406 788.757812 1022.105469 788.757812 C 1016.144531 788.757812 1011.296875 793.609375 1011.296875 799.570312 Z M 1011.296875 799.570312 " fill-opacity="1" fill-rule="nonzero"/></g><path fill="#ffffff" d="M 1157.457031 281.289062 C 1157.457031 292.429688 1148.390625 301.492188 1137.25 301.492188 C 1126.109375 301.492188 1117.046875 292.429688 1117.046875 281.289062 C 1117.046875 270.144531 1126.109375 261.082031 1137.25 261.082031 C 1148.390625 261.082031 1157.457031 270.144531 1157.457031 281.289062 Z M 1126.4375 281.289062 C 1126.4375 287.25 1131.289062 292.097656 1137.25 292.097656 C 1143.210938 292.097656 1148.0625 287.25 1148.0625 281.289062 C 1148.0625 275.328125 1143.210938 270.476562 1137.25 270.476562 C 1131.289062 270.476562 1126.4375 275.328125 1126.4375 281.289062 Z M 1126.4375 281.289062 " fill-opacity="1" fill-rule="nonzero"/><path fill="#ffffff" d="M 1285.589844 489.457031 C 1285.589844 500.597656 1276.527344 509.664062 1265.386719 509.664062 C 1254.246094 509.664062 1245.179688 500.597656 1245.179688 489.457031 C 1245.179688 478.316406 1254.246094 469.253906 1265.386719 469.253906 C 1276.527344 469.253906 1285.589844 478.316406 1285.589844 489.457031 Z M 1254.574219 489.457031 C 1254.574219 495.417969 1259.425781 500.269531 1265.386719 500.269531 C 1271.347656 500.269531 1276.199219 495.417969 1276.199219 489.457031 C 1276.199219 483.496094 1271.347656 478.644531 1265.386719 478.644531 C 1259.425781 478.644531 1254.574219 483.496094 1254.574219 489.457031 Z M 1254.574219 489.457031 " fill-opacity="1" fill-rule="nonzero"/><path fill="#ffffff" d="M 1086.425781 384.941406 C 1087.445312 384.941406 1088.453125 385.039062 1089.453125 385.238281 C 1090.449219 385.4375 1091.421875 385.730469 1092.363281 386.121094 C 1093.300781 386.511719 1094.195312 386.988281 1095.042969 387.554688 C 1095.890625 388.121094 1096.671875 388.761719 1097.390625 389.484375 C 1098.113281 390.203125 1098.753906 390.984375 1099.320312 391.832031 C 1099.886719 392.679688 1100.363281 393.574219 1100.753906 394.511719 C 1101.144531 395.453125 1101.4375 396.421875 1101.636719 397.421875 C 1101.835938 398.421875 1101.933594 399.429688 1101.933594 400.449219 C 1101.933594 401.464844 1101.835938 402.472656 1101.636719 403.472656 C 1101.4375 404.472656 1101.144531 405.441406 1100.753906 406.382812 C 1100.363281 407.324219 1099.886719 408.214844 1099.320312 409.0625 C 1098.753906 409.910156 1098.113281 410.691406 1097.390625 411.414062 C 1096.671875 412.132812 1095.890625 412.777344 1095.042969 413.339844 C 1094.195312 413.90625 1093.300781 414.382812 1092.363281 414.773438 C 1091.421875 415.164062 1090.449219 415.457031 1089.453125 415.65625 C 1088.453125 415.855469 1087.445312 415.953125 1086.425781 415.953125 C 1085.410156 415.953125 1084.402344 415.855469 1083.402344 415.65625 C 1082.402344 415.457031 1081.433594 415.164062 1080.492188 414.773438 C 1079.550781 414.382812 1078.660156 413.90625 1077.8125 413.339844 C 1076.964844 412.777344 1076.183594 412.132812 1075.460938 411.414062 C 1074.742188 410.691406 1074.097656 409.910156 1073.535156 409.0625 C 1072.96875 408.214844 1072.492188 407.324219 1072.101562 406.382812 C 1071.710938 405.441406 1071.417969 404.472656 1071.21875 403.472656 C 1071.019531 402.472656 1070.921875 401.464844 1070.921875 400.449219 C 1070.921875 399.429688 1071.019531 398.421875 1071.21875 397.421875 C 1071.417969 396.421875 1071.710938 395.453125 1072.101562 394.511719 C 1072.492188 393.574219 1072.96875 392.679688 1073.535156 391.832031 C 1074.097656 390.984375 1074.742188 390.203125 1075.460938 389.484375 C 1076.183594 388.761719 1076.964844 388.121094 1077.8125 387.554688 C 1078.660156 386.988281 1079.550781 386.511719 1080.492188 386.121094 C 1081.433594 385.730469 1082.402344 385.4375 1083.402344 385.238281 C 1084.402344 385.039062 1085.410156 384.941406 1086.425781 384.941406 Z M 1086.425781 384.941406 " fill-opacity="1" fill-rule="nonzero"/><g clip-path="url(#b4c6ce3ff9)"><path fill="#ffffff" d="M 1214.492188 211.507812 C 1215.507812 211.507812 1216.519531 211.605469 1217.515625 211.804688 C 1218.515625 212.003906 1219.484375 212.296875 1220.425781 212.6875 C 1221.367188 213.078125 1222.261719 213.554688 1223.105469 214.121094 C 1223.953125 214.6875 1224.734375 215.328125 1225.457031 216.050781 C 1226.175781 216.769531 1226.820312 217.550781 1227.386719 218.398438 C 1227.949219 219.246094 1228.429688 220.140625 1228.816406 221.082031 C 1229.207031 222.019531 1229.5 222.992188 1229.699219 223.988281 C 1229.898438 224.988281 1230 225.996094 1230 227.015625 C 1230 228.03125 1229.898438 229.042969 1229.699219 230.039062 C 1229.5 231.039062 1229.207031 232.007812 1228.816406 232.949219 C 1228.429688 233.890625 1227.949219 234.78125 1227.386719 235.628906 C 1226.820312 236.476562 1226.175781 237.257812 1225.457031 237.980469 C 1224.734375 238.699219 1223.953125 239.34375 1223.105469 239.90625 C 1222.261719 240.472656 1221.367188 240.953125 1220.425781 241.339844 C 1219.484375 241.730469 1218.515625 242.023438 1217.515625 242.222656 C 1216.519531 242.421875 1215.507812 242.523438 1214.492188 242.519531 C 1213.472656 242.523438 1212.464844 242.421875 1211.464844 242.222656 C 1210.46875 242.023438 1209.496094 241.730469 1208.558594 241.339844 C 1207.617188 240.953125 1206.722656 240.472656 1205.875 239.90625 C 1205.03125 239.34375 1204.246094 238.699219 1203.527344 237.980469 C 1202.804688 237.257812 1202.164062 236.476562 1201.597656 235.628906 C 1201.03125 234.785156 1200.554688 233.890625 1200.164062 232.949219 C 1199.773438 232.007812 1199.480469 231.039062 1199.28125 230.039062 C 1199.082031 229.042969 1198.984375 228.03125 1198.984375 227.015625 C 1198.984375 225.996094 1199.082031 224.988281 1199.28125 223.988281 C 1199.480469 222.992188 1199.773438 222.019531 1200.164062 221.082031 C 1200.554688 220.140625 1201.03125 219.246094 1201.597656 218.398438 C 1202.164062 217.550781 1202.804688 216.769531 1203.527344 216.050781 C 1204.246094 215.328125 1205.03125 214.6875 1205.875 214.121094 C 1206.722656 213.554688 1207.617188 213.078125 1208.558594 212.6875 C 1209.496094 212.296875 1210.46875 212.003906 1211.464844 211.804688 C 1212.464844 211.605469 1213.472656 211.507812 1214.492188 211.507812 Z M 1214.492188 211.507812 " fill-opacity="1" fill-rule="nonzero"/></g><g clip-path="url(#c09549c602)"><path fill="#ffffff" d="M 1314.699219 278.125 C 1315.71875 278.125 1316.726562 278.226562 1317.726562 278.421875 C 1318.722656 278.621094 1319.695312 278.917969 1320.632812 279.304688 C 1321.574219 279.695312 1322.46875 280.171875 1323.316406 280.738281 C 1324.160156 281.304688 1324.945312 281.949219 1325.664062 282.667969 C 1326.386719 283.386719 1327.027344 284.171875 1327.59375 285.015625 C 1328.160156 285.863281 1328.636719 286.757812 1329.027344 287.699219 C 1329.417969 288.640625 1329.710938 289.609375 1329.910156 290.605469 C 1330.109375 291.605469 1330.207031 292.613281 1330.207031 293.632812 C 1330.207031 294.652344 1330.109375 295.660156 1329.910156 296.65625 C 1329.710938 297.65625 1329.417969 298.625 1329.027344 299.566406 C 1328.636719 300.507812 1328.160156 301.402344 1327.59375 302.246094 C 1327.027344 303.09375 1326.386719 303.878906 1325.664062 304.597656 C 1324.945312 305.316406 1324.160156 305.960938 1323.316406 306.527344 C 1322.46875 307.089844 1321.574219 307.570312 1320.632812 307.960938 C 1319.695312 308.347656 1318.722656 308.644531 1317.726562 308.839844 C 1316.726562 309.039062 1315.71875 309.140625 1314.699219 309.140625 C 1313.683594 309.140625 1312.671875 309.039062 1311.675781 308.839844 C 1310.675781 308.644531 1309.707031 308.347656 1308.765625 307.960938 C 1307.824219 307.570312 1306.929688 307.09375 1306.085938 306.527344 C 1305.238281 305.960938 1304.457031 305.316406 1303.734375 304.597656 C 1303.015625 303.878906 1302.371094 303.09375 1301.804688 302.246094 C 1301.242188 301.402344 1300.761719 300.507812 1300.375 299.566406 C 1299.984375 298.625 1299.691406 297.65625 1299.492188 296.65625 C 1299.292969 295.660156 1299.191406 294.652344 1299.191406 293.632812 C 1299.191406 292.613281 1299.292969 291.605469 1299.492188 290.605469 C 1299.691406 289.609375 1299.984375 288.640625 1300.375 287.699219 C 1300.761719 286.757812 1301.242188 285.863281 1301.804688 285.015625 C 1302.371094 284.171875 1303.015625 283.386719 1303.734375 282.667969 C 1304.457031 281.949219 1305.238281 281.304688 1306.085938 280.738281 C 1306.929688 280.171875 1307.824219 279.695312 1308.765625 279.304688 C 1309.707031 278.917969 1310.675781 278.621094 1311.675781 278.421875 C 1312.671875 278.226562 1313.683594 278.125 1314.699219 278.125 Z M 1314.699219 278.125 " fill-opacity="1" fill-rule="nonzero"/></g></svg>