<svg xmlns="http://www.w3.org/2000/svg" fill="none" viewBox="20.29 272.13 228.96 80.77">
<mask id="mask0_626_504" style="mask-type:luminance" maskUnits="userSpaceOnUse" x="-4" y="285" width="265" height="42">
<path d="M260.891 285.932V326.32H-3.99406V285.932H260.891Z" fill="white"/>
</mask>
<g mask="url(#mask0_626_504)">
<path d="M259.397 326.103H138.32C137.95 326.103 137.594 325.971 137.331 325.736L96.0128 288.624H-2.59587C-3.36824 288.623 -3.99406 288.061 -3.99406 287.367C-3.99406 286.673 -3.36824 286.111 -2.59587 286.111H96.5921C96.962 286.111 97.3179 286.244 97.5808 286.479L138.899 323.591H259.397C260.17 323.591 260.796 324.153 260.796 324.847C260.796 325.54 260.17 326.103 259.397 326.103Z" fill="#008FF8"/>
</g>
<path d="M117.456 307.364C117.098 307.364 116.74 307.241 116.467 306.996C115.922 306.506 115.922 305.71 116.467 305.219L133.74 289.706C134.003 289.469 134.358 289.338 134.729 289.338H207.751C208.524 289.338 209.149 289.901 209.149 290.594C209.149 291.287 208.523 291.85 207.751 291.85L135.308 291.85L118.445 306.996C118.171 307.242 117.814 307.364 117.456 307.364Z" fill="#008FF8"/>
<path d="M28.5288 288.623C28.1706 288.623 27.8135 288.5 27.5401 288.255C26.9945 287.765 26.9945 286.97 27.5401 286.479L43.103 272.5C43.3648 272.264 43.7207 272.134 44.0918 272.134H84.2792C85.0516 272.134 85.6774 272.696 85.6774 273.389C85.6774 274.082 85.0516 274.644 84.2792 274.644H44.6699L29.5176 288.254C29.2442 288.5 28.8871 288.622 28.5288 288.622V288.623Z" fill="#008FF8"/>
<path d="M238.192 305.444H187.999C187.628 305.444 187.273 305.311 187.01 305.076L171.876 291.482C171.33 290.992 171.33 290.197 171.876 289.706C172.421 289.216 173.306 289.216 173.853 289.706L188.578 302.932H238.192C238.964 302.932 239.59 303.494 239.59 304.188C239.59 304.881 238.964 305.444 238.192 305.444Z" fill="#008FF8"/>
<path d="M176.626 339.717H132.056C131.685 339.717 131.33 339.585 131.067 339.349L85.7519 298.647H21.689C20.9166 298.647 20.2908 298.084 20.2908 297.391C20.2908 296.697 20.9166 296.135 21.689 296.135H86.3312C86.7022 296.135 87.0582 296.268 87.3199 296.503L132.635 337.205H176.626C177.399 337.205 178.024 337.768 178.024 338.461C178.024 339.154 177.399 339.717 176.626 339.717Z" fill="#008FF8"/>
<path d="M238.192 352.906H162.862C162.491 352.906 162.136 352.773 161.873 352.538L147.187 339.348C146.641 338.858 146.641 338.063 147.187 337.572C147.734 337.081 148.619 337.081 149.166 337.572L163.441 350.394H238.192C238.964 350.394 239.59 350.956 239.59 351.649C239.59 352.343 238.964 352.905 238.192 352.905V352.906Z" fill="#008FF8"/>
<mask id="mask1_626_504" style="mask-type:luminance" maskUnits="userSpaceOnUse" x="82" y="267" width="14" height="12">
<path d="M95.0229 267.955V278.977H82.8136V267.955H95.0229Z" fill="white"/>
</mask>
<g mask="url(#mask1_626_504)">
<path d="M88.8973 278.793C85.5797 278.793 82.8799 276.369 82.8799 273.389C82.8799 270.409 85.5797 267.985 88.8973 267.985C92.2148 267.985 94.9135 270.409 94.9135 273.389C94.9135 276.369 92.2148 278.793 88.8973 278.793ZM88.8973 270.498C87.1222 270.498 85.6775 271.794 85.6775 273.389C85.6775 274.983 87.1222 276.281 88.8973 276.281C90.6724 276.281 92.1171 274.983 92.1171 273.389C92.1171 271.794 90.6724 270.498 88.8973 270.498Z" fill="#008FF8"/>
</g>
<path d="M243.235 309.592C239.918 309.592 237.219 307.167 237.219 304.187C237.219 301.207 239.918 298.783 243.235 298.783C246.554 298.783 249.253 301.207 249.253 304.187C249.253 307.167 246.554 309.592 243.235 309.592ZM243.235 301.295C241.46 301.295 240.017 302.592 240.017 304.187C240.017 305.781 241.46 307.079 243.235 307.079C245.01 307.079 246.455 305.781 246.455 304.187C246.455 302.592 245.01 301.295 243.235 301.295Z" fill="#008FF8"/>
<path d="M181.245 343.864C177.928 343.864 175.228 341.44 175.228 338.46C175.228 335.48 177.928 333.055 181.245 333.055C184.563 333.055 187.262 335.48 187.262 338.46C187.262 341.44 184.563 343.864 181.245 343.864ZM181.245 335.568C179.47 335.568 178.026 336.866 178.026 338.46C178.026 340.055 179.47 341.352 181.245 341.352C183.02 341.352 184.465 340.055 184.465 338.46C184.465 336.866 183.02 335.568 181.245 335.568Z" fill="#008FF8"/>
<path d="M212.369 290.593C212.369 290.865 212.34 291.135 212.281 291.402C212.221 291.669 212.134 291.929 212.018 292.181C211.901 292.431 211.759 292.671 211.591 292.897C211.422 293.124 211.231 293.333 211.016 293.525C210.802 293.719 210.569 293.89 210.317 294.042C210.065 294.193 209.798 294.321 209.519 294.425C209.239 294.53 208.95 294.608 208.652 294.661C208.355 294.714 208.054 294.741 207.751 294.741C207.448 294.741 207.148 294.714 206.851 294.661C206.553 294.608 206.264 294.53 205.984 294.425C205.704 294.321 205.438 294.193 205.186 294.042C204.934 293.89 204.701 293.719 204.486 293.525C204.272 293.333 204.08 293.124 203.912 292.897C203.744 292.671 203.602 292.431 203.485 292.181C203.369 291.929 203.282 291.669 203.222 291.402C203.163 291.135 203.134 290.865 203.134 290.593C203.134 290.321 203.163 290.051 203.222 289.784C203.282 289.516 203.369 289.257 203.485 289.006C203.602 288.754 203.744 288.515 203.912 288.289C204.08 288.062 204.272 287.853 204.486 287.66C204.701 287.468 204.934 287.295 205.186 287.145C205.438 286.993 205.704 286.866 205.984 286.761C206.264 286.657 206.553 286.578 206.851 286.525C207.148 286.472 207.448 286.446 207.751 286.446C208.054 286.446 208.355 286.472 208.652 286.525C208.95 286.578 209.239 286.657 209.519 286.761C209.798 286.866 210.065 286.993 210.317 287.145C210.569 287.295 210.802 287.468 211.016 287.66C211.231 287.853 211.422 288.062 211.591 288.289C211.759 288.515 211.901 288.754 212.018 289.006C212.134 289.257 212.221 289.516 212.281 289.784C212.34 290.051 212.369 290.321 212.369 290.593Z" fill="#008FF8"/>
<mask id="mask2_626_504" style="mask-type:luminance" maskUnits="userSpaceOnUse" x="254" y="320" width="11" height="9">
<path d="M264.015 320.436V328.995H254.637V320.436H264.015Z" fill="white"/>
</mask>
<g mask="url(#mask2_626_504)">
<path d="M264.015 324.847C264.015 325.119 263.986 325.39 263.927 325.656C263.868 325.923 263.78 326.183 263.664 326.434C263.548 326.686 263.406 326.925 263.237 327.151C263.069 327.378 262.878 327.587 262.663 327.78C262.449 327.972 262.216 328.145 261.963 328.296C261.711 328.447 261.445 328.575 261.164 328.679C260.885 328.783 260.595 328.862 260.299 328.915C260.001 328.968 259.701 328.995 259.397 328.995C259.095 328.995 258.794 328.968 258.497 328.915C258.199 328.862 257.911 328.783 257.63 328.679C257.35 328.575 257.085 328.447 256.832 328.296C256.58 328.145 256.347 327.972 256.132 327.78C255.918 327.587 255.726 327.378 255.559 327.151C255.39 326.925 255.247 326.686 255.132 326.434C255.015 326.183 254.928 325.923 254.869 325.656C254.81 325.39 254.779 325.119 254.78 324.847C254.779 324.575 254.81 324.305 254.869 324.038C254.928 323.771 255.015 323.511 255.132 323.26C255.247 323.008 255.39 322.769 255.559 322.542C255.726 322.317 255.918 322.107 256.132 321.914C256.347 321.721 256.58 321.55 256.832 321.398C257.084 321.247 257.35 321.119 257.63 321.015C257.911 320.91 258.199 320.832 258.497 320.779C258.794 320.725 259.095 320.699 259.397 320.699C259.701 320.699 260.001 320.725 260.299 320.779C260.595 320.832 260.885 320.91 261.164 321.015C261.445 321.119 261.711 321.247 261.963 321.398C262.216 321.55 262.449 321.721 262.663 321.914C262.878 322.107 263.069 322.317 263.237 322.542C263.406 322.769 263.548 323.008 263.664 323.26C263.78 323.511 263.868 323.771 263.927 324.038C263.986 324.305 264.015 324.575 264.015 324.847Z" fill="#008FF8"/>
</g>
<mask id="mask3_626_504" style="mask-type:luminance" maskUnits="userSpaceOnUse" x="234" y="347" width="11" height="9">
<path d="M244.215 347.451V355.821H234.686V347.451H244.215Z" fill="white"/>
</mask>
<g mask="url(#mask3_626_504)">
<path d="M244.178 351.65C244.178 351.923 244.147 352.193 244.089 352.46C244.03 352.726 243.941 352.987 243.826 353.237C243.71 353.489 243.568 353.728 243.399 353.955C243.231 354.181 243.039 354.391 242.825 354.583C242.611 354.776 242.377 354.948 242.126 355.099C241.873 355.251 241.607 355.378 241.326 355.483C241.046 355.587 240.758 355.666 240.461 355.719C240.163 355.772 239.863 355.798 239.56 355.798C239.256 355.798 238.956 355.772 238.659 355.719C238.361 355.666 238.073 355.587 237.793 355.483C237.512 355.378 237.246 355.251 236.995 355.099C236.742 354.948 236.508 354.776 236.294 354.583C236.08 354.391 235.888 354.181 235.72 353.955C235.552 353.728 235.409 353.489 235.293 353.237C235.178 352.987 235.089 352.726 235.031 352.46C234.972 352.193 234.941 351.923 234.941 351.65C234.941 351.379 234.972 351.108 235.031 350.842C235.089 350.574 235.178 350.315 235.293 350.063C235.409 349.811 235.551 349.572 235.72 349.346C235.888 349.12 236.08 348.911 236.294 348.717C236.508 348.525 236.742 348.353 236.995 348.201C237.246 348.051 237.512 347.922 237.793 347.819C238.073 347.714 238.361 347.636 238.659 347.583C238.956 347.529 239.256 347.502 239.56 347.502C239.863 347.502 240.163 347.529 240.461 347.583C240.758 347.636 241.046 347.714 241.326 347.819C241.607 347.922 241.873 348.051 242.126 348.201C242.377 348.353 242.611 348.525 242.825 348.717C243.039 348.911 243.231 349.12 243.399 349.346C243.568 349.572 243.71 349.811 243.826 350.063C243.941 350.315 244.03 350.574 244.089 350.842C244.147 351.108 244.178 351.379 244.178 351.65Z" fill="#008FF8"/>
</g>
</svg>