<svg xmlns="http://www.w3.org/2000/svg" xmlns:xlink="http://www.w3.org/1999/xlink" width="3000" zoomAndPan="magnify" viewBox="0 0 2250 1265.999941" height="1688" preserveAspectRatio="xMidYMid meet" version="1.0"><defs><clipPath id="2282f51141"><path d="M 791.183594 199.457031 L 812 199.457031 L 812 220 L 791.183594 220 Z M 791.183594 199.457031 " clip-rule="nonzero"/></clipPath><clipPath id="b68e2839d9"><path d="M 791.183594 446 L 812 446 L 812 467 L 791.183594 467 Z M 791.183594 446 " clip-rule="nonzero"/></clipPath><clipPath id="8e0e49452d"><path d="M 791.183594 505 L 812 505 L 812 526 L 791.183594 526 Z M 791.183594 505 " clip-rule="nonzero"/></clipPath><clipPath id="5b82ee1fa2"><path d="M 1569 941 L 1589.933594 941 L 1589.933594 962.207031 L 1569 962.207031 Z M 1569 941 " clip-rule="nonzero"/></clipPath><clipPath id="35ef9a3d4e"><path d="M 1105 941 L 1126 941 L 1126 962.207031 L 1105 962.207031 Z M 1105 941 " clip-rule="nonzero"/></clipPath><clipPath id="8b935aab89"><path d="M 1036 941 L 1058 941 L 1058 962.207031 L 1036 962.207031 Z M 1036 941 " clip-rule="nonzero"/></clipPath><clipPath id="c98bd54160"><path d="M 791.183594 830 L 812 830 L 812 852 L 791.183594 852 Z M 791.183594 830 " clip-rule="nonzero"/></clipPath><clipPath id="1e12f38751"><path d="M 791.183594 762 L 812 762 L 812 783 L 791.183594 783 Z M 791.183594 762 " clip-rule="nonzero"/></clipPath></defs><path fill="#ffffff" d="M 799.398438 211.652344 C 799.398438 210.570312 800.273438 209.691406 801.359375 209.691406 C 802.441406 209.691406 803.320312 210.570312 803.320312 211.652344 L 803.320312 454.28125 C 803.320312 455.363281 802.441406 456.242188 801.359375 456.242188 C 800.273438 456.242188 799.398438 455.363281 799.398438 454.28125 Z M 799.398438 211.652344 " fill-opacity="1" fill-rule="nonzero"/><path fill="#ffffff" d="M 851.375 377.394531 C 851.375 376.3125 852.253906 375.433594 853.335938 375.433594 C 854.417969 375.433594 855.296875 376.3125 855.296875 377.394531 L 855.296875 584.722656 C 855.296875 585.804688 854.417969 586.683594 853.335938 586.683594 C 852.253906 586.683594 851.375 585.804688 851.375 584.722656 Z M 851.375 377.394531 " fill-opacity="1" fill-rule="nonzero"/><path fill="#ffffff" d="M 851.949219 586.109375 C 851.183594 585.339844 851.183594 584.097656 851.949219 583.335938 C 852.714844 582.570312 853.957031 582.570312 854.722656 583.335938 L 924.578125 653.191406 C 925.347656 653.957031 925.347656 655.199219 924.578125 655.964844 C 923.8125 656.730469 922.574219 656.730469 921.808594 655.964844 Z M 851.949219 586.109375 " fill-opacity="1" fill-rule="nonzero"/><path fill="#ffffff" d="M 923.195312 656.539062 C 922.109375 656.539062 921.230469 655.664062 921.230469 654.578125 C 921.230469 653.496094 922.109375 652.617188 923.195312 652.617188 L 1180.867188 652.617188 C 1181.949219 652.617188 1182.828125 653.496094 1182.828125 654.578125 C 1182.828125 655.664062 1181.949219 656.539062 1180.867188 656.539062 Z M 923.195312 656.539062 " fill-opacity="1" fill-rule="nonzero"/><path fill="#ffffff" d="M 941.113281 610.21875 C 940.027344 610.21875 939.148438 609.339844 939.148438 608.257812 C 939.148438 607.175781 940.027344 606.296875 941.113281 606.296875 L 1097.503906 606.296875 C 1098.585938 606.296875 1099.464844 607.175781 1099.464844 608.257812 C 1099.464844 609.339844 1098.585938 610.21875 1097.503906 610.21875 Z M 941.113281 610.21875 " fill-opacity="1" fill-rule="nonzero"/><path fill="#ffffff" d="M 891.667969 561.589844 C 890.902344 560.824219 890.902344 559.582031 891.667969 558.816406 C 892.4375 558.050781 893.675781 558.050781 894.441406 558.816406 L 942.496094 606.871094 C 943.265625 607.636719 943.265625 608.878906 942.496094 609.648438 C 941.730469 610.410156 940.492188 610.410156 939.726562 609.648438 Z M 891.667969 561.589844 " fill-opacity="1" fill-rule="nonzero"/><path fill="#ffffff" d="M 891.09375 456.835938 C 891.09375 455.753906 891.972656 454.875 893.054688 454.875 C 894.140625 454.875 895.019531 455.753906 895.019531 456.835938 L 895.019531 560.203125 C 895.019531 561.285156 894.140625 562.164062 893.054688 562.164062 C 891.972656 562.164062 891.09375 561.285156 891.09375 560.203125 Z M 891.09375 456.835938 " fill-opacity="1" fill-rule="nonzero"/><path fill="#ffffff" d="M 799.398438 517.785156 C 799.398438 516.703125 800.273438 515.824219 801.359375 515.824219 C 802.441406 515.824219 803.320312 516.703125 803.320312 517.785156 L 803.320312 702.65625 C 803.320312 703.742188 802.441406 704.617188 801.359375 704.617188 C 800.273438 704.617188 799.398438 703.742188 799.398438 702.65625 Z M 799.398438 517.785156 " fill-opacity="1" fill-rule="nonzero"/><path fill="#ffffff" d="M 799.972656 704.042969 C 799.207031 703.277344 799.207031 702.035156 799.972656 701.269531 C 800.738281 700.503906 801.980469 700.503906 802.746094 701.269531 L 940.519531 839.046875 C 941.285156 839.808594 941.285156 841.050781 940.519531 841.816406 C 939.753906 842.582031 938.511719 842.582031 937.746094 841.816406 Z M 799.972656 704.042969 " fill-opacity="1" fill-rule="nonzero"/><path fill="#ffffff" d="M 837.113281 651.941406 C 836.347656 651.175781 836.347656 649.933594 837.113281 649.164062 C 837.878906 648.402344 839.121094 648.402344 839.890625 649.164062 L 924.210938 733.492188 C 924.976562 734.257812 924.976562 735.496094 924.210938 736.261719 C 923.445312 737.027344 922.203125 737.027344 921.4375 736.261719 Z M 837.113281 651.941406 " fill-opacity="1" fill-rule="nonzero"/><path fill="#ffffff" d="M 922.824219 736.839844 C 921.742188 736.839844 920.863281 735.960938 920.863281 734.875 C 920.863281 733.792969 921.742188 732.914062 922.824219 732.914062 L 1028.484375 732.914062 C 1029.566406 732.914062 1030.445312 733.792969 1030.445312 734.875 C 1030.445312 735.960938 1029.566406 736.839844 1028.484375 736.839844 Z M 922.824219 736.839844 " fill-opacity="1" fill-rule="nonzero"/><path fill="#ffffff" d="M 799.972656 773.675781 C 799.207031 772.910156 799.207031 771.667969 799.972656 770.902344 C 800.738281 770.136719 801.980469 770.136719 802.746094 770.902344 L 891.972656 860.128906 C 892.738281 860.894531 892.738281 862.136719 891.972656 862.902344 C 891.207031 863.671875 889.964844 863.671875 889.199219 862.902344 Z M 799.972656 773.675781 " fill-opacity="1" fill-rule="nonzero"/><path fill="#ffffff" d="M 799.398438 842.902344 C 799.398438 841.820312 800.273438 840.941406 801.359375 840.941406 C 802.441406 840.941406 803.320312 841.820312 803.320312 842.902344 L 803.320312 949.898438 L 970.042969 949.898438 C 971.128906 949.898438 972.007812 950.777344 972.007812 951.859375 C 972.007812 952.941406 971.128906 953.820312 970.042969 953.820312 L 801.359375 953.820312 C 800.273438 953.820312 799.398438 952.941406 799.398438 951.859375 Z M 799.398438 842.902344 " fill-opacity="1" fill-rule="nonzero"/><path fill="#ffffff" d="M 1057.886719 861.246094 C 1058.652344 860.480469 1059.894531 860.480469 1060.660156 861.246094 C 1061.425781 862.011719 1061.425781 863.253906 1060.660156 864.019531 L 971.433594 953.25 C 970.667969 954.011719 969.425781 954.011719 968.65625 953.25 C 967.890625 952.480469 967.890625 951.238281 968.65625 950.472656 Z M 1057.886719 861.246094 " fill-opacity="1" fill-rule="nonzero"/><path fill="#ffffff" d="M 1059.273438 864.59375 C 1058.191406 864.59375 1057.3125 863.714844 1057.3125 862.632812 C 1057.3125 861.550781 1058.191406 860.671875 1059.273438 860.671875 L 1341.742188 860.671875 C 1342.828125 860.671875 1343.707031 861.550781 1343.707031 862.632812 C 1343.707031 863.714844 1342.828125 864.59375 1341.742188 864.59375 Z M 1059.273438 864.59375 " fill-opacity="1" fill-rule="nonzero"/><path fill="#ffffff" d="M 1086.523438 909.792969 C 1087.289062 909.027344 1088.53125 909.027344 1089.296875 909.792969 C 1090.0625 910.558594 1090.0625 911.800781 1089.296875 912.566406 L 1048.617188 953.25 C 1047.851562 954.011719 1046.609375 954.011719 1045.84375 953.25 C 1045.078125 952.480469 1045.078125 951.238281 1045.84375 950.472656 Z M 1086.523438 909.792969 " fill-opacity="1" fill-rule="nonzero"/><path fill="#ffffff" d="M 1087.910156 913.140625 C 1086.828125 913.140625 1085.949219 912.261719 1085.949219 911.179688 C 1085.949219 910.097656 1086.828125 909.21875 1087.910156 909.21875 L 1432.953125 909.21875 C 1434.035156 909.21875 1434.914062 910.097656 1434.914062 911.179688 C 1434.914062 912.261719 1434.035156 913.140625 1432.953125 913.140625 Z M 1087.910156 913.140625 " fill-opacity="1" fill-rule="nonzero"/><path fill="#ffffff" d="M 1117.648438 953.820312 C 1116.5625 953.820312 1115.683594 952.941406 1115.683594 951.859375 C 1115.683594 950.777344 1116.5625 949.898438 1117.648438 949.898438 L 1577.609375 949.898438 C 1578.691406 949.898438 1579.570312 950.777344 1579.570312 951.859375 C 1579.570312 952.941406 1578.691406 953.820312 1577.609375 953.820312 Z M 1117.648438 953.820312 " fill-opacity="1" fill-rule="nonzero"/><path fill="#ffffff" d="M 1028.402344 819.367188 C 1027.316406 819.367188 1026.4375 818.488281 1026.4375 817.402344 C 1026.4375 816.320312 1027.316406 815.441406 1028.402344 815.441406 L 1229.941406 815.441406 C 1231.023438 815.441406 1231.902344 816.320312 1231.902344 817.402344 C 1231.902344 818.488281 1231.023438 819.367188 1229.941406 819.367188 Z M 1028.402344 819.367188 " fill-opacity="1" fill-rule="nonzero"/><path fill="#ffffff" d="M 1027.015625 816.015625 C 1027.78125 815.25 1029.019531 815.25 1029.785156 816.015625 C 1030.550781 816.78125 1030.550781 818.023438 1029.785156 818.789062 L 940.558594 908.015625 C 939.792969 908.78125 938.554688 908.78125 937.785156 908.015625 C 937.019531 907.25 937.019531 906.007812 937.785156 905.246094 Z M 1027.015625 816.015625 " fill-opacity="1" fill-rule="nonzero"/><g clip-path="url(#2282f51141)"><path fill="#ffffff" d="M 811.535156 209.691406 C 811.535156 210.359375 811.46875 211.019531 811.339844 211.675781 C 811.207031 212.332031 811.015625 212.96875 810.761719 213.585938 C 810.503906 214.203125 810.191406 214.789062 809.820312 215.34375 C 809.449219 215.898438 809.027344 216.414062 808.554688 216.886719 C 808.082031 217.359375 807.566406 217.78125 807.011719 218.152344 C 806.457031 218.523438 805.871094 218.835938 805.253906 219.089844 C 804.636719 219.347656 804 219.539062 803.34375 219.671875 C 802.6875 219.800781 802.027344 219.867188 801.359375 219.867188 C 800.691406 219.867188 800.03125 219.800781 799.375 219.671875 C 798.71875 219.539062 798.082031 219.347656 797.464844 219.089844 C 796.847656 218.835938 796.261719 218.523438 795.707031 218.152344 C 795.152344 217.78125 794.636719 217.359375 794.164062 216.886719 C 793.691406 216.414062 793.269531 215.898438 792.898438 215.34375 C 792.527344 214.789062 792.214844 214.203125 791.957031 213.585938 C 791.703125 212.96875 791.511719 212.332031 791.378906 211.675781 C 791.25 211.019531 791.183594 210.359375 791.183594 209.691406 C 791.183594 209.023438 791.25 208.359375 791.378906 207.707031 C 791.511719 207.050781 791.703125 206.414062 791.957031 205.796875 C 792.214844 205.179688 792.527344 204.59375 792.898438 204.039062 C 793.269531 203.480469 793.691406 202.96875 794.164062 202.496094 C 794.636719 202.023438 795.152344 201.601562 795.707031 201.230469 C 796.261719 200.859375 796.847656 200.546875 797.464844 200.289062 C 798.082031 200.035156 798.71875 199.839844 799.375 199.710938 C 800.03125 199.582031 800.691406 199.515625 801.359375 199.515625 C 802.027344 199.515625 802.6875 199.582031 803.34375 199.710938 C 804 199.839844 804.636719 200.035156 805.253906 200.289062 C 805.871094 200.546875 806.457031 200.859375 807.011719 201.230469 C 807.566406 201.601562 808.082031 202.023438 808.554688 202.496094 C 809.027344 202.96875 809.449219 203.480469 809.820312 204.039062 C 810.191406 204.59375 810.503906 205.179688 810.761719 205.796875 C 811.015625 206.414062 811.207031 207.050781 811.339844 207.707031 C 811.46875 208.359375 811.535156 209.023438 811.535156 209.691406 Z M 811.535156 209.691406 " fill-opacity="1" fill-rule="nonzero"/></g><g clip-path="url(#b68e2839d9)"><path fill="#ffffff" d="M 811.535156 456.242188 C 811.535156 456.910156 811.46875 457.574219 811.339844 458.230469 C 811.207031 458.882812 811.015625 459.519531 810.761719 460.136719 C 810.503906 460.753906 810.191406 461.339844 809.820312 461.898438 C 809.449219 462.453125 809.027344 462.964844 808.554688 463.4375 C 808.082031 463.910156 807.566406 464.332031 807.011719 464.703125 C 806.457031 465.074219 805.871094 465.386719 805.253906 465.644531 C 804.636719 465.898438 804 466.09375 803.34375 466.222656 C 802.6875 466.355469 802.027344 466.417969 801.359375 466.417969 C 800.691406 466.417969 800.03125 466.355469 799.375 466.222656 C 798.71875 466.09375 798.082031 465.898438 797.464844 465.644531 C 796.847656 465.386719 796.261719 465.074219 795.707031 464.703125 C 795.152344 464.332031 794.636719 463.910156 794.164062 463.4375 C 793.691406 462.964844 793.269531 462.453125 792.898438 461.898438 C 792.527344 461.339844 792.214844 460.753906 791.957031 460.136719 C 791.703125 459.519531 791.511719 458.882812 791.378906 458.230469 C 791.25 457.574219 791.183594 456.910156 791.183594 456.242188 C 791.183594 455.574219 791.25 454.914062 791.378906 454.257812 C 791.511719 453.601562 791.703125 452.96875 791.957031 452.351562 C 792.214844 451.734375 792.527344 451.144531 792.898438 450.589844 C 793.269531 450.035156 793.691406 449.519531 794.164062 449.050781 C 794.636719 448.578125 795.152344 448.15625 795.707031 447.785156 C 796.261719 447.414062 796.847656 447.097656 797.464844 446.84375 C 798.082031 446.585938 798.71875 446.394531 799.375 446.265625 C 800.03125 446.132812 800.691406 446.070312 801.359375 446.070312 C 802.027344 446.070312 802.6875 446.132812 803.34375 446.265625 C 804 446.394531 804.636719 446.585938 805.253906 446.84375 C 805.871094 447.097656 806.457031 447.414062 807.011719 447.785156 C 807.566406 448.15625 808.082031 448.578125 808.554688 449.050781 C 809.027344 449.519531 809.449219 450.035156 809.820312 450.589844 C 810.191406 451.144531 810.503906 451.734375 810.761719 452.351562 C 811.015625 452.96875 811.207031 453.601562 811.339844 454.257812 C 811.46875 454.914062 811.535156 455.574219 811.535156 456.242188 Z M 811.535156 456.242188 " fill-opacity="1" fill-rule="nonzero"/></g><path fill="#ffffff" d="M 863.511719 375.433594 C 863.511719 376.101562 863.445312 376.765625 863.316406 377.421875 C 863.183594 378.074219 862.992188 378.710938 862.734375 379.328125 C 862.480469 379.945312 862.167969 380.53125 861.796875 381.089844 C 861.425781 381.644531 861.003906 382.15625 860.53125 382.628906 C 860.058594 383.101562 859.542969 383.523438 858.988281 383.894531 C 858.433594 384.265625 857.847656 384.578125 857.230469 384.835938 C 856.613281 385.089844 855.976562 385.285156 855.320312 385.414062 C 854.664062 385.542969 854.003906 385.609375 853.335938 385.609375 C 852.667969 385.609375 852.003906 385.542969 851.351562 385.414062 C 850.695312 385.285156 850.058594 385.089844 849.441406 384.835938 C 848.824219 384.578125 848.238281 384.265625 847.683594 383.894531 C 847.125 383.523438 846.613281 383.101562 846.140625 382.628906 C 845.667969 382.15625 845.246094 381.644531 844.875 381.085938 C 844.503906 380.53125 844.191406 379.945312 843.933594 379.328125 C 843.679688 378.710938 843.484375 378.074219 843.355469 377.421875 C 843.226562 376.765625 843.160156 376.101562 843.160156 375.433594 C 843.160156 374.765625 843.226562 374.105469 843.355469 373.449219 C 843.484375 372.792969 843.679688 372.160156 843.933594 371.542969 C 844.191406 370.925781 844.503906 370.335938 844.875 369.78125 C 845.246094 369.226562 845.667969 368.710938 846.140625 368.238281 C 846.613281 367.769531 847.125 367.347656 847.683594 366.976562 C 848.238281 366.601562 848.824219 366.289062 849.441406 366.035156 C 850.058594 365.777344 850.695312 365.585938 851.351562 365.457031 C 852.003906 365.324219 852.667969 365.261719 853.335938 365.261719 C 854.003906 365.261719 854.664062 365.324219 855.320312 365.457031 C 855.976562 365.585938 856.613281 365.777344 857.230469 366.035156 C 857.847656 366.289062 858.433594 366.601562 858.988281 366.976562 C 859.542969 367.347656 860.058594 367.769531 860.53125 368.238281 C 861.003906 368.710938 861.425781 369.226562 861.796875 369.78125 C 862.167969 370.335938 862.480469 370.921875 862.734375 371.542969 C 862.992188 372.160156 863.183594 372.792969 863.316406 373.449219 C 863.445312 374.105469 863.511719 374.765625 863.511719 375.433594 Z M 863.511719 375.433594 " fill-opacity="1" fill-rule="nonzero"/><path fill="#ffffff" d="M 903.230469 454.875 C 903.230469 455.542969 903.164062 456.203125 903.035156 456.859375 C 902.90625 457.515625 902.710938 458.152344 902.457031 458.769531 C 902.199219 459.386719 901.886719 459.972656 901.515625 460.527344 C 901.144531 461.082031 900.722656 461.597656 900.25 462.070312 C 899.777344 462.542969 899.265625 462.964844 898.707031 463.335938 C 898.152344 463.707031 897.566406 464.019531 896.949219 464.277344 C 896.332031 464.53125 895.695312 464.722656 895.039062 464.855469 C 894.386719 464.984375 893.722656 465.050781 893.054688 465.050781 C 892.386719 465.050781 891.726562 464.984375 891.070312 464.855469 C 890.414062 464.722656 889.777344 464.53125 889.160156 464.277344 C 888.542969 464.019531 887.957031 463.707031 887.402344 463.335938 C 886.847656 462.964844 886.332031 462.542969 885.859375 462.070312 C 885.386719 461.597656 884.964844 461.082031 884.59375 460.527344 C 884.222656 459.972656 883.910156 459.386719 883.65625 458.769531 C 883.398438 458.152344 883.207031 457.515625 883.074219 456.859375 C 882.945312 456.203125 882.878906 455.542969 882.878906 454.875 C 882.878906 454.207031 882.945312 453.546875 883.074219 452.890625 C 883.207031 452.234375 883.398438 451.597656 883.65625 450.980469 C 883.910156 450.363281 884.222656 449.777344 884.59375 449.222656 C 884.964844 448.667969 885.386719 448.152344 885.859375 447.679688 C 886.332031 447.207031 886.847656 446.785156 887.402344 446.414062 C 887.957031 446.042969 888.542969 445.730469 889.160156 445.472656 C 889.777344 445.21875 890.414062 445.027344 891.070312 444.894531 C 891.726562 444.765625 892.386719 444.699219 893.054688 444.699219 C 893.722656 444.699219 894.386719 444.765625 895.039062 444.894531 C 895.695312 445.027344 896.332031 445.21875 896.949219 445.472656 C 897.566406 445.730469 898.152344 446.042969 898.707031 446.414062 C 899.265625 446.785156 899.777344 447.207031 900.25 447.679688 C 900.722656 448.152344 901.144531 448.667969 901.515625 449.222656 C 901.886719 449.777344 902.199219 450.363281 902.457031 450.980469 C 902.710938 451.597656 902.90625 452.234375 903.035156 452.890625 C 903.164062 453.546875 903.230469 454.207031 903.230469 454.875 Z M 903.230469 454.875 " fill-opacity="1" fill-rule="nonzero"/><g clip-path="url(#8e0e49452d)"><path fill="#ffffff" d="M 811.535156 515.824219 C 811.535156 516.496094 811.46875 517.15625 811.339844 517.8125 C 811.207031 518.464844 811.015625 519.101562 810.761719 519.71875 C 810.503906 520.335938 810.191406 520.921875 809.820312 521.480469 C 809.449219 522.035156 809.027344 522.546875 808.554688 523.019531 C 808.082031 523.492188 807.566406 523.914062 807.011719 524.285156 C 806.457031 524.65625 805.871094 524.972656 805.253906 525.226562 C 804.636719 525.480469 804 525.675781 803.34375 525.804688 C 802.6875 525.9375 802.027344 526 801.359375 526 C 800.691406 526 800.03125 525.9375 799.375 525.804688 C 798.71875 525.675781 798.082031 525.480469 797.464844 525.226562 C 796.847656 524.972656 796.261719 524.65625 795.707031 524.285156 C 795.152344 523.914062 794.636719 523.492188 794.164062 523.019531 C 793.691406 522.546875 793.269531 522.035156 792.898438 521.480469 C 792.527344 520.921875 792.214844 520.335938 791.957031 519.71875 C 791.703125 519.101562 791.511719 518.464844 791.378906 517.8125 C 791.25 517.15625 791.183594 516.496094 791.183594 515.824219 C 791.183594 515.15625 791.25 514.496094 791.378906 513.839844 C 791.511719 513.1875 791.703125 512.550781 791.957031 511.933594 C 792.214844 511.316406 792.527344 510.730469 792.898438 510.171875 C 793.269531 509.617188 793.691406 509.105469 794.164062 508.632812 C 794.636719 508.160156 795.152344 507.738281 795.707031 507.367188 C 796.261719 506.996094 796.847656 506.679688 797.464844 506.425781 C 798.082031 506.167969 798.71875 505.976562 799.375 505.847656 C 800.03125 505.714844 800.691406 505.652344 801.359375 505.652344 C 802.027344 505.652344 802.6875 505.714844 803.34375 505.847656 C 804 505.976562 804.636719 506.167969 805.253906 506.425781 C 805.871094 506.679688 806.457031 506.996094 807.011719 507.367188 C 807.566406 507.738281 808.082031 508.160156 808.554688 508.632812 C 809.027344 509.105469 809.449219 509.617188 809.820312 510.171875 C 810.191406 510.730469 810.503906 511.316406 810.761719 511.933594 C 811.015625 512.550781 811.207031 513.1875 811.339844 513.839844 C 811.46875 514.496094 811.535156 515.15625 811.535156 515.824219 Z M 811.535156 515.824219 " fill-opacity="1" fill-rule="nonzero"/></g><path fill="#ffffff" d="M 847.289062 649.164062 C 847.289062 649.832031 847.222656 650.496094 847.09375 651.152344 C 846.964844 651.804688 846.769531 652.441406 846.515625 653.058594 C 846.257812 653.675781 845.945312 654.261719 845.574219 654.820312 C 845.203125 655.375 844.78125 655.886719 844.308594 656.359375 C 843.835938 656.832031 843.324219 657.253906 842.765625 657.625 C 842.210938 657.996094 841.625 658.308594 841.007812 658.566406 C 840.390625 658.820312 839.753906 659.015625 839.097656 659.144531 C 838.445312 659.277344 837.78125 659.339844 837.113281 659.339844 C 836.445312 659.339844 835.785156 659.277344 835.128906 659.144531 C 834.472656 659.015625 833.835938 658.820312 833.21875 658.566406 C 832.601562 658.308594 832.015625 657.996094 831.460938 657.625 C 830.90625 657.253906 830.390625 656.832031 829.917969 656.359375 C 829.445312 655.886719 829.023438 655.375 828.652344 654.820312 C 828.28125 654.261719 827.96875 653.675781 827.714844 653.058594 C 827.457031 652.441406 827.265625 651.804688 827.136719 651.152344 C 827.003906 650.496094 826.9375 649.832031 826.9375 649.164062 C 826.9375 648.496094 827.003906 647.835938 827.136719 647.179688 C 827.265625 646.523438 827.457031 645.890625 827.714844 645.273438 C 827.96875 644.65625 828.28125 644.066406 828.652344 643.511719 C 829.023438 642.957031 829.445312 642.441406 829.917969 641.972656 C 830.390625 641.5 830.90625 641.078125 831.460938 640.707031 C 832.015625 640.335938 832.601562 640.019531 833.21875 639.765625 C 833.835938 639.507812 834.472656 639.316406 835.128906 639.1875 C 835.785156 639.054688 836.445312 638.992188 837.113281 638.992188 C 837.78125 638.992188 838.445312 639.054688 839.097656 639.1875 C 839.753906 639.316406 840.390625 639.507812 841.007812 639.765625 C 841.625 640.019531 842.210938 640.335938 842.765625 640.707031 C 843.324219 641.078125 843.835938 641.5 844.308594 641.972656 C 844.78125 642.441406 845.203125 642.957031 845.574219 643.511719 C 845.945312 644.066406 846.257812 644.65625 846.515625 645.273438 C 846.769531 645.890625 846.964844 646.523438 847.09375 647.179688 C 847.222656 647.835938 847.289062 648.496094 847.289062 649.164062 Z M 847.289062 649.164062 " fill-opacity="1" fill-rule="nonzero"/><path fill="#ffffff" d="M 1193.003906 654.578125 C 1193.003906 655.246094 1192.9375 655.90625 1192.808594 656.5625 C 1192.679688 657.21875 1192.484375 657.855469 1192.230469 658.472656 C 1191.972656 659.089844 1191.660156 659.675781 1191.289062 660.230469 C 1190.917969 660.785156 1190.496094 661.300781 1190.023438 661.773438 C 1189.550781 662.246094 1189.039062 662.667969 1188.480469 663.039062 C 1187.925781 663.410156 1187.339844 663.722656 1186.722656 663.980469 C 1186.105469 664.234375 1185.46875 664.425781 1184.8125 664.558594 C 1184.160156 664.6875 1183.496094 664.753906 1182.828125 664.753906 C 1182.160156 664.753906 1181.5 664.6875 1180.84375 664.558594 C 1180.1875 664.425781 1179.550781 664.234375 1178.933594 663.980469 C 1178.316406 663.722656 1177.730469 663.410156 1177.175781 663.039062 C 1176.621094 662.667969 1176.105469 662.246094 1175.632812 661.773438 C 1175.160156 661.300781 1174.738281 660.785156 1174.367188 660.230469 C 1173.996094 659.675781 1173.683594 659.089844 1173.429688 658.472656 C 1173.171875 657.855469 1172.980469 657.21875 1172.847656 656.5625 C 1172.71875 655.90625 1172.652344 655.246094 1172.652344 654.578125 C 1172.652344 653.910156 1172.71875 653.25 1172.847656 652.59375 C 1172.980469 651.9375 1173.171875 651.300781 1173.429688 650.683594 C 1173.683594 650.066406 1173.996094 649.480469 1174.367188 648.925781 C 1174.738281 648.371094 1175.160156 647.855469 1175.632812 647.382812 C 1176.105469 646.910156 1176.621094 646.488281 1177.175781 646.117188 C 1177.730469 645.746094 1178.316406 645.433594 1178.933594 645.175781 C 1179.550781 644.921875 1180.1875 644.730469 1180.84375 644.597656 C 1181.5 644.46875 1182.160156 644.402344 1182.828125 644.402344 C 1183.496094 644.402344 1184.160156 644.46875 1184.8125 644.597656 C 1185.46875 644.730469 1186.105469 644.921875 1186.722656 645.175781 C 1187.339844 645.433594 1187.925781 645.746094 1188.480469 646.117188 C 1189.039062 646.488281 1189.550781 646.910156 1190.023438 647.382812 C 1190.496094 647.855469 1190.917969 648.371094 1191.289062 648.925781 C 1191.660156 649.480469 1191.972656 650.066406 1192.230469 650.683594 C 1192.484375 651.300781 1192.679688 651.9375 1192.808594 652.59375 C 1192.9375 653.25 1193.003906 653.910156 1193.003906 654.578125 Z M 1193.003906 654.578125 " fill-opacity="1" fill-rule="nonzero"/><path fill="#ffffff" d="M 1109.640625 608.257812 C 1109.640625 608.925781 1109.574219 609.589844 1109.445312 610.246094 C 1109.316406 610.898438 1109.121094 611.535156 1108.867188 612.152344 C 1108.609375 612.769531 1108.296875 613.355469 1107.925781 613.914062 C 1107.554688 614.46875 1107.132812 614.980469 1106.660156 615.453125 C 1106.1875 615.925781 1105.675781 616.347656 1105.117188 616.71875 C 1104.5625 617.089844 1103.976562 617.40625 1103.359375 617.660156 C 1102.742188 617.914062 1102.105469 618.109375 1101.449219 618.238281 C 1100.796875 618.371094 1100.132812 618.433594 1099.464844 618.433594 C 1098.796875 618.433594 1098.136719 618.371094 1097.480469 618.238281 C 1096.824219 618.109375 1096.1875 617.914062 1095.570312 617.660156 C 1094.953125 617.40625 1094.367188 617.089844 1093.8125 616.71875 C 1093.257812 616.347656 1092.742188 615.925781 1092.269531 615.453125 C 1091.796875 614.980469 1091.375 614.46875 1091.003906 613.914062 C 1090.632812 613.355469 1090.320312 612.769531 1090.066406 612.152344 C 1089.808594 611.535156 1089.617188 610.898438 1089.484375 610.246094 C 1089.355469 609.589844 1089.289062 608.925781 1089.289062 608.257812 C 1089.289062 607.589844 1089.355469 606.929688 1089.484375 606.273438 C 1089.617188 605.621094 1089.808594 604.984375 1090.066406 604.367188 C 1090.320312 603.75 1090.632812 603.160156 1091.003906 602.605469 C 1091.375 602.050781 1091.796875 601.535156 1092.269531 601.066406 C 1092.742188 600.59375 1093.257812 600.171875 1093.8125 599.800781 C 1094.367188 599.429688 1094.953125 599.113281 1095.570312 598.859375 C 1096.1875 598.601562 1096.824219 598.410156 1097.480469 598.28125 C 1098.136719 598.148438 1098.796875 598.085938 1099.464844 598.085938 C 1100.132812 598.085938 1100.796875 598.148438 1101.449219 598.28125 C 1102.105469 598.410156 1102.742188 598.601562 1103.359375 598.859375 C 1103.976562 599.113281 1104.5625 599.429688 1105.117188 599.800781 C 1105.675781 600.171875 1106.1875 600.59375 1106.660156 601.066406 C 1107.132812 601.539062 1107.554688 602.050781 1107.925781 602.605469 C 1108.296875 603.164062 1108.609375 603.75 1108.867188 604.367188 C 1109.121094 604.984375 1109.316406 605.621094 1109.445312 606.273438 C 1109.574219 606.929688 1109.640625 607.589844 1109.640625 608.257812 Z M 1109.640625 608.257812 " fill-opacity="1" fill-rule="nonzero"/><path fill="#ffffff" d="M 1040.621094 734.875 C 1040.621094 735.542969 1040.554688 736.207031 1040.425781 736.859375 C 1040.292969 737.515625 1040.101562 738.152344 1039.847656 738.769531 C 1039.589844 739.386719 1039.277344 739.972656 1038.90625 740.527344 C 1038.535156 741.085938 1038.113281 741.597656 1037.640625 742.070312 C 1037.167969 742.542969 1036.652344 742.964844 1036.097656 743.335938 C 1035.542969 743.707031 1034.957031 744.019531 1034.339844 744.277344 C 1033.722656 744.53125 1033.085938 744.726562 1032.429688 744.855469 C 1031.777344 744.984375 1031.113281 745.050781 1030.445312 745.050781 C 1029.777344 745.050781 1029.117188 744.984375 1028.460938 744.855469 C 1027.804688 744.726562 1027.167969 744.53125 1026.550781 744.277344 C 1025.933594 744.019531 1025.347656 743.707031 1024.792969 743.335938 C 1024.238281 742.964844 1023.722656 742.542969 1023.25 742.070312 C 1022.777344 741.597656 1022.355469 741.085938 1021.984375 740.527344 C 1021.613281 739.972656 1021.300781 739.386719 1021.046875 738.769531 C 1020.789062 738.152344 1020.597656 737.515625 1020.464844 736.859375 C 1020.335938 736.207031 1020.269531 735.542969 1020.269531 734.875 C 1020.269531 734.207031 1020.335938 733.546875 1020.464844 732.890625 C 1020.597656 732.234375 1020.789062 731.597656 1021.046875 730.980469 C 1021.300781 730.363281 1021.613281 729.777344 1021.984375 729.222656 C 1022.355469 728.667969 1022.777344 728.152344 1023.25 727.679688 C 1023.722656 727.207031 1024.238281 726.785156 1024.792969 726.414062 C 1025.347656 726.042969 1025.933594 725.730469 1026.550781 725.476562 C 1027.167969 725.21875 1027.804688 725.027344 1028.460938 724.894531 C 1029.117188 724.765625 1029.777344 724.699219 1030.445312 724.699219 C 1031.113281 724.699219 1031.777344 724.765625 1032.429688 724.894531 C 1033.085938 725.027344 1033.722656 725.21875 1034.339844 725.476562 C 1034.957031 725.730469 1035.542969 726.042969 1036.097656 726.414062 C 1036.652344 726.785156 1037.167969 727.207031 1037.640625 727.679688 C 1038.113281 728.152344 1038.535156 728.667969 1038.90625 729.222656 C 1039.277344 729.777344 1039.589844 730.363281 1039.847656 730.980469 C 1040.101562 731.597656 1040.292969 732.234375 1040.425781 732.890625 C 1040.554688 733.546875 1040.621094 734.207031 1040.621094 734.875 Z M 1040.621094 734.875 " fill-opacity="1" fill-rule="nonzero"/><path fill="#ffffff" d="M 1242.078125 817.402344 C 1242.078125 818.070312 1242.011719 818.730469 1241.878906 819.386719 C 1241.75 820.042969 1241.558594 820.679688 1241.300781 821.296875 C 1241.046875 821.914062 1240.734375 822.5 1240.359375 823.054688 C 1239.988281 823.609375 1239.566406 824.125 1239.097656 824.597656 C 1238.625 825.070312 1238.109375 825.492188 1237.554688 825.863281 C 1237 826.234375 1236.414062 826.546875 1235.792969 826.804688 C 1235.175781 827.058594 1234.542969 827.25 1233.886719 827.382812 C 1233.230469 827.511719 1232.570312 827.578125 1231.902344 827.578125 C 1231.234375 827.578125 1230.570312 827.511719 1229.914062 827.382812 C 1229.261719 827.25 1228.625 827.058594 1228.007812 826.804688 C 1227.390625 826.546875 1226.804688 826.234375 1226.25 825.863281 C 1225.691406 825.492188 1225.179688 825.070312 1224.707031 824.597656 C 1224.234375 824.125 1223.8125 823.609375 1223.441406 823.054688 C 1223.070312 822.5 1222.757812 821.914062 1222.5 821.296875 C 1222.246094 820.679688 1222.050781 820.042969 1221.921875 819.386719 C 1221.792969 818.730469 1221.726562 818.070312 1221.726562 817.402344 C 1221.726562 816.734375 1221.792969 816.074219 1221.921875 815.417969 C 1222.050781 814.761719 1222.246094 814.125 1222.5 813.507812 C 1222.757812 812.890625 1223.070312 812.304688 1223.441406 811.75 C 1223.8125 811.195312 1224.234375 810.679688 1224.707031 810.207031 C 1225.179688 809.734375 1225.691406 809.3125 1226.25 808.941406 C 1226.804688 808.570312 1227.390625 808.257812 1228.007812 808.003906 C 1228.625 807.746094 1229.261719 807.554688 1229.914062 807.421875 C 1230.570312 807.292969 1231.234375 807.226562 1231.902344 807.226562 C 1232.570312 807.226562 1233.230469 807.292969 1233.886719 807.421875 C 1234.542969 807.554688 1235.175781 807.746094 1235.792969 808.003906 C 1236.414062 808.257812 1237 808.570312 1237.554688 808.941406 C 1238.109375 809.3125 1238.625 809.734375 1239.097656 810.207031 C 1239.570312 810.679688 1239.988281 811.195312 1240.363281 811.75 C 1240.734375 812.304688 1241.046875 812.890625 1241.300781 813.507812 C 1241.558594 814.125 1241.75 814.761719 1241.878906 815.417969 C 1242.011719 816.074219 1242.078125 816.734375 1242.078125 817.402344 Z M 1242.078125 817.402344 " fill-opacity="1" fill-rule="nonzero"/><path fill="#ffffff" d="M 1353.882812 862.632812 C 1353.882812 863.300781 1353.816406 863.960938 1353.6875 864.617188 C 1353.554688 865.273438 1353.363281 865.910156 1353.105469 866.527344 C 1352.851562 867.144531 1352.539062 867.730469 1352.167969 868.285156 C 1351.796875 868.839844 1351.375 869.355469 1350.902344 869.828125 C 1350.429688 870.300781 1349.914062 870.722656 1349.359375 871.09375 C 1348.804688 871.464844 1348.21875 871.777344 1347.601562 872.03125 C 1346.984375 872.289062 1346.347656 872.480469 1345.691406 872.613281 C 1345.035156 872.742188 1344.375 872.808594 1343.707031 872.808594 C 1343.039062 872.808594 1342.378906 872.742188 1341.722656 872.613281 C 1341.066406 872.480469 1340.429688 872.289062 1339.8125 872.03125 C 1339.195312 871.777344 1338.609375 871.464844 1338.054688 871.09375 C 1337.5 870.722656 1336.984375 870.300781 1336.511719 869.828125 C 1336.039062 869.355469 1335.617188 868.839844 1335.246094 868.285156 C 1334.875 867.730469 1334.5625 867.144531 1334.304688 866.527344 C 1334.050781 865.910156 1333.859375 865.273438 1333.726562 864.617188 C 1333.597656 863.960938 1333.53125 863.300781 1333.53125 862.632812 C 1333.53125 861.964844 1333.597656 861.300781 1333.726562 860.648438 C 1333.859375 859.992188 1334.050781 859.355469 1334.304688 858.738281 C 1334.5625 858.121094 1334.875 857.535156 1335.246094 856.980469 C 1335.617188 856.421875 1336.039062 855.910156 1336.511719 855.4375 C 1336.984375 854.964844 1337.5 854.542969 1338.054688 854.171875 C 1338.609375 853.800781 1339.195312 853.488281 1339.8125 853.230469 C 1340.429688 852.976562 1341.066406 852.78125 1341.722656 852.652344 C 1342.378906 852.523438 1343.039062 852.457031 1343.707031 852.457031 C 1344.375 852.457031 1345.035156 852.523438 1345.691406 852.652344 C 1346.347656 852.78125 1346.984375 852.976562 1347.601562 853.230469 C 1348.21875 853.488281 1348.804688 853.800781 1349.359375 854.171875 C 1349.914062 854.542969 1350.429688 854.964844 1350.902344 855.4375 C 1351.375 855.910156 1351.796875 856.421875 1352.167969 856.980469 C 1352.539062 857.535156 1352.851562 858.121094 1353.105469 858.738281 C 1353.363281 859.355469 1353.554688 859.992188 1353.6875 860.648438 C 1353.816406 861.300781 1353.882812 861.964844 1353.882812 862.632812 Z M 1353.882812 862.632812 " fill-opacity="1" fill-rule="nonzero"/><path fill="#ffffff" d="M 1445.089844 911.179688 C 1445.089844 911.847656 1445.023438 912.507812 1444.894531 913.164062 C 1444.765625 913.820312 1444.570312 914.457031 1444.316406 915.074219 C 1444.058594 915.691406 1443.746094 916.277344 1443.375 916.832031 C 1443.003906 917.386719 1442.582031 917.902344 1442.109375 918.375 C 1441.636719 918.847656 1441.125 919.269531 1440.566406 919.640625 C 1440.011719 920.011719 1439.425781 920.324219 1438.808594 920.578125 C 1438.191406 920.835938 1437.554688 921.027344 1436.898438 921.160156 C 1436.246094 921.289062 1435.582031 921.355469 1434.914062 921.355469 C 1434.246094 921.355469 1433.585938 921.289062 1432.929688 921.160156 C 1432.273438 921.027344 1431.636719 920.835938 1431.019531 920.578125 C 1430.402344 920.324219 1429.816406 920.011719 1429.261719 919.640625 C 1428.707031 919.269531 1428.191406 918.847656 1427.71875 918.375 C 1427.246094 917.902344 1426.824219 917.386719 1426.453125 916.832031 C 1426.082031 916.277344 1425.769531 915.691406 1425.515625 915.074219 C 1425.257812 914.457031 1425.066406 913.820312 1424.933594 913.164062 C 1424.804688 912.507812 1424.738281 911.847656 1424.738281 911.179688 C 1424.738281 910.511719 1424.804688 909.847656 1424.933594 909.195312 C 1425.066406 908.539062 1425.257812 907.902344 1425.515625 907.285156 C 1425.769531 906.667969 1426.082031 906.082031 1426.453125 905.527344 C 1426.824219 904.972656 1427.246094 904.457031 1427.71875 903.984375 C 1428.191406 903.511719 1428.707031 903.089844 1429.261719 902.71875 C 1429.816406 902.347656 1430.402344 902.035156 1431.019531 901.777344 C 1431.636719 901.523438 1432.273438 901.328125 1432.929688 901.199219 C 1433.585938 901.070312 1434.246094 901.003906 1434.914062 901.003906 C 1435.582031 901.003906 1436.246094 901.070312 1436.898438 901.199219 C 1437.554688 901.328125 1438.191406 901.523438 1438.808594 901.777344 C 1439.425781 902.035156 1440.011719 902.347656 1440.566406 902.71875 C 1441.125 903.089844 1441.636719 903.511719 1442.109375 903.984375 C 1442.582031 904.457031 1443.003906 904.972656 1443.375 905.527344 C 1443.746094 906.082031 1444.058594 906.667969 1444.316406 907.285156 C 1444.570312 907.902344 1444.765625 908.539062 1444.894531 909.195312 C 1445.023438 909.847656 1445.089844 910.511719 1445.089844 911.179688 Z M 1445.089844 911.179688 " fill-opacity="1" fill-rule="nonzero"/><g clip-path="url(#5b82ee1fa2)"><path fill="#ffffff" d="M 1589.746094 951.859375 C 1589.746094 952.527344 1589.679688 953.191406 1589.550781 953.847656 C 1589.421875 954.5 1589.226562 955.136719 1588.972656 955.753906 C 1588.714844 956.371094 1588.402344 956.957031 1588.03125 957.515625 C 1587.660156 958.070312 1587.238281 958.582031 1586.765625 959.054688 C 1586.292969 959.527344 1585.78125 959.949219 1585.226562 960.320312 C 1584.667969 960.691406 1584.082031 961.007812 1583.464844 961.261719 C 1582.847656 961.515625 1582.210938 961.710938 1581.558594 961.839844 C 1580.902344 961.972656 1580.238281 962.035156 1579.570312 962.035156 C 1578.902344 962.035156 1578.242188 961.972656 1577.585938 961.839844 C 1576.929688 961.710938 1576.296875 961.515625 1575.679688 961.261719 C 1575.058594 961.007812 1574.472656 960.691406 1573.917969 960.320312 C 1573.363281 959.949219 1572.847656 959.527344 1572.375 959.054688 C 1571.90625 958.582031 1571.484375 958.070312 1571.113281 957.515625 C 1570.738281 956.957031 1570.425781 956.371094 1570.171875 955.753906 C 1569.914062 955.136719 1569.722656 954.5 1569.59375 953.847656 C 1569.460938 953.191406 1569.398438 952.527344 1569.398438 951.859375 C 1569.398438 951.191406 1569.460938 950.53125 1569.59375 949.875 C 1569.722656 949.21875 1569.914062 948.585938 1570.171875 947.96875 C 1570.425781 947.351562 1570.738281 946.761719 1571.113281 946.207031 C 1571.484375 945.652344 1571.90625 945.136719 1572.375 944.667969 C 1572.847656 944.195312 1573.363281 943.773438 1573.917969 943.402344 C 1574.472656 943.03125 1575.0625 942.714844 1575.679688 942.460938 C 1576.296875 942.203125 1576.929688 942.011719 1577.585938 941.882812 C 1578.242188 941.75 1578.902344 941.6875 1579.570312 941.6875 C 1580.238281 941.6875 1580.902344 941.75 1581.558594 941.882812 C 1582.210938 942.011719 1582.847656 942.203125 1583.464844 942.460938 C 1584.082031 942.714844 1584.667969 943.03125 1585.222656 943.402344 C 1585.78125 943.773438 1586.292969 944.195312 1586.765625 944.667969 C 1587.238281 945.136719 1587.660156 945.652344 1588.03125 946.207031 C 1588.402344 946.761719 1588.714844 947.351562 1588.972656 947.96875 C 1589.226562 948.585938 1589.421875 949.21875 1589.550781 949.875 C 1589.679688 950.53125 1589.746094 951.191406 1589.746094 951.859375 Z M 1589.746094 951.859375 " fill-opacity="1" fill-rule="nonzero"/></g><g clip-path="url(#35ef9a3d4e)"><path fill="#ffffff" d="M 1125.859375 951.859375 C 1125.859375 952.527344 1125.792969 953.191406 1125.664062 953.847656 C 1125.535156 954.5 1125.339844 955.136719 1125.085938 955.753906 C 1124.828125 956.371094 1124.515625 956.957031 1124.144531 957.515625 C 1123.773438 958.070312 1123.351562 958.582031 1122.878906 959.054688 C 1122.40625 959.527344 1121.894531 959.949219 1121.335938 960.320312 C 1120.78125 960.691406 1120.195312 961.007812 1119.578125 961.261719 C 1118.960938 961.515625 1118.324219 961.710938 1117.667969 961.839844 C 1117.015625 961.972656 1116.351562 962.035156 1115.683594 962.035156 C 1115.015625 962.035156 1114.355469 961.972656 1113.699219 961.839844 C 1113.042969 961.710938 1112.40625 961.515625 1111.789062 961.261719 C 1111.171875 961.007812 1110.585938 960.691406 1110.03125 960.320312 C 1109.476562 959.949219 1108.960938 959.527344 1108.488281 959.054688 C 1108.015625 958.582031 1107.59375 958.070312 1107.222656 957.515625 C 1106.851562 956.957031 1106.539062 956.371094 1106.285156 955.753906 C 1106.027344 955.136719 1105.835938 954.5 1105.703125 953.847656 C 1105.574219 953.191406 1105.507812 952.527344 1105.507812 951.859375 C 1105.507812 951.191406 1105.574219 950.53125 1105.703125 949.875 C 1105.835938 949.21875 1106.027344 948.585938 1106.285156 947.96875 C 1106.539062 947.351562 1106.851562 946.761719 1107.222656 946.207031 C 1107.59375 945.652344 1108.015625 945.136719 1108.488281 944.667969 C 1108.960938 944.195312 1109.476562 943.773438 1110.03125 943.402344 C 1110.585938 943.03125 1111.171875 942.714844 1111.789062 942.460938 C 1112.40625 942.203125 1113.042969 942.011719 1113.699219 941.882812 C 1114.355469 941.75 1115.015625 941.6875 1115.683594 941.6875 C 1116.351562 941.6875 1117.015625 941.75 1117.667969 941.882812 C 1118.324219 942.011719 1118.960938 942.203125 1119.578125 942.460938 C 1120.195312 942.714844 1120.78125 943.03125 1121.335938 943.402344 C 1121.894531 943.773438 1122.40625 944.195312 1122.878906 944.667969 C 1123.351562 945.136719 1123.773438 945.652344 1124.144531 946.207031 C 1124.515625 946.761719 1124.828125 947.351562 1125.085938 947.96875 C 1125.339844 948.585938 1125.535156 949.21875 1125.664062 949.875 C 1125.792969 950.53125 1125.859375 951.191406 1125.859375 951.859375 Z M 1125.859375 951.859375 " fill-opacity="1" fill-rule="nonzero"/></g><g clip-path="url(#8b935aab89)"><path fill="#ffffff" d="M 1057.300781 951.859375 C 1057.300781 952.527344 1057.234375 953.191406 1057.105469 953.847656 C 1056.972656 954.5 1056.78125 955.136719 1056.523438 955.753906 C 1056.269531 956.371094 1055.957031 956.957031 1055.585938 957.515625 C 1055.214844 958.070312 1054.792969 958.582031 1054.320312 959.054688 C 1053.847656 959.527344 1053.332031 959.949219 1052.777344 960.320312 C 1052.222656 960.691406 1051.636719 961.007812 1051.019531 961.261719 C 1050.402344 961.515625 1049.765625 961.710938 1049.109375 961.839844 C 1048.453125 961.972656 1047.792969 962.035156 1047.125 962.035156 C 1046.457031 962.035156 1045.792969 961.972656 1045.140625 961.839844 C 1044.484375 961.710938 1043.847656 961.515625 1043.230469 961.261719 C 1042.613281 961.007812 1042.027344 960.691406 1041.472656 960.320312 C 1040.914062 959.949219 1040.402344 959.527344 1039.929688 959.054688 C 1039.457031 958.582031 1039.035156 958.070312 1038.664062 957.515625 C 1038.292969 956.957031 1037.980469 956.371094 1037.722656 955.753906 C 1037.46875 955.136719 1037.273438 954.5 1037.144531 953.847656 C 1037.015625 953.191406 1036.949219 952.527344 1036.949219 951.859375 C 1036.949219 951.191406 1037.015625 950.53125 1037.144531 949.875 C 1037.273438 949.21875 1037.46875 948.585938 1037.722656 947.96875 C 1037.980469 947.351562 1038.292969 946.761719 1038.664062 946.207031 C 1039.035156 945.652344 1039.457031 945.136719 1039.929688 944.667969 C 1040.402344 944.195312 1040.914062 943.773438 1041.472656 943.402344 C 1042.027344 943.03125 1042.613281 942.714844 1043.230469 942.460938 C 1043.847656 942.203125 1044.484375 942.011719 1045.140625 941.882812 C 1045.792969 941.75 1046.457031 941.6875 1047.125 941.6875 C 1047.792969 941.6875 1048.453125 941.75 1049.109375 941.882812 C 1049.765625 942.011719 1050.402344 942.203125 1051.019531 942.460938 C 1051.636719 942.714844 1052.222656 943.03125 1052.777344 943.402344 C 1053.332031 943.773438 1053.847656 944.195312 1054.320312 944.667969 C 1054.792969 945.136719 1055.214844 945.652344 1055.585938 946.207031 C 1055.957031 946.761719 1056.269531 947.351562 1056.523438 947.96875 C 1056.78125 948.585938 1056.972656 949.21875 1057.105469 949.875 C 1057.234375 950.53125 1057.300781 951.191406 1057.300781 951.859375 Z M 1057.300781 951.859375 " fill-opacity="1" fill-rule="nonzero"/></g><path fill="#ffffff" d="M 947.960938 908.015625 C 947.960938 908.683594 947.894531 909.347656 947.765625 910 C 947.632812 910.65625 947.441406 911.292969 947.1875 911.910156 C 946.929688 912.527344 946.617188 913.113281 946.246094 913.667969 C 945.875 914.226562 945.453125 914.738281 944.980469 915.210938 C 944.507812 915.683594 943.992188 916.105469 943.4375 916.476562 C 942.882812 916.847656 942.296875 917.160156 941.679688 917.417969 C 941.0625 917.671875 940.425781 917.867188 939.769531 917.996094 C 939.117188 918.125 938.453125 918.191406 937.785156 918.191406 C 937.117188 918.191406 936.457031 918.125 935.800781 917.996094 C 935.144531 917.867188 934.507812 917.671875 933.890625 917.417969 C 933.273438 917.160156 932.6875 916.847656 932.132812 916.476562 C 931.578125 916.105469 931.0625 915.683594 930.589844 915.210938 C 930.117188 914.738281 929.695312 914.226562 929.324219 913.667969 C 928.953125 913.113281 928.640625 912.527344 928.386719 911.910156 C 928.128906 911.292969 927.9375 910.65625 927.804688 910 C 927.675781 909.347656 927.609375 908.683594 927.609375 908.015625 C 927.609375 907.347656 927.675781 906.6875 927.804688 906.03125 C 927.9375 905.375 928.128906 904.738281 928.386719 904.121094 C 928.640625 903.503906 928.953125 902.917969 929.324219 902.363281 C 929.695312 901.808594 930.117188 901.292969 930.589844 900.820312 C 931.0625 900.347656 931.578125 899.925781 932.132812 899.554688 C 932.6875 899.183594 933.273438 898.871094 933.890625 898.617188 C 934.507812 898.359375 935.144531 898.167969 935.800781 898.035156 C 936.457031 897.90625 937.117188 897.839844 937.785156 897.839844 C 938.453125 897.839844 939.117188 897.90625 939.769531 898.035156 C 940.425781 898.167969 941.0625 898.359375 941.679688 898.617188 C 942.296875 898.871094 942.882812 899.183594 943.4375 899.554688 C 943.992188 899.925781 944.507812 900.347656 944.980469 900.820312 C 945.453125 901.292969 945.875 901.808594 946.246094 902.363281 C 946.617188 902.917969 946.929688 903.503906 947.1875 904.121094 C 947.441406 904.738281 947.632812 905.375 947.765625 906.03125 C 947.894531 906.6875 947.960938 907.347656 947.960938 908.015625 Z M 947.960938 908.015625 " fill-opacity="1" fill-rule="nonzero"/><g clip-path="url(#c98bd54160)"><path fill="#ffffff" d="M 811.535156 840.941406 C 811.535156 841.609375 811.46875 842.269531 811.339844 842.925781 C 811.207031 843.582031 811.015625 844.21875 810.761719 844.835938 C 810.503906 845.453125 810.191406 846.039062 809.820312 846.59375 C 809.449219 847.148438 809.027344 847.664062 808.554688 848.136719 C 808.082031 848.609375 807.566406 849.03125 807.011719 849.402344 C 806.457031 849.773438 805.871094 850.085938 805.253906 850.339844 C 804.636719 850.597656 804 850.789062 803.34375 850.921875 C 802.6875 851.050781 802.027344 851.117188 801.359375 851.117188 C 800.691406 851.117188 800.03125 851.050781 799.375 850.921875 C 798.71875 850.789062 798.082031 850.597656 797.464844 850.339844 C 796.847656 850.085938 796.261719 849.773438 795.707031 849.402344 C 795.152344 849.03125 794.636719 848.609375 794.164062 848.136719 C 793.691406 847.664062 793.269531 847.148438 792.898438 846.59375 C 792.527344 846.039062 792.214844 845.453125 791.957031 844.835938 C 791.703125 844.21875 791.511719 843.582031 791.378906 842.925781 C 791.25 842.269531 791.183594 841.609375 791.183594 840.941406 C 791.183594 840.273438 791.25 839.609375 791.378906 838.957031 C 791.511719 838.300781 791.703125 837.664062 791.957031 837.046875 C 792.214844 836.429688 792.527344 835.84375 792.898438 835.289062 C 793.269531 834.730469 793.691406 834.21875 794.164062 833.746094 C 794.636719 833.273438 795.152344 832.851562 795.707031 832.480469 C 796.261719 832.109375 796.847656 831.796875 797.464844 831.539062 C 798.082031 831.285156 798.71875 831.089844 799.375 830.960938 C 800.03125 830.832031 800.691406 830.765625 801.359375 830.765625 C 802.027344 830.765625 802.6875 830.832031 803.34375 830.960938 C 804 831.089844 804.636719 831.285156 805.253906 831.539062 C 805.871094 831.796875 806.457031 832.109375 807.011719 832.480469 C 807.566406 832.851562 808.082031 833.273438 808.554688 833.746094 C 809.027344 834.21875 809.449219 834.730469 809.820312 835.289062 C 810.191406 835.84375 810.503906 836.429688 810.761719 837.046875 C 811.015625 837.664062 811.207031 838.300781 811.339844 838.957031 C 811.46875 839.609375 811.535156 840.273438 811.535156 840.941406 Z M 811.535156 840.941406 " fill-opacity="1" fill-rule="nonzero"/></g><path fill="#ffffff" d="M 902.148438 862.902344 C 902.148438 863.570312 902.082031 864.230469 901.953125 864.886719 C 901.824219 865.542969 901.628906 866.179688 901.375 866.796875 C 901.117188 867.414062 900.804688 868 900.433594 868.554688 C 900.0625 869.109375 899.640625 869.625 899.167969 870.097656 C 898.695312 870.570312 898.183594 870.992188 897.625 871.363281 C 897.070312 871.734375 896.484375 872.046875 895.867188 872.304688 C 895.25 872.558594 894.613281 872.75 893.957031 872.882812 C 893.304688 873.011719 892.640625 873.078125 891.972656 873.078125 C 891.304688 873.078125 890.644531 873.011719 889.988281 872.882812 C 889.332031 872.75 888.695312 872.558594 888.078125 872.304688 C 887.460938 872.046875 886.875 871.734375 886.320312 871.363281 C 885.765625 870.992188 885.25 870.570312 884.777344 870.097656 C 884.304688 869.625 883.882812 869.109375 883.511719 868.554688 C 883.140625 868 882.828125 867.414062 882.574219 866.796875 C 882.316406 866.179688 882.125 865.542969 881.992188 864.886719 C 881.863281 864.230469 881.796875 863.570312 881.796875 862.902344 C 881.796875 862.234375 881.863281 861.574219 881.992188 860.917969 C 882.125 860.261719 882.316406 859.625 882.574219 859.007812 C 882.828125 858.390625 883.140625 857.804688 883.511719 857.25 C 883.882812 856.695312 884.304688 856.179688 884.777344 855.707031 C 885.25 855.234375 885.765625 854.8125 886.320312 854.441406 C 886.875 854.070312 887.460938 853.757812 888.078125 853.5 C 888.695312 853.246094 889.332031 853.054688 889.988281 852.921875 C 890.644531 852.792969 891.304688 852.726562 891.972656 852.726562 C 892.640625 852.726562 893.304688 852.792969 893.957031 852.921875 C 894.613281 853.054688 895.25 853.246094 895.867188 853.5 C 896.484375 853.757812 897.070312 854.070312 897.625 854.441406 C 898.183594 854.8125 898.695312 855.234375 899.167969 855.707031 C 899.640625 856.179688 900.0625 856.695312 900.433594 857.25 C 900.804688 857.804688 901.117188 858.390625 901.375 859.007812 C 901.628906 859.625 901.824219 860.261719 901.953125 860.917969 C 902.082031 861.574219 902.148438 862.234375 902.148438 862.902344 Z M 902.148438 862.902344 " fill-opacity="1" fill-rule="nonzero"/><path fill="#ffffff" d="M 950.695312 841.816406 C 950.695312 842.484375 950.628906 843.148438 950.5 843.800781 C 950.371094 844.457031 950.175781 845.09375 949.921875 845.710938 C 949.664062 846.328125 949.351562 846.914062 948.980469 847.46875 C 948.609375 848.027344 948.1875 848.539062 947.714844 849.011719 C 947.242188 849.484375 946.730469 849.90625 946.171875 850.277344 C 945.617188 850.648438 945.03125 850.960938 944.414062 851.21875 C 943.796875 851.472656 943.160156 851.667969 942.503906 851.796875 C 941.851562 851.925781 941.1875 851.992188 940.519531 851.992188 C 939.851562 851.992188 939.191406 851.925781 938.535156 851.796875 C 937.878906 851.667969 937.242188 851.472656 936.625 851.21875 C 936.007812 850.960938 935.421875 850.648438 934.867188 850.277344 C 934.3125 849.90625 933.796875 849.484375 933.324219 849.011719 C 932.851562 848.539062 932.429688 848.027344 932.058594 847.46875 C 931.6875 846.914062 931.375 846.328125 931.121094 845.710938 C 930.863281 845.09375 930.671875 844.457031 930.542969 843.800781 C 930.410156 843.148438 930.34375 842.484375 930.34375 841.816406 C 930.34375 841.148438 930.410156 840.488281 930.542969 839.832031 C 930.671875 839.175781 930.863281 838.539062 931.121094 837.921875 C 931.375 837.304688 931.6875 836.71875 932.058594 836.164062 C 932.429688 835.609375 932.851562 835.09375 933.324219 834.621094 C 933.796875 834.148438 934.3125 833.726562 934.867188 833.355469 C 935.421875 832.984375 936.007812 832.671875 936.625 832.417969 C 937.242188 832.160156 937.878906 831.96875 938.535156 831.835938 C 939.191406 831.707031 939.851562 831.640625 940.519531 831.640625 C 941.1875 831.640625 941.851562 831.707031 942.503906 831.835938 C 943.160156 831.96875 943.796875 832.160156 944.414062 832.417969 C 945.03125 832.671875 945.617188 832.984375 946.171875 833.355469 C 946.730469 833.726562 947.242188 834.148438 947.714844 834.621094 C 948.1875 835.09375 948.609375 835.609375 948.980469 836.164062 C 949.351562 836.71875 949.664062 837.304688 949.921875 837.921875 C 950.175781 838.539062 950.371094 839.175781 950.5 839.832031 C 950.628906 840.488281 950.695312 841.148438 950.695312 841.816406 Z M 950.695312 841.816406 " fill-opacity="1" fill-rule="nonzero"/><g clip-path="url(#1e12f38751)"><path fill="#ffffff" d="M 811.535156 772.210938 C 811.535156 772.878906 811.46875 773.542969 811.339844 774.195312 C 811.207031 774.851562 811.015625 775.488281 810.761719 776.105469 C 810.503906 776.722656 810.191406 777.308594 809.820312 777.863281 C 809.449219 778.421875 809.027344 778.933594 808.554688 779.40625 C 808.082031 779.878906 807.566406 780.300781 807.011719 780.671875 C 806.457031 781.042969 805.871094 781.355469 805.253906 781.613281 C 804.636719 781.867188 804 782.0625 803.34375 782.191406 C 802.6875 782.320312 802.027344 782.386719 801.359375 782.386719 C 800.691406 782.386719 800.03125 782.320312 799.375 782.191406 C 798.71875 782.0625 798.082031 781.867188 797.464844 781.613281 C 796.847656 781.355469 796.261719 781.042969 795.707031 780.671875 C 795.152344 780.300781 794.636719 779.878906 794.164062 779.40625 C 793.691406 778.933594 793.269531 778.421875 792.898438 777.863281 C 792.527344 777.308594 792.214844 776.722656 791.957031 776.105469 C 791.703125 775.488281 791.511719 774.851562 791.378906 774.199219 C 791.25 773.542969 791.183594 772.878906 791.183594 772.210938 C 791.183594 771.542969 791.25 770.882812 791.378906 770.226562 C 791.511719 769.570312 791.703125 768.9375 791.957031 768.320312 C 792.214844 767.699219 792.527344 767.113281 792.898438 766.558594 C 793.269531 766.003906 793.691406 765.488281 794.164062 765.015625 C 794.636719 764.546875 795.152344 764.125 795.707031 763.753906 C 796.261719 763.378906 796.847656 763.066406 797.464844 762.8125 C 798.082031 762.554688 798.71875 762.363281 799.375 762.234375 C 800.03125 762.101562 800.691406 762.039062 801.359375 762.039062 C 802.027344 762.039062 802.6875 762.101562 803.34375 762.234375 C 804 762.363281 804.636719 762.554688 805.253906 762.8125 C 805.871094 763.066406 806.457031 763.378906 807.011719 763.753906 C 807.566406 764.125 808.082031 764.546875 808.554688 765.015625 C 809.027344 765.488281 809.449219 766.003906 809.820312 766.558594 C 810.191406 767.113281 810.503906 767.699219 810.761719 768.320312 C 811.015625 768.9375 811.207031 769.570312 811.339844 770.226562 C 811.46875 770.882812 811.535156 771.542969 811.535156 772.210938 Z M 811.535156 772.210938 " fill-opacity="1" fill-rule="nonzero"/></g></svg>