<svg xmlns="http://www.w3.org/2000/svg" xmlns:xlink="http://www.w3.org/1999/xlink" width="3000" zoomAndPan="magnify" viewBox="0 0 2250 1265.999941" height="1688" preserveAspectRatio="xMidYMid meet" version="1.0"><defs><clipPath id="dd618c1c3d"><path d="M 979 130 L 1113 130 L 1113 1115.855469 L 979 1115.855469 Z M 979 130 " clip-rule="nonzero"/></clipPath><clipPath id="fc962e03c1"><path d="M 1011 92.855469 L 1058 92.855469 L 1058 139 L 1011 139 Z M 1011 92.855469 " clip-rule="nonzero"/></clipPath><clipPath id="5aeda0d2e9"><path d="M 959.636719 170 L 1006 170 L 1006 217 L 959.636719 217 Z M 959.636719 170 " clip-rule="nonzero"/></clipPath><clipPath id="4b643134bb"><path d="M 1147 907 L 1155 907 L 1155 1115.855469 L 1147 1115.855469 Z M 1147 907 " clip-rule="nonzero"/></clipPath></defs><g clip-path="url(#dd618c1c3d)"><path fill="#f1863d" d="M 1112.007812 343.363281 L 1112.007812 729.664062 L 986.246094 855.429688 L 986.246094 1115.855469 L 979.425781 1115.855469 L 979.425781 852.605469 L 1105.191406 726.84375 L 1105.191406 346.183594 L 1030.96875 271.964844 L 1030.96875 130.355469 L 1037.789062 130.355469 L 1037.789062 269.140625 Z M 1112.007812 343.363281 " fill-opacity="1" fill-rule="nonzero"/></g><path fill="#f1863d" d="M 1003.253906 556.164062 C 1003.253906 556.328125 1003.25 556.492188 1003.25 556.660156 C 1003.21875 558 1003.058594 559.324219 1002.769531 560.632812 C 1002.476562 561.941406 1002.0625 563.210938 1001.519531 564.4375 C 1000.976562 565.664062 1000.320312 566.824219 999.546875 567.921875 C 998.773438 569.015625 997.902344 570.027344 996.929688 570.949219 C 996.367188 571.488281 995.773438 571.988281 995.15625 572.457031 C 994.535156 572.925781 993.890625 573.359375 993.222656 573.753906 C 992.554688 574.148438 991.863281 574.503906 991.15625 574.820312 C 990.445312 575.140625 989.71875 575.414062 988.980469 575.648438 C 988.238281 575.882812 987.488281 576.074219 986.722656 576.21875 C 985.960938 576.367188 985.191406 576.472656 984.417969 576.53125 C 983.644531 576.59375 982.867188 576.609375 982.089844 576.582031 C 981.316406 576.550781 980.542969 576.480469 979.773438 576.363281 C 979.007812 576.246094 978.246094 576.085938 977.496094 575.882812 C 976.746094 575.679688 976.011719 575.4375 975.289062 575.148438 C 974.566406 574.863281 973.863281 574.535156 973.179688 574.167969 C 972.496094 573.800781 971.832031 573.394531 971.195312 572.953125 C 970.558594 572.507812 969.945312 572.03125 969.363281 571.519531 C 968.777344 571.003906 968.226562 570.460938 967.703125 569.886719 C 967.183594 569.308594 966.695312 568.707031 966.242188 568.074219 C 965.789062 567.441406 965.375 566.789062 964.996094 566.109375 C 964.617188 565.429688 964.28125 564.730469 963.980469 564.015625 C 963.683594 563.296875 963.425781 562.566406 963.210938 561.820312 C 962.996094 561.070312 962.824219 560.316406 962.695312 559.550781 C 962.570312 558.78125 962.484375 558.011719 962.445312 557.234375 C 962.402344 556.460938 962.40625 555.683594 962.457031 554.910156 C 962.503906 554.132812 962.597656 553.363281 962.730469 552.597656 C 962.867188 551.832031 963.046875 551.078125 963.269531 550.335938 C 963.492188 549.589844 963.757812 548.859375 964.0625 548.144531 C 964.367188 547.429688 964.710938 546.738281 965.097656 546.0625 C 965.480469 545.386719 965.902344 544.734375 966.363281 544.109375 C 966.824219 543.484375 967.316406 542.882812 967.84375 542.3125 C 968.371094 541.742188 968.929688 541.203125 969.519531 540.699219 C 970.105469 540.191406 970.722656 539.71875 971.367188 539.28125 C 972.007812 538.847656 972.675781 538.449219 973.363281 538.085938 C 974.050781 537.726562 974.757812 537.40625 975.480469 537.128906 C 976.207031 536.847656 976.945312 536.609375 977.695312 536.414062 C 978.449219 536.21875 979.210938 536.066406 979.980469 535.957031 C 980.75 535.847656 981.519531 535.785156 982.296875 535.765625 C 983.074219 535.742188 983.851562 535.765625 984.625 535.835938 C 985.398438 535.902344 986.164062 536.015625 986.925781 536.171875 C 987.6875 536.328125 988.4375 536.527344 989.175781 536.765625 C 989.914062 537.007812 990.636719 537.289062 991.34375 537.613281 C 992.050781 537.9375 992.734375 538.300781 993.402344 538.703125 C 994.066406 539.105469 994.707031 539.542969 995.320312 540.019531 C 995.933594 540.492188 996.519531 541.003906 997.078125 541.542969 C 997.632812 542.085938 998.15625 542.660156 998.648438 543.261719 C 999.140625 543.863281 999.597656 544.488281 1000.015625 545.144531 C 1000.4375 545.796875 1000.816406 546.472656 1001.160156 547.171875 C 1001.503906 547.867188 1001.804688 548.582031 1002.066406 549.3125 C 1002.328125 550.046875 1002.546875 550.789062 1002.722656 551.546875 C 1002.898438 552.304688 1003.03125 553.066406 1003.121094 553.839844 C 1003.207031 554.609375 1003.253906 555.386719 1003.253906 556.164062 Z M 969.234375 556.1875 C 969.234375 557.515625 969.429688 558.820312 969.8125 560.09375 C 970.195312 561.367188 970.753906 562.558594 971.484375 563.671875 C 972.21875 564.78125 973.097656 565.761719 974.117188 566.617188 C 975.140625 567.46875 976.261719 568.15625 977.484375 568.679688 C 978.710938 569.203125 979.984375 569.539062 981.304688 569.6875 C 982.628906 569.839844 983.941406 569.796875 985.253906 569.558594 C 986.5625 569.320312 987.808594 568.902344 988.996094 568.296875 C 990.183594 567.695312 991.257812 566.933594 992.21875 566.015625 L 992.222656 566.015625 C 993.53125 564.773438 994.550781 563.328125 995.277344 561.679688 C 996.007812 560.027344 996.390625 558.300781 996.429688 556.5 C 996.488281 554.691406 996.195312 552.949219 995.542969 551.261719 C 994.890625 549.578125 993.933594 548.085938 992.675781 546.792969 C 991.746094 545.820312 990.699219 545 989.527344 544.339844 C 988.355469 543.675781 987.117188 543.199219 985.804688 542.90625 C 984.492188 542.613281 983.164062 542.515625 981.820312 542.613281 C 980.480469 542.714844 979.183594 543.007812 977.929688 543.492188 C 976.675781 543.976562 975.515625 544.636719 974.457031 545.464844 C 973.398438 546.292969 972.480469 547.257812 971.707031 548.355469 C 970.933594 549.457031 970.335938 550.644531 969.917969 551.921875 C 969.496094 553.199219 969.269531 554.511719 969.238281 555.855469 C 969.238281 555.964844 969.234375 556.074219 969.234375 556.1875 Z M 969.234375 556.1875 " fill-opacity="1" fill-rule="nonzero"/><path fill="#f1863d" d="M 1171.332031 894.292969 C 1171.332031 895.074219 1171.285156 895.855469 1171.195312 896.632812 C 1171.105469 897.414062 1170.96875 898.183594 1170.789062 898.945312 C 1170.613281 899.707031 1170.390625 900.457031 1170.125 901.195312 C 1169.859375 901.933594 1169.550781 902.652344 1169.203125 903.351562 C 1168.855469 904.054688 1168.46875 904.734375 1168.042969 905.390625 C 1167.613281 906.046875 1167.152344 906.679688 1166.652344 907.28125 C 1166.152344 907.886719 1165.621094 908.460938 1165.058594 909.003906 C 1164.492188 909.542969 1163.898438 910.054688 1163.273438 910.527344 C 1162.648438 911 1162 911.4375 1161.328125 911.835938 C 1160.652344 912.238281 1159.960938 912.597656 1159.242188 912.914062 C 1158.527344 913.234375 1157.796875 913.511719 1157.050781 913.746094 C 1156.304688 913.984375 1155.542969 914.175781 1154.773438 914.320312 C 1154.007812 914.46875 1153.230469 914.574219 1152.449219 914.632812 C 1151.667969 914.691406 1150.886719 914.703125 1150.105469 914.671875 C 1149.320312 914.640625 1148.542969 914.5625 1147.769531 914.441406 C 1146.996094 914.320312 1146.230469 914.15625 1145.476562 913.949219 C 1144.71875 913.738281 1143.980469 913.488281 1143.253906 913.191406 C 1142.527344 912.898438 1141.820312 912.5625 1141.132812 912.1875 C 1140.445312 911.8125 1139.785156 911.398438 1139.144531 910.945312 C 1138.503906 910.492188 1137.890625 910.007812 1137.308594 909.484375 C 1136.726562 908.960938 1136.171875 908.40625 1135.652344 907.820312 C 1135.132812 907.234375 1134.648438 906.621094 1134.199219 905.976562 C 1133.75 905.335938 1133.339844 904.671875 1132.96875 903.980469 C 1132.597656 903.292969 1132.265625 902.585938 1131.972656 901.855469 C 1131.683594 901.128906 1131.433594 900.386719 1131.230469 899.632812 C 1131.023438 898.875 1130.863281 898.109375 1130.746094 897.335938 C 1130.628906 896.5625 1130.554688 895.78125 1130.527344 895 C 1130.5 894.21875 1130.519531 893.433594 1130.582031 892.65625 C 1130.644531 891.875 1130.75 891.097656 1130.902344 890.332031 C 1131.054688 889.5625 1131.25 888.804688 1131.488281 888.058594 C 1131.726562 887.3125 1132.007812 886.582031 1132.332031 885.867188 C 1132.652344 885.15625 1133.015625 884.460938 1133.417969 883.789062 C 1133.820312 883.117188 1134.261719 882.472656 1134.738281 881.851562 C 1135.214844 881.230469 1135.726562 880.636719 1136.273438 880.074219 C 1136.816406 879.511719 1137.394531 878.984375 1138 878.488281 C 1138.605469 877.992188 1139.238281 877.53125 1139.898438 877.109375 C 1140.558594 876.683594 1141.238281 876.300781 1141.941406 875.957031 C 1142.644531 875.613281 1143.367188 875.308594 1144.105469 875.046875 C 1144.84375 874.785156 1145.59375 874.566406 1146.355469 874.390625 C 1147.121094 874.214844 1147.890625 874.085938 1148.671875 874 C 1149.449219 873.910156 1150.230469 873.871094 1151.011719 873.875 C 1151.796875 873.878906 1152.578125 873.925781 1153.355469 874.019531 C 1154.132812 874.113281 1154.902344 874.25 1155.664062 874.429688 C 1156.425781 874.613281 1157.175781 874.839844 1157.910156 875.105469 C 1158.648438 875.375 1159.363281 875.683594 1160.066406 876.035156 C 1160.765625 876.386719 1161.445312 876.777344 1162.097656 877.207031 C 1162.753906 877.632812 1163.382812 878.097656 1163.984375 878.601562 C 1164.585938 879.101562 1165.160156 879.636719 1165.699219 880.203125 C 1167.511719 882.101562 1168.902344 884.269531 1169.875 886.703125 C 1170.851562 889.140625 1171.335938 891.667969 1171.332031 894.292969 Z M 1137.324219 894.304688 C 1137.324219 894.894531 1137.363281 895.484375 1137.441406 896.070312 C 1137.519531 896.652344 1137.632812 897.230469 1137.789062 897.800781 C 1137.941406 898.371094 1138.128906 898.929688 1138.355469 899.472656 C 1138.582031 900.019531 1138.84375 900.546875 1139.136719 901.058594 C 1139.433594 901.570312 1139.757812 902.058594 1140.117188 902.527344 C 1140.476562 902.996094 1140.867188 903.4375 1141.28125 903.855469 C 1141.699219 904.273438 1142.140625 904.664062 1142.609375 905.023438 C 1143.078125 905.382812 1143.566406 905.710938 1144.074219 906.007812 C 1144.585938 906.304688 1145.113281 906.566406 1145.65625 906.792969 C 1146.203125 907.019531 1146.761719 907.210938 1147.328125 907.367188 C 1147.898438 907.519531 1148.476562 907.636719 1149.0625 907.714844 C 1149.644531 907.796875 1150.234375 907.835938 1150.824219 907.839844 C 1151.414062 907.84375 1152 907.804688 1152.585938 907.730469 C 1153.171875 907.65625 1153.75 907.546875 1154.320312 907.394531 C 1154.890625 907.246094 1155.449219 907.058594 1155.996094 906.835938 C 1156.542969 906.613281 1157.074219 906.355469 1157.585938 906.066406 C 1158.097656 905.773438 1158.589844 905.449219 1159.0625 905.09375 C 1159.53125 904.738281 1159.976562 904.351562 1160.398438 903.9375 C 1160.816406 903.523438 1161.210938 903.085938 1161.574219 902.617188 C 1161.933594 902.152344 1162.265625 901.667969 1162.566406 901.15625 C 1162.863281 900.648438 1163.128906 900.125 1163.359375 899.582031 C 1163.589844 899.035156 1163.785156 898.480469 1163.945312 897.914062 C 1164.101562 897.34375 1164.222656 896.769531 1164.304688 896.183594 C 1164.386719 895.597656 1164.433594 895.011719 1164.4375 894.421875 C 1164.445312 893.832031 1164.414062 893.242188 1164.339844 892.65625 C 1164.269531 892.070312 1164.164062 891.492188 1164.015625 890.921875 C 1163.871094 890.351562 1163.6875 889.789062 1163.46875 889.242188 C 1163.25 888.695312 1162.996094 888.164062 1162.707031 887.648438 C 1162.417969 887.132812 1162.097656 886.640625 1161.742188 886.167969 C 1161.390625 885.695312 1161.007812 885.246094 1160.59375 884.824219 C 1160.183594 884.402344 1159.746094 884.007812 1159.285156 883.640625 C 1158.820312 883.273438 1158.335938 882.941406 1157.828125 882.636719 C 1157.320312 882.335938 1156.796875 882.066406 1156.253906 881.835938 C 1155.714844 881.601562 1155.160156 881.402344 1154.589844 881.242188 C 1154.023438 881.078125 1153.449219 880.957031 1152.863281 880.871094 C 1152.28125 880.78125 1151.695312 880.734375 1151.105469 880.726562 C 1150.515625 880.714844 1149.925781 880.742188 1149.339844 880.8125 C 1148.753906 880.878906 1148.171875 880.984375 1147.601562 881.125 C 1147.027344 881.269531 1146.46875 881.449219 1145.917969 881.664062 C 1145.371094 881.878906 1144.835938 882.132812 1144.320312 882.417969 C 1143.804688 882.703125 1143.308594 883.019531 1142.832031 883.371094 C 1142.359375 883.722656 1141.90625 884.101562 1141.484375 884.507812 C 1141.058594 884.917969 1140.660156 885.355469 1140.292969 885.816406 C 1139.921875 886.277344 1139.585938 886.757812 1139.28125 887.261719 C 1138.976562 887.769531 1138.703125 888.289062 1138.464844 888.832031 C 1138.230469 889.371094 1138.027344 889.925781 1137.863281 890.492188 C 1137.699219 891.058594 1137.570312 891.632812 1137.480469 892.214844 C 1137.390625 892.800781 1137.339844 893.386719 1137.328125 893.976562 C 1137.324219 894.085938 1137.324219 894.195312 1137.324219 894.304688 Z M 1137.324219 894.304688 " fill-opacity="1" fill-rule="nonzero"/><path fill="#f1863d" d="M 1194.636719 184.648438 C 1194.636719 185.316406 1194.601562 185.984375 1194.535156 186.648438 C 1194.472656 187.3125 1194.375 187.976562 1194.242188 188.628906 C 1194.113281 189.285156 1193.949219 189.933594 1193.757812 190.574219 C 1193.5625 191.214844 1193.335938 191.84375 1193.082031 192.460938 C 1192.824219 193.078125 1192.539062 193.683594 1192.222656 194.273438 C 1191.910156 194.863281 1191.566406 195.433594 1191.195312 195.992188 C 1190.824219 196.546875 1190.425781 197.082031 1190 197.601562 C 1189.578125 198.117188 1189.128906 198.613281 1188.65625 199.085938 C 1188.183594 199.558594 1187.6875 200.007812 1187.171875 200.429688 C 1186.652344 200.855469 1186.117188 201.253906 1185.558594 201.625 C 1185.003906 201.996094 1184.429688 202.339844 1183.84375 202.65625 C 1183.253906 202.96875 1182.648438 203.253906 1182.03125 203.511719 C 1181.414062 203.769531 1180.785156 203.992188 1180.144531 204.1875 C 1179.503906 204.378906 1178.855469 204.542969 1178.199219 204.671875 C 1177.542969 204.804688 1176.882812 204.902344 1176.21875 204.96875 C 1175.550781 205.03125 1174.886719 205.066406 1174.214844 205.066406 C 1173.546875 205.066406 1172.878906 205.03125 1172.214844 204.96875 C 1171.550781 204.902344 1170.890625 204.804688 1170.234375 204.671875 C 1169.578125 204.542969 1168.929688 204.378906 1168.289062 204.1875 C 1167.648438 203.992188 1167.019531 203.769531 1166.402344 203.511719 C 1165.785156 203.253906 1165.179688 202.96875 1164.589844 202.65625 C 1164 202.339844 1163.429688 201.996094 1162.871094 201.625 C 1162.316406 201.253906 1161.78125 200.855469 1161.261719 200.429688 C 1160.746094 200.007812 1160.25 199.558594 1159.777344 199.085938 C 1159.304688 198.613281 1158.855469 198.117188 1158.433594 197.601562 C 1158.007812 197.082031 1157.609375 196.546875 1157.238281 195.992188 C 1156.867188 195.433594 1156.523438 194.863281 1156.207031 194.273438 C 1155.894531 193.683594 1155.609375 193.078125 1155.351562 192.460938 C 1155.097656 191.84375 1154.871094 191.214844 1154.675781 190.574219 C 1154.484375 189.933594 1154.320312 189.285156 1154.191406 188.628906 C 1154.058594 187.976562 1153.960938 187.3125 1153.894531 186.648438 C 1153.832031 185.984375 1153.796875 185.316406 1153.796875 184.648438 C 1153.796875 183.976562 1153.832031 183.3125 1153.894531 182.644531 C 1153.960938 181.980469 1154.058594 181.320312 1154.191406 180.664062 C 1154.320312 180.007812 1154.484375 179.359375 1154.675781 178.71875 C 1154.871094 178.078125 1155.097656 177.449219 1155.351562 176.832031 C 1155.609375 176.214844 1155.894531 175.613281 1156.207031 175.023438 C 1156.523438 174.433594 1156.867188 173.859375 1157.238281 173.304688 C 1157.609375 172.746094 1158.007812 172.210938 1158.433594 171.695312 C 1158.855469 171.175781 1159.304688 170.679688 1159.777344 170.207031 C 1160.25 169.734375 1160.746094 169.289062 1161.261719 168.863281 C 1161.78125 168.4375 1162.316406 168.039062 1162.871094 167.667969 C 1163.429688 167.296875 1164 166.953125 1164.589844 166.640625 C 1165.179688 166.324219 1165.785156 166.039062 1166.402344 165.78125 C 1167.019531 165.527344 1167.648438 165.300781 1168.289062 165.105469 C 1168.929688 164.914062 1169.578125 164.75 1170.234375 164.621094 C 1170.890625 164.488281 1171.550781 164.390625 1172.214844 164.328125 C 1172.878906 164.261719 1173.546875 164.226562 1174.214844 164.226562 C 1174.886719 164.230469 1175.550781 164.261719 1176.21875 164.328125 C 1176.882812 164.394531 1177.542969 164.492188 1178.199219 164.625 C 1178.855469 164.753906 1179.5 164.917969 1180.140625 165.113281 C 1180.78125 165.308594 1181.410156 165.53125 1182.027344 165.789062 C 1182.644531 166.046875 1183.246094 166.332031 1183.835938 166.644531 C 1184.425781 166.960938 1185 167.304688 1185.554688 167.675781 C 1186.109375 168.046875 1186.648438 168.445312 1187.164062 168.871094 C 1187.679688 169.292969 1188.175781 169.742188 1188.648438 170.214844 C 1189.121094 170.6875 1189.570312 171.183594 1189.992188 171.699219 C 1190.417969 172.214844 1190.816406 172.753906 1191.1875 173.308594 C 1191.558594 173.863281 1191.902344 174.4375 1192.21875 175.027344 C 1192.53125 175.617188 1192.820312 176.21875 1193.074219 176.835938 C 1193.332031 177.453125 1193.554688 178.082031 1193.75 178.722656 C 1193.945312 179.363281 1194.109375 180.007812 1194.238281 180.664062 C 1194.371094 181.320312 1194.46875 181.980469 1194.535156 182.644531 C 1194.601562 183.3125 1194.632812 183.976562 1194.636719 184.648438 Z M 1160.617188 184.648438 C 1160.617188 185.539062 1160.703125 186.425781 1160.878906 187.300781 C 1161.050781 188.175781 1161.3125 189.027344 1161.652344 189.851562 C 1161.992188 190.675781 1162.414062 191.460938 1162.910156 192.203125 C 1163.40625 192.945312 1163.96875 193.632812 1164.601562 194.261719 C 1165.230469 194.894531 1165.917969 195.457031 1166.660156 195.953125 C 1167.402344 196.449219 1168.1875 196.871094 1169.011719 197.210938 C 1169.835938 197.554688 1170.6875 197.8125 1171.5625 197.984375 C 1172.4375 198.160156 1173.324219 198.246094 1174.214844 198.246094 C 1175.109375 198.246094 1175.992188 198.160156 1176.871094 197.984375 C 1177.746094 197.8125 1178.597656 197.554688 1179.421875 197.210938 C 1180.246094 196.871094 1181.03125 196.449219 1181.773438 195.953125 C 1182.515625 195.457031 1183.203125 194.894531 1183.832031 194.261719 C 1184.464844 193.632812 1185.027344 192.945312 1185.523438 192.203125 C 1186.019531 191.460938 1186.4375 190.675781 1186.78125 189.851562 C 1187.121094 189.027344 1187.378906 188.175781 1187.554688 187.300781 C 1187.730469 186.425781 1187.816406 185.539062 1187.816406 184.648438 C 1187.816406 183.753906 1187.730469 182.871094 1187.554688 181.992188 C 1187.378906 181.117188 1187.121094 180.269531 1186.78125 179.441406 C 1186.4375 178.617188 1186.019531 177.835938 1185.523438 177.09375 C 1185.027344 176.347656 1184.464844 175.664062 1183.832031 175.03125 C 1183.203125 174.398438 1182.515625 173.835938 1181.773438 173.339844 C 1181.03125 172.84375 1180.246094 172.425781 1179.421875 172.082031 C 1178.597656 171.742188 1177.746094 171.484375 1176.871094 171.308594 C 1175.992188 171.136719 1175.109375 171.046875 1174.214844 171.046875 C 1173.324219 171.046875 1172.441406 171.136719 1171.5625 171.3125 C 1170.6875 171.488281 1169.839844 171.746094 1169.015625 172.085938 C 1168.191406 172.429688 1167.40625 172.847656 1166.664062 173.34375 C 1165.921875 173.839844 1165.234375 174.402344 1164.605469 175.035156 C 1163.972656 175.667969 1163.410156 176.351562 1162.914062 177.09375 C 1162.417969 177.835938 1162 178.621094 1161.65625 179.445312 C 1161.3125 180.269531 1161.054688 181.121094 1160.882812 181.996094 C 1160.707031 182.871094 1160.617188 183.753906 1160.617188 184.648438 Z M 1160.617188 184.648438 " fill-opacity="1" fill-rule="nonzero"/><g clip-path="url(#fc962e03c1)"><path fill="#f1863d" d="M 1034.894531 92.914062 C 1035.644531 92.914062 1036.394531 92.953125 1037.140625 93.027344 C 1037.886719 93.097656 1038.628906 93.210938 1039.363281 93.355469 C 1040.101562 93.503906 1040.828125 93.683594 1041.546875 93.902344 C 1042.265625 94.121094 1042.972656 94.371094 1043.664062 94.660156 C 1044.359375 94.949219 1045.035156 95.269531 1045.699219 95.621094 C 1046.359375 95.976562 1047.003906 96.359375 1047.628906 96.777344 C 1048.25 97.195312 1048.855469 97.640625 1049.433594 98.117188 C 1050.015625 98.59375 1050.570312 99.097656 1051.101562 99.628906 C 1051.632812 100.160156 1052.136719 100.714844 1052.613281 101.296875 C 1053.085938 101.875 1053.535156 102.476562 1053.953125 103.101562 C 1054.367188 103.726562 1054.753906 104.371094 1055.109375 105.03125 C 1055.460938 105.691406 1055.78125 106.371094 1056.070312 107.066406 C 1056.355469 107.757812 1056.609375 108.464844 1056.828125 109.183594 C 1057.046875 109.902344 1057.226562 110.628906 1057.375 111.363281 C 1057.519531 112.101562 1057.628906 112.84375 1057.703125 113.589844 C 1057.777344 114.335938 1057.8125 115.085938 1057.8125 115.835938 C 1057.8125 116.585938 1057.777344 117.335938 1057.703125 118.082031 C 1057.628906 118.828125 1057.519531 119.570312 1057.375 120.308594 C 1057.226562 121.042969 1057.046875 121.769531 1056.828125 122.488281 C 1056.609375 123.207031 1056.355469 123.914062 1056.070312 124.605469 C 1055.78125 125.300781 1055.460938 125.980469 1055.109375 126.640625 C 1054.753906 127.304688 1054.367188 127.945312 1053.953125 128.570312 C 1053.535156 129.195312 1053.085938 129.796875 1052.613281 130.375 C 1052.136719 130.957031 1051.632812 131.511719 1051.101562 132.042969 C 1050.570312 132.574219 1050.015625 133.078125 1049.433594 133.554688 C 1048.855469 134.03125 1048.25 134.476562 1047.628906 134.894531 C 1047.003906 135.3125 1046.359375 135.695312 1045.699219 136.050781 C 1045.035156 136.402344 1044.359375 136.726562 1043.664062 137.011719 C 1042.972656 137.300781 1042.265625 137.550781 1041.546875 137.769531 C 1040.828125 137.988281 1040.101562 138.167969 1039.363281 138.316406 C 1038.628906 138.460938 1037.886719 138.574219 1037.140625 138.644531 C 1036.394531 138.71875 1035.644531 138.757812 1034.894531 138.757812 C 1034.144531 138.757812 1033.394531 138.71875 1032.648438 138.644531 C 1031.898438 138.574219 1031.15625 138.460938 1030.421875 138.316406 C 1029.6875 138.167969 1028.957031 137.988281 1028.238281 137.769531 C 1027.523438 137.550781 1026.816406 137.300781 1026.121094 137.011719 C 1025.429688 136.726562 1024.75 136.402344 1024.089844 136.050781 C 1023.425781 135.695312 1022.785156 135.3125 1022.160156 134.894531 C 1021.535156 134.476562 1020.933594 134.03125 1020.351562 133.554688 C 1019.773438 133.078125 1019.21875 132.574219 1018.6875 132.042969 C 1018.15625 131.511719 1017.652344 130.957031 1017.175781 130.375 C 1016.699219 129.796875 1016.253906 129.195312 1015.835938 128.570312 C 1015.417969 127.945312 1015.03125 127.304688 1014.679688 126.640625 C 1014.324219 125.980469 1014.003906 125.300781 1013.71875 124.605469 C 1013.429688 123.914062 1013.175781 123.207031 1012.960938 122.488281 C 1012.742188 121.769531 1012.558594 121.042969 1012.414062 120.308594 C 1012.265625 119.570312 1012.15625 118.828125 1012.082031 118.082031 C 1012.007812 117.335938 1011.972656 116.585938 1011.972656 115.835938 C 1011.972656 115.085938 1012.007812 114.335938 1012.082031 113.589844 C 1012.15625 112.84375 1012.265625 112.101562 1012.414062 111.363281 C 1012.558594 110.628906 1012.742188 109.902344 1012.960938 109.183594 C 1013.175781 108.464844 1013.429688 107.757812 1013.71875 107.066406 C 1014.003906 106.371094 1014.324219 105.691406 1014.679688 105.03125 C 1015.03125 104.371094 1015.417969 103.726562 1015.835938 103.101562 C 1016.253906 102.476562 1016.699219 101.875 1017.175781 101.296875 C 1017.652344 100.714844 1018.15625 100.160156 1018.6875 99.628906 C 1019.21875 99.097656 1019.773438 98.59375 1020.351562 98.117188 C 1020.933594 97.640625 1021.535156 97.195312 1022.160156 96.777344 C 1022.785156 96.359375 1023.425781 95.976562 1024.089844 95.621094 C 1024.75 95.269531 1025.429688 94.949219 1026.121094 94.660156 C 1026.816406 94.371094 1027.523438 94.121094 1028.238281 93.902344 C 1028.957031 93.683594 1029.6875 93.503906 1030.421875 93.355469 C 1031.15625 93.210938 1031.898438 93.097656 1032.648438 93.027344 C 1033.394531 92.953125 1034.144531 92.914062 1034.894531 92.914062 Z M 1034.894531 92.914062 " fill-opacity="1" fill-rule="nonzero"/></g><g clip-path="url(#5aeda0d2e9)"><path fill="#f1863d" d="M 982.835938 170.234375 C 983.585938 170.234375 984.335938 170.269531 985.082031 170.34375 C 985.828125 170.417969 986.570312 170.527344 987.308594 170.671875 C 988.042969 170.820312 988.769531 171 989.488281 171.21875 C 990.207031 171.4375 990.914062 171.691406 991.605469 171.976562 C 992.300781 172.265625 992.980469 172.585938 993.640625 172.9375 C 994.304688 173.292969 994.945312 173.679688 995.570312 174.09375 C 996.195312 174.511719 996.796875 174.960938 997.375 175.4375 C 997.957031 175.910156 998.511719 176.414062 999.042969 176.945312 C 999.574219 177.476562 1000.078125 178.03125 1000.554688 178.613281 C 1001.03125 179.191406 1001.476562 179.796875 1001.894531 180.417969 C 1002.3125 181.042969 1002.695312 181.6875 1003.050781 182.347656 C 1003.402344 183.011719 1003.726562 183.6875 1004.011719 184.382812 C 1004.300781 185.074219 1004.550781 185.78125 1004.769531 186.5 C 1004.988281 187.21875 1005.167969 187.945312 1005.316406 188.683594 C 1005.460938 189.417969 1005.574219 190.160156 1005.644531 190.90625 C 1005.71875 191.652344 1005.757812 192.402344 1005.757812 193.152344 C 1005.757812 193.902344 1005.71875 194.652344 1005.644531 195.398438 C 1005.574219 196.148438 1005.460938 196.890625 1005.316406 197.625 C 1005.167969 198.359375 1004.988281 199.089844 1004.769531 199.808594 C 1004.550781 200.523438 1004.300781 201.230469 1004.011719 201.925781 C 1003.726562 202.617188 1003.402344 203.296875 1003.050781 203.957031 C 1002.695312 204.621094 1002.3125 205.261719 1001.894531 205.886719 C 1001.476562 206.511719 1001.03125 207.113281 1000.554688 207.695312 C 1000.078125 208.273438 999.574219 208.828125 999.042969 209.359375 C 998.511719 209.890625 997.957031 210.394531 997.375 210.871094 C 996.796875 211.347656 996.195312 211.792969 995.570312 212.210938 C 994.945312 212.628906 994.304688 213.015625 993.640625 213.367188 C 992.980469 213.722656 992.300781 214.042969 991.605469 214.328125 C 990.914062 214.617188 990.207031 214.871094 989.488281 215.085938 C 988.769531 215.304688 988.042969 215.488281 987.308594 215.632812 C 986.570312 215.78125 985.828125 215.890625 985.082031 215.964844 C 984.335938 216.039062 983.585938 216.074219 982.835938 216.074219 C 982.085938 216.074219 981.335938 216.039062 980.589844 215.964844 C 979.84375 215.890625 979.101562 215.78125 978.363281 215.632812 C 977.628906 215.488281 976.902344 215.304688 976.183594 215.085938 C 975.464844 214.871094 974.757812 214.617188 974.066406 214.328125 C 973.371094 214.042969 972.691406 213.722656 972.03125 213.367188 C 971.371094 213.011719 970.726562 212.628906 970.101562 212.210938 C 969.476562 211.792969 968.875 211.347656 968.296875 210.871094 C 967.714844 210.394531 967.160156 209.890625 966.628906 209.359375 C 966.097656 208.828125 965.59375 208.273438 965.117188 207.695312 C 964.640625 207.113281 964.195312 206.511719 963.777344 205.886719 C 963.359375 205.261719 962.976562 204.621094 962.621094 203.957031 C 962.269531 203.296875 961.949219 202.617188 961.660156 201.925781 C 961.371094 201.230469 961.121094 200.523438 960.902344 199.808594 C 960.683594 199.089844 960.503906 198.359375 960.355469 197.625 C 960.210938 196.890625 960.097656 196.148438 960.027344 195.398438 C 959.953125 194.652344 959.914062 193.902344 959.914062 193.152344 C 959.914062 192.402344 959.953125 191.652344 960.027344 190.90625 C 960.097656 190.160156 960.210938 189.417969 960.355469 188.683594 C 960.503906 187.945312 960.683594 187.21875 960.902344 186.5 C 961.121094 185.78125 961.371094 185.074219 961.660156 184.382812 C 961.949219 183.6875 962.269531 183.011719 962.621094 182.347656 C 962.976562 181.6875 963.359375 181.042969 963.777344 180.417969 C 964.195312 179.796875 964.640625 179.191406 965.117188 178.613281 C 965.59375 178.03125 966.097656 177.476562 966.628906 176.945312 C 967.160156 176.414062 967.714844 175.910156 968.296875 175.4375 C 968.875 174.960938 969.476562 174.511719 970.101562 174.09375 C 970.726562 173.679688 971.371094 173.292969 972.03125 172.9375 C 972.691406 172.585938 973.371094 172.265625 974.066406 171.976562 C 974.757812 171.691406 975.464844 171.4375 976.183594 171.21875 C 976.902344 171 977.628906 170.820312 978.363281 170.671875 C 979.101562 170.527344 979.84375 170.417969 980.589844 170.34375 C 981.335938 170.269531 982.085938 170.234375 982.835938 170.234375 Z M 982.835938 170.234375 " fill-opacity="1" fill-rule="nonzero"/></g><path fill="#f1863d" d="M 1044.515625 467.265625 L 1044.515625 795.746094 L 1037.695312 795.746094 L 1037.695312 470.085938 L 979.425781 411.816406 L 979.425781 201.65625 L 986.246094 201.65625 L 986.246094 408.992188 Z M 1044.515625 467.265625 " fill-opacity="1" fill-rule="nonzero"/><path fill="#f1863d" d="M 1177.628906 201.65625 L 1177.628906 803.957031 L 1071.863281 909.722656 L 1071.863281 1027.375 L 1065.042969 1027.375 L 1065.042969 906.898438 L 1170.808594 801.136719 L 1170.808594 201.65625 Z M 1177.628906 201.65625 " fill-opacity="1" fill-rule="nonzero"/><g clip-path="url(#4b643134bb)"><path fill="#f1863d" d="M 1147.511719 1115.855469 L 1147.511719 907.277344 L 1154.332031 907.277344 L 1154.332031 1115.855469 Z M 1147.511719 1115.855469 " fill-opacity="1" fill-rule="nonzero"/></g><path fill="#f1863d" d="M 1043.375 719.714844 L 1038.550781 724.539062 L 979.425781 665.40625 L 979.425781 570.449219 L 986.246094 570.449219 L 986.246094 662.585938 Z M 1043.375 719.714844 " fill-opacity="1" fill-rule="nonzero"/></svg>