<svg xmlns="http://www.w3.org/2000/svg" xmlns:xlink="http://www.w3.org/1999/xlink" zoomAndPan="magnify" preserveAspectRatio="xMidYMid meet" version="1.0" viewBox="704.77 107.83 837.97 1012.88"><defs><clipPath id="49e6aa033b"><path d="M 704.6875 107.761719 L 1543 107.761719 L 1543 1120.261719 L 704.6875 1120.261719 Z M 704.6875 107.761719 " clip-rule="nonzero"/></clipPath></defs><g clip-path="url(#49e6aa033b)"><path fill="#ffffff" d="M 1249.984375 188 C 1249.984375 197.28125 1242.457031 204.808594 1233.175781 204.808594 C 1223.890625 204.808594 1216.363281 197.28125 1216.363281 188 L 1216.363281 124.640625 C 1216.363281 115.359375 1223.890625 107.832031 1233.175781 107.832031 C 1242.457031 107.832031 1249.984375 115.359375 1249.984375 124.640625 Z M 881.921875 1042.890625 L 937.808594 1010.621094 L 937.824219 1010.652344 L 937.875 1010.621094 C 941.324219 1008.636719 944.929688 1007.472656 948.589844 1007.15625 L 948.589844 1007.164062 L 948.65625 1007.15625 C 952.3125 1006.84375 956.042969 1007.351562 959.730469 1008.699219 C 1019.089844 1030.390625 1055.539062 1043.21875 1086.617188 1053.296875 C 1116.429688 1062.960938 1142.011719 1070.3125 1178.871094 1080.75 L 1445.652344 878.203125 C 1446.035156 877.871094 1446.441406 877.550781 1446.863281 877.25 L 1447.285156 876.949219 L 1447.296875 876.96875 L 1447.742188 876.664062 C 1448.09375 876.417969 1448.460938 876.175781 1448.835938 875.949219 C 1452.566406 873.726562 1455.066406 870.203125 1456.074219 866.316406 C 1457.085938 862.425781 1456.625 858.140625 1454.457031 854.382812 L 1454.488281 854.367188 L 1454.453125 854.3125 C 1452.292969 850.570312 1448.761719 848.035156 1444.808594 846.980469 C 1440.851562 845.921875 1436.515625 846.347656 1432.746094 848.507812 L 1432.703125 848.535156 L 1207.449219 978.582031 C 1204.105469 980.507812 1200.511719 981.640625 1196.761719 981.976562 C 1192.96875 982.316406 1189.253906 981.851562 1185.714844 980.585938 L 1185.734375 980.53125 L 1185.714844 980.523438 L 1106.714844 952.164062 L 1031.238281 931.941406 C 1022.28125 929.550781 1016.960938 920.347656 1019.351562 911.390625 C 1021.746094 902.433594 1030.949219 897.109375 1039.90625 899.503906 L 1115.515625 919.757812 C 1120.390625 921.0625 1125.355469 920.265625 1129.410156 917.925781 L 1129.425781 917.953125 L 1129.476562 917.925781 C 1133.507812 915.597656 1136.667969 911.703125 1137.980469 906.8125 L 1137.980469 906.808594 L 1137.984375 906.800781 C 1139.222656 902.164062 1138.574219 897.460938 1136.519531 893.527344 L 1136.148438 892.917969 C 1133.792969 888.839844 1129.894531 885.652344 1125.042969 884.351562 L 1125.039062 884.351562 L 1125.03125 884.347656 L 951.351562 837.808594 L 810.472656 919.144531 Z M 861.808594 1075.078125 L 867.4375 1084.828125 L 805.289062 1120.710938 L 704.769531 946.601562 L 766.917969 910.722656 L 771.636719 918.90625 L 771.667969 918.953125 L 771.636719 918.972656 L 773.050781 921.414062 L 861.269531 1074.210938 L 861.285156 1074.238281 L 861.304688 1074.265625 L 861.316406 1074.292969 L 861.335938 1074.320312 L 861.414062 1074.457031 L 861.433594 1074.484375 L 861.449219 1074.507812 L 861.480469 1074.5625 L 861.492188 1074.582031 L 861.5 1074.589844 L 861.546875 1074.671875 L 861.566406 1074.699219 L 861.582031 1074.726562 L 861.597656 1074.75 L 861.617188 1074.777344 L 861.632812 1074.804688 L 861.652344 1074.828125 L 861.667969 1074.855469 L 861.6875 1074.882812 L 861.71875 1074.933594 L 861.722656 1074.945312 L 861.734375 1074.964844 L 861.753906 1074.988281 L 861.769531 1075.015625 L 861.785156 1075.039062 L 861.804688 1075.066406 Z M 1233.011719 517.609375 C 1275.019531 517.609375 1309.066406 483.5625 1309.066406 441.5625 C 1309.066406 399.5625 1275.019531 365.511719 1233.011719 365.511719 C 1191.015625 365.511719 1156.964844 399.5625 1156.964844 441.5625 C 1156.964844 483.5625 1191.015625 517.609375 1233.011719 517.609375 Z M 1273.199219 431.683594 L 1238.792969 472.105469 C 1237.855469 473.402344 1236.714844 474.585938 1235.375 475.605469 C 1228.015625 481.222656 1217.484375 479.8125 1211.867188 472.453125 L 1192.234375 446.710938 C 1186.617188 439.347656 1188.027344 428.820312 1195.386719 423.199219 C 1202.75 417.582031 1213.277344 418.992188 1218.898438 426.351562 L 1225.945312 435.59375 L 1247.71875 410.015625 C 1253.703125 402.980469 1264.261719 402.128906 1271.292969 408.109375 C 1278.328125 414.089844 1279.183594 424.648438 1273.199219 431.683594 Z M 1295.242188 829.421875 C 1294.445312 850.351562 1277.085938 867.226562 1255.96875 867.226562 L 1210.402344 867.226562 C 1189.28125 867.226562 1171.921875 850.351562 1171.125 829.421875 Z M 1156.300781 795.800781 L 1310.070312 795.800781 C 1326.59375 795.800781 1340.109375 782.28125 1340.109375 765.757812 L 1340.109375 754.496094 L 1126.261719 754.496094 L 1126.261719 765.757812 C 1126.261719 782.28125 1139.777344 795.800781 1156.300781 795.800781 Z M 1340.109375 720.875 L 1340.109375 687.980469 C 1340.109375 683.351562 1336.335938 679.578125 1331.707031 679.578125 L 1134.664062 679.578125 C 1130.035156 679.578125 1126.261719 683.351562 1126.261719 687.980469 L 1126.261719 720.875 Z M 1367.585938 587.25 C 1349.976562 603.5 1339.550781 623.039062 1336.140625 646.1875 C 1334.683594 646.035156 1333.203125 645.953125 1331.707031 645.953125 L 1134.664062 645.953125 C 1133.167969 645.953125 1131.6875 646.035156 1130.230469 646.1875 C 1126.824219 623.039062 1116.394531 603.503906 1098.789062 587.25 C 1059.550781 551.039062 1034.976562 499.171875 1034.976562 441.566406 C 1034.976562 332.097656 1123.714844 243.355469 1233.183594 243.355469 C 1342.652344 243.355469 1431.394531 332.097656 1431.394531 441.566406 C 1431.394531 499.171875 1406.816406 551.039062 1367.585938 587.25 Z M 1233.011719 295.699219 C 1237.105469 295.699219 1241.152344 295.871094 1245.15625 296.203125 C 1250.570312 296.652344 1254.863281 300.535156 1255.847656 305.875 L 1258.101562 318.019531 C 1258.949219 322.632812 1262.179688 326.121094 1266.714844 327.328125 C 1276.855469 330.03125 1286.46875 334.054688 1295.339844 339.195312 C 1299.40625 341.546875 1304.148438 341.367188 1308.027344 338.703125 L 1316.601562 332.8125 C 1321.203125 329.644531 1327.199219 330.054688 1331.332031 333.824219 C 1335.824219 337.929688 1340.058594 342.304688 1344.015625 346.929688 C 1347.554688 351.078125 1347.855469 356.882812 1344.765625 361.371094 L 1339.03125 369.710938 C 1336.371094 373.589844 1336.1875 378.328125 1338.535156 382.394531 C 1343.683594 391.269531 1347.707031 400.878906 1350.40625 411.023438 C 1351.613281 415.554688 1355.105469 418.78125 1359.722656 419.632812 L 1368.890625 421.332031 C 1374.324219 422.339844 1378.238281 426.765625 1378.585938 432.265625 C 1378.777344 435.339844 1378.871094 438.433594 1378.871094 441.5625 C 1378.871094 444.683594 1378.777344 447.785156 1378.585938 450.859375 C 1378.238281 456.367188 1374.324219 460.785156 1368.890625 461.789062 L 1359.722656 463.488281 C 1355.105469 464.339844 1351.613281 467.566406 1350.40625 472.105469 C 1347.703125 482.242188 1343.683594 491.851562 1338.535156 500.726562 C 1336.1875 504.789062 1336.371094 509.535156 1339.03125 513.40625 L 1344.765625 521.753906 C 1347.855469 526.242188 1347.554688 532.050781 1344.015625 536.1875 C 1340.058594 540.816406 1335.828125 545.195312 1331.332031 549.292969 C 1327.199219 553.070312 1321.203125 553.476562 1316.601562 550.308594 L 1308.027344 544.417969 C 1304.15625 541.75 1299.40625 541.574219 1295.339844 543.929688 C 1286.46875 549.066406 1276.855469 553.085938 1266.710938 555.792969 C 1262.179688 557 1258.949219 560.492188 1258.101562 565.101562 L 1255.847656 577.246094 C 1254.863281 582.585938 1250.570312 586.46875 1245.15625 586.921875 C 1241.152344 587.253906 1237.105469 587.425781 1233.011719 587.425781 C 1228.929688 587.425781 1224.878906 587.253906 1220.882812 586.921875 C 1215.464844 586.46875 1211.171875 582.59375 1210.179688 577.246094 L 1207.9375 565.101562 C 1207.078125 560.492188 1203.851562 557 1199.316406 555.792969 C 1189.171875 553.085938 1179.566406 549.066406 1170.6875 543.929688 C 1166.628906 541.574219 1161.878906 541.757812 1158.011719 544.417969 L 1149.441406 550.308594 C 1144.828125 553.480469 1138.832031 553.070312 1134.703125 549.292969 C 1130.207031 545.195312 1125.96875 540.816406 1122.023438 536.1875 C 1118.484375 532.050781 1118.179688 526.246094 1121.261719 521.753906 L 1127.003906 513.40625 C 1129.664062 509.535156 1129.84375 504.789062 1127.492188 500.726562 C 1122.351562 491.851562 1118.328125 482.242188 1115.621094 472.105469 C 1114.417969 467.566406 1110.921875 464.339844 1106.3125 463.488281 L 1097.132812 461.789062 C 1091.710938 460.785156 1087.792969 456.367188 1087.449219 450.859375 C 1087.25 447.785156 1087.15625 444.683594 1087.15625 441.5625 C 1087.15625 438.433594 1087.25 435.339844 1087.449219 432.261719 C 1087.792969 426.757812 1091.710938 422.339844 1097.132812 421.332031 L 1106.3125 419.632812 C 1110.921875 418.78125 1114.417969 415.554688 1115.621094 411.023438 C 1118.328125 400.878906 1122.351562 391.265625 1127.492188 382.394531 C 1129.84375 378.328125 1129.65625 373.589844 1127.003906 369.710938 L 1121.261719 361.371094 C 1118.179688 356.882812 1118.484375 351.078125 1122.023438 346.9375 C 1125.972656 342.304688 1130.207031 337.929688 1134.703125 333.828125 C 1138.832031 330.054688 1144.828125 329.644531 1149.441406 332.8125 L 1158.011719 338.703125 C 1161.878906 341.367188 1166.628906 341.546875 1170.6875 339.195312 C 1179.566406 334.058594 1189.171875 330.03125 1199.316406 327.328125 C 1203.851562 326.121094 1207.078125 322.632812 1207.9375 318.019531 L 1210.179688 305.875 C 1211.171875 300.53125 1215.464844 296.652344 1220.878906 296.203125 C 1224.878906 295.871094 1228.929688 295.699219 1233.011719 295.699219 Z M 1005.425781 328.351562 C 1014.015625 331.832031 1018.164062 341.625 1014.683594 350.21875 C 1011.203125 358.808594 1001.410156 362.957031 992.816406 359.476562 L 934.132812 335.550781 C 925.539062 332.070312 921.394531 322.277344 924.875 313.683594 C 928.355469 305.089844 938.148438 300.945312 946.742188 304.425781 Z M 1473.566406 359.46875 C 1464.972656 362.949219 1455.179688 358.800781 1451.699219 350.210938 C 1448.21875 341.617188 1452.363281 331.824219 1460.957031 328.34375 L 1519.636719 304.414062 C 1528.230469 300.9375 1538.027344 305.082031 1541.503906 313.671875 C 1544.984375 322.265625 1540.839844 332.0625 1532.246094 335.539062 Z M 1396.882812 244.921875 L 1428.46875 190.214844 C 1433.109375 182.199219 1430.378906 171.933594 1422.363281 167.292969 C 1414.347656 162.652344 1404.085938 165.382812 1399.445312 173.398438 L 1367.859375 228.109375 C 1363.214844 236.125 1365.949219 246.386719 1373.964844 251.027344 C 1381.976562 255.671875 1392.242188 252.9375 1396.882812 244.921875 Z M 1098.515625 228.113281 L 1066.925781 173.40625 C 1062.285156 165.390625 1052.019531 162.660156 1044.007812 167.300781 C 1035.992188 171.941406 1033.257812 182.207031 1037.898438 190.21875 L 1069.488281 244.929688 C 1074.132812 252.941406 1084.394531 255.675781 1092.410156 251.035156 C 1100.425781 246.390625 1103.15625 236.128906 1098.515625 228.113281 Z M 1098.515625 228.113281 " fill-opacity="1" fill-rule="evenodd"/></g></svg>