<svg xmlns="http://www.w3.org/2000/svg" xmlns:xlink="http://www.w3.org/1999/xlink" width="3000" zoomAndPan="magnify" viewBox="0 0 2250 1265.999941" height="1688" preserveAspectRatio="xMidYMid meet" version="1.0"><defs><clipPath id="774198b187"><path d="M 1002 81.558594 L 1245 81.558594 L 1245 172 L 1002 172 Z M 1002 81.558594 " clip-rule="nonzero"/></clipPath><clipPath id="2dba179f1a"><path d="M 828 81.558594 L 1419 81.558594 L 1419 975 L 828 975 Z M 828 81.558594 " clip-rule="nonzero"/></clipPath><clipPath id="ee05287b1f"><path d="M 614.226562 154 L 750 154 L 750 263 L 614.226562 263 Z M 614.226562 154 " clip-rule="nonzero"/></clipPath><clipPath id="45679c6884"><path d="M 898 324 L 1635.726562 324 L 1635.726562 1184.808594 L 898 1184.808594 Z M 898 324 " clip-rule="nonzero"/></clipPath></defs><path fill="#f1863d" d="M 1270.128906 543.078125 C 1270.128906 536.035156 1264.414062 530.320312 1257.371094 530.320312 L 989.710938 530.320312 C 982.667969 530.320312 976.953125 536.035156 976.953125 543.078125 L 976.953125 566.921875 C 976.953125 573.964844 982.667969 579.679688 989.710938 579.679688 L 1257.371094 579.679688 C 1264.414062 579.679688 1270.128906 573.964844 1270.128906 566.921875 Z M 1305.222656 566.921875 C 1305.222656 593.347656 1283.796875 614.773438 1257.371094 614.773438 L 989.710938 614.773438 C 963.289062 614.773438 941.859375 593.347656 941.859375 566.921875 L 941.859375 543.078125 C 941.859375 516.652344 963.289062 495.226562 989.710938 495.226562 L 1257.371094 495.226562 C 1283.796875 495.226562 1305.222656 516.652344 1305.222656 543.078125 Z M 1305.222656 566.921875 " fill-opacity="1" fill-rule="nonzero"/><path fill="#f1863d" d="M 996.082031 512.773438 L 1251 512.773438 L 1251 496.21875 C 1251 485.0625 1241.957031 476.019531 1230.796875 476.019531 L 1016.28125 476.019531 C 1005.125 476.019531 996.082031 485.0625 996.082031 496.21875 Z M 996.082031 512.773438 " fill-opacity="1" fill-rule="nonzero"/><path fill="#f1863d" d="M 1251 530.320312 C 1260.691406 530.320312 1268.546875 522.460938 1268.546875 512.773438 L 1268.546875 496.21875 C 1268.546875 475.375 1251.652344 458.480469 1230.804688 458.476562 L 1016.277344 458.476562 C 995.433594 458.480469 978.535156 475.375 978.535156 496.21875 L 978.535156 512.773438 C 978.535156 522.460938 986.390625 530.320312 996.082031 530.320312 Z M 1013.820312 495.226562 C 1014.214844 494.253906 1015.167969 493.574219 1016.277344 493.570312 L 1230.804688 493.570312 C 1231.917969 493.574219 1232.867188 494.253906 1233.261719 495.226562 Z M 1013.820312 495.226562 " fill-opacity="1" fill-rule="nonzero"/><path fill="#f1863d" d="M 1198.957031 361.910156 C 1198.957031 320.261719 1165.195312 286.496094 1123.546875 286.492188 C 1081.894531 286.492188 1048.128906 320.261719 1048.128906 361.910156 L 1048.128906 458.464844 L 1198.957031 458.464844 Z M 1234.050781 493.558594 L 1013.035156 493.558594 L 1013.035156 361.910156 C 1013.035156 300.878906 1062.515625 251.398438 1123.546875 251.398438 C 1184.574219 251.402344 1234.050781 300.878906 1234.050781 361.910156 Z M 1234.050781 493.558594 " fill-opacity="1" fill-rule="nonzero"/><path fill="#f1863d" d="M 1151.585938 382.480469 C 1151.585938 397.96875 1139.027344 410.519531 1123.542969 410.519531 C 1108.054688 410.519531 1095.5 397.96875 1095.5 382.480469 C 1095.5 366.996094 1108.054688 354.441406 1123.542969 354.441406 C 1139.027344 354.441406 1151.585938 366.996094 1151.585938 382.480469 Z M 1151.585938 382.480469 " fill-opacity="1" fill-rule="nonzero"/><path fill="#f1863d" d="M 1134.035156 382.484375 C 1134.035156 376.691406 1129.339844 371.988281 1123.546875 371.988281 C 1117.753906 371.988281 1113.046875 376.691406 1113.046875 382.484375 C 1113.050781 388.277344 1117.753906 392.972656 1123.546875 392.972656 C 1129.339844 392.96875 1134.035156 388.277344 1134.035156 382.484375 Z M 1169.125 382.484375 C 1169.125 407.660156 1148.722656 428.0625 1123.546875 428.066406 C 1098.371094 428.066406 1077.957031 407.660156 1077.953125 382.484375 C 1077.953125 357.308594 1098.371094 336.894531 1123.546875 336.894531 C 1148.722656 336.894531 1169.125 357.308594 1169.125 382.484375 Z M 1169.125 382.484375 " fill-opacity="1" fill-rule="nonzero"/><path fill="#f1863d" d="M 1105.992188 476.023438 L 1105.992188 400.273438 C 1105.992188 390.582031 1113.851562 382.726562 1123.539062 382.726562 C 1133.234375 382.726562 1141.085938 390.582031 1141.085938 400.273438 L 1141.085938 476.023438 C 1141.085938 485.710938 1133.234375 493.570312 1123.539062 493.570312 C 1113.851562 493.570312 1105.992188 485.710938 1105.992188 476.023438 Z M 1105.992188 476.023438 " fill-opacity="1" fill-rule="nonzero"/><path fill="#f1863d" d="M 955.847656 372.652344 C 964.769531 368.871094 975.0625 373.035156 978.84375 381.953125 C 982.628906 390.875 978.46875 401.175781 969.546875 404.960938 L 942.507812 416.417969 C 933.585938 420.199219 923.292969 416.035156 919.511719 407.117188 C 915.726562 398.195312 919.886719 387.894531 928.808594 384.109375 Z M 1268.230469 381.953125 C 1272.011719 373.03125 1282.316406 368.871094 1291.238281 372.652344 L 1318.265625 384.109375 C 1327.1875 387.894531 1331.359375 398.195312 1327.574219 407.117188 C 1323.792969 416.039062 1313.492188 420.199219 1304.570312 416.417969 L 1277.539062 404.960938 C 1268.617188 401.175781 1264.449219 390.875 1268.230469 381.953125 Z M 916.390625 294.871094 C 919.261719 285.617188 929.082031 280.445312 938.335938 283.308594 L 963.277344 291.03125 C 972.527344 293.898438 977.710938 303.71875 974.847656 312.976562 C 971.980469 322.234375 962.148438 327.414062 952.890625 324.546875 L 927.964844 316.824219 C 918.707031 313.957031 913.523438 304.125 916.390625 294.871094 Z M 1308.738281 283.308594 C 1317.992188 280.441406 1327.828125 285.613281 1330.695312 294.871094 C 1333.5625 304.125 1328.382812 313.957031 1319.121094 316.824219 L 1294.195312 324.546875 C 1284.941406 327.414062 1275.105469 322.234375 1272.238281 312.976562 C 1269.375 303.71875 1274.554688 293.898438 1283.8125 291.03125 Z M 982.410156 204.039062 C 990.570312 198.820312 1001.417969 201.203125 1006.640625 209.363281 L 1022.460938 234.105469 C 1027.679688 242.269531 1025.296875 253.113281 1017.136719 258.335938 C 1008.976562 263.558594 998.121094 261.175781 992.894531 253.011719 L 977.074219 228.28125 C 971.855469 220.117188 974.246094 209.261719 982.410156 204.039062 Z M 1240.4375 209.363281 C 1245.660156 201.199219 1256.515625 198.816406 1264.679688 204.039062 C 1272.839844 209.261719 1275.222656 220.117188 1270 228.28125 L 1254.179688 253.011719 C 1248.957031 261.175781 1238.113281 263.554688 1229.949219 258.335938 C 1221.785156 253.117188 1219.398438 242.269531 1224.613281 234.105469 Z M 1240.4375 209.363281 " fill-opacity="1" fill-rule="nonzero"/><path fill="#f1863d" d="M 1219.589844 135.878906 L 1227.367188 99.097656 L 1019.730469 99.097656 L 1027.503906 135.878906 C 1029.789062 146.695312 1039.339844 154.4375 1050.394531 154.4375 L 1196.703125 154.4375 C 1207.757812 154.4375 1217.300781 146.695312 1219.589844 135.878906 Z M 1219.589844 135.878906 " fill-opacity="1" fill-rule="nonzero"/><g clip-path="url(#774198b187)"><path fill="#f1863d" d="M 1227.367188 81.550781 C 1232.65625 81.550781 1237.664062 83.941406 1240.996094 88.050781 C 1244.328125 92.160156 1245.632812 97.554688 1244.539062 102.730469 L 1236.757812 139.503906 C 1232.753906 158.433594 1216.054688 171.980469 1196.707031 171.980469 L 1050.394531 171.980469 C 1031.046875 171.980469 1014.339844 158.433594 1010.339844 139.503906 L 1002.5625 102.730469 C 1001.464844 97.554688 1002.773438 92.160156 1006.101562 88.050781 C 1009.433594 83.941406 1014.4375 81.550781 1019.730469 81.550781 Z M 1044.667969 132.25 C 1045.238281 134.953125 1047.628906 136.886719 1050.394531 136.886719 L 1196.707031 136.886719 C 1199.46875 136.886719 1201.859375 134.953125 1202.429688 132.25 L 1205.722656 116.644531 L 1041.378906 116.644531 Z M 1044.667969 132.25 " fill-opacity="1" fill-rule="nonzero"/></g><path fill="#f1863d" d="M 1148.40625 832.914062 C 1158.097656 832.914062 1165.953125 840.765625 1165.953125 850.460938 C 1165.953125 860.148438 1158.097656 868.007812 1148.40625 868.007812 L 1098.691406 868.007812 C 1089 868.007812 1081.144531 860.148438 1081.144531 850.460938 C 1081.144531 840.765625 1089 832.914062 1098.691406 832.914062 Z M 1148.40625 832.914062 " fill-opacity="1" fill-rule="nonzero"/><g clip-path="url(#2dba179f1a)"><path fill="#f1863d" d="M 1383.824219 157.585938 C 1383.824219 134.976562 1365.496094 116.644531 1342.882812 116.644531 L 904.210938 116.644531 C 881.601562 116.644531 863.269531 134.976562 863.269531 157.585938 L 863.269531 461.457031 C 893.691406 477.839844 907.941406 514.648438 895.234375 547.765625 C 890.566406 559.921875 882.835938 569.992188 873.300781 577.5 L 889.0625 583.554688 C 925.003906 597.351562 942.957031 637.675781 929.160156 673.617188 C 922.792969 690.203125 910.773438 702.945312 896.148438 710.519531 C 909.324219 728.929688 913.308594 753.390625 904.589844 776.113281 C 897.050781 795.757812 881.574219 809.96875 863.269531 816.621094 L 863.269531 898.300781 C 863.269531 920.910156 881.601562 939.242188 904.210938 939.242188 L 1223.496094 939.242188 C 1227.398438 869.542969 1254.007812 806.386719 1285.96875 755.378906 C 1317.941406 704.355469 1355.878906 664.496094 1383.824219 641.140625 Z M 1418.917969 649.488281 C 1418.914062 654.871094 1416.441406 659.957031 1412.210938 663.28125 C 1386.953125 683.140625 1348.125 722.296875 1315.714844 774.007812 C 1283.324219 825.699219 1258.074219 888.761719 1258.074219 956.789062 C 1258.074219 966.480469 1250.214844 974.335938 1240.527344 974.335938 L 904.210938 974.335938 C 862.21875 974.335938 828.175781 940.296875 828.175781 898.300781 L 828.175781 802.933594 C 828.179688 794.058594 834.808594 786.578125 843.621094 785.511719 C 855.996094 784.015625 867.078125 775.910156 871.824219 763.535156 C 878.675781 745.683594 869.761719 725.664062 851.914062 718.8125 L 839.441406 714.023438 C 832.65625 711.421875 828.175781 704.90625 828.175781 697.640625 L 828.175781 697.457031 L 828.300781 695.320312 C 828.90625 690.390625 831.597656 685.910156 835.738281 683.042969 C 840.472656 679.765625 846.515625 679.015625 851.902344 681.042969 C 869.691406 687.730469 889.574219 678.8125 896.398438 661.039062 C 903.25 643.191406 894.335938 623.167969 876.488281 616.320312 L 839.441406 602.09375 C 832.65625 599.492188 828.175781 592.976562 828.175781 585.714844 L 828.175781 572.578125 L 828.234375 571.148438 C 828.804688 564.074219 833.609375 557.980469 840.46875 555.828125 C 850.253906 552.761719 858.53125 545.449219 862.46875 535.1875 C 869.320312 517.335938 860.398438 497.3125 842.546875 490.460938 L 839.441406 489.265625 C 832.65625 486.660156 828.175781 480.148438 828.175781 472.882812 L 828.175781 157.585938 C 828.175781 115.59375 862.21875 81.550781 904.210938 81.550781 L 1342.882812 81.550781 C 1384.875 81.550781 1418.917969 115.59375 1418.917969 157.585938 Z M 1418.917969 649.488281 " fill-opacity="1" fill-rule="nonzero"/></g><path fill="#f1863d" d="M 871.824219 763.507812 C 878.675781 745.65625 869.757812 725.628906 851.90625 718.773438 L 814.941406 704.585938 C 797.089844 697.734375 777.058594 706.652344 770.207031 724.503906 C 763.359375 742.355469 772.28125 762.378906 790.132812 769.230469 L 827.097656 783.414062 C 844.945312 790.265625 864.972656 781.355469 871.824219 763.507812 Z M 904.589844 776.082031 C 890.792969 812.023438 850.464844 829.976562 814.523438 816.179688 L 777.558594 801.992188 C 741.613281 788.195312 723.652344 747.875 737.445312 711.929688 C 751.242188 675.984375 791.570312 658.023438 827.515625 671.824219 L 864.480469 686.011719 C 900.425781 699.804688 918.386719 740.136719 904.589844 776.082031 Z M 904.589844 776.082031 " fill-opacity="1" fill-rule="nonzero"/><path fill="#f1863d" d="M 896.398438 661.03125 C 903.25 643.179688 894.328125 623.148438 876.480469 616.300781 L 814.941406 592.679688 C 797.089844 585.828125 777.058594 594.746094 770.207031 612.597656 C 763.359375 630.449219 772.28125 650.472656 790.132812 657.320312 L 851.667969 680.941406 C 869.519531 687.792969 889.546875 678.878906 896.398438 661.03125 Z M 929.160156 673.605469 C 915.363281 709.550781 875.039062 727.5 839.09375 713.703125 L 777.558594 690.085938 C 741.613281 676.289062 723.652344 635.96875 737.445312 600.023438 C 751.242188 564.078125 791.570312 546.121094 827.515625 559.914062 L 889.054688 583.539062 C 925 597.332031 942.957031 637.664062 929.160156 673.605469 Z M 929.160156 673.605469 " fill-opacity="1" fill-rule="nonzero"/><path fill="#f1863d" d="M 862.460938 535.1875 C 869.3125 517.339844 860.402344 497.3125 842.554688 490.457031 L 814.941406 479.859375 C 797.089844 473.007812 777.058594 481.929688 770.207031 499.777344 C 763.359375 517.628906 772.28125 537.652344 790.132812 544.5 L 817.742188 555.101562 C 835.589844 561.945312 855.609375 553.03125 862.460938 535.1875 Z M 895.226562 547.761719 C 881.429688 583.699219 841.109375 601.652344 805.167969 587.863281 L 777.558594 577.261719 C 741.613281 563.46875 723.652344 523.148438 737.445312 487.207031 C 751.242188 451.257812 791.570312 433.300781 827.515625 447.097656 L 855.128906 457.695312 C 891.070312 471.492188 909.019531 511.816406 895.226562 547.761719 Z M 895.226562 547.761719 " fill-opacity="1" fill-rule="nonzero"/><path fill="#f1863d" d="M 808.367188 461.304688 L 808.367188 349.550781 L 845.71875 363.886719 L 845.71875 472.851562 L 848.835938 474.046875 C 854.15625 476.089844 858.953125 478.910156 863.140625 482.328125 Z M 808.367188 461.304688 " fill-opacity="1" fill-rule="nonzero"/><path fill="#f1863d" d="M 798.429688 335.089844 C 803.191406 331.816406 809.257812 331.101562 814.648438 333.167969 L 852.007812 347.503906 C 858.789062 350.109375 863.269531 356.621094 863.269531 363.886719 L 863.269531 461.398438 C 867.195312 463.515625 870.859375 465.976562 874.238281 468.734375 C 880.914062 474.183594 882.648438 483.679688 878.324219 491.136719 C 874.003906 498.589844 864.894531 501.796875 856.847656 498.707031 L 802.085938 477.691406 C 795.304688 475.085938 790.820312 468.570312 790.820312 461.308594 L 790.820312 349.550781 L 790.957031 347.402344 C 791.566406 342.453125 794.261719 337.953125 798.429688 335.089844 Z M 825.914062 449.246094 L 828.175781 450.113281 L 828.175781 375.9375 L 825.914062 375.070312 Z M 825.914062 449.246094 " fill-opacity="1" fill-rule="nonzero"/><path fill="#f1863d" d="M 676.851562 354.960938 C 690.644531 319.019531 730.96875 301.0625 766.914062 314.851562 L 852.007812 347.511719 C 858.789062 350.117188 863.273438 356.632812 863.273438 363.894531 L 863.273438 468.101562 C 863.269531 476.703125 857.027344 484.039062 848.535156 485.417969 C 836.761719 487.332031 824.332031 486.238281 812.4375 481.671875 L 716.957031 445.027344 C 681.015625 431.230469 663.054688 390.90625 676.851562 354.960938 Z M 754.347656 347.617188 C 736.496094 340.765625 716.464844 349.6875 709.613281 367.539062 C 702.765625 385.390625 711.6875 405.414062 729.535156 412.261719 L 825.015625 448.910156 C 826.0625 449.3125 827.121094 449.632812 828.179688 449.929688 L 828.179688 375.945312 Z M 754.347656 347.617188 " fill-opacity="1" fill-rule="nonzero"/><path fill="#f1863d" d="M 1599.859375 162.925781 C 1604.835938 154.613281 1615.613281 151.90625 1623.929688 156.882812 C 1632.242188 161.859375 1634.949219 172.636719 1629.972656 180.953125 L 1600.066406 230.894531 C 1597.664062 234.90625 1593.757812 237.792969 1589.226562 238.914062 C 1584.6875 240.039062 1579.886719 239.308594 1575.894531 236.882812 L 1549.148438 220.613281 L 1530.0625 254.027344 C 1525.253906 262.441406 1514.53125 265.359375 1506.113281 260.550781 C 1497.703125 255.742188 1494.773438 245.023438 1499.578125 236.609375 L 1527.628906 187.566406 L 1528.574219 186.070312 C 1530.960938 182.730469 1534.460938 180.320312 1538.46875 179.285156 C 1543.054688 178.101562 1547.921875 178.8125 1551.972656 181.273438 L 1579.023438 197.710938 Z M 1599.859375 162.925781 " fill-opacity="1" fill-rule="nonzero"/><g clip-path="url(#ee05287b1f)"><path fill="#f1863d" d="M 623.164062 156.882812 C 631.480469 151.90625 642.257812 154.609375 647.234375 162.925781 L 668.058594 197.710938 L 695.121094 181.273438 L 696.675781 180.4375 C 700.378906 178.671875 704.601562 178.25 708.613281 179.285156 C 713.199219 180.46875 717.117188 183.457031 719.464844 187.566406 L 747.5 236.609375 C 752.308594 245.019531 749.386719 255.742188 740.976562 260.550781 C 732.5625 265.363281 721.839844 262.441406 717.03125 254.03125 L 697.933594 220.613281 L 671.191406 236.882812 C 667.195312 239.308594 662.394531 240.039062 657.859375 238.917969 C 653.324219 237.792969 649.429688 234.90625 647.027344 230.898438 L 617.121094 180.953125 C 612.144531 172.636719 614.847656 161.859375 623.164062 156.882812 Z M 623.164062 156.882812 " fill-opacity="1" fill-rule="nonzero"/></g><path fill="#f1863d" d="M 625.796875 1054.414062 C 660.570312 1032.8125 706.273438 1043.484375 727.878906 1078.257812 C 749.484375 1113.03125 738.8125 1158.738281 704.039062 1180.339844 C 695.808594 1185.449219 684.992188 1182.925781 679.878906 1174.695312 C 674.761719 1166.464844 677.289062 1155.636719 685.519531 1150.523438 C 703.828125 1139.148438 709.449219 1115.085938 698.074219 1096.777344 C 686.699219 1078.46875 662.636719 1072.847656 644.328125 1084.222656 C 636.09375 1089.335938 625.269531 1086.8125 620.15625 1078.578125 C 615.042969 1070.347656 617.570312 1059.53125 625.796875 1054.414062 Z M 625.796875 1054.414062 " fill-opacity="1" fill-rule="nonzero"/><path fill="#f1863d" d="M 859.074219 1060.753906 C 859.074219 1076.941406 845.953125 1090.058594 829.769531 1090.058594 C 813.585938 1090.058594 800.46875 1076.941406 800.46875 1060.753906 C 800.46875 1044.574219 813.585938 1031.457031 829.769531 1031.457031 C 845.953125 1031.457031 859.074219 1044.574219 859.074219 1060.753906 Z M 859.074219 1060.753906 " fill-opacity="1" fill-rule="nonzero"/><path fill="#f1863d" d="M 841.523438 1060.753906 C 841.523438 1054.261719 836.261719 1049.003906 829.769531 1049.003906 C 823.277344 1049.003906 818.015625 1054.261719 818.015625 1060.753906 C 818.015625 1067.246094 823.277344 1072.511719 829.769531 1072.511719 C 836.261719 1072.511719 841.523438 1067.246094 841.523438 1060.753906 Z M 876.617188 1060.753906 C 876.617188 1086.632812 855.644531 1107.605469 829.769531 1107.605469 C 803.894531 1107.605469 782.921875 1086.632812 782.921875 1060.753906 C 782.921875 1034.882812 803.894531 1013.910156 829.769531 1013.910156 C 855.644531 1013.910156 876.617188 1034.882812 876.617188 1060.753906 Z M 876.617188 1060.753906 " fill-opacity="1" fill-rule="nonzero"/><path fill="#f1863d" d="M 1349.4375 672.546875 C 1356.746094 667.820312 1366.40625 669.167969 1372.152344 675.707031 C 1377.890625 682.246094 1377.972656 692.003906 1372.34375 698.636719 C 1348.082031 727.195312 1319.308594 767.960938 1296.683594 813.785156 C 1273.992188 859.757812 1258.074219 909.640625 1258.074219 956.800781 C 1258.074219 966.492188 1250.214844 974.347656 1240.527344 974.347656 L 1202.507812 974.347656 C 1192.820312 974.347656 1184.960938 966.492188 1184.960938 956.800781 C 1184.960938 891.289062 1213.328125 828.695312 1247.128906 779.046875 C 1280.910156 729.425781 1321.621094 690.539062 1349.4375 672.546875 Z M 1232.746094 884.066406 C 1226.671875 902.121094 1222.503906 920.628906 1220.855469 939.253906 L 1223.609375 939.253906 C 1224.882812 920.761719 1228.085938 902.269531 1232.746094 884.066406 Z M 1232.746094 884.066406 " fill-opacity="1" fill-rule="nonzero"/><g clip-path="url(#45679c6884)"><path fill="#f1863d" d="M 1418.917969 649.5 C 1418.914062 654.882812 1416.441406 659.96875 1412.210938 663.292969 C 1386.953125 683.152344 1348.125 722.308594 1315.714844 774.019531 C 1283.324219 825.707031 1258.074219 888.777344 1258.074219 956.800781 L 1258.074219 1000.199219 C 1258.074219 1009.890625 1250.214844 1017.746094 1240.527344 1017.746094 C 1230.832031 1017.746094 1222.980469 1009.890625 1222.980469 1000.199219 L 1222.980469 974.347656 L 944.226562 974.347656 C 970.722656 1017.148438 1017.796875 1044.066406 1069.375 1044.066406 L 1126.472656 1044.066406 C 1132.582031 1044.066406 1138.261719 1047.25 1141.449219 1052.460938 L 1200.65625 1149.347656 L 1588.285156 1149.347656 L 1494.667969 976.882812 C 1488.527344 965.570312 1486.738281 952.398438 1489.652344 939.859375 L 1524.449219 790.09375 C 1531.851562 758.253906 1533.507812 725.347656 1529.351562 692.925781 L 1506.789062 516.964844 C 1506.695312 516.226562 1506.652344 515.484375 1506.652344 514.738281 L 1506.652344 359.742188 C 1458.195312 359.742188 1418.917969 399.019531 1418.917969 447.476562 Z M 1541.746094 513.574219 L 1564.160156 688.460938 C 1568.847656 725.023438 1566.972656 762.128906 1558.628906 798.035156 L 1523.832031 947.796875 C 1522.863281 951.976562 1523.457031 956.375 1525.503906 960.144531 L 1633.203125 1158.519531 C 1636.15625 1163.957031 1636.023438 1170.542969 1632.863281 1175.863281 C 1629.699219 1181.175781 1623.96875 1184.441406 1617.78125 1184.441406 L 1190.8125 1184.441406 C 1184.695312 1184.441406 1179.019531 1181.257812 1175.832031 1176.046875 L 1116.621094 1079.160156 L 1069.375 1079.160156 C 994.289062 1079.160156 926.882812 1033.121094 899.5625 963.1875 C 897.453125 957.789062 898.15625 951.691406 901.425781 946.90625 C 904.695312 942.125 910.113281 939.253906 915.910156 939.253906 L 1223.496094 939.253906 C 1227.398438 869.554688 1254.007812 806.398438 1285.96875 755.390625 C 1317.941406 704.367188 1355.875 664.507812 1383.824219 641.152344 L 1383.824219 447.476562 C 1383.824219 379.640625 1438.816406 324.648438 1506.652344 324.648438 L 1512.503906 324.648438 C 1528.652344 324.648438 1541.746094 337.742188 1541.746094 353.890625 Z M 1541.746094 513.574219 " fill-opacity="1" fill-rule="nonzero"/></g><path fill="#f1863d" d="M 1240.527344 956.804688 C 1240.527344 855.085938 1308.859375 746.265625 1358.96875 687.28125 C 1308.023438 720.230469 1202.507812 835.523438 1202.507812 956.804688 Z M 1240.527344 956.804688 " fill-opacity="1" fill-rule="nonzero"/></svg>