<svg xmlns="http://www.w3.org/2000/svg" xmlns:xlink="http://www.w3.org/1999/xlink" width="3000" zoomAndPan="magnify" viewBox="0 0 2250 1265.999941" height="1688" preserveAspectRatio="xMidYMid meet" version="1.0"><defs><clipPath id="c64ce20db4"><path d="M 602.394531 95.210938 L 1749.894531 95.210938 L 1749.894531 1139.210938 L 602.394531 1139.210938 Z M 602.394531 95.210938 " clip-rule="nonzero"/></clipPath></defs><path fill="#000000" d="M 837.378906 697.5625 C 837.378906 711.601562 825.980469 723 811.9375 723 C 797.902344 723 786.503906 711.601562 786.503906 697.5625 C 786.503906 683.527344 797.902344 672.128906 811.9375 672.128906 C 825.980469 672.128906 837.378906 683.527344 837.378906 697.5625 Z M 1514.867188 268.53125 C 1514.867188 254.492188 1526.265625 243.09375 1540.304688 243.09375 C 1554.339844 243.09375 1565.738281 254.492188 1565.738281 268.53125 C 1565.738281 282.570312 1554.339844 293.96875 1540.304688 293.96875 C 1526.265625 293.96875 1514.867188 282.570312 1514.867188 268.53125 Z M 837.378906 483.050781 C 837.378906 497.085938 825.980469 508.484375 811.9375 508.484375 C 797.902344 508.484375 786.503906 497.085938 786.503906 483.050781 C 786.503906 469.007812 797.902344 457.613281 811.9375 457.613281 C 825.980469 457.613281 837.378906 469.007812 837.378906 483.050781 Z M 1514.867188 483.050781 C 1514.867188 469.007812 1526.265625 457.613281 1540.304688 457.613281 C 1554.339844 457.613281 1565.738281 469.007812 1565.738281 483.050781 C 1565.738281 497.085938 1554.339844 508.484375 1540.304688 508.484375 C 1526.265625 508.484375 1514.867188 497.085938 1514.867188 483.050781 Z M 1514.867188 697.5625 C 1514.867188 683.527344 1526.265625 672.128906 1540.304688 672.128906 C 1554.339844 672.128906 1565.738281 683.527344 1565.738281 697.5625 C 1565.738281 711.601562 1554.339844 723 1540.304688 723 C 1526.265625 723 1514.867188 711.601562 1514.867188 697.5625 Z M 837.378906 268.53125 C 837.378906 282.570312 825.980469 293.96875 811.9375 293.96875 C 797.902344 293.96875 786.503906 282.570312 786.503906 268.53125 C 786.503906 254.492188 797.902344 243.09375 811.9375 243.09375 C 825.980469 243.09375 837.378906 254.492188 837.378906 268.53125 Z M 951.996094 483.050781 C 997.175781 406.265625 1080.671875 354.675781 1176.121094 354.675781 C 1271.574219 354.675781 1355.070312 406.265625 1400.246094 483.046875 C 1355.070312 559.832031 1271.574219 611.417969 1176.121094 611.417969 C 1080.667969 611.417969 997.175781 559.832031 951.996094 483.050781 Z M 1176.121094 381.601562 C 1120.132812 381.601562 1074.675781 427.058594 1074.675781 483.050781 C 1074.675781 539.039062 1120.132812 584.492188 1176.121094 584.492188 C 1232.109375 584.492188 1277.566406 539.039062 1277.566406 483.050781 C 1277.566406 427.058594 1232.109375 381.601562 1176.121094 381.601562 Z M 1176.121094 419.851562 C 1211.003906 419.851562 1239.316406 448.167969 1239.316406 483.050781 C 1239.316406 517.925781 1211.003906 546.246094 1176.121094 546.246094 C 1141.242188 546.246094 1112.925781 517.925781 1112.925781 483.050781 C 1112.925781 448.167969 1141.242188 419.851562 1176.121094 419.851562 Z M 1176.121094 419.851562 " fill-opacity="1" fill-rule="evenodd"/><g clip-path="url(#c64ce20db4)"><path fill="#000000" d="M 1356.488281 917.027344 L 1356.488281 1018.960938 L 1490.75 1018.960938 C 1532.101562 1018.960938 1565.980469 1045.980469 1565.980469 1079.003906 L 1565.980469 1139.125 L 786.34375 1139.125 L 786.34375 1079.003906 C 786.34375 1045.980469 820.21875 1018.960938 861.574219 1018.960938 L 995.835938 1018.960938 L 995.835938 917.027344 Z M 690.632812 95.480469 L 1661.613281 95.480469 C 1710.128906 95.480469 1749.847656 135.199219 1749.847656 183.71875 L 1749.847656 790.542969 C 1749.847656 839.0625 1710.128906 878.777344 1661.613281 878.777344 L 690.632812 878.777344 C 642.113281 878.777344 602.394531 839.0625 602.394531 790.542969 L 602.394531 183.71875 C 602.394531 135.199219 642.113281 95.480469 690.632812 95.480469 Z M 688.449219 150.1875 C 671.109375 150.1875 657.019531 164.199219 657.019531 181.535156 L 657.019531 796.785156 C 657.019531 807.347656 665.585938 815.910156 676.144531 815.910156 L 1676.097656 815.910156 C 1686.660156 815.910156 1695.222656 807.347656 1695.222656 796.785156 L 1695.222656 181.535156 C 1695.222656 164.164062 1681.042969 150.1875 1663.871094 150.1875 Z M 695.269531 188.4375 L 1656.972656 188.4375 L 1656.972656 777.664062 C 1656.972656 777.664062 695.269531 777.664062 695.269531 777.664062 Z M 872.699219 287.65625 L 1004.167969 287.65625 L 1036.640625 351.054688 C 987.707031 377.035156 946.855469 416.253906 918.871094 463.925781 L 872.699219 463.925781 C 864.570312 438.105469 840.425781 419.363281 811.9375 419.363281 C 776.792969 419.363281 748.253906 447.898438 748.253906 483.050781 C 748.253906 518.195312 776.792969 546.734375 811.9375 546.734375 C 840.425781 546.734375 864.570312 527.988281 872.699219 502.171875 L 918.871094 502.171875 C 946.855469 549.84375 987.707031 589.0625 1036.640625 615.042969 L 1004.167969 678.4375 L 872.699219 678.4375 C 864.570312 652.625 840.425781 633.878906 811.9375 633.878906 C 776.792969 633.878906 748.253906 662.414062 748.253906 697.5625 C 748.253906 732.714844 776.792969 761.25 811.9375 761.25 C 840.425781 761.25 864.570312 742.503906 872.699219 716.6875 L 1015.859375 716.6875 C 1023.039062 716.6875 1029.609375 712.671875 1032.882812 706.285156 L 1071.554688 630.78125 C 1104.097656 642.988281 1139.335938 649.667969 1176.121094 649.667969 C 1212.90625 649.667969 1248.144531 642.988281 1280.6875 630.78125 L 1319.359375 706.285156 C 1322.632812 712.671875 1329.207031 716.6875 1336.382812 716.6875 L 1479.542969 716.6875 C 1487.675781 742.503906 1511.816406 761.25 1540.304688 761.25 C 1575.453125 761.25 1603.988281 732.714844 1603.988281 697.5625 C 1603.988281 662.414062 1575.453125 633.878906 1540.304688 633.878906 C 1511.816406 633.878906 1487.675781 652.625 1479.542969 678.4375 L 1348.074219 678.4375 L 1315.601562 615.042969 C 1364.539062 589.0625 1405.390625 549.84375 1433.371094 502.171875 L 1479.542969 502.171875 C 1487.675781 527.988281 1511.816406 546.734375 1540.304688 546.734375 C 1575.453125 546.734375 1603.988281 518.195312 1603.988281 483.050781 C 1603.988281 447.898438 1575.453125 419.363281 1540.304688 419.363281 C 1511.816406 419.363281 1487.675781 438.105469 1479.542969 463.925781 L 1433.371094 463.925781 C 1405.390625 416.253906 1364.539062 377.035156 1315.601562 351.054688 L 1348.074219 287.65625 L 1479.542969 287.65625 C 1487.675781 313.472656 1511.816406 332.214844 1540.304688 332.214844 C 1575.453125 332.214844 1603.988281 303.679688 1603.988281 268.53125 C 1603.988281 233.382812 1575.453125 204.847656 1540.304688 204.847656 C 1511.816406 204.847656 1487.675781 223.589844 1479.542969 249.410156 L 1336.382812 249.410156 C 1329.207031 249.410156 1322.632812 253.425781 1319.359375 259.8125 L 1280.6875 335.3125 C 1248.144531 323.105469 1212.90625 316.429688 1176.121094 316.429688 C 1139.335938 316.429688 1104.097656 323.105469 1071.554688 335.3125 L 1032.882812 259.8125 C 1029.609375 253.425781 1023.039062 249.410156 1015.859375 249.410156 L 872.699219 249.410156 C 864.570312 223.589844 840.425781 204.847656 811.9375 204.847656 C 776.792969 204.847656 748.253906 233.382812 748.253906 268.53125 C 748.253906 303.679688 776.792969 332.214844 811.9375 332.214844 C 840.425781 332.214844 864.570312 313.472656 872.699219 287.65625 Z M 872.699219 287.65625 " fill-opacity="1" fill-rule="evenodd"/></g></svg>