<svg xmlns="http://www.w3.org/2000/svg" xmlns:xlink="http://www.w3.org/1999/xlink" zoomAndPan="magnify" preserveAspectRatio="xMidYMid meet" version="1.0" viewBox="611.12 172.31 950.57 853.85"><defs><clipPath id="aca59c03a8"><path d="M 611.117188 172.308594 L 1562 172.308594 L 1562 1026.15625 L 611.117188 1026.15625 Z M 611.117188 172.308594 " clip-rule="nonzero"/></clipPath><clipPath id="4d51b9b8be"><path d="M 1561.992188 385.773438 C 1561.992188 267.800781 1466.351562 172.308594 1348.75 172.308594 L 611.117188 172.308594 L 611.117188 599.234375 L 824.363281 599.234375 C 706.511719 599.234375 611.117188 694.972656 611.117188 812.695312 C 611.117188 930.664062 706.761719 1026.15625 824.363281 1026.15625 L 1561.746094 1026.15625 L 1561.746094 599.234375 L 1348.5 599.234375 C 1466.351562 599.234375 1561.992188 503.492188 1561.992188 385.773438 Z M 1561.992188 385.773438 " clip-rule="nonzero"/></clipPath><clipPath id="140febe423"><path d="M 0.117188 0.308594 L 951 0.308594 L 951 854.15625 L 0.117188 854.15625 Z M 0.117188 0.308594 " clip-rule="nonzero"/></clipPath><clipPath id="72213cd533"><path d="M 950.992188 213.773438 C 950.992188 95.800781 855.351562 0.308594 737.75 0.308594 L 0.117188 0.308594 L 0.117188 427.234375 L 213.363281 427.234375 C 95.511719 427.234375 0.117188 522.972656 0.117188 640.695312 C 0.117188 758.664062 95.761719 854.15625 213.363281 854.15625 L 950.746094 854.15625 L 950.746094 427.234375 L 737.5 427.234375 C 855.351562 427.234375 950.992188 331.492188 950.992188 213.773438 Z M 950.992188 213.773438 " clip-rule="nonzero"/></clipPath><clipPath id="0a83f22f0b"><rect x="0" width="951" y="0" height="855"/></clipPath></defs><g clip-path="url(#aca59c03a8)"><g clip-path="url(#4d51b9b8be)"><g transform="matrix(1, 0, 0, 1, 611, 172)"><g clip-path="url(#0a83f22f0b)"><g clip-path="url(#140febe423)"><g clip-path="url(#72213cd533)"><path fill="#f1863d" d="M 0.117188 0.308594 L 950.691406 0.308594 L 950.691406 854.15625 L 0.117188 854.15625 Z M 0.117188 0.308594 " fill-opacity="1" fill-rule="nonzero"/></g></g></g></g></g></g></svg>