<svg xmlns="http://www.w3.org/2000/svg" xmlns:xlink="http://www.w3.org/1999/xlink" width="3000" zoomAndPan="magnify" viewBox="0 0 2250 1265.999941" height="1688" preserveAspectRatio="xMidYMid meet" version="1.0"><defs><clipPath id="9ac6e62e3a"><path d="M 1423 722 L 1547 722 L 1547 1195.695312 L 1423 1195.695312 Z M 1423 722 " clip-rule="nonzero"/></clipPath><clipPath id="9965d1f683"><path d="M 1237 803 L 1361 803 L 1361 1195.695312 L 1237 1195.695312 Z M 1237 803 " clip-rule="nonzero"/></clipPath><clipPath id="100ba2389d"><path d="M 1067 765 L 1190 765 L 1190 1195.695312 L 1067 1195.695312 Z M 1067 765 " clip-rule="nonzero"/></clipPath><clipPath id="e61c39061f"><path d="M 895 933 L 1019 933 L 1019 1195.695312 L 895 1195.695312 Z M 895 933 " clip-rule="nonzero"/></clipPath><clipPath id="e0991a6117"><path d="M 722 866 L 846 866 L 846 1195.695312 L 722 1195.695312 Z M 722 866 " clip-rule="nonzero"/></clipPath><clipPath id="edb8d4b772"><path d="M 550 933 L 674 933 L 674 1195.695312 L 550 1195.695312 Z M 550 933 " clip-rule="nonzero"/></clipPath><clipPath id="61b3f025fa"><path d="M 1603 500 L 1727 500 L 1727 1195.695312 L 1603 1195.695312 Z M 1603 500 " clip-rule="nonzero"/></clipPath></defs><g clip-path="url(#9ac6e62e3a)"><path fill="#000000" d="M 1530.664062 722.746094 L 1439.5625 722.746094 C 1430.820312 722.746094 1423.710938 736.230469 1423.710938 752.898438 L 1423.710938 1165.507812 C 1423.710938 1182.136719 1430.820312 1195.65625 1439.5625 1195.65625 L 1530.664062 1195.65625 C 1539.40625 1195.65625 1546.515625 1182.136719 1546.515625 1165.507812 L 1546.515625 752.898438 C 1546.351562 736.230469 1539.242188 722.746094 1530.664062 722.746094 Z M 1530.664062 722.746094 " fill-opacity="1" fill-rule="nonzero"/></g><g clip-path="url(#9965d1f683)"><path fill="#000000" d="M 1344.867188 803.144531 L 1253.726562 803.144531 C 1244.984375 803.144531 1237.914062 818.382812 1237.914062 837.175781 L 1237.914062 1161.789062 C 1237.914062 1180.582031 1244.984375 1195.820312 1253.726562 1195.820312 L 1344.867188 1195.820312 C 1353.609375 1195.820312 1360.675781 1180.582031 1360.675781 1161.789062 L 1360.675781 837.054688 C 1360.675781 818.261719 1353.609375 803.144531 1344.867188 803.144531 Z M 1344.867188 803.144531 " fill-opacity="1" fill-rule="nonzero"/></g><g clip-path="url(#100ba2389d)"><path fill="#000000" d="M 1174.144531 765.847656 L 1083.042969 765.847656 C 1074.300781 765.847656 1067.234375 787.988281 1067.234375 815.238281 L 1067.234375 1146.144531 C 1067.234375 1173.390625 1074.300781 1195.535156 1083.042969 1195.535156 L 1174.144531 1195.535156 C 1182.886719 1195.535156 1189.996094 1173.390625 1189.996094 1146.144531 L 1189.996094 815.402344 C 1189.996094 787.988281 1182.886719 765.847656 1174.144531 765.847656 Z M 1174.144531 765.847656 " fill-opacity="1" fill-rule="nonzero"/></g><g clip-path="url(#e61c39061f)"><path fill="#000000" d="M 1002.316406 933.585938 L 911.21875 933.585938 C 902.472656 933.585938 895.367188 947.070312 895.367188 963.695312 L 895.367188 1165.546875 C 895.367188 1182.175781 902.472656 1195.699219 911.21875 1195.699219 L 1002.316406 1195.699219 C 1011.0625 1195.699219 1018.167969 1182.175781 1018.167969 1165.546875 L 1018.167969 963.695312 C 1018.167969 947.070312 1011.0625 933.585938 1002.316406 933.585938 Z M 1002.316406 933.585938 " fill-opacity="1" fill-rule="nonzero"/></g><g clip-path="url(#e0991a6117)"><path fill="#000000" d="M 829.265625 866.671875 L 738.125 866.671875 C 729.382812 866.671875 722.3125 883.625 722.3125 904.5 L 722.3125 1157.785156 C 722.3125 1178.664062 729.382812 1195.617188 738.125 1195.617188 L 829.265625 1195.617188 C 838.007812 1195.617188 845.078125 1178.664062 845.078125 1157.785156 L 845.078125 904.5 C 845.078125 883.625 838.007812 866.671875 829.265625 866.671875 Z M 829.265625 866.671875 " fill-opacity="1" fill-rule="nonzero"/></g><g clip-path="url(#edb8d4b772)"><path fill="#000000" d="M 657.398438 933.585938 L 566.296875 933.585938 C 557.554688 933.585938 550.488281 947.070312 550.488281 963.695312 L 550.488281 1165.546875 C 550.488281 1182.175781 557.554688 1195.699219 566.296875 1195.699219 L 657.398438 1195.699219 C 666.140625 1195.699219 673.25 1182.175781 673.25 1165.546875 L 673.25 963.695312 C 673.25 947.070312 666.140625 933.585938 657.398438 933.585938 Z M 657.398438 933.585938 " fill-opacity="1" fill-rule="nonzero"/></g><g clip-path="url(#61b3f025fa)"><path fill="#000000" d="M 1710.171875 500.550781 L 1619.070312 500.550781 C 1610.328125 500.550781 1603.21875 514.03125 1603.21875 530.660156 L 1603.21875 1165.546875 C 1603.21875 1182.175781 1610.328125 1195.699219 1619.070312 1195.699219 L 1710.171875 1195.699219 C 1718.914062 1195.699219 1726.023438 1182.175781 1726.023438 1165.546875 L 1726.023438 530.660156 C 1726.023438 514.03125 1718.914062 500.550781 1710.171875 500.550781 Z M 1710.171875 500.550781 " fill-opacity="1" fill-rule="nonzero"/></g><path fill="#000000" d="M 1636.226562 325.171875 C 1636.519531 326.652344 1636.882812 328.117188 1637.3125 329.566406 C 1637.742188 331.011719 1638.242188 332.4375 1638.804688 333.835938 C 1639.371094 335.238281 1640.003906 336.609375 1640.699219 337.949219 C 1641.394531 339.289062 1642.152344 340.59375 1642.96875 341.863281 C 1643.789062 343.132812 1644.664062 344.359375 1645.601562 345.546875 C 1646.535156 346.734375 1647.527344 347.871094 1648.570312 348.964844 C 1649.613281 350.054688 1650.703125 351.097656 1651.847656 352.085938 C 1652.988281 353.074219 1654.175781 354.007812 1655.40625 354.882812 C 1656.636719 355.761719 1657.902344 356.578125 1659.210938 357.332031 C 1660.519531 358.089844 1661.859375 358.78125 1663.230469 359.410156 C 1664.605469 360.039062 1666.003906 360.601562 1667.429688 361.101562 C 1668.859375 361.597656 1670.304688 362.023438 1671.773438 362.386719 C 1673.238281 362.746094 1674.71875 363.035156 1676.214844 363.253906 C 1677.707031 363.472656 1679.210938 363.621094 1680.71875 363.699219 C 1682.226562 363.777344 1683.734375 363.78125 1685.242188 363.714844 C 1686.753906 363.648438 1688.253906 363.511719 1689.75 363.304688 C 1691.246094 363.097656 1692.730469 362.820312 1694.199219 362.472656 C 1695.671875 362.121094 1697.121094 361.707031 1698.550781 361.21875 C 1699.980469 360.734375 1701.382812 360.179688 1702.761719 359.5625 C 1704.140625 358.945312 1705.484375 358.261719 1706.796875 357.515625 C 1708.113281 356.769531 1709.386719 355.960938 1710.625 355.09375 C 1711.859375 354.226562 1713.054688 353.304688 1714.203125 352.324219 C 1715.351562 351.34375 1716.453125 350.3125 1717.503906 349.226562 C 1718.554688 348.144531 1719.554688 347.011719 1720.5 345.832031 C 1721.441406 344.65625 1722.328125 343.433594 1723.15625 342.171875 C 1723.988281 340.90625 1724.753906 339.609375 1725.460938 338.273438 C 1726.164062 336.9375 1726.804688 335.574219 1727.382812 334.175781 C 1727.960938 332.78125 1728.46875 331.359375 1728.910156 329.914062 C 1729.351562 328.472656 1729.722656 327.007812 1730.027344 325.527344 C 1730.332031 324.050781 1730.5625 322.558594 1730.726562 321.058594 C 1730.886719 319.554688 1730.980469 318.050781 1731 316.539062 C 1731.019531 315.027344 1730.964844 313.519531 1730.84375 312.015625 L 1702.980469 113.023438 C 1702.609375 111.296875 1702.148438 109.59375 1701.605469 107.914062 C 1701.058594 106.234375 1700.429688 104.589844 1699.714844 102.972656 C 1699 101.359375 1698.203125 99.785156 1697.328125 98.25 C 1696.453125 96.71875 1695.503906 95.230469 1694.476562 93.796875 C 1693.449219 92.359375 1692.351562 90.980469 1691.183594 89.65625 C 1690.015625 88.332031 1688.785156 87.070312 1687.488281 85.871094 C 1686.191406 84.671875 1684.835938 83.542969 1683.425781 82.484375 C 1682.011719 81.421875 1680.550781 80.4375 1679.035156 79.527344 C 1677.523438 78.617188 1675.96875 77.785156 1674.371094 77.035156 C 1672.773438 76.28125 1671.140625 75.613281 1669.476562 75.027344 C 1667.808594 74.445312 1666.117188 73.945312 1664.402344 73.535156 C 1662.683594 73.121094 1660.949219 72.796875 1659.199219 72.5625 C 1657.449219 72.328125 1655.691406 72.183594 1653.929688 72.128906 C 1652.164062 72.074219 1650.398438 72.105469 1648.640625 72.230469 C 1646.878906 72.355469 1645.128906 72.570312 1643.386719 72.875 C 1641.648438 73.179688 1639.929688 73.570312 1638.230469 74.050781 L 1445.609375 131.242188 C 1444.105469 131.6875 1442.628906 132.207031 1441.175781 132.800781 C 1439.722656 133.390625 1438.304688 134.050781 1436.917969 134.78125 C 1435.53125 135.511719 1434.183594 136.3125 1432.871094 137.175781 C 1431.5625 138.039062 1430.300781 138.960938 1429.082031 139.949219 C 1427.863281 140.9375 1426.699219 141.984375 1425.582031 143.085938 C 1424.46875 144.1875 1423.410156 145.339844 1422.40625 146.546875 C 1421.402344 147.753906 1420.464844 149.003906 1419.585938 150.304688 C 1418.707031 151.601562 1417.894531 152.941406 1417.144531 154.320312 C 1416.398438 155.699219 1415.71875 157.109375 1415.109375 158.554688 C 1414.503906 160 1413.964844 161.472656 1413.5 162.96875 C 1413.039062 164.46875 1412.648438 165.984375 1412.332031 167.519531 C 1412.019531 169.054688 1411.777344 170.605469 1411.617188 172.164062 C 1411.453125 173.722656 1411.367188 175.285156 1411.359375 176.855469 C 1411.347656 178.421875 1411.414062 179.988281 1411.558594 181.550781 C 1411.703125 183.109375 1411.925781 184.660156 1412.222656 186.199219 C 1412.519531 187.742188 1412.890625 189.261719 1413.335938 190.765625 C 1413.78125 192.269531 1414.300781 193.746094 1414.890625 195.199219 C 1415.484375 196.652344 1416.144531 198.070312 1416.875 199.457031 C 1417.605469 200.84375 1418.402344 202.191406 1419.265625 203.5 C 1420.128906 204.8125 1421.054688 206.074219 1422.042969 207.292969 C 1423.03125 208.511719 1424.074219 209.675781 1425.179688 210.792969 C 1426.28125 211.90625 1427.433594 212.964844 1428.640625 213.96875 C 1429.847656 214.96875 1431.097656 215.910156 1432.398438 216.789062 C 1433.695312 217.667969 1435.035156 218.480469 1436.414062 219.230469 C 1437.792969 219.976562 1439.203125 220.65625 1440.648438 221.261719 C 1442.09375 221.871094 1443.566406 222.410156 1445.0625 222.871094 C 1446.5625 223.335938 1448.078125 223.726562 1449.613281 224.042969 C 1451.148438 224.355469 1452.699219 224.59375 1454.257812 224.757812 C 1455.816406 224.921875 1457.378906 225.007812 1458.949219 225.015625 C 1460.515625 225.027344 1462.082031 224.957031 1463.640625 224.816406 C 1465.203125 224.671875 1466.753906 224.449219 1468.292969 224.152344 C 1469.832031 223.855469 1471.355469 223.484375 1472.859375 223.039062 L 1547.25 200.9375 C 1491.527344 289.503906 1359.328125 467.132812 1138.195312 581.640625 C 833.882812 739.171875 556.941406 744.113281 556.941406 744.113281 C 555.488281 744.476562 554.054688 744.910156 552.640625 745.40625 C 551.226562 745.90625 549.839844 746.46875 548.480469 747.097656 C 547.121094 747.726562 545.792969 748.417969 544.496094 749.171875 C 543.199219 749.925781 541.941406 750.738281 540.722656 751.609375 C 539.503906 752.484375 538.328125 753.410156 537.195312 754.390625 C 536.0625 755.375 534.980469 756.410156 533.945312 757.492188 C 532.910156 758.578125 531.929688 759.707031 531 760.882812 C 530.070312 762.0625 529.199219 763.277344 528.386719 764.535156 C 527.570312 765.796875 526.816406 767.089844 526.125 768.417969 C 525.433594 769.75 524.804688 771.105469 524.238281 772.496094 C 523.675781 773.882812 523.175781 775.296875 522.742188 776.730469 C 522.3125 778.167969 521.949219 779.621094 521.652344 781.089844 C 521.355469 782.558594 521.132812 784.039062 520.972656 785.53125 C 520.816406 787.019531 520.730469 788.515625 520.714844 790.015625 C 520.699219 791.511719 520.753906 793.007812 520.878906 794.503906 C 521.003906 795.996094 521.199219 797.480469 521.460938 798.957031 C 521.726562 800.433594 522.058594 801.890625 522.460938 803.335938 C 522.863281 804.78125 523.332031 806.203125 523.867188 807.601562 C 524.402344 809.003906 525 810.375 525.664062 811.71875 C 526.332031 813.0625 527.054688 814.371094 527.84375 815.648438 C 528.628906 816.921875 529.476562 818.160156 530.378906 819.355469 C 531.28125 820.550781 532.242188 821.703125 533.253906 822.808594 C 534.265625 823.914062 535.324219 824.972656 536.4375 825.976562 C 537.546875 826.984375 538.703125 827.9375 539.902344 828.832031 C 541.105469 829.730469 542.34375 830.570312 543.621094 831.351562 C 544.902344 832.132812 546.214844 832.851562 547.5625 833.511719 C 548.910156 834.167969 550.285156 834.761719 551.6875 835.289062 C 553.089844 835.816406 554.515625 836.277344 555.960938 836.671875 C 557.40625 837.066406 558.867188 837.394531 560.34375 837.652344 C 561.820312 837.910156 563.308594 838.09375 564.800781 838.214844 C 566.296875 838.332031 567.792969 838.378906 569.292969 838.355469 C 570.789062 838.332031 572.285156 838.238281 573.773438 838.074219 C 573.773438 838.074219 882.785156 836.808594 1219.734375 641.125 C 1432.167969 517.871094 1556.117188 346.535156 1621.890625 249.835938 Z M 1636.226562 325.171875 " fill-opacity="1" fill-rule="nonzero"/></svg>