<svg xmlns="http://www.w3.org/2000/svg" xmlns:xlink="http://www.w3.org/1999/xlink" width="3000" zoomAndPan="magnify" viewBox="0 0 2250 1265.999941" height="1688" preserveAspectRatio="xMidYMid meet" version="1.0"><defs><clipPath id="4a1829f418"><path d="M 1375 191 L 1883.339844 191 L 1883.339844 1034 L 1375 1034 Z M 1375 191 " clip-rule="nonzero"/></clipPath></defs><path fill="#ffffff" d="M 1799.644531 1080.9375 L 1323.714844 685.945312 C 1309.804688 674.40625 1289.640625 674.40625 1275.730469 685.945312 L 1147.511719 792.363281 C 1134.597656 803.066406 1115.898438 803.066406 1103 792.363281 L 974.78125 685.945312 C 960.871094 674.40625 940.707031 674.40625 926.78125 685.945312 L 450.847656 1080.9375 C 444.304688 1086.371094 448.148438 1097.011719 456.671875 1097.011719 L 1793.839844 1097.011719 C 1802.347656 1097.011719 1806.191406 1086.371094 1799.644531 1080.9375 " fill-opacity="1" fill-rule="nonzero"/><path fill="#ffffff" d="M 867.335938 596.777344 L 381.945312 193.941406 C 376.03125 189.023438 367.039062 193.234375 367.039062 200.933594 L 367.039062 1024.171875 C 367.039062 1031.871094 376.03125 1036.082031 381.945312 1031.179688 L 867.335938 628.34375 C 877.222656 620.132812 877.222656 604.976562 867.335938 596.777344 " fill-opacity="1" fill-rule="nonzero"/><path fill="#ffffff" d="M 450.863281 144.183594 L 1107.035156 688.761719 C 1117.601562 697.519531 1132.910156 697.519531 1143.457031 688.761719 L 1799.644531 144.183594 C 1806.191406 138.75 1802.347656 128.09375 1793.839844 128.09375 L 456.671875 128.09375 C 448.148438 128.09375 444.304688 138.75 450.863281 144.183594 " fill-opacity="1" fill-rule="nonzero"/><g clip-path="url(#4a1829f418)"><path fill="#ffffff" d="M 1868.5625 193.941406 L 1383.175781 596.777344 C 1373.289062 604.976562 1373.289062 620.132812 1383.175781 628.34375 L 1868.5625 1031.179688 C 1874.480469 1036.082031 1883.453125 1031.886719 1883.453125 1024.1875 L 1883.453125 200.933594 C 1883.453125 193.234375 1874.480469 189.023438 1868.5625 193.941406 " fill-opacity="1" fill-rule="nonzero"/></g></svg>