<svg xmlns="http://www.w3.org/2000/svg" xmlns:xlink="http://www.w3.org/1999/xlink" width="3000" zoomAndPan="magnify" viewBox="0 0 2250 1265.999941" height="1688" preserveAspectRatio="xMidYMid meet" version="1.0"><defs><clipPath id="56ea3b7b64"><path d="M 393.136719 126.601562 L 1744.636719 126.601562 L 1744.636719 1094.851562 L 393.136719 1094.851562 Z M 393.136719 126.601562 " clip-rule="nonzero"/></clipPath></defs><g clip-path="url(#56ea3b7b64)"><path fill="#f1863d" d="M 516.566406 826.324219 L 686.710938 826.324219 L 686.710938 888.875 L 516.566406 888.875 C 448.972656 888.875 393.996094 833.894531 393.996094 766.320312 L 393.996094 686.953125 C 393.996094 591.703125 442.332031 504.894531 523.300781 454.757812 L 556.226562 507.9375 C 493.8125 546.585938 456.546875 613.511719 456.546875 686.953125 L 456.546875 766.320312 C 456.546875 799.398438 483.472656 826.324219 516.566406 826.324219 Z M 882.25 519.667969 C 882.25 416.671875 966.050781 332.875 1069.042969 332.875 C 1172.035156 332.875 1255.847656 416.671875 1255.847656 519.667969 C 1255.847656 622.660156 1172.050781 706.472656 1069.042969 706.472656 C 966.035156 706.472656 882.25 622.675781 882.25 519.667969 Z M 944.804688 519.667969 C 944.804688 588.175781 1000.53125 643.917969 1069.042969 643.917969 C 1137.550781 643.917969 1193.292969 588.175781 1193.292969 519.667969 C 1193.292969 451.15625 1137.550781 395.429688 1069.042969 395.429688 C 1000.53125 395.429688 944.804688 451.15625 944.804688 519.667969 Z M 1427.960938 500.195312 C 1324.96875 500.195312 1241.167969 416.398438 1241.167969 313.386719 C 1241.167969 210.378906 1324.96875 126.601562 1427.960938 126.601562 C 1530.953125 126.601562 1614.765625 210.398438 1614.765625 313.390625 C 1614.765625 416.382812 1530.96875 500.199219 1427.960938 500.199219 Z M 1552.210938 313.390625 C 1552.210938 244.882812 1496.46875 189.15625 1427.960938 189.15625 C 1359.449219 189.15625 1303.726562 244.882812 1303.726562 313.390625 C 1303.726562 381.902344 1359.449219 437.644531 1427.960938 437.644531 C 1496.46875 437.644531 1552.210938 381.902344 1552.210938 313.390625 Z M 710.152344 500.195312 C 607.160156 500.195312 523.363281 416.398438 523.363281 313.386719 C 523.363281 210.378906 607.160156 126.601562 710.152344 126.601562 C 813.144531 126.601562 896.960938 210.398438 896.960938 313.390625 C 896.960938 416.382812 813.160156 500.199219 710.152344 500.199219 Z M 834.402344 313.390625 C 834.402344 244.882812 778.664062 189.15625 710.152344 189.15625 C 641.644531 189.15625 585.917969 244.882812 585.917969 313.390625 C 585.917969 381.902344 641.644531 437.644531 710.152344 437.644531 C 778.664062 437.644531 834.402344 381.902344 834.402344 313.390625 Z M 1614.933594 454.777344 L 1581.945312 507.921875 C 1644.269531 546.605469 1681.472656 613.542969 1681.472656 686.953125 L 1681.472656 766.324219 C 1681.472656 799.402344 1654.621094 826.328125 1621.636719 826.328125 L 1451.476562 826.328125 L 1451.476562 888.878906 L 1621.636719 888.878906 C 1689.121094 888.878906 1744.027344 833.898438 1744.027344 766.324219 L 1744.027344 686.953125 C 1744.027344 591.75 1695.769531 504.957031 1614.933594 454.777344 Z M 1256.089844 661.054688 L 1223.042969 714.171875 C 1285.367188 752.960938 1322.585938 819.914062 1322.585938 893.28125 L 1322.585938 972.601562 C 1322.585938 1005.652344 1295.691406 1032.542969 1262.644531 1032.542969 L 875.394531 1032.542969 C 842.34375 1032.542969 815.453125 1005.652344 815.453125 972.601562 L 815.453125 893.28125 C 815.453125 819.777344 852.699219 752.839844 915.085938 714.203125 L 882.160156 661.023438 C 801.222656 711.128906 752.902344 797.964844 752.902344 893.277344 L 752.902344 972.597656 C 752.902344 1040.148438 807.847656 1095.09375 875.398438 1095.09375 L 1262.648438 1095.09375 C 1330.195312 1095.09375 1385.144531 1040.148438 1385.144531 972.597656 L 1385.144531 893.277344 C 1385.144531 798.164062 1336.898438 711.34375 1256.097656 661.050781 Z M 1256.089844 661.054688 " fill-opacity="1" fill-rule="nonzero"/></g></svg>