<svg xmlns="http://www.w3.org/2000/svg" xmlns:xlink="http://www.w3.org/1999/xlink" zoomAndPan="magnify" preserveAspectRatio="xMidYMid meet" version="1.0" viewBox="811.29 129.48 627.75 991.95"><defs><clipPath id="91197b62ea"><path d="M 811.292969 129 L 1439.042969 129 L 1439.042969 1122 L 811.292969 1122 Z M 811.292969 129 " clip-rule="nonzero"/></clipPath></defs><g clip-path="url(#91197b62ea)"><path fill="#000000" d="M 1303.960938 129.480469 L 1262.574219 316.753906 L 987.757812 316.753906 L 946.375 129.480469 L 1025.890625 129.480469 L 1025.890625 192.445312 L 1092.617188 192.445312 L 1092.617188 129.480469 L 1157.71875 129.480469 L 1157.71875 192.445312 L 1224.445312 192.445312 L 1224.445312 129.480469 Z M 1390.449219 1035.640625 L 859.882812 1035.640625 C 856.757812 1035.617188 853.652344 1035.871094 850.574219 1036.402344 C 847.492188 1036.933594 844.480469 1037.738281 841.542969 1038.808594 C 838.605469 1039.878906 835.789062 1041.203125 833.089844 1042.777344 C 830.386719 1044.355469 827.851562 1046.160156 825.472656 1048.1875 C 823.265625 1050.042969 821.285156 1052.109375 819.527344 1054.394531 C 817.773438 1056.679688 816.28125 1059.125 815.054688 1061.730469 C 813.832031 1064.339844 812.902344 1067.050781 812.265625 1069.859375 C 811.632812 1072.667969 811.308594 1075.515625 811.292969 1078.394531 C 811.402344 1079.886719 811.585938 1081.371094 811.839844 1082.847656 C 812.09375 1084.320312 812.417969 1085.78125 812.8125 1087.222656 C 813.207031 1088.667969 813.671875 1090.089844 814.203125 1091.488281 C 814.738281 1092.886719 815.335938 1094.253906 816 1095.597656 C 816.664062 1096.9375 817.394531 1098.242188 818.183594 1099.515625 C 818.976562 1100.785156 819.824219 1102.015625 820.734375 1103.203125 C 821.644531 1104.390625 822.609375 1105.53125 823.632812 1106.628906 C 824.652344 1107.722656 825.722656 1108.765625 826.84375 1109.757812 C 827.964844 1110.75 829.132812 1111.6875 830.34375 1112.566406 C 831.554688 1113.445312 832.808594 1114.265625 834.097656 1115.023438 C 835.390625 1115.78125 836.714844 1116.476562 838.070312 1117.105469 C 839.429688 1117.738281 840.816406 1118.300781 842.226562 1118.796875 C 843.640625 1119.292969 845.074219 1119.722656 846.527344 1120.082031 C 847.980469 1120.4375 849.449219 1120.726562 850.929688 1120.941406 C 852.414062 1121.160156 853.902344 1121.304688 855.398438 1121.378906 C 856.894531 1121.449219 858.386719 1121.449219 859.882812 1121.378906 L 1390.449219 1121.378906 C 1393.574219 1121.402344 1396.679688 1121.148438 1399.761719 1120.617188 C 1402.84375 1120.085938 1405.851562 1119.285156 1408.789062 1118.214844 C 1411.726562 1117.144531 1414.546875 1115.820312 1417.246094 1114.242188 C 1419.945312 1112.667969 1422.484375 1110.863281 1424.859375 1108.832031 C 1427.058594 1106.945312 1429.03125 1104.851562 1430.78125 1102.542969 C 1432.53125 1100.234375 1434.019531 1097.769531 1435.242188 1095.144531 C 1436.464844 1092.519531 1437.394531 1089.796875 1438.035156 1086.972656 C 1438.675781 1084.148438 1439.011719 1081.289062 1439.042969 1078.394531 C 1438.929688 1076.902344 1438.75 1075.417969 1438.496094 1073.945312 C 1438.242188 1072.46875 1437.917969 1071.011719 1437.519531 1069.566406 C 1437.125 1068.121094 1436.664062 1066.703125 1436.128906 1065.304688 C 1435.597656 1063.90625 1435 1062.535156 1434.332031 1061.195312 C 1433.667969 1059.851562 1432.941406 1058.546875 1432.148438 1057.277344 C 1431.359375 1056.003906 1430.507812 1054.777344 1429.597656 1053.585938 C 1428.6875 1052.398438 1427.722656 1051.257812 1426.703125 1050.160156 C 1425.683594 1049.066406 1424.609375 1048.023438 1423.488281 1047.03125 C 1422.367188 1046.039062 1421.203125 1045.101562 1419.988281 1044.222656 C 1418.777344 1043.34375 1417.527344 1042.527344 1416.234375 1041.765625 C 1414.945312 1041.007812 1413.621094 1040.316406 1412.261719 1039.683594 C 1410.902344 1039.054688 1409.519531 1038.488281 1408.105469 1037.992188 C 1406.695312 1037.496094 1405.261719 1037.070312 1403.804688 1036.710938 C 1402.351562 1036.351562 1400.882812 1036.0625 1399.402344 1035.847656 C 1397.921875 1035.628906 1396.433594 1035.484375 1394.9375 1035.414062 C 1393.441406 1035.339844 1391.945312 1035.339844 1390.449219 1035.410156 Z M 1336.277344 916.679688 C 1331.175781 914.78125 1325.90625 913.851562 1320.46875 913.890625 L 929.867188 913.890625 C 924.425781 913.851562 919.15625 914.78125 914.058594 916.679688 C 912.941406 916.949219 911.839844 917.265625 910.75 917.625 C 909.660156 917.984375 908.589844 918.386719 907.53125 918.835938 C 906.476562 919.28125 905.441406 919.769531 904.421875 920.300781 C 903.40625 920.832031 902.414062 921.40625 901.441406 922.015625 C 900.472656 922.628906 899.53125 923.28125 898.613281 923.96875 C 897.695312 924.65625 896.808594 925.382812 895.949219 926.140625 C 895.089844 926.902344 894.265625 927.699219 893.472656 928.527344 C 892.679688 929.351562 891.921875 930.210938 891.195312 931.101562 C 890.472656 931.992188 889.785156 932.910156 889.136719 933.855469 C 888.488281 934.800781 887.878906 935.769531 887.308594 936.765625 C 886.738281 937.757812 886.210938 938.777344 885.722656 939.8125 C 885.238281 940.851562 884.792969 941.90625 884.390625 942.980469 C 883.988281 944.054688 883.632812 945.144531 883.320312 946.246094 C 883.007812 947.351562 882.738281 948.464844 882.519531 949.589844 C 882.296875 950.714844 882.121094 951.84375 881.988281 952.984375 C 881.859375 954.125 881.777344 955.265625 881.738281 956.410156 L 881.738281 1012.40625 L 1368.59375 1012.40625 L 1368.59375 956.179688 C 1368.558594 955.03125 1368.472656 953.890625 1368.34375 952.75 C 1368.214844 951.613281 1368.039062 950.480469 1367.816406 949.355469 C 1367.59375 948.230469 1367.324219 947.117188 1367.011719 946.015625 C 1366.699219 944.910156 1366.34375 943.824219 1365.941406 942.75 C 1365.542969 941.675781 1365.097656 940.617188 1364.609375 939.582031 C 1364.121094 938.542969 1363.59375 937.527344 1363.023438 936.53125 C 1362.453125 935.539062 1361.84375 934.566406 1361.195312 933.621094 C 1360.546875 932.675781 1359.859375 931.757812 1359.136719 930.871094 C 1358.414062 929.980469 1357.65625 929.121094 1356.859375 928.292969 C 1356.066406 927.464844 1355.242188 926.671875 1354.382812 925.910156 C 1353.527344 925.148438 1352.636719 924.425781 1351.722656 923.734375 C 1350.804688 923.046875 1349.859375 922.398438 1348.890625 921.785156 C 1347.921875 921.171875 1346.925781 920.601562 1345.910156 920.070312 C 1344.894531 919.539062 1343.855469 919.050781 1342.800781 918.601562 C 1341.746094 918.15625 1340.671875 917.753906 1339.582031 917.390625 C 1338.492188 917.03125 1337.390625 916.71875 1336.277344 916.445312 Z M 937.308594 827.921875 L 937.308594 890.425781 L 1313.027344 890.425781 L 1313.027344 827.921875 Z M 1266.527344 339.988281 L 983.808594 339.988281 L 937.308594 425.726562 L 1313.027344 425.726562 Z M 1233.046875 448.960938 L 1017.285156 448.960938 L 968.460938 804.6875 L 1281.871094 804.6875 Z M 1233.046875 448.960938 " fill-opacity="1" fill-rule="nonzero"/></g></svg>