<svg xmlns="http://www.w3.org/2000/svg" xmlns:xlink="http://www.w3.org/1999/xlink" width="3000" zoomAndPan="magnify" viewBox="0 0 2250 1265.999941" height="1688" preserveAspectRatio="xMidYMid meet" version="1.0"><defs><clipPath id="a9a7547517"><path d="M 811.292969 129 L 1439 129 L 1439 1122 L 811.292969 1122 Z M 811.292969 129 " clip-rule="nonzero"/></clipPath></defs><g clip-path="url(#a9a7547517)"><path fill="#f1863d" d="M 1303.691406 129.480469 L 1262.328125 316.773438 L 987.664062 316.773438 L 946.300781 129.480469 L 1025.773438 129.480469 L 1025.773438 192.453125 L 1092.464844 192.453125 L 1092.464844 129.480469 L 1157.527344 129.480469 L 1157.527344 192.453125 L 1224.21875 192.453125 L 1224.21875 129.480469 Z M 1390.136719 1035.738281 L 859.859375 1035.738281 C 856.734375 1035.714844 853.628906 1035.96875 850.550781 1036.5 C 847.472656 1037.03125 844.464844 1037.832031 841.527344 1038.902344 C 838.59375 1039.976562 835.773438 1041.300781 833.078125 1042.875 C 830.378906 1044.453125 827.839844 1046.253906 825.464844 1048.285156 C 823.261719 1050.140625 821.28125 1052.207031 819.523438 1054.492188 C 817.769531 1056.777344 816.277344 1059.222656 815.054688 1061.832031 C 813.832031 1064.4375 812.902344 1067.148438 812.265625 1069.957031 C 811.632812 1072.769531 811.308594 1075.613281 811.292969 1078.496094 C 811.402344 1079.988281 811.585938 1081.472656 811.839844 1082.945312 C 812.09375 1084.421875 812.417969 1085.882812 812.8125 1087.324219 C 813.207031 1088.769531 813.671875 1090.191406 814.203125 1091.589844 C 814.734375 1092.988281 815.332031 1094.359375 815.996094 1095.699219 C 816.664062 1097.039062 817.390625 1098.34375 818.179688 1099.617188 C 818.972656 1100.886719 819.820312 1102.117188 820.730469 1103.304688 C 821.640625 1104.492188 822.605469 1105.636719 823.625 1106.730469 C 824.644531 1107.828125 825.714844 1108.871094 826.835938 1109.863281 C 827.957031 1110.855469 829.121094 1111.789062 830.332031 1112.671875 C 831.542969 1113.550781 832.796875 1114.367188 834.085938 1115.125 C 835.375 1115.886719 836.699219 1116.578125 838.058594 1117.210938 C 839.414062 1117.839844 840.800781 1118.40625 842.210938 1118.902344 C 843.621094 1119.398438 845.054688 1119.828125 846.507812 1120.183594 C 847.960938 1120.542969 849.429688 1120.832031 850.910156 1121.046875 C 852.390625 1121.265625 853.878906 1121.410156 855.375 1121.480469 C 856.867188 1121.554688 858.363281 1121.554688 859.859375 1121.484375 L 1390.136719 1121.484375 C 1393.261719 1121.507812 1396.363281 1121.253906 1399.441406 1120.722656 C 1402.523438 1120.191406 1405.53125 1119.390625 1408.464844 1118.320312 C 1411.402344 1117.246094 1414.21875 1115.925781 1416.917969 1114.347656 C 1419.617188 1112.769531 1422.152344 1110.96875 1424.527344 1108.9375 C 1426.722656 1107.050781 1428.695312 1104.953125 1430.445312 1102.644531 C 1432.195312 1100.339844 1433.679688 1097.871094 1434.902344 1095.246094 C 1436.125 1092.621094 1437.058594 1089.898438 1437.695312 1087.074219 C 1438.335938 1084.25 1438.671875 1081.390625 1438.703125 1078.496094 C 1438.589844 1077.003906 1438.410156 1075.519531 1438.15625 1074.042969 C 1437.902344 1072.570312 1437.578125 1071.109375 1437.183594 1069.664062 C 1436.789062 1068.222656 1436.324219 1066.800781 1435.792969 1065.402344 C 1435.257812 1064.003906 1434.660156 1062.632812 1433.996094 1061.292969 C 1433.332031 1059.949219 1432.605469 1058.644531 1431.8125 1057.375 C 1431.023438 1056.105469 1430.171875 1054.875 1429.261719 1053.683594 C 1428.351562 1052.496094 1427.390625 1051.355469 1426.367188 1050.257812 C 1425.347656 1049.164062 1424.277344 1048.121094 1423.15625 1047.128906 C 1422.039062 1046.136719 1420.871094 1045.199219 1419.660156 1044.320312 C 1418.449219 1043.441406 1417.199219 1042.621094 1415.910156 1041.863281 C 1414.617188 1041.105469 1413.292969 1040.410156 1411.9375 1039.78125 C 1410.578125 1039.148438 1409.195312 1038.585938 1407.78125 1038.089844 C 1406.371094 1037.59375 1404.9375 1037.164062 1403.484375 1036.804688 C 1402.03125 1036.449219 1400.566406 1036.160156 1399.085938 1035.941406 C 1397.601562 1035.726562 1396.117188 1035.582031 1394.621094 1035.507812 C 1393.125 1035.4375 1391.628906 1035.433594 1390.136719 1035.507812 Z M 1335.992188 916.761719 C 1330.894531 914.867188 1325.628906 913.9375 1320.191406 913.972656 L 929.800781 913.972656 C 924.363281 913.9375 919.097656 914.867188 914 916.761719 C 912.886719 917.035156 911.785156 917.347656 910.695312 917.707031 C 909.609375 918.066406 908.535156 918.472656 907.480469 918.917969 C 906.425781 919.367188 905.390625 919.855469 904.371094 920.386719 C 903.355469 920.917969 902.363281 921.488281 901.394531 922.101562 C 900.425781 922.714844 899.480469 923.363281 898.566406 924.050781 C 897.648438 924.742188 896.761719 925.464844 895.902344 926.226562 C 895.046875 926.988281 894.222656 927.78125 893.429688 928.609375 C 892.636719 929.4375 891.875 930.296875 891.152344 931.1875 C 890.429688 932.078125 889.746094 932.992188 889.097656 933.9375 C 888.449219 934.882812 887.839844 935.855469 887.269531 936.851562 C 886.699219 937.84375 886.171875 938.863281 885.683594 939.898438 C 885.195312 940.9375 884.753906 941.992188 884.351562 943.066406 C 883.949219 944.140625 883.59375 945.230469 883.28125 946.332031 C 882.96875 947.4375 882.703125 948.550781 882.480469 949.675781 C 882.257812 950.800781 882.082031 951.933594 881.953125 953.070312 C 881.820312 954.210938 881.738281 955.351562 881.703125 956.5 L 881.703125 1012.5 L 1368.292969 1012.5 L 1368.292969 956.265625 C 1368.253906 955.121094 1368.171875 953.976562 1368.042969 952.839844 C 1367.914062 951.699219 1367.738281 950.566406 1367.515625 949.441406 C 1367.292969 948.316406 1367.023438 947.203125 1366.710938 946.101562 C 1366.398438 944.996094 1366.042969 943.910156 1365.640625 942.835938 C 1365.242188 941.761719 1364.796875 940.703125 1364.308594 939.667969 C 1363.824219 938.628906 1363.292969 937.613281 1362.726562 936.617188 C 1362.15625 935.621094 1361.546875 934.652344 1360.898438 933.707031 C 1360.25 932.761719 1359.5625 931.84375 1358.839844 930.953125 C 1358.117188 930.066406 1357.359375 929.207031 1356.566406 928.378906 C 1355.773438 927.550781 1354.949219 926.753906 1354.089844 925.996094 C 1353.230469 925.234375 1352.34375 924.507812 1351.429688 923.820312 C 1350.511719 923.132812 1349.570312 922.480469 1348.597656 921.867188 C 1347.628906 921.257812 1346.636719 920.683594 1345.621094 920.152344 C 1344.605469 919.621094 1343.570312 919.132812 1342.511719 918.6875 C 1341.457031 918.238281 1340.386719 917.835938 1339.296875 917.476562 C 1338.207031 917.117188 1337.105469 916.800781 1335.992188 916.53125 Z M 937.238281 827.996094 L 937.238281 890.503906 L 1312.753906 890.503906 L 1312.753906 827.996094 Z M 1266.28125 340.011719 L 983.714844 340.011719 L 937.238281 425.757812 L 1312.753906 425.757812 Z M 1232.820312 448.992188 L 1017.175781 448.992188 L 968.375 804.757812 L 1281.617188 804.757812 Z M 1232.820312 448.992188 " fill-opacity="1" fill-rule="nonzero"/></g></svg>