<svg xmlns="http://www.w3.org/2000/svg" xmlns:xlink="http://www.w3.org/1999/xlink" zoomAndPan="magnify" preserveAspectRatio="xMidYMid meet" version="1.0" viewBox="622.41 97.23 1005.09 1001.29"><defs><clipPath id="1003567d84"><path d="M 622.382812 97.234375 L 1627.382812 97.234375 L 1627.382812 1098.484375 L 622.382812 1098.484375 Z M 622.382812 97.234375 " clip-rule="nonzero"/></clipPath></defs><g clip-path="url(#1003567d84)"><path fill="#ffffff" d="M 1627.492188 599.753906 C 1627.492188 322.199219 1402.507812 97.234375 1124.972656 97.234375 C 847.4375 97.234375 622.40625 322.199219 622.40625 599.753906 C 622.40625 835.40625 784.648438 1033.175781 1003.546875 1087.480469 L 1003.546875 753.324219 L 899.894531 753.324219 L 899.894531 599.753906 L 1003.546875 599.753906 L 1003.546875 533.589844 C 1003.546875 362.566406 1080.949219 283.277344 1248.875 283.277344 C 1280.722656 283.277344 1335.660156 289.5 1358.121094 295.769531 L 1358.121094 434.953125 C 1346.257812 433.691406 1325.644531 433.058594 1300.070312 433.058594 C 1217.664062 433.058594 1185.820312 464.269531 1185.820312 545.40625 L 1185.820312 599.707031 L 1349.957031 599.707031 L 1321.765625 753.277344 L 1185.820312 753.277344 L 1185.820312 1098.527344 C 1434.667969 1068.492188 1627.492188 856.605469 1627.492188 599.707031 Z M 1627.492188 599.753906 " fill-opacity="1" fill-rule="nonzero"/></g></svg>