<svg xmlns="http://www.w3.org/2000/svg" xmlns:xlink="http://www.w3.org/1999/xlink" width="3000" zoomAndPan="magnify" viewBox="0 0 2250 1265.999941" height="1688" preserveAspectRatio="xMidYMid meet" version="1.0"><path fill="#000000" d="M 1377.511719 852.429688 C 1395.898438 894.945312 1390.878906 939.265625 1391.160156 983.042969 C 1391.4375 1026.6875 1391.429688 1070.335938 1391.128906 1113.988281 C 1390.878906 1146.445312 1364.746094 1168.085938 1334.613281 1161.472656 C 1313.597656 1156.859375 1298.832031 1138.5625 1298.78125 1115.964844 C 1298.652344 1054.28125 1298.425781 992.589844 1299.058594 930.910156 C 1299.375 900.171875 1290.320312 873.496094 1269.558594 850.910156 C 1256.183594 836.363281 1251.316406 819.773438 1258.476562 801.09375 C 1265.417969 782.976562 1279.59375 774.570312 1298.664062 771.023438 C 1333.628906 764.523438 1369.128906 758.914062 1402.851562 748.097656 C 1480.761719 723.105469 1526.378906 667.472656 1543.03125 588.164062 C 1553.230469 539.550781 1557.980469 490.441406 1545.515625 441.328125 C 1537.476562 409.660156 1522.472656 381.410156 1500.167969 357.582031 C 1483.859375 340.160156 1479.957031 321.699219 1488.03125 299.097656 C 1500.058594 265.421875 1501.292969 230.835938 1492.433594 193.875 C 1480.296875 198.007812 1468.25 200.628906 1457.605469 206.023438 C 1430.664062 219.675781 1403.722656 233.542969 1378.011719 249.328125 C 1360.769531 259.914062 1344.328125 263.074219 1324.730469 258.003906 C 1230.347656 233.582031 1135.894531 233.621094 1041.371094 258.125 C 1022.214844 263.09375 1005.683594 260.648438 989.167969 249.460938 C 956.878906 227.589844 922.914062 208.675781 885.199219 197.472656 C 881.832031 196.472656 878.363281 195.8125 874.128906 194.800781 C 867.121094 220.605469 866.558594 245.894531 871.324219 271.246094 C 873.445312 282.519531 876.847656 293.601562 880.324219 304.558594 C 885.925781 322.207031 883.578125 338.390625 871.011719 351.964844 C 829.871094 396.414062 811.601562 448.878906 813.996094 509.121094 C 815.652344 550.78125 820.707031 591.753906 836.242188 630.800781 C 861.417969 694.09375 909.402344 732.492188 972.910156 751.804688 C 1002.738281 760.875 1033.78125 766.371094 1064.59375 771.652344 C 1095.871094 777.015625 1114.375 796.238281 1110.242188 824.574219 C 1108.925781 833.625 1104.242188 843.429688 1098.171875 850.308594 C 1076.234375 875.179688 1066.871094 903.484375 1067.375 936.535156 C 1068.277344 996.042969 1067.820312 1055.574219 1067.589844 1115.09375 C 1067.484375 1142.414062 1047.921875 1162.558594 1022.101562 1162.90625 C 996.117188 1163.253906 976.039062 1142.628906 975.773438 1114.828125 C 975.523438 1088.914062 975.71875 1062.996094 975.71875 1038.441406 C 952.128906 1038.441406 929.484375 1039.660156 907.011719 1038.199219 C 853.414062 1034.710938 808.78125 1011.339844 772.382812 972.53125 C 755.886719 954.941406 741.089844 935.746094 725.703125 917.128906 C 712.996094 901.75 699.789062 888.117188 679.699219 881.164062 C 657.421875 873.457031 647.230469 846.972656 654.910156 824.601562 C 662.796875 801.625 686.648438 788.980469 710.304688 795.054688 C 740.863281 802.894531 764.710938 821.027344 784.890625 844.335938 C 799.519531 861.234375 813.558594 878.660156 827.371094 896.234375 C 866.046875 945.429688 916.515625 955.652344 974.398438 941.800781 C 975.484375 926.40625 975.628906 911.242188 977.859375 896.390625 C 980.035156 881.882812 984.347656 867.699219 987.804688 853.027344 C 971.332031 848.003906 954.03125 843.351562 937.152344 837.476562 C 813.75 794.523438 746.746094 705.53125 727.675781 578.394531 C 720.160156 528.289062 717.597656 477.957031 729.171875 427.855469 C 738.382812 387.976562 754.863281 351.46875 779.207031 318.617188 C 783.394531 312.960938 784.890625 307.949219 783.285156 300.890625 C 770.289062 243.671875 775.007812 187.769531 796.847656 133.335938 C 805.914062 110.730469 820.90625 101.648438 845.0625 100.519531 C 902.085938 97.851562 951.875 119.742188 998.734375 147.832031 C 1021.1875 161.292969 1041.039062 163.726562 1066.09375 158.746094 C 1151.660156 141.75 1237.460938 144.222656 1322.695312 162.574219 C 1332.527344 164.691406 1340.089844 163.714844 1348.785156 158.394531 C 1391.0625 132.5 1435.105469 110.175781 1484.710938 102.3125 C 1499.855469 99.914062 1515.726562 99.910156 1531.042969 101.296875 C 1549.3125 102.949219 1561.933594 114.015625 1568.894531 131.179688 C 1591.363281 186.578125 1596.429688 243.398438 1583.5625 301.894531 C 1582.570312 306.414062 1583.691406 312.835938 1586.375 316.511719 C 1631.484375 378.332031 1649.058594 447.6875 1644.441406 523.4375 C 1641.375 573.738281 1633.621094 623.035156 1613.914062 669.792969 C 1576.640625 758.234375 1509.050781 812.292969 1419.109375 840.703125 C 1405.792969 844.90625 1392.222656 848.304688 1377.511719 852.429688 Z M 1377.511719 852.429688 " fill-opacity="1" fill-rule="nonzero"/></svg>