<svg xmlns="http://www.w3.org/2000/svg" xmlns:xlink="http://www.w3.org/1999/xlink" zoomAndPan="magnify" preserveAspectRatio="xMidYMid meet" version="1.0" viewBox="556.81 75.86 1248.07 1062.75"><defs><clipPath id="81b40ff0f6"><path d="M 556.808594 75 L 1613 75 L 1613 1132 L 556.808594 1132 Z M 556.808594 75 " clip-rule="nonzero"/></clipPath></defs><path fill="#ffffff" d="M 1743.597656 1071.210938 C 1754.390625 1071.3125 1763.246094 1062.65625 1763.34375 1051.863281 C 1763.34375 1051.414062 1763.34375 1050.96875 1763.34375 1050.519531 C 1763.34375 1035.847656 1754.492188 1028.832031 1736.335938 1028.832031 L 1707.039062 1028.832031 L 1707.039062 1105.582031 L 1718.082031 1105.582031 L 1718.082031 1072.105469 L 1731.609375 1072.105469 L 1731.910156 1072.503906 L 1752.949219 1105.53125 L 1764.738281 1105.53125 L 1742.105469 1071.3125 L 1743.597656 1071.113281 Z M 1730.863281 1063.5 L 1718.082031 1063.5 L 1718.082031 1037.539062 L 1734.296875 1037.539062 C 1742.652344 1037.539062 1752.203125 1038.929688 1752.203125 1049.875 C 1752.203125 1062.457031 1742.554688 1063.5 1730.816406 1063.5 " fill-opacity="1" fill-rule="nonzero"/><g clip-path="url(#81b40ff0f6)"><path fill="#ffffff" d="M 1455.953125 975.015625 L 1299.570312 975.015625 L 1299.570312 730.144531 C 1299.570312 671.75 1298.527344 596.59375 1218.246094 596.59375 C 1137.96875 596.59375 1124.339844 660.210938 1124.339844 725.917969 L 1124.339844 975.015625 L 967.957031 975.015625 L 967.957031 471.449219 L 1118.070312 471.449219 L 1118.070312 540.289062 L 1120.160156 540.289062 C 1150.75 487.964844 1207.703125 456.675781 1268.285156 458.964844 C 1426.757812 458.964844 1456.003906 563.21875 1456.003906 698.808594 L 1456.003906 975.066406 Z M 791.578125 402.609375 C 741.441406 402.609375 700.855469 362.023438 700.804688 311.882812 C 700.753906 261.746094 741.390625 221.160156 791.527344 221.109375 C 841.667969 221.109375 882.253906 261.695312 882.304688 311.835938 C 882.355469 361.972656 841.714844 402.558594 791.578125 402.609375 M 869.769531 975.015625 L 713.238281 975.015625 L 713.238281 471.449219 L 869.769531 471.449219 Z M 1533.894531 75.917969 L 634.699219 75.917969 C 592.171875 75.472656 557.304688 109.492188 556.808594 152.019531 L 556.808594 1054.996094 C 557.304688 1097.523438 592.171875 1131.59375 634.699219 1131.148438 L 1533.945312 1131.148438 C 1576.570312 1131.695312 1611.539062 1097.625 1612.136719 1054.996094 L 1612.136719 151.921875 C 1611.488281 109.34375 1576.523438 75.320312 1533.894531 75.867188 " fill-opacity="1" fill-rule="nonzero"/></g><path fill="#ffffff" d="M 1732.207031 994.660156 C 1692.464844 995.058594 1660.582031 1027.589844 1660.929688 1067.332031 C 1661.328125 1107.074219 1693.859375 1138.957031 1733.601562 1138.609375 C 1773.34375 1138.210938 1805.226562 1105.679688 1804.878906 1065.9375 C 1804.480469 1026.746094 1772.796875 995.058594 1733.601562 994.660156 L 1732.207031 994.660156 M 1732.207031 1130.351562 C 1697.339844 1130.949219 1668.640625 1103.144531 1668.042969 1068.328125 C 1667.445312 1033.507812 1695.25 1004.757812 1730.070312 1004.164062 C 1764.9375 1003.566406 1793.636719 1031.371094 1794.234375 1066.1875 L 1794.234375 1067.234375 C 1794.980469 1101.304688 1767.921875 1129.554688 1733.847656 1130.300781 L 1732.207031 1130.300781 " fill-opacity="1" fill-rule="nonzero"/></svg>