<svg xmlns="http://www.w3.org/2000/svg" xmlns:xlink="http://www.w3.org/1999/xlink" zoomAndPan="magnify" preserveAspectRatio="xMidYMid meet" version="1.0" viewBox="618.6 107.2 1012.37 1012.39"><defs><clipPath id="a69002dbea"><path d="M 618.601562 107.207031 L 1631 107.207031 L 1631 1119.707031 L 618.601562 1119.707031 Z M 618.601562 107.207031 " clip-rule="nonzero"/></clipPath></defs><g clip-path="url(#a69002dbea)"><path fill="#ffffff" d="M 915.140625 110.691406 C 861.277344 113.21875 824.496094 121.855469 792.34375 134.449219 C 759.046875 147.425781 730.851562 164.789062 702.800781 192.984375 C 674.703125 221.175781 657.433594 249.417969 644.601562 282.765625 C 632.148438 315.015625 623.703125 351.796875 621.320312 405.703125 C 618.933594 459.660156 618.410156 476.878906 618.648438 614.367188 C 618.886719 751.808594 619.507812 769.078125 622.082031 823.082031 C 624.660156 876.941406 633.246094 913.671875 645.839844 945.875 C 658.816406 979.171875 676.179688 1007.320312 704.375 1035.417969 C 732.570312 1063.515625 760.8125 1080.738281 794.15625 1093.621094 C 826.359375 1106.070312 863.1875 1114.5625 917.046875 1116.898438 C 971.050781 1119.285156 988.273438 1119.808594 1125.710938 1119.523438 C 1263.199219 1119.285156 1280.421875 1118.664062 1334.425781 1116.089844 C 1388.285156 1113.511719 1425.019531 1104.878906 1457.21875 1092.332031 C 1490.519531 1079.308594 1518.710938 1061.992188 1546.761719 1033.796875 C 1574.8125 1005.601562 1592.082031 977.359375 1604.964844 944.015625 C 1617.414062 911.8125 1625.90625 874.984375 1628.246094 821.171875 C 1630.582031 767.167969 1631.15625 749.898438 1630.914062 612.460938 C 1630.675781 475.019531 1630.007812 457.796875 1627.480469 403.792969 C 1624.90625 349.886719 1616.316406 313.152344 1603.722656 280.953125 C 1590.699219 247.652344 1573.382812 219.507812 1545.1875 191.410156 C 1516.996094 163.359375 1488.753906 146.039062 1455.40625 133.207031 C 1423.203125 120.757812 1386.375 112.265625 1332.515625 109.925781 C 1278.511719 107.542969 1261.242188 107.015625 1123.804688 107.257812 C 986.363281 107.496094 969.140625 108.113281 915.140625 110.691406 M 921.054688 1025.734375 C 871.726562 1023.585938 844.917969 1015.382812 827.027344 1008.511719 C 803.363281 999.351562 786.523438 988.382812 768.730469 970.777344 C 750.984375 953.078125 740.011719 936.238281 730.757812 912.671875 C 723.839844 894.828125 715.492188 868.066406 713.152344 818.691406 C 710.625 765.355469 710.050781 749.328125 709.8125 614.175781 C 709.574219 479.074219 710.050781 463.046875 712.390625 409.664062 C 714.488281 360.335938 722.742188 333.523438 729.609375 315.683594 C 738.769531 292.019531 749.695312 275.179688 767.347656 257.386719 C 785.046875 239.640625 801.886719 228.667969 825.5 219.414062 C 843.339844 212.445312 870.105469 204.144531 919.433594 201.808594 C 972.816406 199.28125 988.796875 198.753906 1123.945312 198.46875 C 1259.097656 198.183594 1275.125 198.660156 1328.507812 201.046875 C 1377.835938 203.191406 1404.648438 211.351562 1422.488281 218.265625 C 1446.152344 227.425781 1463.039062 238.304688 1480.785156 256.003906 C 1498.53125 273.703125 1509.550781 290.492188 1518.757812 314.15625 C 1525.726562 331.949219 1534.027344 358.761719 1536.363281 408.039062 C 1538.890625 461.421875 1539.464844 477.453125 1539.703125 612.554688 C 1539.941406 747.707031 1539.464844 763.734375 1537.125 817.070312 C 1534.980469 866.398438 1526.773438 893.253906 1519.90625 911.097656 C 1510.746094 934.710938 1499.820312 951.601562 1482.121094 969.347656 C 1464.421875 987.046875 1447.628906 998.066406 1423.96875 1007.320312 C 1406.175781 1014.285156 1379.363281 1022.585938 1330.082031 1024.921875 C 1276.699219 1027.453125 1260.71875 1028.023438 1125.519531 1028.261719 C 990.417969 1028.5 974.390625 1028.023438 921.007812 1025.6875 M 1333.710938 342.828125 C 1333.757812 376.363281 1361.042969 403.507812 1394.535156 403.414062 C 1428.070312 403.367188 1455.214844 376.125 1455.167969 342.589844 C 1455.121094 309.050781 1427.832031 281.90625 1394.296875 281.953125 C 1360.757812 282.003906 1333.613281 309.289062 1333.660156 342.777344 M 864.855469 613.890625 C 865.144531 757.4375 981.734375 873.554688 1125.234375 873.265625 C 1268.78125 872.980469 1384.945312 756.4375 1384.660156 612.890625 C 1384.371094 469.390625 1267.78125 353.226562 1124.234375 353.464844 C 980.734375 353.75 864.570312 470.34375 864.855469 613.890625 M 956.023438 613.699219 C 955.878906 520.53125 1031.253906 444.820312 1124.425781 444.679688 C 1217.59375 444.488281 1293.300781 519.863281 1293.492188 613.078125 C 1293.683594 706.25 1218.261719 781.957031 1125.09375 782.101562 C 1031.921875 782.292969 956.214844 706.871094 956.070312 613.699219 " fill-opacity="1" fill-rule="nonzero"/></g></svg>