<svg xmlns="http://www.w3.org/2000/svg" xmlns:xlink="http://www.w3.org/1999/xlink" width="3000" zoomAndPan="magnify" viewBox="0 0 2250 1265.999941" height="1688" preserveAspectRatio="xMidYMid meet" version="1.0"><defs><clipPath id="ddc51d957f"><path d="M 556.808594 75 L 1613 75 L 1613 1131 L 556.808594 1131 Z M 556.808594 75 " clip-rule="nonzero"/></clipPath><clipPath id="548ac26b0c"><path d="M 1661 994 L 1805.558594 994 L 1805.558594 1139 L 1661 1139 Z M 1661 994 " clip-rule="nonzero"/></clipPath></defs><path fill="#000000" d="M 1743.867188 1070.882812 C 1754.660156 1070.980469 1763.515625 1062.332031 1763.617188 1051.539062 C 1763.617188 1051.09375 1763.617188 1050.644531 1763.617188 1050.199219 C 1763.617188 1035.527344 1754.761719 1028.519531 1736.601562 1028.519531 L 1707.300781 1028.519531 L 1707.300781 1105.242188 L 1718.34375 1105.242188 L 1718.34375 1071.777344 L 1731.875 1071.777344 L 1732.175781 1072.175781 L 1753.21875 1105.191406 L 1765.011719 1105.191406 L 1742.375 1070.980469 L 1743.867188 1070.78125 Z M 1731.128906 1063.175781 L 1718.34375 1063.175781 L 1718.34375 1037.21875 L 1734.5625 1037.21875 C 1742.921875 1037.21875 1752.472656 1038.613281 1752.472656 1049.550781 C 1752.472656 1062.132812 1742.820312 1063.175781 1731.078125 1063.175781 " fill-opacity="1" fill-rule="nonzero"/><g clip-path="url(#ddc51d957f)"><path fill="#000000" d="M 1456.15625 974.71875 L 1299.738281 974.71875 L 1299.738281 729.929688 C 1299.738281 671.554688 1298.695312 596.421875 1218.394531 596.421875 C 1138.097656 596.421875 1124.464844 660.019531 1124.464844 725.703125 L 1124.464844 974.71875 L 968.050781 974.71875 L 968.050781 471.316406 L 1118.199219 471.316406 L 1118.199219 540.136719 L 1120.285156 540.136719 C 1150.882812 487.828125 1207.847656 456.550781 1268.445312 458.835938 C 1426.953125 458.835938 1456.207031 563.058594 1456.207031 698.605469 L 1456.207031 974.765625 Z M 791.632812 402.5 C 741.484375 402.5 700.886719 361.925781 700.835938 311.804688 C 700.785156 261.683594 741.433594 221.109375 791.582031 221.0625 C 841.730469 221.0625 882.328125 261.636719 882.378906 311.757812 C 882.425781 361.878906 841.78125 402.453125 791.632812 402.5 M 869.839844 974.71875 L 713.273438 974.71875 L 713.273438 471.316406 L 869.839844 471.316406 Z M 1534.117188 75.917969 L 634.71875 75.917969 C 592.179688 75.46875 557.304688 109.480469 556.808594 151.996094 L 556.808594 1054.671875 C 557.304688 1097.1875 592.179688 1131.246094 634.71875 1130.800781 L 1534.164062 1130.800781 C 1576.800781 1131.347656 1611.777344 1097.285156 1612.375 1054.671875 L 1612.375 151.894531 C 1611.726562 109.332031 1576.753906 75.320312 1534.117188 75.867188 " fill-opacity="1" fill-rule="nonzero"/></g><g clip-path="url(#548ac26b0c)"><path fill="#000000" d="M 1732.472656 994.359375 C 1692.722656 994.757812 1660.832031 1027.273438 1661.179688 1067.003906 C 1661.578125 1106.734375 1694.113281 1138.605469 1733.867188 1138.257812 C 1773.617188 1137.859375 1805.507812 1105.339844 1805.160156 1065.613281 C 1804.761719 1026.429688 1773.070312 994.757812 1733.867188 994.359375 L 1732.472656 994.359375 M 1732.472656 1130.003906 C 1697.597656 1130.601562 1668.890625 1102.804688 1668.292969 1068 C 1667.695312 1033.191406 1695.507812 1004.453125 1730.332031 1003.855469 C 1765.210938 1003.257812 1793.914062 1031.054688 1794.511719 1065.859375 L 1794.511719 1066.90625 C 1795.257812 1100.964844 1768.195312 1129.207031 1734.113281 1129.953125 L 1732.472656 1129.953125 " fill-opacity="1" fill-rule="nonzero"/></g></svg>