<svg xmlns="http://www.w3.org/2000/svg" xmlns:xlink="http://www.w3.org/1999/xlink" zoomAndPan="magnify" preserveAspectRatio="xMidYMid meet" version="1.0" viewBox="757.55 199.34 734.89 867.68"><path fill="#ffffff" d="M 1358.929688 332.128906 L 1358.929688 532.585938 L 1225.046875 532.585938 L 1225.046875 666.46875 L 1158.46875 666.46875 L 1158.46875 466.011719 L 1291.621094 466.011719 L 1291.621094 399.070312 L 958.011719 399.070312 L 958.011719 466.011719 L 1091.527344 466.011719 L 1091.527344 799.621094 L 809.496094 799.621094 C 807.804688 799.621094 806.113281 799.539062 804.429688 799.375 C 802.742188 799.207031 801.070312 798.960938 799.40625 798.632812 C 797.746094 798.304688 796.105469 797.894531 794.484375 797.40625 C 792.863281 796.914062 791.269531 796.347656 789.703125 795.703125 C 788.136719 795.058594 786.605469 794.335938 785.109375 793.542969 C 783.617188 792.746094 782.164062 791.878906 780.75 790.945312 C 779.339844 790.007812 777.980469 789.003906 776.667969 787.933594 C 775.355469 786.863281 774.097656 785.730469 772.894531 784.535156 C 771.695312 783.34375 770.554688 782.09375 769.472656 780.789062 C 768.394531 779.484375 767.378906 778.128906 766.433594 776.726562 C 765.484375 775.320312 764.609375 773.875 763.804688 772.386719 C 763 770.894531 762.269531 769.371094 761.609375 767.808594 C 760.953125 766.246094 760.375 764.65625 759.875 763.039062 C 759.375 761.421875 758.953125 759.785156 758.613281 758.125 C 758.273438 756.464844 758.011719 754.792969 757.835938 753.109375 C 757.660156 751.425781 757.566406 749.738281 757.554688 748.042969 L 757.554688 199.34375 L 1440.5 199.34375 C 1442.191406 199.355469 1443.878906 199.449219 1445.558594 199.625 C 1447.242188 199.796875 1448.910156 200.054688 1450.566406 200.390625 C 1452.222656 200.726562 1453.859375 201.144531 1455.476562 201.640625 C 1457.089844 202.136719 1458.679688 202.707031 1460.242188 203.355469 C 1461.800781 204.007812 1463.328125 204.730469 1464.816406 205.527344 C 1466.308594 206.324219 1467.757812 207.191406 1469.164062 208.128906 C 1470.570312 209.070312 1471.925781 210.070312 1473.234375 211.140625 C 1474.542969 212.210938 1475.800781 213.339844 1477 214.53125 C 1478.199219 215.722656 1479.335938 216.96875 1480.414062 218.269531 C 1481.496094 219.574219 1482.507812 220.921875 1483.457031 222.324219 C 1484.402344 223.722656 1485.28125 225.164062 1486.089844 226.648438 C 1486.898438 228.132812 1487.632812 229.65625 1488.292969 231.210938 C 1488.953125 232.765625 1489.535156 234.351562 1490.042969 235.964844 C 1490.550781 237.578125 1490.976562 239.210938 1491.328125 240.863281 C 1491.675781 242.519531 1491.941406 244.183594 1492.128906 245.867188 C 1492.316406 247.546875 1492.421875 249.230469 1492.445312 250.921875 L 1492.445312 748.410156 C 1492.410156 750.089844 1492.292969 751.769531 1492.097656 753.441406 C 1491.898438 755.109375 1491.621094 756.769531 1491.265625 758.414062 C 1490.910156 760.058594 1490.472656 761.683594 1489.960938 763.285156 C 1489.445312 764.886719 1488.855469 766.460938 1488.191406 768.007812 C 1487.523438 769.550781 1486.785156 771.0625 1485.972656 772.535156 C 1485.164062 774.011719 1484.28125 775.441406 1483.332031 776.832031 C 1482.382812 778.222656 1481.367188 779.5625 1480.289062 780.851562 C 1479.210938 782.144531 1478.070312 783.382812 1476.871094 784.5625 C 1475.675781 785.742188 1474.421875 786.863281 1473.113281 787.925781 C 1471.808594 788.988281 1470.453125 789.980469 1469.050781 790.910156 C 1467.648438 791.839844 1466.203125 792.703125 1464.71875 793.492188 C 1463.234375 794.28125 1461.710938 795 1460.15625 795.644531 C 1458.601562 796.289062 1457.019531 796.855469 1455.410156 797.347656 C 1453.800781 797.835938 1452.171875 798.25 1450.523438 798.582031 C 1448.871094 798.917969 1447.210938 799.171875 1445.539062 799.34375 C 1443.863281 799.515625 1442.183594 799.609375 1440.5 799.621094 L 1225.046875 799.621094 L 1225.046875 866.5625 L 1492.445312 866.5625 L 1492.445312 1067.019531 L 1425.503906 1067.019531 L 1425.503906 933.503906 L 1210.414062 933.503906 C 1208.710938 933.503906 1207.015625 933.421875 1205.324219 933.253906 C 1203.628906 933.085938 1201.949219 932.835938 1200.28125 932.503906 C 1198.609375 932.175781 1196.964844 931.761719 1195.335938 931.265625 C 1193.707031 930.773438 1192.105469 930.199219 1190.535156 929.550781 C 1188.964844 928.898438 1187.429688 928.171875 1185.925781 927.371094 C 1184.425781 926.570312 1182.96875 925.695312 1181.554688 924.75 C 1180.140625 923.804688 1178.777344 922.792969 1177.460938 921.714844 C 1176.144531 920.632812 1174.886719 919.492188 1173.683594 918.289062 C 1172.480469 917.085938 1171.339844 915.828125 1170.261719 914.511719 C 1169.179688 913.199219 1168.167969 911.832031 1167.222656 910.417969 C 1166.277344 909.003906 1165.40625 907.546875 1164.601562 906.046875 C 1163.800781 904.546875 1163.074219 903.011719 1162.425781 901.4375 C 1161.773438 899.867188 1161.199219 898.265625 1160.707031 896.640625 C 1160.210938 895.011719 1159.800781 893.363281 1159.46875 891.695312 C 1159.136719 890.027344 1158.886719 888.34375 1158.71875 886.652344 C 1158.554688 884.957031 1158.46875 883.261719 1158.46875 881.558594 L 1158.46875 733.046875 L 1425.503906 733.046875 L 1425.503906 265.554688 L 824.128906 265.554688 L 824.128906 733.046875 L 1024.585938 733.046875 L 1024.585938 532.585938 L 891.070312 532.585938 L 891.070312 386.265625 C 891.070312 384.554688 891.152344 382.84375 891.320312 381.140625 C 891.488281 379.433594 891.742188 377.742188 892.074219 376.0625 C 892.410156 374.382812 892.824219 372.722656 893.324219 371.082031 C 893.820312 369.441406 894.394531 367.832031 895.050781 366.25 C 895.707031 364.667969 896.4375 363.121094 897.246094 361.609375 C 898.054688 360.097656 898.933594 358.628906 899.886719 357.207031 C 900.835938 355.78125 901.855469 354.40625 902.945312 353.082031 C 904.03125 351.757812 905.179688 350.488281 906.390625 349.277344 C 907.601562 348.066406 908.871094 346.917969 910.195312 345.832031 C 911.519531 344.746094 912.894531 343.726562 914.316406 342.773438 C 915.742188 341.820312 917.210938 340.941406 918.722656 340.132812 C 920.230469 339.328125 921.777344 338.59375 923.363281 337.9375 C 924.945312 337.285156 926.554688 336.707031 928.195312 336.210938 C 929.835938 335.710938 931.492188 335.296875 933.175781 334.960938 C 934.855469 334.628906 936.546875 334.378906 938.253906 334.210938 C 939.957031 334.042969 941.667969 333.957031 943.378906 333.957031 Z M 1358.929688 332.128906 " fill-opacity="1" fill-rule="nonzero"/></svg>