<svg xmlns="http://www.w3.org/2000/svg" viewBox="0 0 32.89 32.89"><defs><style>.cls-1{fill:none;}.cls-2{fill:#f1863d;}</style></defs><title>Traçado laranja #f1863d</title><g id="Camada_2" data-name="Camada 2"><g id="Camada_1-2" data-name="Camada 1"><rect class="cls-1" width="32.89" height="32.89"/><path class="cls-2" d="M22.84,8.22V13.7H19.18v3.66H17.36V11.88H21V10.05H11.88v1.83h3.65V21H7.82A1.42,1.42,0,0,1,6.4,19.59v-15H25.07A1.43,1.43,0,0,1,26.49,6v13.6A1.43,1.43,0,0,1,25.07,21H19.18v1.83h7.31v5.48H24.66V24.66H18.78a1.42,1.42,0,0,1-1.42-1.42V19.18h7.3V6.4H8.22V19.18H13.7V13.7H10.05v-4a1.43,1.43,0,0,1,1.43-1.43Z"/></g></g></svg>