<svg xmlns="http://www.w3.org/2000/svg" xmlns:xlink="http://www.w3.org/1999/xlink" zoomAndPan="magnify" preserveAspectRatio="xMidYMid meet" version="1.0" viewBox="615.09 123.09 1053.88 1053.88"><path fill="#000000" d="M 1651.332031 1074.207031 L 1362.527344 785.402344 C 1483.476562 623 1470.746094 391.792969 1323.410156 244.457031 C 1161.585938 82.628906 898.285156 82.628906 736.457031 244.457031 C 574.628906 406.285156 574.628906 669.585938 736.457031 831.410156 C 883.792969 978.746094 1115 991.476562 1277.402344 870.527344 L 1566.207031 1159.332031 C 1589.71875 1182.84375 1627.820312 1182.84375 1651.332031 1159.332031 C 1674.84375 1135.820312 1674.84375 1097.71875 1651.332031 1074.207031 Z M 793.207031 774.664062 C 662.679688 644.136719 662.679688 431.738281 793.207031 301.207031 C 923.738281 170.679688 1136.132812 170.679688 1266.664062 301.207031 C 1397.195312 431.738281 1397.195312 644.132812 1266.664062 774.664062 C 1136.132812 905.195312 923.738281 905.191406 793.207031 774.664062 Z M 793.207031 774.664062 " fill-opacity="1" fill-rule="nonzero"/><path fill="#000000" d="M 771.933594 565.972656 C 758.351562 565.972656 747.34375 554.960938 747.34375 541.378906 C 747.34375 387.382812 872.625 262.101562 1026.621094 262.101562 C 1040.203125 262.101562 1051.210938 273.113281 1051.210938 286.691406 C 1051.210938 300.273438 1040.203125 311.285156 1026.621094 311.285156 C 899.746094 311.285156 796.523438 414.503906 796.523438 541.378906 C 796.523438 554.960938 785.519531 565.972656 771.933594 565.972656 Z M 771.933594 565.972656 " fill-opacity="1" fill-rule="nonzero"/></svg>