<svg xmlns="http://www.w3.org/2000/svg" xmlns:xlink="http://www.w3.org/1999/xlink" width="3000" zoomAndPan="magnify" viewBox="0 0 2250 1265.999941" height="1688" preserveAspectRatio="xMidYMid meet" version="1.0"><defs><clipPath id="aa99fd59b7"><path d="M 940 46.328125 L 1750.164062 46.328125 L 1750.164062 988 L 940 988 Z M 940 46.328125 " clip-rule="nonzero"/></clipPath><clipPath id="7ce50c24d8"><path d="M 610.914062 889 L 985 889 L 985 1185.578125 L 610.914062 1185.578125 Z M 610.914062 889 " clip-rule="nonzero"/></clipPath></defs><g clip-path="url(#aa99fd59b7)"><path fill="#000000" d="M 1000.015625 987.128906 C 1009.554688 928.882812 974.578125 910.511719 940.976562 888.003906 C 961.304688 853.355469 979.691406 819.941406 999.839844 788.007812 C 1116.382812 603.320312 1257.835938 446.296875 1413.007812 306.015625 C 1509.367188 218.898438 1610.902344 139.371094 1710.140625 56.476562 C 1714.128906 53.148438 1718.195312 48.183594 1722.582031 47.617188 C 1730.792969 46.554688 1742.632812 44.566406 1746.703125 49.636719 C 1750.996094 54.972656 1751.292969 70.453125 1747.582031 77.457031 C 1728.503906 113.46875 1708.039062 148.546875 1687.210938 183.28125 C 1560.671875 394.253906 1421.308594 592.789062 1257.207031 766.992188 C 1183.46875 845.277344 1105.207031 916.976562 1018.699219 976.035156 C 1014.550781 978.867188 1010.121094 981.152344 1000.015625 987.128906 Z M 1000.015625 987.128906 " fill-opacity="1" fill-rule="nonzero"/></g><g clip-path="url(#7ce50c24d8)"><path fill="#000000" d="M 655.953125 1039.210938 C 691.363281 1046.398438 716.417969 1028.261719 735.886719 994.945312 C 746.871094 976.148438 758.949219 957.898438 772.308594 941.292969 C 830.148438 869.394531 912.714844 877.960938 973.527344 936.550781 C 977.824219 940.695312 980.917969 948.382812 981.886719 954.949219 C 995.089844 1044.535156 954.824219 1128.753906 882.183594 1164.523438 C 799.457031 1205.261719 696.402344 1185.476562 640.515625 1117.226562 C 630.984375 1105.585938 623.007812 1091.722656 616.339844 1077.617188 C 604.519531 1052.613281 612.332031 1038.695312 636.488281 1039.1875 C 642.832031 1039.320312 649.179688 1039.210938 655.953125 1039.210938 Z M 655.953125 1039.210938 " fill-opacity="1" fill-rule="nonzero"/></g></svg>