<svg xmlns="http://www.w3.org/2000/svg" xmlns:xlink="http://www.w3.org/1999/xlink" width="3000" zoomAndPan="magnify" viewBox="0 0 2250 1265.999941" height="1688" preserveAspectRatio="xMidYMid meet" version="1.0"><defs><clipPath id="c542937c86"><path d="M 505.105469 99.527344 L 1744.855469 99.527344 L 1744.855469 1139.027344 L 505.105469 1139.027344 Z M 505.105469 99.527344 " clip-rule="nonzero"/></clipPath></defs><g clip-path="url(#c542937c86)"><path fill="#12100c" d="M 737.9375 784.882812 C 783.140625 784.882812 819.902344 821.660156 819.902344 866.820312 C 819.902344 911.980469 783.140625 948.785156 737.9375 948.785156 C 692.734375 948.785156 655.972656 912.007812 655.972656 866.820312 C 655.972656 821.632812 692.734375 784.882812 737.9375 784.882812 Z M 929.484375 499.589844 C 963.191406 492.152344 988.484375 462.054688 988.484375 426.171875 C 988.484375 384.6875 954.722656 350.9375 913.253906 350.9375 C 871.785156 350.9375 838 384.6875 838 426.171875 C 838 462.082031 863.320312 492.152344 897.023438 499.589844 L 897.023438 611.355469 L 929.484375 611.355469 Z M 956.023438 426.171875 C 956.023438 449.75 936.84375 468.925781 913.253906 468.925781 C 889.667969 468.925781 870.460938 449.75 870.460938 426.171875 C 870.460938 402.589844 889.667969 383.390625 913.253906 383.390625 C 936.84375 383.390625 956.023438 402.589844 956.023438 426.171875 Z M 1233.128906 527.199219 L 1202.699219 594.996094 L 1310.984375 560.191406 C 1314.390625 559.082031 1318.097656 559.164062 1321.476562 560.378906 C 1360.132812 574.335938 1401.414062 581.390625 1444.152344 581.390625 C 1609.652344 581.390625 1744.308594 473.277344 1744.308594 340.394531 C 1744.308594 207.507812 1609.652344 99.394531 1444.152344 99.394531 C 1278.65625 99.394531 1143.972656 207.507812 1143.972656 340.394531 C 1143.972656 403.265625 1174.050781 462.8125 1228.667969 508.054688 C 1234.292969 512.707031 1236.105469 520.546875 1233.128906 527.199219 Z M 831.535156 673.335938 L 994.949219 673.335938 L 994.949219 657.003906 C 994.949219 649.808594 989.078125 643.941406 981.882812 643.941406 L 844.597656 643.941406 C 837.402344 643.941406 831.535156 649.808594 831.535156 657.003906 Z M 1261.183594 869.335938 L 1261.183594 975.449219 L 1294.402344 975.449219 C 1309.117188 975.449219 1321.101562 963.496094 1321.101562 948.757812 L 1321.101562 896.027344 C 1321.101562 881.316406 1309.117188 869.335938 1294.402344 869.335938 Z M 565.300781 975.476562 L 565.300781 869.363281 L 532.082031 869.363281 C 517.367188 869.363281 505.382812 881.34375 505.382812 896.054688 L 505.382812 948.785156 C 505.382812 963.523438 517.367188 975.476562 532.082031 975.476562 Z M 1039.039062 866.820312 C 1039.039062 894.132812 1061.25 916.335938 1088.542969 916.335938 C 1115.839844 916.335938 1138.046875 894.132812 1138.046875 866.820312 C 1138.046875 839.507812 1115.839844 817.335938 1088.542969 817.335938 C 1061.25 817.335938 1039.039062 839.535156 1039.039062 866.820312 Z M 787.441406 866.820312 C 787.441406 839.535156 765.230469 817.335938 737.9375 817.335938 C 710.644531 817.335938 688.433594 839.535156 688.433594 866.820312 C 688.433594 894.109375 710.644531 916.335938 737.9375 916.335938 C 765.230469 916.335938 787.441406 894.132812 787.441406 866.820312 Z M 597.761719 766.738281 L 597.761719 1078.074219 C 597.761719 1111.6875 625.109375 1139.027344 658.734375 1139.027344 L 1167.75 1139.027344 C 1201.371094 1139.027344 1228.722656 1111.6875 1228.722656 1078.074219 L 1228.722656 766.738281 C 1228.722656 733.125 1201.371094 705.757812 1167.75 705.757812 L 658.734375 705.757812 C 625.109375 705.757812 597.761719 733.125 597.761719 766.738281 Z M 1088.542969 948.785156 C 1043.34375 948.785156 1006.578125 912.007812 1006.578125 866.820312 C 1006.578125 821.632812 1043.34375 784.882812 1088.542969 784.882812 C 1133.746094 784.882812 1170.507812 821.660156 1170.507812 866.820312 C 1170.507812 911.980469 1133.746094 948.785156 1088.542969 948.785156 Z M 1018.941406 1026.640625 C 1027.894531 1026.640625 1035.171875 1033.886719 1035.171875 1042.867188 C 1035.171875 1051.84375 1027.894531 1059.089844 1018.941406 1059.089844 L 807.539062 1059.089844 C 798.585938 1059.089844 791.308594 1051.816406 791.308594 1042.867188 C 791.308594 1033.914062 798.585938 1026.640625 807.539062 1026.640625 Z M 1018.941406 1026.640625 " fill-opacity="1" fill-rule="evenodd"/></g></svg>