<svg xmlns="http://www.w3.org/2000/svg" xmlns:xlink="http://www.w3.org/1999/xlink" zoomAndPan="magnify" preserveAspectRatio="xMidYMid meet" version="1.0" viewBox="197.66 95.61 1854.75 1076.28"><defs><clipPath id="e7b6591402"><path d="M 197.660156 95 L 2052.410156 95 L 2052.410156 1172 L 197.660156 1172 Z M 197.660156 95 " clip-rule="nonzero"/></clipPath></defs><g clip-path="url(#e7b6591402)"><path fill="#100f0d" d="M 1125.035156 968.789062 C 939.851562 968.789062 789.730469 818.652344 789.730469 633.605469 C 789.730469 448.484375 939.851562 298.417969 1125.035156 298.417969 C 1310.21875 298.417969 1460.339844 448.484375 1460.339844 633.605469 C 1460.339844 818.652344 1310.21875 968.789062 1125.035156 968.789062 Z M 1125.035156 95.773438 C 1125.035156 95.773438 613.457031 70.859375 197.660156 633.75 C 613.457031 1196.640625 1125.035156 1171.726562 1125.035156 1171.726562 C 1125.035156 1171.726562 1636.613281 1196.640625 2052.410156 633.75 C 1636.613281 70.859375 1125.035156 95.773438 1125.035156 95.773438 " fill-opacity="1" fill-rule="nonzero"/></g><path fill="#100f0d" d="M 1293.121094 633.75 C 1293.121094 726.527344 1217.84375 801.777344 1125.035156 801.777344 C 1032.226562 801.777344 956.949219 726.527344 956.949219 633.75 C 956.949219 540.972656 1032.226562 465.722656 1125.035156 465.722656 C 1217.84375 465.722656 1293.121094 540.972656 1293.121094 633.75 " fill-opacity="1" fill-rule="nonzero"/></svg>