<svg xmlns="http://www.w3.org/2000/svg" xmlns:xlink="http://www.w3.org/1999/xlink" width="3000" zoomAndPan="magnify" viewBox="0 0 2250 1265.999941" height="1688" preserveAspectRatio="xMidYMid meet" version="1.0"><defs><clipPath id="d8c55f9531"><path d="M 1343 564 L 1606.402344 564 L 1606.402344 892 L 1343 892 Z M 1343 564 " clip-rule="nonzero"/></clipPath><clipPath id="5206a09dd9"><path d="M 709.402344 545 L 987 545 L 987 868 L 709.402344 868 Z M 709.402344 545 " clip-rule="nonzero"/></clipPath><clipPath id="aea77d41ed"><path d="M 929 71.734375 L 1386 71.734375 L 1386 528 L 929 528 Z M 929 71.734375 " clip-rule="nonzero"/></clipPath></defs><g clip-path="url(#d8c55f9531)"><path fill="#ebb84a" d="M 1345.105469 645.0625 L 1482.714844 883.324219 C 1484.8125 886.980469 1488.234375 889.613281 1492.425781 890.730469 C 1496.523438 891.824219 1500.785156 891.289062 1504.511719 889.171875 L 1606.097656 830.53125 L 1452.601562 564.648438 L 1351.019531 623.285156 C 1347.316406 625.382812 1344.730469 628.828125 1343.589844 632.976562 C 1342.449219 637.097656 1343.03125 641.382812 1345.105469 645.0625 Z M 1345.105469 645.0625 " fill-opacity="1" fill-rule="evenodd"/></g><path fill="#f1863d" d="M 1458.097656 896.507812 L 1320.953125 659.035156 C 1317.996094 653.957031 1316.203125 648.484375 1315.433594 642.847656 C 1290.238281 639.261719 1259.613281 637.238281 1232.503906 637.515625 C 1207.214844 637.726562 1185.71875 642.664062 1162.894531 653.515625 L 1011.382812 725.5 C 1003.019531 729.503906 996.640625 736.5625 993.402344 745.433594 C 990.257812 754.285156 990.746094 763.785156 994.730469 772.191406 C 1002.996094 789.636719 1024.027344 797.089844 1041.421875 788.796875 L 1205.1875 710.96875 C 1210.03125 708.664062 1215.832031 709.359375 1220.023438 712.761719 L 1434.113281 887.121094 C 1439.539062 891.546875 1444.007812 896.738281 1447.433594 902.421875 L 1458.074219 896.507812 Z M 1458.097656 896.507812 " fill-opacity="1" fill-rule="evenodd"/><path fill="#f1863d" d="M 1416.53125 908.800781 L 1209.191406 740.007812 L 1053.417969 814.042969 C 1022.023438 828.945312 984.460938 815.53125 969.53125 784.1875 C 962.3125 769.027344 961.449219 751.957031 967.15625 736.050781 C 972.769531 720.167969 984.273438 707.449219 999.386719 700.253906 L 1122.257812 641.871094 C 1095.054688 637.421875 1056.257812 635.164062 1012.988281 635.863281 C 1011.753906 640.636719 1009.75 645.292969 1006.816406 649.601562 L 851.996094 875.5 L 871.394531 891.3125 L 895.265625 869.792969 C 917.714844 849.464844 952.625 851.234375 972.863281 873.730469 C 979.710938 881.324219 983.996094 890.335938 985.878906 899.695312 C 1007.75 886.257812 1036.484375 889.753906 1055.210938 909.429688 C 1063.476562 918.140625 1068.34375 929.460938 1069.183594 941.800781 C 1087.929688 936.886719 1109.03125 942.105469 1124.050781 957.195312 C 1134.132812 967.164062 1139.375 980.671875 1138.976562 995.203125 C 1138.792969 1003.003906 1136.976562 1010.621094 1133.738281 1017.558594 C 1144.289062 1020.003906 1154.371094 1025.570312 1162.171875 1034.234375 C 1182.527344 1056.730469 1180.710938 1091.570312 1158.285156 1111.902344 L 1149.527344 1119.726562 L 1164.175781 1131.601562 C 1170.558594 1136.796875 1178.636719 1139.195312 1186.90625 1138.355469 C 1195.171875 1137.519531 1202.601562 1133.535156 1207.820312 1127.132812 C 1218.554688 1113.878906 1216.574219 1094.292969 1203.347656 1083.488281 L 1186.695312 1069.910156 C 1180.710938 1065.042969 1179.757812 1056.242188 1184.601562 1050.257812 C 1189.539062 1044.269531 1198.292969 1043.363281 1204.277344 1048.230469 L 1220.929688 1061.785156 C 1220.929688 1061.785156 1221.023438 1061.832031 1221.023438 1061.832031 L 1253.371094 1088.167969 C 1266.597656 1098.976562 1286.183594 1096.972656 1297.011719 1083.699219 C 1302.160156 1077.316406 1304.628906 1069.234375 1303.765625 1060.945312 C 1302.90625 1052.679688 1298.921875 1045.25 1292.542969 1040.03125 L 1230.433594 989.519531 C 1224.539062 984.652344 1223.585938 975.851562 1228.429688 969.863281 C 1233.273438 963.878906 1242.121094 962.972656 1248.109375 967.839844 L 1324.960938 1030.390625 C 1331.339844 1035.609375 1339.421875 1038.007812 1347.6875 1037.144531 C 1355.957031 1036.304688 1363.386719 1032.324219 1368.601562 1025.917969 C 1379.339844 1012.667969 1377.359375 993.082031 1364.128906 982.253906 L 1359.566406 978.597656 L 1288.421875 920.609375 L 1306.003906 898.953125 L 1377.242188 956.917969 C 1383.625 962.132812 1391.703125 964.53125 1399.972656 963.667969 C 1408.238281 962.832031 1415.667969 958.847656 1420.882812 952.445312 C 1431.738281 939.195312 1429.734375 919.609375 1416.414062 908.800781 Z M 1416.53125 908.800781 " fill-opacity="1" fill-rule="evenodd"/><path fill="#f1863d" d="M 958.984375 911.96875 C 959.355469 904.726562 956.980469 897.808594 952.136719 892.476562 C 947.292969 887.144531 940.722656 884.023438 933.386719 883.652344 C 933.015625 883.652344 932.433594 883.605469 932.0625 883.605469 C 925.308594 883.605469 918.925781 886.027344 913.988281 890.519531 L 867.667969 932.347656 C 856.628906 942.335938 855.675781 959.453125 865.664062 970.515625 C 870.511719 975.851562 877.171875 978.96875 884.414062 979.34375 C 891.632812 979.738281 898.574219 977.269531 903.90625 972.472656 L 950.226562 930.648438 C 955.558594 925.851562 958.679688 919.210938 958.984375 911.96875 Z M 958.984375 911.96875 " fill-opacity="1" fill-rule="evenodd"/><path fill="#f1863d" d="M 996.546875 926.476562 L 968.972656 951.398438 L 922.652344 993.199219 L 919.695312 995.832031 C 908.65625 1005.820312 907.816406 1022.960938 917.785156 1034.023438 C 922.535156 1039.355469 929.195312 1042.476562 936.417969 1042.851562 C 943.636719 1043.199219 950.574219 1040.777344 955.910156 1035.957031 L 969.695312 1023.519531 C 969.695312 1023.519531 969.695312 1023.519531 969.789062 1023.476562 L 1032.761719 966.605469 C 1037.882812 961.875 1041.121094 954.796875 1041.421875 947.136719 C 1041.703125 939.914062 1039.421875 933.371094 1034.949219 928.667969 C 1024.304688 917.535156 1007.46875 916.558594 996.523438 926.480469 Z M 996.546875 926.476562 " fill-opacity="1" fill-rule="evenodd"/><path fill="#f1863d" d="M 1051.507812 987.332031 L 988.558594 1044.203125 C 982.945312 1049.207031 979.523438 1056.730469 979.335938 1064.34375 C 979.242188 1071.144531 981.617188 1077.363281 986.089844 1081.882812 C 997.316406 1093.082031 1013.851562 1094.132812 1024.796875 1084.328125 L 1053.90625 1057.988281 L 1084.625 1030.296875 L 1101.925781 1014.601562 C 1107.445312 1009.617188 1110.871094 1002.097656 1111.148438 994.480469 C 1111.242188 987.679688 1108.867188 981.460938 1104.394531 976.945312 C 1093.171875 965.742188 1076.519531 964.695312 1065.691406 974.5 L 1051.53125 987.332031 Z M 1051.507812 987.332031 " fill-opacity="1" fill-rule="evenodd"/><path fill="#f1863d" d="M 1103.347656 1051.023438 L 1072.628906 1078.714844 C 1067.296875 1083.535156 1064.175781 1090.171875 1063.78125 1097.414062 C 1063.5 1104.65625 1065.96875 1111.574219 1070.71875 1116.90625 C 1075.5625 1122.21875 1082.132812 1125.359375 1089.46875 1125.734375 C 1096.6875 1126.105469 1103.535156 1123.636719 1108.960938 1118.839844 L 1139.582031 1091.152344 C 1150.621094 1081.160156 1151.460938 1064.042969 1141.492188 1052.980469 C 1136.160156 1047.066406 1128.847656 1044.085938 1121.417969 1044.085938 C 1114.945312 1044.085938 1108.492188 1046.367188 1103.347656 1051.023438 Z M 1103.347656 1051.023438 " fill-opacity="1" fill-rule="evenodd"/><g clip-path="url(#5206a09dd9)"><path fill="#ebb84a" d="M 828.21875 860.757812 L 983.714844 633.789062 C 988.746094 626.546875 986.859375 616.601562 979.617188 611.644531 L 882.898438 545.339844 L 709.332031 798.578125 L 806.046875 864.878906 C 809.5625 867.28125 813.757812 868.164062 817.925781 867.371094 C 822.210938 866.582031 825.820312 864.230469 828.195312 860.757812 Z M 828.21875 860.757812 " fill-opacity="1" fill-rule="evenodd"/></g><path fill="#f1863d" d="M 1157.5625 340.148438 C 1174.867188 340.148438 1189.609375 351.117188 1195.3125 366.507812 L 1210.917969 366.507812 L 1210.917969 339.472656 C 1210.917969 331.738281 1217.203125 325.5 1224.890625 325.5 C 1231.734375 325.5 1237.253906 319.933594 1237.253906 313.085938 C 1237.253906 306.238281 1231.734375 300.695312 1224.890625 300.695312 C 1217.179688 300.695312 1210.917969 294.429688 1210.917969 286.722656 L 1210.917969 259.683594 L 1183.902344 259.683594 C 1176.191406 259.683594 1169.929688 253.421875 1169.929688 245.710938 C 1169.929688 238.867188 1164.316406 233.324219 1157.5625 233.324219 C 1150.808594 233.324219 1145.101562 238.867188 1145.101562 245.710938 C 1145.101562 253.421875 1138.816406 259.683594 1131.128906 259.683594 L 1104.117188 259.683594 L 1104.117188 286.722656 C 1104.117188 294.429688 1097.828125 300.695312 1090.144531 300.695312 C 1083.296875 300.695312 1077.777344 306.261719 1077.777344 313.085938 C 1077.777344 319.910156 1083.296875 325.5 1090.144531 325.5 C 1097.851562 325.5 1104.117188 331.738281 1104.117188 339.472656 L 1104.117188 366.507812 L 1119.71875 366.507812 C 1125.332031 351.117188 1140.167969 340.148438 1157.5625 340.148438 Z M 1157.5625 340.148438 " fill-opacity="1" fill-rule="evenodd"/><path fill="#ebb84a" d="M 1195.3125 231.738281 L 1224.890625 231.738281 C 1232.597656 231.738281 1238.863281 238.003906 1238.863281 245.710938 L 1238.863281 275.242188 C 1254.277344 280.949219 1265.203125 295.757812 1265.203125 313.085938 C 1265.203125 330.414062 1254.257812 345.246094 1238.863281 350.929688 L 1238.863281 380.480469 C 1238.863281 388.191406 1232.574219 394.457031 1224.890625 394.457031 L 1183.902344 394.457031 C 1176.191406 394.457031 1169.929688 388.191406 1169.929688 380.480469 C 1169.929688 373.636719 1164.316406 368.09375 1157.5625 368.09375 C 1150.808594 368.09375 1145.101562 373.636719 1145.101562 380.480469 C 1145.101562 388.191406 1138.816406 394.457031 1131.128906 394.457031 L 1090.144531 394.457031 C 1082.433594 394.457031 1076.167969 388.191406 1076.167969 380.480469 L 1076.167969 350.929688 C 1060.753906 345.246094 1049.832031 330.433594 1049.832031 313.085938 C 1049.832031 295.734375 1060.777344 280.949219 1076.167969 275.242188 L 1076.167969 245.710938 C 1076.167969 238.003906 1082.457031 231.738281 1090.144531 231.738281 L 1119.71875 231.738281 C 1125.332031 216.367188 1140.167969 205.375 1157.5625 205.375 C 1174.957031 205.375 1189.605469 216.367188 1195.3125 231.738281 Z M 1157.5625 167.488281 C 1084.53125 167.488281 1025.074219 226.894531 1025.074219 299.90625 C 1025.074219 372.914062 1084.507812 432.34375 1157.5625 432.34375 C 1230.617188 432.34375 1289.957031 372.9375 1289.957031 299.90625 C 1289.957031 226.871094 1230.523438 167.488281 1157.5625 167.488281 Z M 1157.5625 167.488281 " fill-opacity="1" fill-rule="evenodd"/><g clip-path="url(#aea77d41ed)"><path fill="#f1863d" d="M 1157.5625 139.539062 C 1245.917969 139.539062 1317.902344 211.476562 1317.902344 299.90625 C 1317.902344 388.332031 1245.917969 460.292969 1157.5625 460.292969 C 1069.207031 460.292969 997.128906 388.355469 997.128906 299.90625 C 997.128906 211.453125 1069.113281 139.539062 1157.5625 139.539062 Z M 932.738281 270.792969 C 930.640625 271.515625 929.5 273.097656 929.5 275.289062 L 929.5 324.542969 C 929.5 326.710938 930.640625 328.316406 932.738281 329.039062 L 968.019531 341.289062 C 972.304688 342.777344 975.632812 346.292969 976.867188 350.695312 C 980.875 364.972656 986.671875 378.757812 993.890625 391.683594 C 996.082031 395.691406 996.265625 400.511719 994.265625 404.632812 L 978.007812 438.285156 C 977.054688 440.238281 977.332031 442.171875 978.871094 443.710938 L 1013.78125 478.550781 C 1015.292969 480.085938 1017.203125 480.414062 1019.207031 479.457031 L 1052.789062 463.15625 C 1054.789062 462.222656 1056.886719 461.757812 1058.960938 461.757812 C 1061.242188 461.757812 1063.617188 462.339844 1065.804688 463.550781 C 1078.730469 470.816406 1092.542969 476.546875 1106.699219 480.527344 C 1111.171875 481.785156 1114.6875 485.09375 1116.109375 489.402344 L 1128.382812 524.707031 C 1129.152344 526.78125 1130.757812 527.898438 1132.945312 527.898438 L 1182.109375 527.898438 C 1184.296875 527.898438 1185.90625 526.78125 1186.671875 524.707031 L 1198.851562 489.402344 C 1200.367188 485.09375 1203.882812 481.785156 1208.355469 480.527344 C 1222.515625 476.546875 1236.324219 470.816406 1249.34375 463.550781 C 1253.230469 461.292969 1258.097656 461.152344 1262.175781 463.15625 L 1295.847656 479.457031 C 1297.851562 480.414062 1299.738281 480.085938 1301.367188 478.550781 L 1336.183594 443.710938 C 1337.699219 442.171875 1338 440.238281 1337.046875 438.285156 L 1320.789062 404.632812 C 1318.789062 400.511719 1318.972656 395.691406 1321.164062 391.683594 C 1328.476562 378.734375 1334.203125 364.949219 1338.1875 350.695312 C 1339.421875 346.292969 1342.75 342.777344 1347.035156 341.289062 L 1382.320312 329.039062 C 1384.414062 328.316406 1385.554688 326.710938 1385.554688 324.542969 L 1385.554688 275.289062 C 1385.554688 273.097656 1384.414062 271.515625 1382.320312 270.792969 L 1347.035156 258.542969 C 1342.75 257.054688 1339.421875 253.515625 1338.1875 249.113281 C 1334.183594 234.859375 1328.476562 221.074219 1321.164062 208.125 C 1318.972656 204.140625 1318.789062 199.296875 1320.789062 195.175781 L 1337.046875 161.546875 C 1338 159.570312 1337.722656 157.636719 1336.183594 156.097656 L 1301.367188 121.28125 C 1299.761719 119.746094 1297.851562 119.417969 1295.847656 120.351562 L 1262.175781 136.675781 C 1258.074219 138.679688 1253.230469 138.515625 1249.34375 136.28125 C 1236.324219 128.992188 1222.515625 123.285156 1208.355469 119.28125 C 1203.882812 118.046875 1200.367188 114.738281 1198.851562 110.40625 L 1186.671875 75.101562 C 1185.90625 73.050781 1184.296875 71.910156 1182.109375 71.910156 L 1132.945312 71.910156 C 1130.757812 71.910156 1129.152344 73.050781 1128.382812 75.101562 L 1116.109375 110.40625 C 1114.6875 114.738281 1111.171875 118.046875 1106.792969 119.28125 C 1092.519531 123.285156 1078.636719 128.992188 1065.804688 136.28125 C 1061.707031 138.515625 1056.957031 138.679688 1052.789062 136.675781 L 1019.207031 120.375 C 1017.203125 119.394531 1015.316406 119.746094 1013.78125 121.28125 L 978.871094 156.097656 C 977.355469 157.660156 977.054688 159.570312 978.007812 161.546875 L 994.265625 195.175781 C 996.265625 199.296875 996.175781 204.140625 993.890625 208.125 C 986.671875 221.074219 980.875 234.859375 976.867188 249.113281 C 975.632812 253.515625 972.304688 257.054688 968.019531 258.542969 Z M 932.738281 270.792969 " fill-opacity="1" fill-rule="evenodd"/></g></svg>