<svg xmlns="http://www.w3.org/2000/svg" xmlns:xlink="http://www.w3.org/1999/xlink" width="3000" zoomAndPan="magnify" viewBox="0 0 2250 1265.999941" height="1688" preserveAspectRatio="xMidYMid meet" version="1.0"><defs><clipPath id="0f91f8c831"><path d="M 544.910156 24.238281 L 1762.160156 24.238281 L 1762.160156 1241.488281 L 544.910156 1241.488281 Z M 544.910156 24.238281 " clip-rule="nonzero"/></clipPath></defs><path fill="#f1863d" d="M 1153.667969 274.640625 C 1038.820312 274.640625 945.066406 367.984375 945.066406 482.835938 C 945.066406 598.09375 1038.820312 691.4375 1153.667969 691.4375 C 1268.523438 691.4375 1362.273438 598.09375 1362.273438 482.835938 C 1362.273438 367.984375 1268.523438 274.640625 1153.667969 274.640625 Z M 1153.667969 274.640625 " fill-opacity="1" fill-rule="nonzero"/><g clip-path="url(#0f91f8c831)"><path fill="#f1863d" d="M 1153.261719 24.644531 C 818.042969 24.644531 544.910156 297.367188 544.910156 632.996094 C 544.910156 819.683594 629.730469 986.886719 762.441406 1098.496094 C 762.441406 1098.496094 762.441406 1098.496094 762.441406 1098.902344 C 868.367188 1187.78125 1004.726562 1241.351562 1153.261719 1241.351562 C 1365.113281 1241.351562 1558.292969 1134.207031 1670.304688 954.421875 C 1730.773438 857.832031 1762.429688 747.039062 1762.429688 632.996094 C 1762.429688 518.957031 1730.773438 407.757812 1670.304688 311.570312 C 1558.292969 131.785156 1365.113281 24.644531 1153.261719 24.644531 Z M 1601.71875 911.402344 C 1582.238281 942.652344 1559.507812 970.25 1534.753906 996.222656 C 1473.066406 869.601562 1341.980469 785.1875 1197.09375 785.1875 L 1110.246094 785.1875 C 1009.597656 785.1875 915.035156 824.550781 844.015625 895.574219 C 814.386719 924.796875 790.847656 959.292969 772.585938 996.628906 C 682.082031 902.070312 626.078125 774.230469 626.078125 632.996094 C 626.078125 342.414062 862.683594 105.8125 1153.261719 105.8125 C 1337.109375 105.8125 1504.316406 198.75 1601.71875 354.589844 C 1653.664062 438.195312 1681.261719 534.378906 1681.261719 632.996094 C 1681.261719 731.617188 1653.664062 827.800781 1601.71875 911.402344 Z M 1601.71875 911.402344 " fill-opacity="1" fill-rule="nonzero"/></g></svg>