<svg xmlns="http://www.w3.org/2000/svg" xmlns:xlink="http://www.w3.org/1999/xlink" width="3000" zoomAndPan="magnify" viewBox="0 0 2250 1265.999941" height="1688" preserveAspectRatio="xMidYMid meet" version="1.0"><defs><clipPath id="6cd087a51c"><path d="M 492 94.53125 L 1450 94.53125 L 1450 993 L 492 993 Z M 492 94.53125 " clip-rule="nonzero"/></clipPath><clipPath id="773b562c63"><path d="M 930 583 L 1768.839844 583 L 1768.839844 1171.53125 L 930 1171.53125 Z M 930 583 " clip-rule="nonzero"/></clipPath></defs><path fill="#9edfdd" d="M 1428.316406 509.574219 L 1425.914062 531.609375 L 1424.621094 543.273438 L 1010.722656 543.273438 C 1008.03125 543.273438 1005.4375 543.378906 1002.84375 543.582031 C 995.167969 544.074219 987.789062 545.277344 980.507812 547.167969 C 929.160156 560.535156 891.066406 607.398438 891.066406 662.941406 L 891.066406 935.089844 L 820.675781 979.5625 L 773.90625 953.835938 L 512.164062 583.164062 L 525.429688 510.867188 L 1102.953125 112.777344 L 1166.269531 128.632812 L 1428.316406 509.574219 " fill-opacity="1" fill-rule="nonzero"/><path fill="#d57a41" d="M 1424.621094 543.28125 L 1014.914062 543.28125 L 1005.738281 359.992188 L 1424.621094 543.28125 " fill-opacity="1" fill-rule="nonzero"/><path fill="#d57a41" d="M 891.0625 673.835938 L 829.992188 662.949219 L 821.265625 972.089844 L 891.0625 933.101562 L 891.0625 673.835938 " fill-opacity="1" fill-rule="nonzero"/><path fill="#9edfdd" d="M 1688.757812 623.054688 L 1010.722656 623.054688 C 988.683594 623.054688 970.835938 640.910156 970.835938 662.945312 L 970.835938 1091.753906 C 970.835938 1113.789062 988.683594 1131.640625 1010.722656 1131.640625 L 1688.757812 1131.640625 C 1710.796875 1131.640625 1728.640625 1113.789062 1728.640625 1091.753906 L 1728.640625 662.945312 C 1728.640625 640.910156 1710.796875 623.054688 1688.757812 623.054688 M 1110.433594 662.945312 C 1154.402344 662.945312 1190.207031 698.746094 1190.207031 742.726562 C 1190.207031 786.699219 1154.402344 822.503906 1110.433594 822.503906 C 1066.460938 822.503906 1030.664062 786.699219 1030.664062 742.726562 C 1030.664062 698.746094 1066.460938 662.945312 1110.433594 662.945312 M 1678.785156 1079.089844 C 1669.308594 1084.574219 1657.054688 1081.382812 1651.5625 1071.808594 L 1477.972656 772.941406 L 1306.5625 1032.917969 C 1303.273438 1037.902344 1297.890625 1041.191406 1291.910156 1041.792969 C 1285.820312 1042.390625 1280.035156 1040.296875 1275.75 1036.007812 L 1160.492188 920.730469 L 1047.015625 1083.277344 C 1043.128906 1088.757812 1036.945312 1091.753906 1030.664062 1091.753906 C 1026.675781 1091.753906 1022.6875 1090.554688 1019.195312 1088.164062 C 1010.222656 1081.882812 1008.027344 1069.417969 1014.308594 1060.339844 L 1129.777344 895 C 1130.472656 894 1131.273438 893.105469 1132.066406 892.308594 C 1147.128906 877.25 1173.449219 877.25 1188.503906 892.308594 L 1286.722656 990.535156 L 1447.160156 747.210938 C 1447.953125 746.117188 1448.753906 745.117188 1449.753906 744.121094 C 1457.730469 736.242188 1468.59375 731.953125 1479.859375 732.453125 C 1491.027344 733.050781 1501.597656 738.238281 1508.675781 746.914062 C 1509.378906 747.808594 1509.976562 748.707031 1510.574219 749.605469 L 1686.066406 1051.863281 C 1691.546875 1061.335938 1688.355469 1073.503906 1678.785156 1079.089844 " fill-opacity="1" fill-rule="nonzero"/><path fill="#d57a41" d="M 980.808594 1148.46875 L 1161.949219 894.800781 L 1292.410156 1021.636719 L 1476.042969 746.050781 L 1728.640625 1138.289062 L 980.808594 1148.46875 " fill-opacity="1" fill-rule="nonzero"/><path fill="#2c3d53" d="M 763.933594 524.234375 C 749.078125 502.894531 724.648438 490.128906 698.625 490.128906 C 682.273438 490.128906 666.515625 495.117188 653.054688 504.488281 C 617.160156 529.71875 608.289062 579.382812 633.410156 615.480469 C 648.269531 636.820312 672.699219 649.585938 698.722656 649.585938 C 715.074219 649.585938 730.832031 644.601562 744.292969 635.128906 C 780.1875 609.996094 789.0625 560.238281 763.933594 524.234375 M 721.457031 602.519531 C 714.476562 607.304688 706.601562 609.695312 698.722656 609.695312 C 686.160156 609.695312 673.796875 603.714844 666.117188 592.644531 C 653.554688 574.597656 657.941406 549.765625 675.988281 537.199219 C 682.867188 532.414062 690.847656 530.019531 698.625 530.019531 C 711.1875 530.019531 723.550781 536 731.226562 547.074219 C 743.792969 565.121094 739.40625 589.851562 721.457031 602.519531 " fill-opacity="1" fill-rule="nonzero"/><path fill="#e4eef6" d="M 721.457031 602.519531 C 714.476562 607.304688 706.601562 609.695312 698.722656 609.695312 C 686.160156 609.695312 673.796875 603.714844 666.117188 592.644531 C 653.554688 574.59375 657.941406 549.761719 675.988281 537.203125 C 682.867188 532.417969 690.84375 530.019531 698.625 530.019531 C 711.1875 530.019531 723.550781 536.007812 731.226562 547.070312 C 743.792969 565.125 739.40625 589.859375 721.457031 602.519531 " fill-opacity="1" fill-rule="nonzero"/><g clip-path="url(#6cd087a51c)"><path fill="#2c3d53" d="M 1435.128906 479.429688 L 1190.703125 128.636719 C 1175.828125 107.277344 1151.410156 94.53125 1125.378906 94.53125 C 1109.007812 94.53125 1093.253906 99.503906 1079.8125 108.910156 L 526.191406 496.21875 C 490.25 521.367188 481.417969 571.121094 506.503906 607.121094 L 750.921875 957.925781 C 765.804688 979.28125 790.222656 992.027344 816.25 992.027344 C 832.617188 992.027344 848.375 987.058594 861.816406 977.65625 L 891.042969 957.210938 L 891.042969 908.527344 L 841.199219 943.394531 L 841.117188 686.933594 L 891.042969 695.824219 L 891.042969 662.945312 C 891.042969 660.390625 891.269531 657.886719 891.425781 655.371094 L 847.710938 647.589844 C 837.242188 645.75 826.664062 648.042969 817.925781 654.15625 C 809.222656 660.25 803.402344 669.363281 801.539062 679.847656 C 801.332031 680.988281 801.230469 682.148438 801.230469 683.332031 L 801.191406 948.914062 C 794.375 946.113281 788.179688 941.621094 783.648438 935.121094 L 539.226562 584.324219 C 526.671875 566.296875 531.070312 541.492188 549.058594 528.90625 L 1102.675781 141.59375 C 1109.601562 136.75 1117.53125 134.421875 1125.378906 134.421875 C 1137.917969 134.421875 1150.261719 140.359375 1157.984375 151.4375 L 1402.402344 502.242188 C 1407.027344 508.875 1409.242188 516.410156 1409.390625 523.910156 L 1029.367188 346.925781 C 1028.371094 346.425781 1027.375 346.03125 1026.277344 345.730469 C 1015.507812 342.742188 1003.941406 344.441406 994.46875 350.410156 C 984.996094 356.40625 978.414062 366.070312 976.421875 377.140625 C 976.21875 378.441406 976.121094 379.835938 976.121094 381.125 L 980.507812 547.175781 L 980.507812 547.265625 C 987.6875 545.375 995.164062 544.082031 1002.84375 543.585938 C 1005.4375 543.386719 1008.027344 543.28125 1010.722656 543.28125 L 1020.292969 543.28125 L 1016.105469 384.726562 L 1356.617188 543.28125 L 1447.183594 543.28125 C 1452.1875 521.980469 1448.578125 498.738281 1435.128906 479.429688 " fill-opacity="1" fill-rule="nonzero"/></g><g clip-path="url(#773b562c63)"><path fill="#2c3d53" d="M 1688.757812 583.167969 L 1010.722656 583.167969 C 966.75 583.167969 930.953125 618.964844 930.953125 662.945312 L 930.953125 1091.753906 C 930.953125 1135.726562 966.75 1171.53125 1010.722656 1171.53125 L 1688.757812 1171.53125 C 1732.730469 1171.53125 1768.527344 1135.726562 1768.527344 1091.753906 L 1768.527344 662.945312 C 1768.527344 618.964844 1732.730469 583.167969 1688.757812 583.167969 M 977.390625 1113.589844 C 973.273438 1107.3125 970.835938 1099.824219 970.835938 1091.753906 L 970.835938 662.945312 C 970.835938 640.910156 988.683594 623.058594 1010.722656 623.058594 L 1688.757812 623.058594 C 1710.789062 623.058594 1728.636719 640.910156 1728.636719 662.945312 L 1728.636719 1091.753906 C 1728.636719 1099.9375 1726.160156 1107.527344 1721.9375 1113.859375 L 1510.574219 749.605469 C 1509.972656 748.707031 1509.382812 747.808594 1508.679688 746.914062 C 1501.597656 738.238281 1491.03125 733.050781 1479.855469 732.453125 C 1468.589844 731.957031 1457.726562 736.242188 1449.75 744.121094 C 1448.746094 745.117188 1447.953125 746.117188 1447.152344 747.210938 L 1286.726562 990.535156 L 1188.507812 892.308594 C 1173.449219 877.25 1147.125 877.25 1132.070312 892.308594 C 1131.273438 893.105469 1130.472656 894 1129.777344 895 L 977.390625 1113.589844 M 1160.488281 920.730469 L 1275.75 1036.007812 C 1280.042969 1040.296875 1285.824219 1042.390625 1291.914062 1041.792969 C 1297.890625 1041.195312 1303.269531 1037.90625 1306.558594 1032.917969 L 1477.972656 772.941406 L 1686.332031 1131.640625 L 1012.804688 1131.640625 L 1160.488281 920.730469 " fill-opacity="1" fill-rule="nonzero"/></g><path fill="#2c3d53" d="M 1110.429688 662.953125 C 1066.460938 662.953125 1030.660156 698.75 1030.660156 742.730469 C 1030.660156 786.707031 1066.460938 822.507812 1110.429688 822.507812 C 1154.398438 822.507812 1190.199219 786.707031 1190.199219 742.730469 C 1190.199219 698.75 1154.398438 662.953125 1110.429688 662.953125 M 1110.429688 782.613281 C 1088.394531 782.613281 1070.542969 764.765625 1070.542969 742.730469 C 1070.542969 720.6875 1088.394531 702.84375 1110.429688 702.84375 C 1132.46875 702.84375 1150.3125 720.6875 1150.3125 742.730469 C 1150.3125 764.765625 1132.46875 782.613281 1110.429688 782.613281 " fill-opacity="1" fill-rule="nonzero"/><path fill="#e4eef6" d="M 1150.3125 742.726562 C 1150.3125 764.765625 1132.46875 782.617188 1110.429688 782.617188 C 1088.394531 782.617188 1070.546875 764.765625 1070.546875 742.726562 C 1070.546875 720.691406 1088.394531 702.835938 1110.429688 702.835938 C 1132.46875 702.835938 1150.3125 720.691406 1150.3125 742.726562 " fill-opacity="1" fill-rule="nonzero"/><path fill="#b9e7e5" d="M 1125.386719 134.417969 C 1125.046875 134.417969 1124.714844 134.417969 1124.386719 134.429688 C 1116.859375 134.621094 1109.308594 136.953125 1102.675781 141.585938 L 951.046875 247.671875 L 549.058594 528.925781 C 538.261719 536.476562 532.355469 548.507812 532.078125 560.816406 C 532.011719 564.394531 532.421875 567.980469 533.332031 571.507812 C 535.636719 562.667969 541.011719 554.527344 549.058594 548.867188 L 1139.949219 137.3125 C 1137.820312 136.382812 1135.597656 135.695312 1133.339844 135.226562 C 1130.78125 134.703125 1128.183594 134.429688 1125.566406 134.417969 C 1125.511719 134.417969 1125.460938 134.417969 1125.40625 134.417969 C 1125.394531 134.417969 1125.394531 134.417969 1125.386719 134.417969 " fill-opacity="1" fill-rule="nonzero"/><path fill="#637889" d="M 532.078125 560.816406 C 532 564.421875 532.398438 568.054688 533.304688 571.597656 C 533.3125 571.570312 533.320312 571.535156 533.332031 571.507812 C 532.421875 567.980469 532.011719 564.394531 532.078125 560.816406 M 1124.386719 134.429688 C 1116.84375 134.621094 1109.335938 136.925781 1102.65625 141.597656 L 951.046875 247.671875 L 1102.675781 141.585938 C 1109.308594 136.953125 1116.859375 134.621094 1124.386719 134.429688 M 1125.566406 134.417969 C 1128.183594 134.429688 1130.78125 134.703125 1133.339844 135.226562 C 1130.789062 134.6875 1128.175781 134.429688 1125.566406 134.417969 M 1125.386719 134.417969 C 1125.394531 134.417969 1125.394531 134.417969 1125.40625 134.417969 C 1125.40625 134.417969 1125.394531 134.417969 1125.386719 134.417969 " fill-opacity="1" fill-rule="nonzero"/><path fill="#da9363" d="M 841.117188 686.984375 L 841.121094 706.929688 L 891.0625 715.800781 L 891.0625 695.859375 L 841.117188 686.984375 " fill-opacity="1" fill-rule="nonzero"/><path fill="#5e6875" d="M 841.109375 686.984375 L 841.109375 706.929688 L 841.121094 706.929688 L 841.117188 686.984375 L 841.109375 686.984375 " fill-opacity="1" fill-rule="nonzero"/><path fill="#da9363" d="M 1016.113281 384.71875 L 1016.636719 404.878906 L 1313.84375 543.277344 L 1356.625 543.277344 L 1016.113281 384.71875 " fill-opacity="1" fill-rule="nonzero"/><path fill="#5e6875" d="M 1016.113281 384.71875 L 1016.609375 404.863281 L 1016.636719 404.878906 L 1016.113281 384.71875 M 1016.113281 384.71875 L 1356.625 543.277344 L 1016.113281 384.71875 " fill-opacity="1" fill-rule="nonzero"/><path fill="#ab6238" d="M 1651.644531 1111.695312 L 1054.699219 1111.695312 L 1040.734375 1131.640625 L 1012.816406 1131.640625 L 1686.335938 1131.640625 L 1663.230469 1131.640625 L 1651.644531 1111.695312 " fill-opacity="1" fill-rule="nonzero"/><path fill="#ab6238" d="M 1026.777344 1111.695312 L 1012.820312 1131.640625 L 1026.777344 1111.695312 " fill-opacity="1" fill-rule="nonzero"/><path fill="#b9e7e5" d="M 1688.757812 623.054688 L 1010.722656 623.054688 C 988.683594 623.054688 970.835938 640.910156 970.835938 662.945312 L 970.835938 682.890625 C 970.835938 660.851562 988.683594 643.003906 1010.722656 643.003906 L 1688.757812 643.003906 C 1710.796875 643.003906 1728.640625 660.851562 1728.640625 682.890625 L 1728.640625 662.945312 C 1728.640625 640.910156 1710.796875 623.054688 1688.757812 623.054688 " fill-opacity="1" fill-rule="nonzero"/><path fill="#5f6f7f" d="M 736.3125 582.597656 C 736.292969 582.65625 736.269531 582.722656 736.25 582.78125 C 736.269531 582.722656 736.292969 582.65625 736.3125 582.597656 M 738.089844 564.914062 C 738.296875 566.582031 738.398438 568.253906 738.394531 569.921875 C 738.386719 574.230469 737.683594 578.507812 736.316406 582.585938 C 738.214844 576.929688 738.835938 570.882812 738.089844 564.914062 M 738.066406 564.742188 C 738.074219 564.785156 738.078125 564.832031 738.085938 564.882812 C 738.078125 564.832031 738.074219 564.785156 738.066406 564.742188 " fill-opacity="1" fill-rule="nonzero"/><path fill="#c1c7ce" d="M 737.117188 559.832031 C 734.820312 568.710938 729.539062 576.882812 721.460938 582.570312 C 714.480469 587.351562 706.601562 589.75 698.726562 589.75 C 686.164062 589.75 673.796875 583.765625 666.121094 572.695312 C 663.328125 568.710938 661.335938 564.320312 660.238281 559.832031 C 657.445312 570.699219 659.238281 582.671875 666.121094 592.640625 C 673.796875 603.710938 686.164062 609.691406 698.726562 609.691406 C 706.601562 609.691406 714.480469 607.296875 721.460938 602.511719 C 728.613281 597.453125 733.621094 590.480469 736.253906 582.78125 C 736.273438 582.714844 736.296875 582.65625 736.316406 582.589844 C 736.316406 582.585938 736.320312 582.585938 736.320312 582.578125 C 737.6875 578.5 738.390625 574.226562 738.398438 569.921875 C 738.402344 568.25 738.300781 566.582031 738.09375 564.914062 C 738.089844 564.898438 738.089844 564.886719 738.089844 564.875 C 738.082031 564.828125 738.074219 564.78125 738.070312 564.738281 C 737.855469 563.089844 737.539062 561.453125 737.117188 559.832031 " fill-opacity="1" fill-rule="nonzero"/><path fill="#5f6f7f" d="M 1149.617188 735.242188 C 1150.070312 737.664062 1150.3125 740.164062 1150.3125 742.726562 C 1150.3125 740.132812 1150.09375 737.652344 1149.617188 735.242188 M 1071.246094 735.234375 C 1070.765625 737.652344 1070.546875 740.132812 1070.546875 742.726562 C 1070.546875 740.164062 1070.785156 737.664062 1071.246094 735.234375 " fill-opacity="1" fill-rule="nonzero"/><path fill="#c1c7ce" d="M 1149.015625 732.753906 C 1144.628906 750.007812 1128.972656 762.675781 1110.429688 762.675781 C 1091.886719 762.675781 1076.230469 750.007812 1071.839844 732.753906 C 1071.605469 733.578125 1071.414062 734.402344 1071.246094 735.234375 C 1070.785156 737.664062 1070.546875 740.164062 1070.546875 742.726562 C 1070.546875 764.765625 1088.394531 782.617188 1110.429688 782.617188 C 1132.46875 782.617188 1150.3125 764.765625 1150.3125 742.726562 C 1150.3125 740.164062 1150.070312 737.664062 1149.617188 735.242188 C 1149.445312 734.40625 1149.246094 733.578125 1149.015625 732.753906 " fill-opacity="1" fill-rule="nonzero"/><path fill="#da9363" d="M 1477.96875 772.945312 L 1306.558594 1032.917969 C 1303.269531 1037.90625 1297.886719 1041.195312 1291.902344 1041.792969 C 1291.21875 1041.859375 1290.539062 1041.894531 1289.867188 1041.894531 C 1284.542969 1041.894531 1279.558594 1039.816406 1275.75 1036.007812 L 1160.683594 920.929688 L 1160.34375 920.929688 L 1035.816406 1098.777344 L 1026.773438 1111.695312 L 1054.699219 1111.695312 L 1160.488281 960.617188 L 1275.75 1075.898438 C 1279.558594 1079.703125 1284.542969 1081.78125 1289.867188 1081.78125 C 1290.539062 1081.78125 1291.21875 1081.75 1291.902344 1081.679688 C 1297.886719 1081.082031 1303.269531 1077.792969 1306.558594 1072.808594 L 1477.96875 812.832031 L 1651.632812 1111.695312 L 1674.746094 1111.695312 L 1477.96875 772.945312 " fill-opacity="1" fill-rule="nonzero"/><path fill="#5e6875" d="M 1160.347656 920.929688 L 1160.28125 920.929688 L 1035.816406 1098.777344 L 1160.347656 920.929688 M 1477.960938 772.941406 L 1306.558594 1032.917969 C 1303.277344 1037.90625 1297.886719 1041.195312 1291.910156 1041.792969 C 1291.21875 1041.859375 1290.546875 1041.894531 1289.867188 1041.894531 C 1284.542969 1041.894531 1279.558594 1039.8125 1275.757812 1036.007812 L 1160.6875 920.929688 L 1275.757812 1036.007812 C 1279.558594 1039.8125 1284.542969 1041.894531 1289.867188 1041.894531 C 1290.546875 1041.894531 1291.21875 1041.859375 1291.910156 1041.792969 C 1297.886719 1041.195312 1303.277344 1037.90625 1306.558594 1032.917969 L 1477.960938 772.941406 L 1674.75 1111.695312 L 1674.796875 1111.695312 L 1477.960938 772.941406 " fill-opacity="1" fill-rule="nonzero"/><path fill="#bc825c" d="M 1674.75 1111.695312 L 1651.644531 1111.695312 L 1663.230469 1131.640625 L 1686.335938 1131.640625 L 1674.75 1111.695312 " fill-opacity="1" fill-rule="nonzero"/><path fill="#716866" d="M 1674.800781 1111.695312 L 1674.753906 1111.695312 L 1686.339844 1131.640625 L 1686.367188 1131.640625 L 1674.78125 1111.695312 " fill-opacity="1" fill-rule="nonzero"/><path fill="#bc825c" d="M 1054.699219 1111.699219 L 1026.773438 1111.699219 L 1012.816406 1131.644531 L 1040.730469 1131.644531 L 1054.699219 1111.699219 " fill-opacity="1" fill-rule="nonzero"/></svg>