<svg xmlns="http://www.w3.org/2000/svg" xmlns:xlink="http://www.w3.org/1999/xlink" zoomAndPan="magnify" preserveAspectRatio="xMidYMid meet" version="1.0" viewBox="615.18 121.59 1046.28 1014.62"><defs><clipPath id="b8335ef04c"><path d="M 615.289062 121.5 L 1662 121.5 L 1662 1137 L 615.289062 1137 Z M 615.289062 121.5 " clip-rule="nonzero"/></clipPath></defs><g clip-path="url(#b8335ef04c)"><path fill="#ffffff" d="M 1292.402344 140.574219 C 1292.402344 130.089844 1300.902344 121.589844 1311.386719 121.589844 L 1400.410156 121.589844 C 1410.894531 121.589844 1419.398438 130.089844 1419.398438 140.574219 L 1419.398438 237.488281 C 1419.398438 247.972656 1410.894531 256.472656 1400.410156 256.472656 C 1389.925781 256.472656 1381.425781 247.972656 1381.425781 237.488281 L 1381.425781 159.558594 L 1311.386719 159.558594 C 1300.902344 159.558594 1292.402344 151.058594 1292.402344 140.574219 Z M 723.183594 927.375 L 653.148438 927.375 L 653.148438 849.445312 C 653.148438 838.960938 644.648438 830.460938 634.164062 830.460938 C 623.679688 830.460938 615.179688 838.960938 615.179688 849.445312 L 615.179688 946.359375 C 615.179688 956.84375 623.679688 965.34375 634.164062 965.34375 L 723.1875 965.34375 C 733.671875 965.34375 742.171875 956.84375 742.171875 946.359375 C 742.171875 935.875 733.667969 927.375 723.183594 927.375 Z M 634.164062 256.472656 C 644.648438 256.472656 653.148438 247.972656 653.148438 237.488281 L 653.148438 159.558594 L 723.1875 159.558594 C 733.671875 159.558594 742.171875 151.058594 742.171875 140.574219 C 742.171875 130.089844 733.671875 121.589844 723.1875 121.589844 L 634.164062 121.589844 C 623.679688 121.589844 615.179688 130.089844 615.179688 140.574219 L 615.179688 237.488281 C 615.179688 247.972656 623.679688 256.472656 634.164062 256.472656 Z M 1220.53125 573.582031 C 1245.078125 616.097656 1214.355469 669.304688 1165.261719 669.304688 L 885.761719 669.304688 C 836.667969 669.304688 805.945312 616.097656 830.492188 573.582031 L 970.246094 331.527344 C 994.652344 289.25 1056.371094 289.25 1080.78125 331.527344 Z M 1004.589844 408.960938 L 1008.8125 525.90625 C 1009.136719 534.890625 1016.519531 542.011719 1025.507812 542.011719 C 1034.5 542.011719 1041.882812 534.890625 1042.207031 525.90625 L 1046.429688 408.960938 C 1046.597656 404.257812 1045.027344 400.144531 1041.757812 396.757812 C 1034.769531 389.515625 1016.246094 389.511719 1009.261719 396.757812 C 1005.996094 400.144531 1004.421875 404.257812 1004.589844 408.960938 Z M 1046.914062 601.621094 C 1046.914062 589.800781 1037.332031 580.21875 1025.511719 580.21875 C 1013.691406 580.21875 1004.105469 589.800781 1004.105469 601.621094 C 1004.105469 613.441406 1013.6875 623.023438 1025.511719 623.023438 C 1037.332031 623.023438 1046.914062 613.445312 1046.914062 601.621094 Z M 1652.671875 1056.492188 L 1584.488281 1126.761719 C 1572.515625 1139.101562 1552.625 1139.398438 1540.285156 1127.425781 L 1351.4375 944.179688 C 1339.097656 932.207031 1338.800781 912.308594 1350.773438 899.972656 L 1354.65625 895.96875 L 1249.375 792.957031 C 1189.222656 844.605469 1111.015625 875.8125 1025.515625 875.8125 C 835.589844 875.8125 681.628906 721.851562 681.628906 531.929688 C 681.628906 342.007812 835.589844 188.046875 1025.515625 188.046875 C 1215.433594 188.046875 1369.398438 342.007812 1369.398438 531.929688 C 1369.398438 605.066406 1346.546875 672.859375 1307.625 728.589844 L 1415.070312 833.707031 L 1418.957031 829.707031 C 1430.925781 817.367188 1450.824219 817.066406 1463.164062 829.042969 L 1652.007812 1012.296875 C 1664.339844 1024.265625 1664.644531 1044.152344 1652.671875 1056.492188 Z M 1304.539062 531.925781 C 1304.539062 377.820312 1179.613281 252.894531 1025.507812 252.894531 C 871.40625 252.894531 746.480469 377.820312 746.480469 531.925781 C 746.480469 686.027344 871.40625 810.957031 1025.507812 810.957031 C 1179.613281 810.957031 1304.539062 686.027344 1304.539062 531.925781 Z M 1304.539062 531.925781 " fill-opacity="1" fill-rule="evenodd"/></g></svg>