<svg xmlns="http://www.w3.org/2000/svg" xmlns:xlink="http://www.w3.org/1999/xlink" width="3000" zoomAndPan="magnify" viewBox="0 0 2250 1265.999941" height="1688" preserveAspectRatio="xMidYMid meet" version="1.0"><defs><clipPath id="ae7536f8a6"><path d="M 499.472656 80 L 1680.722656 80 L 1680.722656 1063 L 499.472656 1063 Z M 499.472656 80 " clip-rule="nonzero"/></clipPath></defs><g clip-path="url(#ae7536f8a6)"><path fill="#f1863d" d="M 1680.628906 700.753906 C 1680.628906 662.945312 1648.441406 632.179688 1608.859375 632.179688 L 1585.320312 632.179688 C 1583.164062 612.34375 1566.539062 596.867188 1546.136719 596.867188 L 1530.164062 596.867188 L 1579.417969 474.261719 C 1607 470.414062 1628.359375 446.964844 1628.359375 418.390625 C 1628.359375 387.414062 1603.328125 362.234375 1572.402344 361.789062 L 1532.722656 294.316406 L 1554.214844 280.496094 C 1571.695312 269.269531 1583.753906 251.914062 1588.152344 231.601562 C 1592.570312 211.289062 1588.78125 190.492188 1577.5 172.988281 C 1554.199219 136.980469 1505.84375 126.5625 1469.777344 149.777344 L 1435.515625 171.824219 L 1414.554688 178.253906 L 1414.554688 129.425781 C 1414.554688 102.335938 1392.476562 80.316406 1365.351562 80.316406 L 814.675781 80.316406 C 787.554688 80.316406 765.476562 102.339844 765.476562 129.425781 L 765.476562 486.859375 C 765.476562 513.949219 787.554688 535.972656 814.675781 535.972656 L 980.863281 535.972656 C 988.660156 553.320312 989.800781 568.367188 983.605469 582.363281 C 982.527344 584.800781 982.078125 587.332031 982.078125 589.835938 L 948.269531 589.835938 C 931.496094 589.835938 917.789062 603.507812 917.789062 620.238281 L 917.789062 632.179688 L 731.621094 632.179688 L 748.75 541.648438 C 749.777344 536.261719 748.332031 530.675781 744.839844 526.457031 C 743.164062 524.445312 741.070312 522.902344 738.78125 521.765625 C 757.875 449.386719 723.953125 416.296875 712.070312 407.363281 C 686.261719 387.933594 651.570312 387.949219 625.757812 407.378906 C 613.898438 416.3125 580.019531 449.386719 599.101562 521.726562 C 596.789062 522.863281 594.679688 524.425781 592.992188 526.457031 C 589.496094 530.675781 588.054688 536.261719 589.082031 541.648438 L 606.207031 632.179688 L 571.1875 632.179688 C 531.644531 632.179688 499.472656 662.945312 499.472656 701.351562 C 499.472656 739.164062 531.644531 769.929688 571.1875 769.929688 L 622.585938 769.929688 L 542.402344 1012.945312 C 526.476562 1061.117188 606.945312 1088.519531 627.566406 1025.574219 L 711.867188 769.929688 L 1468.164062 769.929688 L 1552.464844 1025.574219 C 1573.085938 1088.519531 1653.554688 1061.117188 1637.632812 1012.945312 L 1557.507812 769.929688 L 1608.855469 769.929688 C 1648.441406 769.929688 1680.628906 739.164062 1680.628906 700.753906 Z M 1591.453125 418.390625 C 1591.453125 429.273438 1582.550781 438.140625 1571.589844 438.140625 C 1560.632812 438.140625 1551.726562 429.273438 1551.726562 418.390625 C 1551.726562 407.484375 1560.632812 398.617188 1571.589844 398.617188 C 1582.550781 398.617188 1591.453125 407.484375 1591.453125 418.390625 Z M 1349.726562 236.84375 L 1349.816406 236.699219 L 1435.425781 210.457031 L 1481.539062 281.734375 L 1484.703125 286.621094 L 1425.242188 353.542969 Z M 814.675781 117.226562 L 1365.351562 117.226562 C 1372.128906 117.226562 1377.644531 122.707031 1377.644531 129.425781 L 1377.644531 189.566406 L 1339.019531 201.410156 C 1327.84375 204.816406 1319.125 213.070312 1315.105469 224.046875 C 1311.066406 235.023438 1312.363281 246.992188 1318.691406 256.832031 C 1318.707031 256.851562 1318.726562 256.871094 1318.726562 256.886719 L 1377.644531 347.933594 L 1377.644531 461.863281 C 1185.875 461.863281 994.15625 461.863281 802.386719 461.863281 L 802.386719 129.425781 C 802.386719 122.707031 807.902344 117.226562 814.675781 117.226562 Z M 1159.683594 535.972656 C 1154.089844 554.726562 1154.152344 572.746094 1159.925781 589.835938 L 1020.117188 589.835938 C 1025.886719 572.761719 1025.953125 554.746094 1020.371094 535.972656 Z M 1231.835938 589.835938 L 1197.953125 589.835938 C 1197.953125 587.339844 1197.5 584.8125 1196.421875 582.382812 C 1190.226562 568.335938 1191.382812 553.300781 1199.21875 535.972656 L 1365.351562 535.972656 C 1392.476562 535.972656 1414.554688 513.949219 1414.554688 486.859375 L 1414.554688 388.882812 C 1427.910156 392.914062 1442.890625 389.691406 1453.199219 378 L 1504.800781 319.660156 L 1536.742188 373.980469 C 1523.496094 384.367188 1514.816406 400.3125 1514.816406 418.390625 C 1514.816406 439.039062 1526.050781 456.953125 1542.621094 466.859375 L 1490.390625 596.867188 L 1439.300781 596.867188 C 1418.839844 596.867188 1402.210938 612.347656 1400.054688 632.179688 L 1262.246094 632.179688 L 1262.246094 620.238281 C 1262.246094 603.507812 1248.539062 589.835938 1231.835938 589.835938 Z M 647.964844 436.863281 C 660.507812 427.417969 677.34375 427.417969 689.886719 436.863281 C 708.9375 451.179688 712.722656 481.726562 700.949219 519.769531 L 636.957031 519.769531 C 625.160156 481.734375 628.925781 451.183594 647.964844 436.863281 Z M 536.382812 700.753906 C 536.382812 683.292969 551.992188 669.089844 571.1875 669.089844 L 1608.859375 669.089844 C 1628.074219 669.089844 1643.71875 683.292969 1643.71875 701.351562 C 1643.71875 718.8125 1628.074219 733.015625 1608.859375 733.015625 L 571.1875 733.015625 C 551.992188 733.019531 536.382812 718.816406 536.382812 700.753906 Z M 536.382812 700.753906 " fill-opacity="1" fill-rule="nonzero"/></g></svg>