<svg xmlns="http://www.w3.org/2000/svg" xmlns:xlink="http://www.w3.org/1999/xlink" width="3000" zoomAndPan="magnify" viewBox="0 0 2250 1265.999941" height="1688" preserveAspectRatio="xMidYMid meet" version="1.0"><defs><clipPath id="63e2eb87a4"><path d="M 820 126.601562 L 1483 126.601562 L 1483 1120.351562 L 820 1120.351562 Z M 820 126.601562 " clip-rule="nonzero"/></clipPath></defs><g clip-path="url(#63e2eb87a4)"><path fill="#000000" d="M 1409.40625 610.734375 C 1367.984375 575.699219 1307.445312 547.03125 1224.605469 527.921875 L 1224.605469 362.296875 C 1269.210938 371.851562 1310.632812 390.964844 1348.867188 419.628906 C 1355.238281 422.8125 1361.613281 426 1367.984375 422.8125 C 1374.355469 422.8125 1380.730469 419.628906 1383.914062 413.257812 L 1457.199219 308.152344 C 1460.382812 301.78125 1463.570312 295.410156 1460.382812 289.039062 C 1460.382812 282.667969 1454.011719 276.300781 1450.824219 273.113281 C 1380.730469 225.339844 1304.261719 196.671875 1224.605469 187.117188 L 1224.605469 152.082031 C 1224.605469 139.339844 1215.046875 126.601562 1199.117188 126.601562 L 1125.832031 126.601562 C 1113.089844 126.601562 1100.34375 136.15625 1100.34375 152.082031 L 1100.34375 187.117188 C 1033.433594 193.488281 976.082031 218.96875 931.476562 260.375 C 880.496094 304.964844 855.007812 365.480469 855.007812 438.738281 C 855.007812 511.996094 877.308594 566.144531 921.917969 604.363281 C 963.335938 639.398438 1020.6875 664.882812 1100.34375 683.992188 L 1100.34375 855.988281 C 1046.179688 843.246094 995.199219 814.582031 944.21875 769.988281 C 937.847656 766.804688 931.476562 763.617188 925.101562 763.617188 C 918.730469 763.617188 912.359375 766.804688 909.171875 773.175781 L 826.332031 871.914062 C 816.773438 881.46875 819.957031 897.394531 829.515625 906.949219 C 909.171875 977.019531 1001.570312 1018.425781 1100.34375 1034.351562 L 1100.34375 1094.867188 C 1100.34375 1107.609375 1109.902344 1120.351562 1125.832031 1120.351562 L 1199.117188 1120.351562 C 1211.859375 1120.351562 1224.605469 1110.792969 1224.605469 1094.867188 L 1224.605469 1034.351562 C 1297.886719 1027.980469 1355.238281 1002.5 1403.03125 961.09375 C 1454.011719 916.503906 1482.6875 855.988281 1482.6875 782.730469 C 1479.5 706.289062 1457.199219 648.957031 1409.40625 610.734375 Z M 1291.515625 789.101562 C 1291.515625 808.210938 1285.144531 824.136719 1269.210938 836.875 C 1256.46875 846.429688 1240.535156 852.800781 1221.417969 859.171875 L 1221.417969 715.84375 C 1250.09375 728.582031 1266.027344 738.136719 1272.398438 744.507812 C 1288.328125 754.0625 1291.515625 769.988281 1291.515625 789.101562 Z M 1042.992188 422.8125 C 1042.992188 403.703125 1049.363281 390.964844 1065.296875 378.222656 C 1074.855469 368.667969 1087.597656 362.296875 1103.53125 359.113281 L 1103.53125 492.886719 C 1078.039062 483.332031 1065.296875 473.777344 1058.921875 467.40625 C 1046.179688 454.664062 1042.992188 441.925781 1042.992188 422.8125 Z M 1042.992188 422.8125 " fill-opacity="1" fill-rule="nonzero"/></g></svg>