<svg xmlns="http://www.w3.org/2000/svg" xmlns:xlink="http://www.w3.org/1999/xlink" width="3000" zoomAndPan="magnify" viewBox="0 0 2250 1265.999941" height="1688" preserveAspectRatio="xMidYMid meet" version="1.0"><path fill="#f1863d" d="M 710.097656 726.652344 C 715.054688 739.761719 707.96875 754.289062 694.507812 758.1875 C 668.640625 765.980469 639.234375 769.878906 606.636719 769.878906 C 564.828125 769.878906 530.8125 754.640625 505.300781 724.878906 C 480.144531 695.472656 467.390625 656.496094 467.390625 609.726562 C 467.390625 562.957031 479.789062 524.691406 504.238281 495.992188 C 531.519531 464.457031 569.785156 448.160156 618.328125 448.160156 C 644.546875 448.160156 669.347656 451.347656 692.378906 458.082031 C 706.550781 461.976562 713.640625 477.566406 708.324219 491.03125 C 703.71875 502.722656 690.960938 508.746094 678.917969 505.558594 C 660.492188 500.246094 640.648438 497.765625 619.390625 497.765625 C 583.605469 497.765625 558.09375 510.519531 541.796875 536.738281 C 529.394531 556.226562 523.015625 581.382812 523.015625 611.144531 C 523.015625 638.425781 529.75 662.875 543.566406 683.070312 C 560.574219 708.582031 583.605469 720.984375 614.429688 720.984375 C 638.167969 720.984375 659.78125 717.792969 678.917969 711.769531 C 691.316406 707.871094 704.78125 713.894531 709.386719 726.296875 Z M 986.105469 494.222656 C 1014.453125 525.402344 1028.625 564.375 1028.625 609.726562 C 1028.625 655.433594 1014.097656 694.054688 986.105469 724.878906 C 957.761719 756.058594 920.558594 771.648438 875.5625 771.648438 C 830.5625 771.648438 793.359375 755.707031 765.015625 724.878906 C 736.667969 694.054688 722.496094 655.078125 722.496094 609.726562 C 722.496094 564.375 736.667969 525.402344 765.015625 494.222656 C 793.359375 463.042969 830.917969 447.097656 875.5625 447.097656 C 920.203125 447.097656 957.761719 463.042969 986.105469 494.222656 Z M 974.414062 609.019531 C 974.414062 576.777344 965.203125 549.847656 946.777344 528.234375 C 928.707031 506.621094 905.324219 496.347656 875.207031 496.347656 C 845.445312 496.347656 822.058594 506.621094 803.636719 528.234375 C 785.210938 549.847656 776 577.128906 776 609.019531 C 776 641.261719 785.210938 668.191406 803.636719 689.804688 C 821.707031 711.417969 845.089844 721.691406 875.207031 721.691406 C 904.96875 721.691406 928.355469 711.417969 946.777344 689.804688 C 965.203125 668.542969 974.414062 641.261719 974.414062 609.019531 Z M 1268.140625 498.117188 C 1289.046875 523.984375 1300.03125 559.414062 1300.03125 602.996094 C 1300.03125 649.410156 1288.691406 687.675781 1266.015625 716.023438 C 1238.027344 750.746094 1194.445312 768.460938 1137.046875 768.460938 C 1124.289062 768.460938 1105.867188 767.398438 1081.417969 764.917969 C 1065.121094 763.5 1052.363281 749.683594 1052.363281 733.03125 L 1052.363281 486.425781 C 1052.363281 470.128906 1064.765625 456.308594 1081.0625 454.890625 C 1113.660156 451.347656 1135.984375 449.929688 1149.445312 449.929688 C 1201.886719 449.578125 1241.921875 465.875 1268.140625 498.117188 Z M 1244.050781 602.996094 C 1244.050781 532.839844 1212.160156 498.828125 1146.964844 498.828125 C 1136.691406 498.828125 1120.746094 499.890625 1099.84375 502.015625 L 1099.84375 717.4375 C 1112.242188 718.148438 1126.769531 718.855469 1143.777344 718.855469 C 1181.6875 718.855469 1208.261719 706.101562 1225.269531 679.527344 C 1238.027344 659.332031 1244.050781 633.820312 1244.050781 602.996094 Z M 1483.921875 452.765625 L 1348.570312 452.765625 C 1330.5 452.765625 1315.976562 467.292969 1315.976562 485.363281 L 1315.976562 733.382812 C 1315.976562 751.453125 1330.5 765.980469 1348.570312 765.980469 L 1483.921875 765.980469 C 1497.382812 765.980469 1508.722656 754.996094 1508.722656 741.179688 C 1508.722656 727.359375 1497.738281 716.375 1483.921875 716.375 L 1371.246094 716.375 L 1371.246094 625.671875 L 1468.683594 625.671875 C 1482.148438 625.671875 1493.488281 614.6875 1493.488281 600.871094 C 1493.488281 587.40625 1482.503906 576.066406 1468.683594 576.066406 L 1370.894531 576.066406 L 1370.894531 501.660156 L 1483.566406 501.660156 C 1497.03125 501.660156 1508.367188 490.675781 1508.367188 476.859375 C 1508.367188 463.75 1497.382812 452.765625 1483.921875 452.765625 Z M 415.660156 455.601562 C 404.320312 444.261719 385.898438 444.261719 374.558594 455.601562 L 252.320312 578.195312 C 234.960938 595.554688 234.960938 623.546875 252.320312 640.90625 L 374.914062 763.5 C 386.25 774.839844 404.675781 774.839844 416.015625 763.5 C 427.351562 752.164062 427.351562 733.738281 416.015625 722.398438 L 302.988281 609.375 L 415.660156 496.699219 C 426.996094 485.363281 426.996094 466.9375 415.660156 455.601562 Z M 1997.675781 578.195312 L 1875.085938 455.601562 C 1863.746094 444.261719 1845.320312 444.261719 1833.984375 455.601562 C 1822.644531 466.9375 1822.644531 485.363281 1833.984375 496.699219 L 1947.011719 609.375 L 1833.984375 722.398438 C 1822.644531 733.738281 1822.644531 752.164062 1833.984375 763.5 C 1845.320312 774.839844 1863.746094 774.839844 1875.085938 763.5 L 1997.675781 640.90625 C 2015.039062 623.546875 2015.039062 595.554688 1997.675781 578.195312 Z M 1764.183594 374.816406 C 1749.300781 368.792969 1732.296875 375.878906 1726.273438 390.40625 L 1554.074219 806.019531 C 1548.050781 820.898438 1555.136719 837.90625 1569.664062 843.929688 C 1584.546875 849.953125 1601.554688 842.867188 1607.578125 828.339844 L 1779.773438 412.726562 C 1786.152344 397.847656 1779.066406 381.195312 1764.183594 374.816406 Z M 1764.183594 374.816406 " fill-opacity="1" fill-rule="nonzero"/></svg>