<svg xmlns="http://www.w3.org/2000/svg" xmlns:xlink="http://www.w3.org/1999/xlink" width="3000" zoomAndPan="magnify" viewBox="0 0 2250 1265.999941" height="1688" preserveAspectRatio="xMidYMid meet" version="1.0"><defs><clipPath id="4ff2aeb33b"><path d="M 440.058594 70.191406 L 1809.910156 70.191406 L 1809.910156 1139.300781 L 440.058594 1139.300781 Z M 440.058594 70.191406 " clip-rule="nonzero"/></clipPath></defs><g clip-path="url(#4ff2aeb33b)"><path fill="#ffffff" d="M 1780.960938 1051.347656 C 1780.960938 1083.875 1752.101562 1110.34375 1716.628906 1110.34375 L 695.773438 1110.34375 C 660.304688 1110.34375 631.453125 1083.875 631.453125 1051.347656 L 631.453125 1010.683594 L 1075.136719 1010.683594 C 1079.121094 1034.984375 1098.277344 1053.449219 1121.273438 1053.449219 L 1297.8125 1053.449219 C 1321.847656 1053.449219 1341.898438 1034.984375 1346.070312 1010.683594 L 1780.972656 1010.683594 Z M 694.164062 704.304688 L 768.210938 630.199219 C 810.882812 652.859375 858.464844 664.699219 906.773438 664.679688 C 913.5 664.679688 920.277344 664.453125 927.09375 664 C 1085.089844 653.292969 1206.929688 520.550781 1204.082031 362.203125 L 1714.40625 362.203125 L 1714.40625 981.726562 L 1332.375 981.726562 C 1324.382812 981.726562 1317.898438 988.203125 1317.898438 996.207031 L 1317.898438 1001.296875 C 1317.898438 1014.078125 1308.878906 1024.484375 1297.800781 1024.484375 L 1121.265625 1024.484375 C 1111.539062 1024.484375 1103.308594 1013.871094 1103.308594 1001.296875 L 1103.308594 996.207031 C 1103.308594 988.203125 1096.835938 981.726562 1088.832031 981.726562 L 694.164062 981.726562 Z M 558.601562 799 C 545.914062 811.695312 525.328125 811.703125 512.628906 799.015625 C 512.621094 799.007812 512.609375 799 512.609375 799 L 478.507812 764.941406 C 465.820312 752.226562 465.820312 731.652344 478.507812 718.933594 L 661.898438 535.441406 C 662.992188 537.015625 664.09375 538.582031 665.207031 540.15625 C 673.960938 552.410156 683.644531 563.972656 694.164062 574.757812 C 708.847656 589.8125 725.078125 603.261719 742.59375 614.902344 L 694.164062 663.359375 L 665.207031 692.335938 Z M 665.207031 483.5625 C 601.261719 349.933594 657.757812 189.757812 791.398438 125.8125 C 925.039062 61.871094 1085.203125 118.367188 1149.148438 252.007812 C 1150.355469 254.515625 1151.511719 257.039062 1152.636719 259.585938 C 1156.78125 269.019531 1160.363281 278.691406 1163.371094 288.542969 C 1167.847656 303.144531 1171.0625 318.101562 1172.976562 333.257812 C 1173.671875 338.59375 1174.203125 343.964844 1174.570312 349.375 C 1174.859375 353.675781 1175.050781 357.945312 1175.125 362.214844 C 1178.339844 510.105469 1061.054688 632.605469 913.164062 635.816406 C 860.246094 636.96875 808.167969 622.40625 763.519531 593.988281 C 736.871094 577.058594 713.402344 555.59375 694.164062 530.570312 C 690.183594 525.386719 686.367188 520.050781 682.777344 514.574219 C 677.261719 506.222656 672.238281 497.558594 667.714844 488.632812 C 666.855469 486.964844 666.027344 485.277344 665.207031 483.5625 Z M 1657.679688 288.542969 C 1684.242188 288.542969 1706.589844 307.609375 1712.71875 333.257812 L 1202.148438 333.257812 C 1200.425781 318.15625 1197.550781 303.207031 1193.535156 288.542969 Z M 1795.441406 981.726562 L 1743.363281 981.726562 L 1743.363281 347.519531 C 1743.363281 299.042969 1704.921875 259.585938 1657.679688 259.585938 L 1183.957031 259.585938 C 1124.375 106.640625 952.082031 30.960938 799.136719 90.550781 C 646.195312 150.140625 570.515625 322.4375 630.105469 475.382812 C 634.742188 487.285156 640.144531 498.878906 646.269531 510.085938 L 458.035156 698.472656 C 434.054688 722.5 434.074219 761.398438 458.054688 785.40625 L 492.15625 819.480469 C 503.65625 831.046875 519.304688 837.523438 535.609375 837.484375 L 535.636719 837.484375 C 551.945312 837.523438 567.59375 831.027344 579.089844 819.453125 L 665.214844 733.289062 L 665.214844 981.726562 L 616.972656 981.726562 C 608.972656 981.726562 602.496094 988.210938 602.496094 996.207031 L 602.496094 1051.347656 C 602.496094 1099.84375 644.335938 1139.300781 695.773438 1139.300781 L 1716.628906 1139.300781 C 1768.078125 1139.300781 1809.917969 1099.84375 1809.917969 1051.347656 L 1809.917969 996.207031 C 1809.917969 988.210938 1803.433594 981.726562 1795.441406 981.726562 " fill-opacity="1" fill-rule="nonzero"/></g><path fill="#ffffff" d="M 1612.371094 907.773438 L 1640.320312 907.773438 L 1640.320312 936.730469 L 1612.371094 936.730469 L 1612.371094 907.773438 " fill-opacity="1" fill-rule="nonzero"/><path fill="#ffffff" d="M 1541.480469 907.773438 L 1569.425781 907.773438 L 1569.425781 936.730469 L 1541.480469 936.730469 L 1541.480469 907.773438 " fill-opacity="1" fill-rule="nonzero"/><path fill="#ffffff" d="M 1465.496094 907.773438 L 1493.445312 907.773438 L 1493.445312 936.730469 L 1465.496094 936.730469 L 1465.496094 907.773438 " fill-opacity="1" fill-rule="nonzero"/><path fill="#ffffff" d="M 1394.597656 907.773438 L 1422.554688 907.773438 L 1422.554688 936.730469 L 1394.597656 936.730469 L 1394.597656 907.773438 " fill-opacity="1" fill-rule="nonzero"/><path fill="#ffffff" d="M 954.398438 907.773438 L 1343.519531 907.773438 L 1343.519531 936.730469 L 954.398438 936.730469 L 954.398438 907.773438 " fill-opacity="1" fill-rule="nonzero"/><path fill="#ffffff" d="M 1571.386719 517.757812 L 1597.449219 517.757812 L 1597.449219 767.65625 L 1571.386719 767.65625 Z M 1556.910156 796.613281 L 1611.929688 796.613281 C 1619.921875 796.613281 1626.40625 790.128906 1626.40625 782.136719 L 1626.40625 503.273438 C 1626.40625 495.277344 1619.921875 488.792969 1611.929688 488.792969 L 1556.910156 488.792969 C 1548.90625 488.792969 1542.429688 495.277344 1542.429688 503.273438 L 1542.429688 782.136719 C 1542.429688 790.128906 1548.90625 796.613281 1556.910156 796.613281 " fill-opacity="1" fill-rule="nonzero"/><path fill="#ffffff" d="M 1445.890625 552.445312 L 1471.804688 552.445312 L 1471.804688 767.65625 L 1445.890625 767.65625 Z M 1431.414062 796.613281 L 1486.28125 796.613281 C 1494.285156 796.613281 1500.757812 790.128906 1500.757812 782.136719 L 1500.757812 537.96875 C 1500.757812 529.964844 1494.285156 523.492188 1486.28125 523.492188 L 1431.414062 523.492188 C 1423.421875 523.492188 1416.9375 529.964844 1416.9375 537.96875 L 1416.9375 782.136719 C 1416.9375 790.128906 1423.421875 796.613281 1431.414062 796.613281 " fill-opacity="1" fill-rule="nonzero"/><path fill="#ffffff" d="M 1320.894531 585.917969 L 1346.816406 585.917969 L 1346.816406 767.65625 L 1320.894531 767.65625 Z M 1306.417969 796.613281 L 1361.296875 796.613281 C 1369.296875 796.613281 1375.773438 790.128906 1375.773438 782.136719 L 1375.773438 571.441406 C 1375.773438 563.445312 1369.296875 556.960938 1361.296875 556.960938 L 1306.417969 556.960938 C 1298.425781 556.960938 1291.941406 563.445312 1291.941406 571.441406 L 1291.941406 782.136719 C 1291.941406 790.128906 1298.425781 796.613281 1306.417969 796.613281 " fill-opacity="1" fill-rule="nonzero"/><path fill="#ffffff" d="M 1195.898438 632.800781 L 1221.832031 632.800781 L 1221.832031 767.65625 L 1195.898438 767.65625 Z M 1181.421875 796.613281 L 1236.308594 796.613281 C 1244.300781 796.613281 1250.785156 790.128906 1250.785156 782.136719 L 1250.785156 618.324219 C 1250.785156 610.332031 1244.300781 603.847656 1236.308594 603.847656 L 1181.421875 603.847656 C 1173.429688 603.847656 1166.945312 610.332031 1166.945312 618.324219 L 1166.945312 782.136719 C 1166.945312 790.128906 1173.429688 796.613281 1181.421875 796.613281 " fill-opacity="1" fill-rule="nonzero"/><path fill="#ffffff" d="M 1070.386719 681.609375 L 1096.324219 681.609375 L 1096.324219 767.65625 L 1070.386719 767.65625 Z M 1055.917969 796.613281 L 1110.804688 796.613281 C 1118.796875 796.613281 1125.28125 790.128906 1125.28125 782.136719 L 1125.28125 667.132812 C 1125.28125 659.136719 1118.796875 652.652344 1110.804688 652.652344 L 1055.917969 652.652344 C 1047.914062 652.652344 1041.4375 659.136719 1041.4375 667.132812 L 1041.4375 782.136719 C 1041.4375 790.128906 1047.914062 796.613281 1055.917969 796.613281 " fill-opacity="1" fill-rule="nonzero"/><path fill="#ffffff" d="M 1030.863281 830.726562 L 1650.300781 830.726562 L 1650.300781 859.683594 L 1030.863281 859.683594 L 1030.863281 830.726562 " fill-opacity="1" fill-rule="nonzero"/><path fill="#ffffff" d="M 764.921875 226.53125 C 802.25 188.976562 853.054688 167.910156 906.007812 168.042969 L 906.074219 168.042969 C 1016.289062 168.023438 1105.648438 257.363281 1105.667969 367.566406 C 1105.675781 477.785156 1016.347656 567.140625 906.128906 567.152344 L 906.074219 567.152344 C 795.859375 567.152344 706.519531 477.8125 706.519531 367.597656 C 706.519531 314.6875 727.519531 263.949219 764.921875 226.53125 Z M 906.074219 596.105469 L 906.140625 596.105469 C 1032.398438 596.089844 1134.726562 493.722656 1134.707031 367.472656 C 1134.6875 241.222656 1032.324219 138.886719 906.074219 138.90625 C 779.824219 138.925781 677.488281 241.289062 677.507812 367.539062 C 677.527344 493.769531 779.84375 596.089844 906.074219 596.105469 " fill-opacity="1" fill-rule="nonzero"/><path fill="#ffffff" d="M 807.914062 277.363281 C 814.179688 272.40625 815.238281 263.289062 810.277344 257.023438 C 805.3125 250.753906 796.207031 249.699219 789.9375 254.65625 C 789.882812 254.703125 789.824219 254.75 789.769531 254.796875 C 764.742188 274.921875 739.5 317.667969 739.5 367.832031 C 739.511719 375.824219 745.996094 382.300781 753.996094 382.292969 C 761.980469 382.28125 768.449219 375.804688 768.457031 367.832031 C 768.457031 327.472656 788.910156 292.640625 807.914062 277.363281 " fill-opacity="1" fill-rule="nonzero"/><path fill="#ffffff" d="M 832.148438 245.164062 C 835.632812 245.164062 839 243.902344 841.628906 241.609375 C 848.425781 235.710938 855.578125 230.214844 863.027344 225.164062 C 869.652344 220.675781 871.386719 211.683594 866.898438 205.058594 C 862.414062 198.441406 853.410156 196.707031 846.785156 201.191406 C 838.386719 206.894531 830.328125 213.089844 822.65625 219.742188 C 816.621094 224.984375 815.972656 234.125 821.214844 240.167969 C 823.964844 243.335938 827.953125 245.15625 832.148438 245.164062 " fill-opacity="1" fill-rule="nonzero"/></svg>