<svg xmlns="http://www.w3.org/2000/svg" xmlns:xlink="http://www.w3.org/1999/xlink" width="3000" zoomAndPan="magnify" viewBox="0 0 2250 1265.999941" height="1688" preserveAspectRatio="xMidYMid meet" version="1.0"><defs><clipPath id="9a534b9c85"><path d="M 436.085938 80.214844 L 1902.335938 80.214844 L 1902.335938 1185.714844 L 436.085938 1185.714844 Z M 436.085938 80.214844 " clip-rule="nonzero"/></clipPath></defs><g clip-path="url(#9a534b9c85)"><path fill="#000000" d="M 1188.949219 253.921875 C 1188.949219 264.71875 1180.191406 273.476562 1169.390625 273.476562 C 1158.597656 273.476562 1149.839844 264.71875 1149.839844 253.921875 L 1149.839844 99.992188 C 1149.839844 89.199219 1158.597656 80.445312 1169.390625 80.445312 C 1180.191406 80.445312 1188.949219 89.199219 1188.949219 99.992188 Z M 1553.675781 440.445312 C 1492.660156 440.445312 1443.195312 489.902344 1443.195312 550.898438 C 1443.195312 611.902344 1492.660156 661.351562 1553.675781 661.351562 C 1614.695312 661.351562 1664.164062 611.902344 1664.164062 550.898438 C 1664.164062 489.902344 1614.695312 440.445312 1553.675781 440.445312 Z M 1415.414062 803.527344 C 1415.304688 795.25 1413.519531 787.734375 1410.054688 781.007812 C 1405.941406 773.050781 1399.757812 766.632812 1391.535156 761.78125 C 1390.269531 761.035156 1388.953125 760.449219 1387.605469 760.015625 C 1343.921875 743.066406 1305.59375 722.367188 1272.394531 698.621094 C 1242.042969 676.914062 1215.996094 652.648438 1194.042969 626.367188 C 1210.167969 603.910156 1223.820312 580.28125 1235.113281 555.753906 C 1265.371094 594.648438 1298.316406 623.65625 1333.0625 646.304688 C 1374.144531 673.097656 1417.355469 690.828125 1461.476562 705.554688 L 1534.253906 800.253906 C 1534.867188 801.058594 1535.554688 801.828125 1536.316406 802.550781 C 1544.113281 809.96875 1556.472656 809.664062 1563.894531 801.859375 L 1610.886719 752.476562 C 1649.066406 766.132812 1686.699219 782.835938 1722.621094 806.714844 C 1761.859375 832.800781 1799.371094 867.628906 1833.773438 916.722656 C 1850.484375 942.421875 1864.394531 971.386719 1875.480469 1003.734375 L 1875.480469 1003.8125 C 1886.722656 1036.589844 1895.054688 1072.6875 1900.460938 1112.214844 L 1902.566406 1129.273438 C 1900.574219 1139.132812 1895.253906 1146.84375 1888.238281 1151.96875 C 1882.339844 1156.285156 1875.222656 1158.898438 1867.800781 1159.570312 C 1860.304688 1160.246094 1852.449219 1158.9375 1845.164062 1155.410156 C 1834.753906 1150.371094 1825.390625 1140.582031 1819.554688 1125.3125 C 1807.644531 1069.15625 1792.121094 1021.953125 1773.011719 983.726562 C 1753.109375 943.925781 1729.230469 913.722656 1701.398438 893.144531 C 1692.753906 886.738281 1680.535156 888.546875 1674.125 897.191406 C 1671.53125 900.683594 1670.285156 904.761719 1670.292969 908.800781 L 1670.226562 1163.75 C 1670.226562 1169.867188 1667.765625 1175.398438 1663.800781 1179.355469 C 1659.726562 1183.359375 1654.191406 1185.851562 1648.121094 1185.851562 L 1437.546875 1185.851562 C 1431.472656 1185.851562 1425.941406 1183.359375 1421.929688 1179.355469 L 1421.167969 1178.628906 C 1417.609375 1174.738281 1415.433594 1169.5 1415.433594 1163.75 Z M 727.910156 752.476562 C 689.722656 766.132812 652.085938 782.839844 616.167969 806.714844 C 576.929688 832.800781 539.417969 867.628906 505.003906 916.714844 C 488.304688 942.421875 474.386719 971.386719 463.28125 1003.800781 C 452.0625 1036.597656 443.722656 1072.6875 438.328125 1112.214844 L 436.21875 1129.269531 C 438.214844 1139.128906 443.523438 1146.84375 450.546875 1151.96875 C 456.445312 1156.285156 463.574219 1158.898438 470.996094 1159.570312 C 478.488281 1160.246094 486.339844 1158.9375 493.632812 1155.410156 C 504.035156 1150.371094 513.394531 1140.582031 519.234375 1125.304688 C 531.136719 1069.15625 546.664062 1021.953125 565.78125 983.726562 C 585.679688 943.925781 609.558594 913.722656 637.386719 893.144531 C 646.035156 886.738281 658.246094 888.546875 664.65625 897.191406 C 667.253906 900.683594 668.503906 904.761719 668.554688 908.800781 L 668.554688 1163.75 C 668.554688 1169.867188 671.015625 1175.398438 675.058594 1179.355469 C 679.0625 1183.359375 684.59375 1185.851562 690.667969 1185.851562 L 901.242188 1185.851562 C 907.3125 1185.851562 912.847656 1183.359375 916.851562 1179.355469 L 917.621094 1178.628906 C 921.171875 1174.738281 923.347656 1169.5 923.347656 1163.75 L 923.378906 803.628906 C 923.464844 795.296875 925.257812 787.746094 928.734375 781.007812 C 932.820312 773.09375 939.03125 766.671875 947.332031 761.78125 C 948.25 761.246094 949.199219 760.789062 950.164062 760.421875 C 1015.921875 735.035156 1069.503906 701.214844 1111.789062 661.332031 C 1156.492188 619.164062 1188.609375 570.109375 1209.191406 517.035156 C 1211.972656 509.136719 1211.746094 500.785156 1209.015625 493.367188 C 1206.277344 485.949219 1201.054688 479.46875 1193.816406 475.296875 C 1186.589844 471.167969 1178.347656 469.886719 1170.550781 471.21875 C 1163.359375 472.457031 1156.542969 475.957031 1151.261719 481.523438 C 1113.851562 552.175781 1070.203125 600.011719 1022.730469 634.554688 C 976.632812 668.105469 927.570312 688.757812 877.324219 705.542969 L 804.542969 800.253906 C 803.925781 801.058594 803.242188 801.828125 802.480469 802.550781 C 794.675781 809.96875 782.316406 809.664062 774.894531 801.859375 Z M 785.105469 440.445312 C 846.125 440.445312 895.59375 489.902344 895.59375 550.898438 C 895.59375 611.898438 846.125 661.351562 785.105469 661.351562 C 724.085938 661.351562 674.625 611.898438 674.625 550.898438 C 674.625 489.902344 724.085938 440.445312 785.105469 440.445312 Z M 1299.628906 315.578125 C 1292.417969 323.546875 1280.09375 324.160156 1272.125 316.953125 C 1264.148438 309.742188 1263.535156 297.421875 1270.75 289.453125 L 1373.996094 175.257812 C 1381.203125 167.289062 1393.527344 166.675781 1401.503906 173.882812 C 1409.472656 181.09375 1410.082031 193.414062 1402.875 201.382812 Z M 1068.039062 289.453125 C 1075.253906 297.421875 1074.632812 309.742188 1066.664062 316.953125 C 1058.691406 324.160156 1046.367188 323.546875 1039.160156 315.578125 L 935.914062 201.382812 C 928.699219 193.414062 929.320312 181.09375 937.289062 173.882812 C 945.261719 166.675781 957.578125 167.289062 964.792969 175.257812 Z M 1068.039062 289.453125 " fill-opacity="1" fill-rule="evenodd"/></g></svg>