<svg xmlns="http://www.w3.org/2000/svg" xmlns:xlink="http://www.w3.org/1999/xlink" width="3000" zoomAndPan="magnify" viewBox="0 0 2250 1265.999941" height="1688" preserveAspectRatio="xMidYMid meet" version="1.0"><defs><clipPath id="370a9ba5c8"><path d="M 577.847656 85.847656 L 1672.097656 85.847656 L 1672.097656 1093 L 577.847656 1093 Z M 577.847656 85.847656 " clip-rule="nonzero"/></clipPath><clipPath id="bb5644ad4e"><path d="M 577.847656 173 L 1672.097656 173 L 1672.097656 1180.097656 L 577.847656 1180.097656 Z M 577.847656 173 " clip-rule="nonzero"/></clipPath></defs><g clip-path="url(#370a9ba5c8)"><path fill="#000000" d="M 967.726562 790.222656 L 967.726562 475.746094 L 1282.195312 475.746094 L 1282.195312 790.222656 Z M 577.847656 85.847656 L 577.847656 123.574219 L 753.929688 123.574219 L 753.929688 211.609375 L 791.691406 211.609375 L 791.691406 123.574219 L 1018.054688 123.574219 L 1018.054688 211.609375 L 1055.78125 211.609375 L 1055.78125 123.574219 L 1194.167969 123.574219 L 1194.167969 173.929688 L 1106.148438 173.929688 L 1106.148438 349.957031 L 967.726562 349.957031 L 967.726562 299.671875 L 1055.78125 299.671875 L 1055.78125 261.964844 L 879.675781 261.964844 L 879.675781 211.609375 L 967.726562 211.609375 L 967.726562 173.929688 L 841.957031 173.929688 L 841.957031 299.671875 L 930.027344 299.671875 L 930.027344 387.699219 L 1143.859375 387.699219 L 1143.859375 211.609375 L 1231.84375 211.609375 L 1231.84375 123.574219 L 1458.320312 123.574219 L 1458.320312 173.929688 L 1282.195312 173.929688 L 1282.195312 261.964844 L 1194.167969 261.964844 L 1194.167969 299.671875 L 1407.957031 299.671875 L 1407.957031 261.964844 L 1319.921875 261.964844 L 1319.921875 211.609375 L 1496.027344 211.609375 L 1496.027344 123.574219 L 1634.375 123.574219 L 1634.375 349.957031 L 1584.054688 349.957031 L 1584.054688 173.929688 L 1546.378906 173.929688 L 1546.378906 387.699219 L 1634.375 387.699219 L 1634.375 438.0625 L 1496.027344 438.0625 L 1496.027344 261.964844 L 1458.320312 261.964844 L 1458.320312 349.957031 L 1194.167969 349.957031 L 1194.167969 438.0625 L 930.027344 438.0625 L 930.027344 614.148438 L 879.675781 614.148438 L 879.675781 438.0625 L 841.957031 438.0625 L 841.957031 526.105469 L 753.929688 526.105469 L 753.929688 563.769531 L 841.957031 563.769531 L 841.957031 739.859375 L 879.675781 739.859375 L 879.675781 651.824219 L 930.027344 651.824219 L 930.027344 827.921875 L 1282.195312 827.921875 L 1282.195312 878.25 L 1018.054688 878.25 L 1018.054688 915.957031 L 1194.167969 915.957031 L 1194.167969 1004.035156 L 1231.84375 1004.035156 L 1231.84375 915.957031 L 1319.921875 915.957031 L 1319.921875 563.769531 L 1407.957031 563.769531 L 1407.957031 526.105469 L 1319.921875 526.105469 L 1319.921875 438.0625 L 1231.84375 438.0625 L 1231.84375 387.699219 L 1458.320312 387.699219 L 1458.320312 438.0625 L 1370.230469 438.0625 L 1370.230469 475.746094 L 1458.320312 475.746094 L 1458.320312 614.148438 L 1370.230469 614.148438 L 1370.230469 827.921875 L 1458.320312 827.921875 L 1458.320312 915.957031 L 1496.027344 915.957031 L 1496.027344 790.222656 L 1407.957031 790.222656 L 1407.957031 651.824219 L 1584.054688 651.824219 L 1584.054688 614.148438 L 1496.027344 614.148438 L 1496.027344 475.746094 L 1634.375 475.746094 L 1634.375 526.105469 L 1546.378906 526.105469 L 1546.378906 563.769531 L 1634.375 563.769531 L 1634.375 702.117188 L 1458.320312 702.117188 L 1458.320312 739.859375 L 1546.378906 739.859375 L 1546.378906 915.957031 L 1584.054688 915.957031 L 1584.054688 739.859375 L 1634.375 739.859375 L 1634.375 1054.335938 L 1584.054688 1054.335938 L 1584.054688 966.308594 L 1546.378906 966.308594 L 1546.378906 1092.0625 L 1672.097656 1092.0625 L 1672.097656 85.847656 L 577.847656 85.847656 " fill-opacity="1" fill-rule="nonzero"/></g><g clip-path="url(#bb5644ad4e)"><path fill="#000000" d="M 1496.027344 966.308594 L 1407.957031 966.308594 L 1407.957031 878.25 L 1370.230469 878.25 L 1370.230469 1004.035156 L 1458.320312 1004.035156 L 1458.320312 1054.335938 L 1319.921875 1054.335938 L 1319.921875 966.308594 L 1282.195312 966.308594 L 1282.195312 1054.335938 L 1194.167969 1054.335938 L 1194.167969 1092.0625 L 1458.320312 1092.0625 L 1458.320312 1142.390625 L 1143.859375 1142.390625 L 1143.859375 1054.335938 L 1106.148438 1054.335938 L 1106.148438 1142.390625 L 879.675781 1142.390625 L 879.675781 1092.0625 L 1055.78125 1092.0625 L 1055.78125 1054.335938 L 967.726562 1054.335938 L 967.726562 1004.035156 L 1143.859375 1004.035156 L 1143.859375 966.308594 L 930.027344 966.308594 L 930.027344 1054.335938 L 841.957031 1054.335938 L 841.957031 1142.390625 L 791.691406 1142.390625 L 791.691406 1004.035156 L 879.675781 1004.035156 L 879.675781 915.957031 L 967.726562 915.957031 L 967.726562 878.25 L 879.675781 878.25 L 879.675781 790.222656 L 841.957031 790.222656 L 841.957031 966.308594 L 665.875 966.308594 L 665.875 1084.265625 L 703.609375 1084.265625 L 703.609375 1004.035156 L 753.929688 1004.035156 L 753.929688 1142.390625 L 615.566406 1142.390625 L 615.566406 915.957031 L 791.691406 915.957031 L 791.691406 614.148438 L 753.929688 614.148438 L 753.929688 790.222656 L 665.875 790.222656 L 665.875 827.921875 L 753.929688 827.921875 L 753.929688 878.25 L 615.566406 878.25 L 615.566406 739.859375 L 703.609375 739.859375 L 703.609375 475.746094 L 791.691406 475.746094 L 791.691406 438.0625 L 665.875 438.0625 L 665.875 702.117188 L 615.566406 702.117188 L 615.566406 387.699219 L 879.675781 387.699219 L 879.675781 349.957031 L 791.691406 349.957031 L 791.691406 261.964844 L 753.929688 261.964844 L 753.929688 349.957031 L 615.566406 349.957031 L 615.566406 211.609375 L 665.875 211.609375 L 665.875 299.671875 L 703.609375 299.671875 L 703.609375 173.929688 L 577.847656 173.929688 L 577.847656 1180.097656 L 1672.097656 1180.097656 L 1672.097656 1142.390625 L 1496.027344 1142.390625 L 1496.027344 966.308594 " fill-opacity="1" fill-rule="nonzero"/></g></svg>