<svg xmlns="http://www.w3.org/2000/svg" xmlns:xlink="http://www.w3.org/1999/xlink" zoomAndPan="magnify" preserveAspectRatio="xMidYMid meet" version="1.0" viewBox="81.49 314.89 638.53 179.96"><defs><g/><clipPath id="0a3f9f0bad"><path d="M 152.285156 393.636719 L 174.742188 393.636719 L 174.742188 416.097656 L 152.285156 416.097656 Z M 152.285156 393.636719 " clip-rule="nonzero"/></clipPath><clipPath id="86123903ed"><path d="M 163.511719 393.636719 C 157.3125 393.636719 152.285156 398.664062 152.285156 404.867188 C 152.285156 411.070312 157.3125 416.097656 163.511719 416.097656 C 169.714844 416.097656 174.742188 411.070312 174.742188 404.867188 C 174.742188 398.664062 169.714844 393.636719 163.511719 393.636719 Z M 163.511719 393.636719 " clip-rule="nonzero"/></clipPath><clipPath id="ecbb8ca5a4"><path d="M 153.886719 335.886719 L 173.136719 335.886719 L 173.136719 355.136719 L 153.886719 355.136719 Z M 153.886719 335.886719 " clip-rule="nonzero"/></clipPath><clipPath id="033f0c2b8a"><path d="M 163.511719 335.886719 C 158.199219 335.886719 153.886719 340.195312 153.886719 345.511719 C 153.886719 350.828125 158.199219 355.136719 163.511719 355.136719 C 168.828125 355.136719 173.136719 350.828125 173.136719 345.511719 C 173.136719 340.195312 168.828125 335.886719 163.511719 335.886719 Z M 163.511719 335.886719 " clip-rule="nonzero"/></clipPath><clipPath id="bc95f33b08"><path d="M 153.886719 454.597656 L 173.136719 454.597656 L 173.136719 473.847656 L 153.886719 473.847656 Z M 153.886719 454.597656 " clip-rule="nonzero"/></clipPath><clipPath id="dfdbef7629"><path d="M 163.511719 454.597656 C 158.199219 454.597656 153.886719 458.90625 153.886719 464.222656 C 153.886719 469.535156 158.199219 473.847656 163.511719 473.847656 C 168.828125 473.847656 173.136719 469.535156 173.136719 464.222656 C 173.136719 458.90625 168.828125 454.597656 163.511719 454.597656 Z M 163.511719 454.597656 " clip-rule="nonzero"/></clipPath><clipPath id="30c79df76d"><path d="M 205.285156 365.566406 L 224.535156 365.566406 L 224.535156 384.816406 L 205.285156 384.816406 Z M 205.285156 365.566406 " clip-rule="nonzero"/></clipPath><clipPath id="fb524bb970"><path d="M 214.910156 365.566406 C 209.59375 365.566406 205.285156 369.875 205.285156 375.191406 C 205.285156 380.503906 209.59375 384.816406 214.910156 384.816406 C 220.226562 384.816406 224.535156 380.503906 224.535156 375.191406 C 224.535156 369.875 220.226562 365.566406 214.910156 365.566406 Z M 214.910156 365.566406 " clip-rule="nonzero"/></clipPath><clipPath id="5d6c772912"><path d="M 205.285156 424.917969 L 224.535156 424.917969 L 224.535156 444.167969 L 205.285156 444.167969 Z M 205.285156 424.917969 " clip-rule="nonzero"/></clipPath><clipPath id="58c22ffd74"><path d="M 214.910156 424.917969 C 209.59375 424.917969 205.285156 429.226562 205.285156 434.542969 C 205.285156 439.859375 209.59375 444.167969 214.910156 444.167969 C 220.226562 444.167969 224.535156 439.859375 224.535156 434.542969 C 224.535156 429.226562 220.226562 424.917969 214.910156 424.917969 Z M 214.910156 424.917969 " clip-rule="nonzero"/></clipPath><clipPath id="f176cdd5d5"><path d="M 102.492188 365.566406 L 121.742188 365.566406 L 121.742188 384.816406 L 102.492188 384.816406 Z M 102.492188 365.566406 " clip-rule="nonzero"/></clipPath><clipPath id="f2235f9934"><path d="M 112.117188 365.566406 C 106.800781 365.566406 102.492188 369.875 102.492188 375.191406 C 102.492188 380.503906 106.800781 384.816406 112.117188 384.816406 C 117.433594 384.816406 121.742188 380.503906 121.742188 375.191406 C 121.742188 369.875 117.433594 365.566406 112.117188 365.566406 Z M 112.117188 365.566406 " clip-rule="nonzero"/></clipPath><clipPath id="fc94f6df21"><path d="M 102.492188 424.917969 L 121.742188 424.917969 L 121.742188 444.167969 L 102.492188 444.167969 Z M 102.492188 424.917969 " clip-rule="nonzero"/></clipPath><clipPath id="2b63030bcb"><path d="M 112.117188 424.917969 C 106.800781 424.917969 102.492188 429.226562 102.492188 434.542969 C 102.492188 439.859375 106.800781 444.167969 112.117188 444.167969 C 117.433594 444.167969 121.742188 439.859375 121.742188 434.542969 C 121.742188 429.226562 117.433594 424.917969 112.117188 424.917969 Z M 112.117188 424.917969 " clip-rule="nonzero"/></clipPath><clipPath id="f4ee546a82"><rect x="0" width="492" y="0" height="76"/></clipPath><clipPath id="e722407f2f"><rect x="0" width="478" y="0" height="46"/></clipPath></defs><g clip-path="url(#0a3f9f0bad)"><g clip-path="url(#86123903ed)"><path stroke-linecap="butt" transform="matrix(0.160417, 0, 0, 0.160417, 152.28398, 393.637471)" fill="none" stroke-linejoin="miter" d="M 69.991102 -0.00469182 C 31.34662 -0.00469182 0.00733347 31.334595 0.00733347 70.003427 C 0.00733347 108.67226 31.34662 140.011546 69.991102 140.011546 C 108.659934 140.011546 139.999221 108.67226 139.999221 70.003427 C 139.999221 31.334595 108.659934 -0.00469182 69.991102 -0.00469182 Z M 69.991102 -0.00469182 " stroke="#000000" stroke-width="42" stroke-opacity="1" stroke-miterlimit="4"/></g></g><g clip-path="url(#ecbb8ca5a4)"><g clip-path="url(#033f0c2b8a)"><path stroke-linecap="butt" transform="matrix(0.160417, 0, 0, 0.160417, 153.888159, 335.887474)" fill="none" stroke-linejoin="miter" d="M 59.991024 -0.00470993 C 26.87414 -0.00470993 -0.00897792 26.854057 -0.00897792 59.995292 C -0.00897792 93.136527 26.87414 119.995294 59.991024 119.995294 C 93.132259 119.995294 119.991026 93.136527 119.991026 59.995292 C 119.991026 26.854057 93.132259 -0.00470993 59.991024 -0.00470993 Z M 59.991024 -0.00470993 " stroke="#000000" stroke-width="42" stroke-opacity="1" stroke-miterlimit="4"/></g></g><g clip-path="url(#bc95f33b08)"><g clip-path="url(#dfdbef7629)"><path stroke-linecap="butt" transform="matrix(0.160417, 0, 0, 0.160417, 153.888159, 454.595805)" fill="none" stroke-linejoin="miter" d="M 59.991024 0.0115395 C 26.87414 0.0115395 -0.00897792 26.870307 -0.00897792 60.011541 C -0.00897792 93.128426 26.87414 120.011543 59.991024 120.011543 C 93.132259 120.011543 119.991026 93.128426 119.991026 60.011541 C 119.991026 26.870307 93.132259 0.0115395 59.991024 0.0115395 Z M 59.991024 0.0115395 " stroke="#000000" stroke-width="42" stroke-opacity="1" stroke-miterlimit="4"/></g></g><g clip-path="url(#30c79df76d)"><g clip-path="url(#fb524bb970)"><path stroke-linecap="butt" transform="matrix(0.160417, 0, 0, 0.160417, 205.285656, 365.564562)" fill="none" stroke-linejoin="miter" d="M 59.996884 0.0114941 C 26.855649 0.0114941 -0.00311765 26.870261 -0.00311765 60.011496 C -0.00311765 93.12838 26.855649 120.011498 59.996884 120.011498 C 93.138119 120.011498 119.996886 93.12838 119.996886 60.011496 C 119.996886 26.870261 93.138119 0.0114941 59.996884 0.0114941 Z M 59.996884 0.0114941 " stroke="#000000" stroke-width="42" stroke-opacity="1" stroke-miterlimit="4"/></g></g><g clip-path="url(#5d6c772912)"><g clip-path="url(#58c22ffd74)"><path stroke-linecap="butt" transform="matrix(0.160417, 0, 0, 0.160417, 205.285656, 424.918703)" fill="none" stroke-linejoin="miter" d="M 59.996884 -0.00457479 C 26.855649 -0.00457479 -0.00311765 26.854192 -0.00311765 59.995427 C -0.00311765 93.136662 26.855649 119.995429 59.996884 119.995429 C 93.138119 119.995429 119.996886 93.136662 119.996886 59.995427 C 119.996886 26.854192 93.138119 -0.00457479 59.996884 -0.00457479 Z M 59.996884 -0.00457479 " stroke="#000000" stroke-width="42" stroke-opacity="1" stroke-miterlimit="4"/></g></g><g clip-path="url(#f176cdd5d5)"><g clip-path="url(#f2235f9934)"><path stroke-linecap="butt" transform="matrix(0.160417, 0, 0, 0.160417, 102.490662, 365.564562)" fill="none" stroke-linejoin="miter" d="M 60.009514 0.0114941 C 26.86828 0.0114941 0.00951245 26.870261 0.00951245 60.011496 C 0.00951245 93.12838 26.86828 120.011498 60.009514 120.011498 C 93.150749 120.011498 120.009516 93.12838 120.009516 60.011496 C 120.009516 26.870261 93.150749 0.0114941 60.009514 0.0114941 Z M 60.009514 0.0114941 " stroke="#000000" stroke-width="42" stroke-opacity="1" stroke-miterlimit="4"/></g></g><g clip-path="url(#fc94f6df21)"><g clip-path="url(#2b63030bcb)"><path stroke-linecap="butt" transform="matrix(0.160417, 0, 0, 0.160417, 102.490662, 424.918703)" fill="none" stroke-linejoin="miter" d="M 60.009514 -0.00457479 C 26.86828 -0.00457479 0.00951245 26.854192 0.00951245 59.995427 C 0.00951245 93.136662 26.86828 119.995429 60.009514 119.995429 C 93.150749 119.995429 120.009516 93.136662 120.009516 59.995427 C 120.009516 26.854192 93.150749 -0.00457479 60.009514 -0.00457479 Z M 60.009514 -0.00457479 " stroke="#000000" stroke-width="42" stroke-opacity="1" stroke-miterlimit="4"/></g></g><path stroke-linecap="butt" transform="matrix(0.138925, 0.0802083, -0.0802083, 0.138925, 171.7468, 348.318986)" fill="none" stroke-linejoin="miter" d="M 0.00773364 10.492985 L 267.913345 10.493122 " stroke="#000000" stroke-width="21" stroke-opacity="1" stroke-miterlimit="4"/><path stroke-linecap="butt" transform="matrix(0, 0.160417, -0.160417, 0, 216.593841, 383.813439)" fill="none" stroke-linejoin="miter" d="M -0.00585407 10.4957 L 263.054219 10.4957 " stroke="#000000" stroke-width="21" stroke-opacity="1" stroke-miterlimit="4"/><path stroke-linecap="butt" transform="matrix(-0.138925, 0.0802083, -0.0802083, -0.138925, 208.132111, 440.408446)" fill="none" stroke-linejoin="miter" d="M 0.00304347 10.505469 L 261.898198 10.493671 " stroke="#000000" stroke-width="21" stroke-opacity="1" stroke-miterlimit="4"/><path stroke-linecap="butt" transform="matrix(-0.138925, -0.0802083, 0.0802083, -0.138925, 155.277915, 461.414229)" fill="none" stroke-linejoin="miter" d="M -0.0100708 10.494917 L 261.885083 10.506715 " stroke="#000000" stroke-width="21" stroke-opacity="1" stroke-miterlimit="4"/><path stroke-linecap="butt" transform="matrix(0, -0.160417, 0.160417, 0, 110.430094, 426.010511)" fill="none" stroke-linejoin="miter" d="M -0.00753152 10.492597 L 263.052542 10.492597 " stroke="#000000" stroke-width="21" stroke-opacity="1" stroke-miterlimit="4"/><path stroke-linecap="butt" transform="matrix(0.138925, -0.0802083, 0.0802083, 0.138925, 118.894781, 369.324258)" fill="none" stroke-linejoin="miter" d="M 0.0124487 10.494809 L 261.895428 10.504099 " stroke="#000000" stroke-width="21" stroke-opacity="1" stroke-miterlimit="4"/><path stroke-linecap="butt" transform="matrix(0.000000000279981, 0.160417, -0.160417, 0.000000000279981, 165.197294, 415.002911)" fill="none" stroke-linejoin="miter" d="M 0.00620338 10.507485 L 251.353614 10.507485 " stroke="#000000" stroke-width="21" stroke-opacity="1" stroke-miterlimit="4"/><path stroke-linecap="butt" transform="matrix(-0.138925, 0.0802083, -0.0802083, -0.138925, 154.730314, 411.879383)" fill="none" stroke-linejoin="miter" d="M 0.0113508 10.497893 L 251.945312 10.499127 " stroke="#000000" stroke-width="21" stroke-opacity="1" stroke-miterlimit="4"/><path stroke-linecap="butt" transform="matrix(0.138925, 0.0802083, -0.0802083, 0.138925, 172.7056, 408.231215)" fill="none" stroke-linejoin="miter" d="M 0.00389997 10.508397 L 261.013986 10.496952 " stroke="#000000" stroke-width="21" stroke-opacity="1" stroke-miterlimit="4"/><path stroke-linecap="butt" transform="matrix(0.138925, -0.0802083, 0.0802083, 0.138925, 171.021117, 398.589228)" fill="none" stroke-linejoin="miter" d="M 0.00319065 10.49418 L 255.057172 10.497226 " stroke="#000000" stroke-width="21" stroke-opacity="1" stroke-miterlimit="4"/><path stroke-linecap="butt" transform="matrix(-0.138925, -0.0802083, 0.0802083, -0.138925, 154.326997, 401.506641)" fill="none" stroke-linejoin="miter" d="M 0.00984884 10.501907 L 255.06383 10.498862 " stroke="#000000" stroke-width="21" stroke-opacity="1" stroke-miterlimit="4"/><path stroke-linecap="butt" transform="matrix(0, -0.160417, 0.160417, 0, 161.828199, 394.365675)" fill="none" stroke-linejoin="miter" d="M -0.00943131 10.494672 L 249.09772 10.494672 " stroke="#000000" stroke-width="21" stroke-opacity="1" stroke-miterlimit="4"/><g transform="matrix(1, 0, 0, 1, 247, 350)"><g clip-path="url(#f4ee546a82)"><g fill="#cfcfcd" fill-opacity="0.4"><g transform="translate(4.456885, 64.129439)"><g><path d="M 4.8125 0 L 4.8125 -8.40625 L 41 -8.40625 L 41 -17.421875 L 13.21875 -17.421875 L 4.8125 -25.828125 L 4.8125 -34.84375 L 13.140625 -43.171875 L 13.140625 -43.25 L 49.40625 -43.25 L 49.40625 -34.84375 L 13.21875 -34.84375 L 13.21875 -25.828125 L 41 -25.828125 L 49.40625 -17.421875 L 49.40625 -8.40625 L 41.078125 -0.078125 L 41.078125 0 Z M 4.8125 0 "/></g></g></g><g fill="#cfcfcd" fill-opacity="0.4"><g transform="translate(73.616657, 64.129439)"><g><path d="M 4.8125 0 L 4.8125 -34.84375 L 13.21875 -43.25 L 42.5 -43.25 L 50.90625 -34.84375 L 50.90625 0 L 42.5 0 L 42.5 -17.421875 L 13.21875 -17.421875 L 13.21875 0 Z M 13.21875 -25.828125 L 42.5 -25.828125 L 42.5 -34.84375 L 13.21875 -34.84375 Z M 13.21875 -25.828125 "/></g></g></g><g fill="#cfcfcd" fill-opacity="0.4"><g transform="translate(144.278276, 64.129439)"><g><path d="M 4.8125 0 L 4.8125 -34.84375 L 13.21875 -43.25 L 42.5 -43.25 L 50.90625 -34.84375 L 50.90625 0 L 42.5 0 L 42.5 -34.84375 L 13.21875 -34.84375 L 13.21875 0 Z M 4.8125 0 "/></g></g></g><g fill="#cfcfcd" fill-opacity="0.4"><g transform="translate(214.939895, 64.129439)"><g><path d="M 4.8125 0 L 4.8125 -34.84375 L 13.21875 -43.25 L 50.765625 -43.25 L 50.765625 -34.84375 L 13.21875 -34.84375 L 13.21875 -25.828125 L 41 -25.828125 L 41 -17.421875 L 13.21875 -17.421875 L 13.21875 0 Z M 4.8125 0 "/></g></g></g><g fill="#cfcfcd" fill-opacity="0.4"><g transform="translate(285.451327, 64.129439)"><g><path d="M 4.8125 0 L 4.8125 -34.84375 L 13.21875 -43.25 L 46.25 -43.25 L 46.25 -34.84375 L 13.21875 -34.84375 L 13.21875 0 Z M 4.8125 0 "/></g></g></g><g fill="#cfcfcd" fill-opacity="0.4"><g transform="translate(351.457242, 64.129439)"><g><path d="M 4.8125 0 L 4.8125 -34.84375 L 13.21875 -43.25 L 42.5 -43.25 L 50.90625 -34.84375 L 50.90625 0 L 42.5 0 L 42.5 -17.421875 L 13.21875 -17.421875 L 13.21875 0 Z M 13.21875 -25.828125 L 42.5 -25.828125 L 42.5 -34.84375 L 13.21875 -34.84375 Z M 13.21875 -25.828125 "/></g></g></g><g fill="#cfcfcd" fill-opacity="0.4"><g transform="translate(422.118862, 64.129439)"><g><path d="M 4.8125 0 L 4.8125 -34.84375 L 13.21875 -43.25 L 42.5 -43.25 L 50.90625 -34.84375 L 50.90625 0 L 42.5 0 L 42.5 -34.84375 L 13.21875 -34.84375 L 13.21875 0 Z M 4.8125 0 "/></g></g></g><g fill="#000000" fill-opacity="1"><g transform="translate(1.138253, 60.810807)"><g><path d="M 4.8125 0 L 4.8125 -8.40625 L 41 -8.40625 L 41 -17.421875 L 13.21875 -17.421875 L 4.8125 -25.828125 L 4.8125 -34.84375 L 13.140625 -43.171875 L 13.140625 -43.25 L 49.40625 -43.25 L 49.40625 -34.84375 L 13.21875 -34.84375 L 13.21875 -25.828125 L 41 -25.828125 L 49.40625 -17.421875 L 49.40625 -8.40625 L 41.078125 -0.078125 L 41.078125 0 Z M 4.8125 0 "/></g></g></g><g fill="#000000" fill-opacity="1"><g transform="translate(70.298024, 60.810807)"><g><path d="M 4.8125 0 L 4.8125 -34.84375 L 13.21875 -43.25 L 42.5 -43.25 L 50.90625 -34.84375 L 50.90625 0 L 42.5 0 L 42.5 -17.421875 L 13.21875 -17.421875 L 13.21875 0 Z M 13.21875 -25.828125 L 42.5 -25.828125 L 42.5 -34.84375 L 13.21875 -34.84375 Z M 13.21875 -25.828125 "/></g></g></g><g fill="#000000" fill-opacity="1"><g transform="translate(140.959643, 60.810807)"><g><path d="M 4.8125 0 L 4.8125 -34.84375 L 13.21875 -43.25 L 42.5 -43.25 L 50.90625 -34.84375 L 50.90625 0 L 42.5 0 L 42.5 -34.84375 L 13.21875 -34.84375 L 13.21875 0 Z M 4.8125 0 "/></g></g></g><g fill="#000000" fill-opacity="1"><g transform="translate(211.621263, 60.810807)"><g><path d="M 4.8125 0 L 4.8125 -34.84375 L 13.21875 -43.25 L 50.765625 -43.25 L 50.765625 -34.84375 L 13.21875 -34.84375 L 13.21875 -25.828125 L 41 -25.828125 L 41 -17.421875 L 13.21875 -17.421875 L 13.21875 0 Z M 4.8125 0 "/></g></g></g><g fill="#000000" fill-opacity="1"><g transform="translate(282.132694, 60.810807)"><g><path d="M 4.8125 0 L 4.8125 -34.84375 L 13.21875 -43.25 L 46.25 -43.25 L 46.25 -34.84375 L 13.21875 -34.84375 L 13.21875 0 Z M 4.8125 0 "/></g></g></g><g fill="#000000" fill-opacity="1"><g transform="translate(348.13861, 60.810807)"><g><path d="M 4.8125 0 L 4.8125 -34.84375 L 13.21875 -43.25 L 42.5 -43.25 L 50.90625 -34.84375 L 50.90625 0 L 42.5 0 L 42.5 -17.421875 L 13.21875 -17.421875 L 13.21875 0 Z M 13.21875 -25.828125 L 42.5 -25.828125 L 42.5 -34.84375 L 13.21875 -34.84375 Z M 13.21875 -25.828125 "/></g></g></g><g fill="#000000" fill-opacity="1"><g transform="translate(418.800229, 60.810807)"><g><path d="M 4.8125 0 L 4.8125 -34.84375 L 13.21875 -43.25 L 42.5 -43.25 L 50.90625 -34.84375 L 50.90625 0 L 42.5 0 L 42.5 -34.84375 L 13.21875 -34.84375 L 13.21875 0 Z M 4.8125 0 "/></g></g></g></g></g><g transform="matrix(1, 0, 0, 1, 250, 410)"><g clip-path="url(#e722407f2f)"><g fill="#cfcfcd" fill-opacity="0.4"><g transform="translate(1.888953, 35.948834)"><g><path d="M 2.65625 -2.1875 L 8.140625 -2.1875 L 8.140625 -19.140625 L 2.828125 -19.140625 L 2.828125 -21.328125 L 10.515625 -21.328125 L 10.515625 -2.1875 L 16 -2.1875 L 16 0 L 2.65625 0 Z M 2.65625 -2.1875 "/></g></g></g><g fill="#cfcfcd" fill-opacity="0.4"><g transform="translate(28.353406, 35.948834)"><g><path d="M 13.625 -2.5625 L 13.25 -2.5625 C 12.757812 -1.539062 12.082031 -0.785156 11.21875 -0.296875 C 10.363281 0.179688 9.457031 0.421875 8.5 0.421875 C 7.5 0.421875 6.570312 0.253906 5.71875 -0.078125 C 4.875 -0.410156 4.128906 -0.90625 3.484375 -1.5625 C 2.847656 -2.226562 2.347656 -3.035156 1.984375 -3.984375 C 1.617188 -4.941406 1.4375 -6.050781 1.4375 -7.3125 L 1.4375 -7.796875 C 1.4375 -9.035156 1.617188 -10.128906 1.984375 -11.078125 C 2.347656 -12.035156 2.847656 -12.84375 3.484375 -13.5 C 4.128906 -14.164062 4.875 -14.671875 5.71875 -15.015625 C 6.570312 -15.359375 7.476562 -15.53125 8.4375 -15.53125 C 9.476562 -15.53125 10.414062 -15.300781 11.25 -14.84375 C 12.09375 -14.394531 12.757812 -13.691406 13.25 -12.734375 L 13.625 -12.734375 L 13.625 -15.109375 L 16 -15.109375 L 16 -3.109375 C 16 -2.492188 16.269531 -2.1875 16.8125 -2.1875 L 17.578125 -2.1875 L 17.578125 0 L 15.96875 0 C 15.269531 0 14.703125 -0.222656 14.265625 -0.671875 C 13.835938 -1.117188 13.625 -1.6875 13.625 -2.375 Z M 8.75 -1.828125 C 9.457031 -1.828125 10.109375 -1.957031 10.703125 -2.21875 C 11.304688 -2.488281 11.820312 -2.863281 12.25 -3.34375 C 12.675781 -3.832031 13.007812 -4.414062 13.25 -5.09375 C 13.5 -5.78125 13.625 -6.539062 13.625 -7.375 L 13.625 -7.734375 C 13.625 -8.546875 13.5 -9.289062 13.25 -9.96875 C 13.007812 -10.65625 12.671875 -11.242188 12.234375 -11.734375 C 11.796875 -12.222656 11.273438 -12.601562 10.671875 -12.875 C 10.078125 -13.144531 9.4375 -13.28125 8.75 -13.28125 C 8.03125 -13.28125 7.375 -13.144531 6.78125 -12.875 C 6.195312 -12.613281 5.6875 -12.242188 5.25 -11.765625 C 4.8125 -11.296875 4.472656 -10.71875 4.234375 -10.03125 C 3.992188 -9.351562 3.875 -8.609375 3.875 -7.796875 L 3.875 -7.3125 C 3.875 -5.582031 4.320312 -4.234375 5.21875 -3.265625 C 6.125 -2.304688 7.300781 -1.828125 8.75 -1.828125 Z M 8.75 -1.828125 "/></g></g></g><g fill="#cfcfcd" fill-opacity="0.4"><g transform="translate(54.817858, 35.948834)"><g><path d="M 15.71875 0 L 11.328125 0 L 9.5 -14.015625 L 9.140625 -14.015625 L 7.3125 0 L 2.921875 0 L 0.546875 -15.109375 L 2.984375 -15.109375 L 5 -1.09375 L 5.359375 -1.09375 L 7.125 -15.109375 L 11.515625 -15.109375 L 13.28125 -1.09375 L 13.65625 -1.09375 L 15.65625 -15.109375 L 18.09375 -15.109375 Z M 15.71875 0 "/></g></g></g><g fill="#cfcfcd" fill-opacity="0.4"><g transform="translate(81.282311, 35.948834)"><g/></g></g><g fill="#cfcfcd" fill-opacity="0.4"><g transform="translate(107.746763, 35.948834)"><g><path d="M 7.34375 -19.625 C 7.34375 -20.207031 7.550781 -20.707031 7.96875 -21.125 C 8.382812 -21.539062 8.882812 -21.75 9.46875 -21.75 C 10.0625 -21.75 10.566406 -21.539062 10.984375 -21.125 C 11.398438 -20.707031 11.609375 -20.207031 11.609375 -19.625 C 11.609375 -19.03125 11.398438 -18.523438 10.984375 -18.109375 C 10.566406 -17.691406 10.0625 -17.484375 9.46875 -17.484375 C 8.882812 -17.484375 8.382812 -17.691406 7.96875 -18.109375 C 7.550781 -18.523438 7.34375 -19.03125 7.34375 -19.625 Z M 3.015625 -2.1875 L 8.3125 -2.1875 L 8.3125 -12.921875 L 3.5625 -12.921875 L 3.5625 -15.109375 L 10.6875 -15.109375 L 10.6875 -2.1875 L 15.625 -2.1875 L 15.625 0 L 3.015625 0 Z M 3.015625 -2.1875 "/></g></g></g><g fill="#cfcfcd" fill-opacity="0.4"><g transform="translate(134.211216, 35.948834)"><g><path d="M 5.03125 0 L 2.65625 0 L 2.65625 -15.109375 L 5.03125 -15.109375 L 5.03125 -12.546875 L 5.390625 -12.546875 C 6.328125 -14.535156 7.953125 -15.53125 10.265625 -15.53125 C 12.015625 -15.53125 13.40625 -14.988281 14.4375 -13.90625 C 15.476562 -12.820312 16 -11.191406 16 -9.015625 L 16 0 L 13.625 0 L 13.625 -8.53125 C 13.625 -10.113281 13.265625 -11.300781 12.546875 -12.09375 C 11.835938 -12.882812 10.875 -13.28125 9.65625 -13.28125 C 8.21875 -13.28125 7.085938 -12.785156 6.265625 -11.796875 C 5.441406 -10.816406 5.03125 -9.503906 5.03125 -7.859375 Z M 5.03125 0 "/></g></g></g><g fill="#cfcfcd" fill-opacity="0.4"><g transform="translate(160.675668, 35.948834)"><g><path d="M 5.03125 0 L 2.65625 0 L 2.65625 -15.109375 L 5.03125 -15.109375 L 5.03125 -12.546875 L 5.390625 -12.546875 C 6.328125 -14.535156 7.953125 -15.53125 10.265625 -15.53125 C 12.015625 -15.53125 13.40625 -14.988281 14.4375 -13.90625 C 15.476562 -12.820312 16 -11.191406 16 -9.015625 L 16 0 L 13.625 0 L 13.625 -8.53125 C 13.625 -10.113281 13.265625 -11.300781 12.546875 -12.09375 C 11.835938 -12.882812 10.875 -13.28125 9.65625 -13.28125 C 8.21875 -13.28125 7.085938 -12.785156 6.265625 -11.796875 C 5.441406 -10.816406 5.03125 -9.503906 5.03125 -7.859375 Z M 5.03125 0 "/></g></g></g><g fill="#cfcfcd" fill-opacity="0.4"><g transform="translate(187.140121, 35.948834)"><g><path d="M 16.90625 -7.375 C 16.90625 -6.113281 16.695312 -5 16.28125 -4.03125 C 15.863281 -3.070312 15.3125 -2.257812 14.625 -1.59375 C 13.9375 -0.9375 13.128906 -0.4375 12.203125 -0.09375 C 11.273438 0.25 10.316406 0.421875 9.328125 0.421875 C 8.304688 0.421875 7.335938 0.25 6.421875 -0.09375 C 5.515625 -0.4375 4.710938 -0.9375 4.015625 -1.59375 C 3.328125 -2.257812 2.773438 -3.070312 2.359375 -4.03125 C 1.941406 -5 1.734375 -6.113281 1.734375 -7.375 L 1.734375 -7.734375 C 1.734375 -8.972656 1.941406 -10.070312 2.359375 -11.03125 C 2.773438 -12 3.332031 -12.816406 4.03125 -13.484375 C 4.738281 -14.160156 5.546875 -14.671875 6.453125 -15.015625 C 7.367188 -15.359375 8.328125 -15.53125 9.328125 -15.53125 C 10.316406 -15.53125 11.269531 -15.359375 12.1875 -15.015625 C 13.101562 -14.671875 13.910156 -14.160156 14.609375 -13.484375 C 15.304688 -12.816406 15.863281 -12 16.28125 -11.03125 C 16.695312 -10.070312 16.90625 -8.972656 16.90625 -7.734375 Z M 9.328125 -1.828125 C 10.054688 -1.828125 10.726562 -1.953125 11.34375 -2.203125 C 11.96875 -2.460938 12.515625 -2.832031 12.984375 -3.3125 C 13.453125 -3.800781 13.816406 -4.382812 14.078125 -5.0625 C 14.335938 -5.75 14.46875 -6.519531 14.46875 -7.375 L 14.46875 -7.734375 C 14.46875 -8.546875 14.335938 -9.289062 14.078125 -9.96875 C 13.816406 -10.65625 13.453125 -11.242188 12.984375 -11.734375 C 12.515625 -12.222656 11.960938 -12.601562 11.328125 -12.875 C 10.703125 -13.144531 10.035156 -13.28125 9.328125 -13.28125 C 8.609375 -13.28125 7.9375 -13.144531 7.3125 -12.875 C 6.6875 -12.601562 6.140625 -12.222656 5.671875 -11.734375 C 5.203125 -11.242188 4.832031 -10.65625 4.5625 -9.96875 C 4.300781 -9.289062 4.171875 -8.546875 4.171875 -7.734375 L 4.171875 -7.375 C 4.171875 -6.519531 4.300781 -5.75 4.5625 -5.0625 C 4.832031 -4.382812 5.203125 -3.800781 5.671875 -3.3125 C 6.140625 -2.832031 6.679688 -2.460938 7.296875 -2.203125 C 7.910156 -1.953125 8.585938 -1.828125 9.328125 -1.828125 Z M 9.328125 -1.828125 "/></g></g></g><g fill="#cfcfcd" fill-opacity="0.4"><g transform="translate(213.604573, 35.948834)"><g><path d="M 11.640625 0 L 6.953125 0 L 1.671875 -15.109375 L 4.484375 -15.109375 L 9.109375 -1.09375 L 9.46875 -1.09375 L 14.109375 -15.109375 L 16.90625 -15.109375 Z M 11.640625 0 "/></g></g></g><g fill="#cfcfcd" fill-opacity="0.4"><g transform="translate(240.069025, 35.948834)"><g><path d="M 13.625 -2.5625 L 13.25 -2.5625 C 12.757812 -1.539062 12.082031 -0.785156 11.21875 -0.296875 C 10.363281 0.179688 9.457031 0.421875 8.5 0.421875 C 7.5 0.421875 6.570312 0.253906 5.71875 -0.078125 C 4.875 -0.410156 4.128906 -0.90625 3.484375 -1.5625 C 2.847656 -2.226562 2.347656 -3.035156 1.984375 -3.984375 C 1.617188 -4.941406 1.4375 -6.050781 1.4375 -7.3125 L 1.4375 -7.796875 C 1.4375 -9.035156 1.617188 -10.128906 1.984375 -11.078125 C 2.347656 -12.035156 2.847656 -12.84375 3.484375 -13.5 C 4.128906 -14.164062 4.875 -14.671875 5.71875 -15.015625 C 6.570312 -15.359375 7.476562 -15.53125 8.4375 -15.53125 C 9.476562 -15.53125 10.414062 -15.300781 11.25 -14.84375 C 12.09375 -14.394531 12.757812 -13.691406 13.25 -12.734375 L 13.625 -12.734375 L 13.625 -15.109375 L 16 -15.109375 L 16 -3.109375 C 16 -2.492188 16.269531 -2.1875 16.8125 -2.1875 L 17.578125 -2.1875 L 17.578125 0 L 15.96875 0 C 15.269531 0 14.703125 -0.222656 14.265625 -0.671875 C 13.835938 -1.117188 13.625 -1.6875 13.625 -2.375 Z M 8.75 -1.828125 C 9.457031 -1.828125 10.109375 -1.957031 10.703125 -2.21875 C 11.304688 -2.488281 11.820312 -2.863281 12.25 -3.34375 C 12.675781 -3.832031 13.007812 -4.414062 13.25 -5.09375 C 13.5 -5.78125 13.625 -6.539062 13.625 -7.375 L 13.625 -7.734375 C 13.625 -8.546875 13.5 -9.289062 13.25 -9.96875 C 13.007812 -10.65625 12.671875 -11.242188 12.234375 -11.734375 C 11.796875 -12.222656 11.273438 -12.601562 10.671875 -12.875 C 10.078125 -13.144531 9.4375 -13.28125 8.75 -13.28125 C 8.03125 -13.28125 7.375 -13.144531 6.78125 -12.875 C 6.195312 -12.613281 5.6875 -12.242188 5.25 -11.765625 C 4.8125 -11.296875 4.472656 -10.71875 4.234375 -10.03125 C 3.992188 -9.351562 3.875 -8.609375 3.875 -7.796875 L 3.875 -7.3125 C 3.875 -5.582031 4.320312 -4.234375 5.21875 -3.265625 C 6.125 -2.304688 7.300781 -1.828125 8.75 -1.828125 Z M 8.75 -1.828125 "/></g></g></g><g fill="#cfcfcd" fill-opacity="0.4"><g transform="translate(266.533478, 35.948834)"><g><path d="M 2.125 -15.109375 L 6.890625 -15.109375 L 6.890625 -21.328125 L 9.265625 -21.328125 L 9.265625 -15.109375 L 15.109375 -15.109375 L 15.109375 -12.921875 L 9.265625 -12.921875 L 9.265625 -3.109375 C 9.265625 -2.492188 9.535156 -2.1875 10.078125 -2.1875 L 14.375 -2.1875 L 14.375 0 L 9.234375 0 C 8.546875 0 7.984375 -0.222656 7.546875 -0.671875 C 7.109375 -1.117188 6.890625 -1.6875 6.890625 -2.375 L 6.890625 -12.921875 L 2.125 -12.921875 Z M 2.125 -15.109375 "/></g></g></g><g fill="#cfcfcd" fill-opacity="0.4"><g transform="translate(292.99793, 35.948834)"><g><path d="M 7.34375 -19.625 C 7.34375 -20.207031 7.550781 -20.707031 7.96875 -21.125 C 8.382812 -21.539062 8.882812 -21.75 9.46875 -21.75 C 10.0625 -21.75 10.566406 -21.539062 10.984375 -21.125 C 11.398438 -20.707031 11.609375 -20.207031 11.609375 -19.625 C 11.609375 -19.03125 11.398438 -18.523438 10.984375 -18.109375 C 10.566406 -17.691406 10.0625 -17.484375 9.46875 -17.484375 C 8.882812 -17.484375 8.382812 -17.691406 7.96875 -18.109375 C 7.550781 -18.523438 7.34375 -19.03125 7.34375 -19.625 Z M 3.015625 -2.1875 L 8.3125 -2.1875 L 8.3125 -12.921875 L 3.5625 -12.921875 L 3.5625 -15.109375 L 10.6875 -15.109375 L 10.6875 -2.1875 L 15.625 -2.1875 L 15.625 0 L 3.015625 0 Z M 3.015625 -2.1875 "/></g></g></g><g fill="#cfcfcd" fill-opacity="0.4"><g transform="translate(319.462383, 35.948834)"><g><path d="M 16.90625 -7.375 C 16.90625 -6.113281 16.695312 -5 16.28125 -4.03125 C 15.863281 -3.070312 15.3125 -2.257812 14.625 -1.59375 C 13.9375 -0.9375 13.128906 -0.4375 12.203125 -0.09375 C 11.273438 0.25 10.316406 0.421875 9.328125 0.421875 C 8.304688 0.421875 7.335938 0.25 6.421875 -0.09375 C 5.515625 -0.4375 4.710938 -0.9375 4.015625 -1.59375 C 3.328125 -2.257812 2.773438 -3.070312 2.359375 -4.03125 C 1.941406 -5 1.734375 -6.113281 1.734375 -7.375 L 1.734375 -7.734375 C 1.734375 -8.972656 1.941406 -10.070312 2.359375 -11.03125 C 2.773438 -12 3.332031 -12.816406 4.03125 -13.484375 C 4.738281 -14.160156 5.546875 -14.671875 6.453125 -15.015625 C 7.367188 -15.359375 8.328125 -15.53125 9.328125 -15.53125 C 10.316406 -15.53125 11.269531 -15.359375 12.1875 -15.015625 C 13.101562 -14.671875 13.910156 -14.160156 14.609375 -13.484375 C 15.304688 -12.816406 15.863281 -12 16.28125 -11.03125 C 16.695312 -10.070312 16.90625 -8.972656 16.90625 -7.734375 Z M 9.328125 -1.828125 C 10.054688 -1.828125 10.726562 -1.953125 11.34375 -2.203125 C 11.96875 -2.460938 12.515625 -2.832031 12.984375 -3.3125 C 13.453125 -3.800781 13.816406 -4.382812 14.078125 -5.0625 C 14.335938 -5.75 14.46875 -6.519531 14.46875 -7.375 L 14.46875 -7.734375 C 14.46875 -8.546875 14.335938 -9.289062 14.078125 -9.96875 C 13.816406 -10.65625 13.453125 -11.242188 12.984375 -11.734375 C 12.515625 -12.222656 11.960938 -12.601562 11.328125 -12.875 C 10.703125 -13.144531 10.035156 -13.28125 9.328125 -13.28125 C 8.609375 -13.28125 7.9375 -13.144531 7.3125 -12.875 C 6.6875 -12.601562 6.140625 -12.222656 5.671875 -11.734375 C 5.203125 -11.242188 4.832031 -10.65625 4.5625 -9.96875 C 4.300781 -9.289062 4.171875 -8.546875 4.171875 -7.734375 L 4.171875 -7.375 C 4.171875 -6.519531 4.300781 -5.75 4.5625 -5.0625 C 4.832031 -4.382812 5.203125 -3.800781 5.671875 -3.3125 C 6.140625 -2.832031 6.679688 -2.460938 7.296875 -2.203125 C 7.910156 -1.953125 8.585938 -1.828125 9.328125 -1.828125 Z M 9.328125 -1.828125 "/></g></g></g><g fill="#cfcfcd" fill-opacity="0.4"><g transform="translate(345.926835, 35.948834)"><g><path d="M 5.03125 0 L 2.65625 0 L 2.65625 -15.109375 L 5.03125 -15.109375 L 5.03125 -12.546875 L 5.390625 -12.546875 C 6.328125 -14.535156 7.953125 -15.53125 10.265625 -15.53125 C 12.015625 -15.53125 13.40625 -14.988281 14.4375 -13.90625 C 15.476562 -12.820312 16 -11.191406 16 -9.015625 L 16 0 L 13.625 0 L 13.625 -8.53125 C 13.625 -10.113281 13.265625 -11.300781 12.546875 -12.09375 C 11.835938 -12.882812 10.875 -13.28125 9.65625 -13.28125 C 8.21875 -13.28125 7.085938 -12.785156 6.265625 -11.796875 C 5.441406 -10.816406 5.03125 -9.503906 5.03125 -7.859375 Z M 5.03125 0 "/></g></g></g><g fill="#cfcfcd" fill-opacity="0.4"><g transform="translate(372.391288, 35.948834)"><g/></g></g><g fill="#cfcfcd" fill-opacity="0.4"><g transform="translate(398.85574, 35.948834)"><g><path d="M 2.65625 -2.1875 L 8.140625 -2.1875 L 8.140625 -19.140625 L 2.828125 -19.140625 L 2.828125 -21.328125 L 10.515625 -21.328125 L 10.515625 -2.1875 L 16 -2.1875 L 16 0 L 2.65625 0 Z M 2.65625 -2.1875 "/></g></g></g><g fill="#cfcfcd" fill-opacity="0.4"><g transform="translate(425.320193, 35.948834)"><g><path d="M 13.625 -2.5625 L 13.25 -2.5625 C 12.757812 -1.539062 12.082031 -0.785156 11.21875 -0.296875 C 10.363281 0.179688 9.457031 0.421875 8.5 0.421875 C 7.5 0.421875 6.570312 0.253906 5.71875 -0.078125 C 4.875 -0.410156 4.128906 -0.90625 3.484375 -1.5625 C 2.847656 -2.226562 2.347656 -3.035156 1.984375 -3.984375 C 1.617188 -4.941406 1.4375 -6.050781 1.4375 -7.3125 L 1.4375 -7.796875 C 1.4375 -9.035156 1.617188 -10.128906 1.984375 -11.078125 C 2.347656 -12.035156 2.847656 -12.84375 3.484375 -13.5 C 4.128906 -14.164062 4.875 -14.671875 5.71875 -15.015625 C 6.570312 -15.359375 7.476562 -15.53125 8.4375 -15.53125 C 9.476562 -15.53125 10.414062 -15.300781 11.25 -14.84375 C 12.09375 -14.394531 12.757812 -13.691406 13.25 -12.734375 L 13.625 -12.734375 L 13.625 -15.109375 L 16 -15.109375 L 16 -3.109375 C 16 -2.492188 16.269531 -2.1875 16.8125 -2.1875 L 17.578125 -2.1875 L 17.578125 0 L 15.96875 0 C 15.269531 0 14.703125 -0.222656 14.265625 -0.671875 C 13.835938 -1.117188 13.625 -1.6875 13.625 -2.375 Z M 8.75 -1.828125 C 9.457031 -1.828125 10.109375 -1.957031 10.703125 -2.21875 C 11.304688 -2.488281 11.820312 -2.863281 12.25 -3.34375 C 12.675781 -3.832031 13.007812 -4.414062 13.25 -5.09375 C 13.5 -5.78125 13.625 -6.539062 13.625 -7.375 L 13.625 -7.734375 C 13.625 -8.546875 13.5 -9.289062 13.25 -9.96875 C 13.007812 -10.65625 12.671875 -11.242188 12.234375 -11.734375 C 11.796875 -12.222656 11.273438 -12.601562 10.671875 -12.875 C 10.078125 -13.144531 9.4375 -13.28125 8.75 -13.28125 C 8.03125 -13.28125 7.375 -13.144531 6.78125 -12.875 C 6.195312 -12.613281 5.6875 -12.242188 5.25 -11.765625 C 4.8125 -11.296875 4.472656 -10.71875 4.234375 -10.03125 C 3.992188 -9.351562 3.875 -8.609375 3.875 -7.796875 L 3.875 -7.3125 C 3.875 -5.582031 4.320312 -4.234375 5.21875 -3.265625 C 6.125 -2.304688 7.300781 -1.828125 8.75 -1.828125 Z M 8.75 -1.828125 "/></g></g></g><g fill="#cfcfcd" fill-opacity="0.4"><g transform="translate(451.784645, 35.948834)"><g><path d="M 4.484375 0 L 2.109375 0 L 2.109375 -21.328125 L 4.484375 -21.328125 L 4.484375 -12.734375 L 4.84375 -12.734375 C 5.375 -13.648438 6.101562 -14.34375 7.03125 -14.8125 C 7.96875 -15.289062 8.984375 -15.53125 10.078125 -15.53125 C 11.015625 -15.53125 11.898438 -15.359375 12.734375 -15.015625 C 13.566406 -14.671875 14.300781 -14.171875 14.9375 -13.515625 C 15.582031 -12.867188 16.09375 -12.066406 16.46875 -11.109375 C 16.84375 -10.160156 17.03125 -9.078125 17.03125 -7.859375 L 17.03125 -7.25 C 17.03125 -6.007812 16.847656 -4.910156 16.484375 -3.953125 C 16.117188 -3.003906 15.613281 -2.203125 14.96875 -1.546875 C 14.332031 -0.898438 13.585938 -0.410156 12.734375 -0.078125 C 11.878906 0.253906 10.976562 0.421875 10.03125 0.421875 C 9.539062 0.421875 9.039062 0.363281 8.53125 0.25 C 8.019531 0.144531 7.535156 -0.0195312 7.078125 -0.25 C 6.617188 -0.488281 6.195312 -0.773438 5.8125 -1.109375 C 5.425781 -1.441406 5.101562 -1.84375 4.84375 -2.3125 L 4.484375 -2.3125 Z M 9.53125 -1.828125 C 10.269531 -1.828125 10.941406 -1.953125 11.546875 -2.203125 C 12.160156 -2.460938 12.691406 -2.820312 13.140625 -3.28125 C 13.597656 -3.75 13.953125 -4.316406 14.203125 -4.984375 C 14.460938 -5.660156 14.59375 -6.414062 14.59375 -7.25 L 14.59375 -7.859375 C 14.59375 -8.671875 14.460938 -9.40625 14.203125 -10.0625 C 13.953125 -10.726562 13.597656 -11.296875 13.140625 -11.765625 C 12.691406 -12.242188 12.15625 -12.613281 11.53125 -12.875 C 10.914062 -13.144531 10.25 -13.28125 9.53125 -13.28125 C 8.820312 -13.28125 8.160156 -13.144531 7.546875 -12.875 C 6.941406 -12.601562 6.410156 -12.222656 5.953125 -11.734375 C 5.492188 -11.242188 5.132812 -10.65625 4.875 -9.96875 C 4.613281 -9.289062 4.484375 -8.546875 4.484375 -7.734375 L 4.484375 -7.375 C 4.484375 -6.539062 4.613281 -5.78125 4.875 -5.09375 C 5.132812 -4.414062 5.492188 -3.832031 5.953125 -3.34375 C 6.410156 -2.863281 6.941406 -2.488281 7.546875 -2.21875 C 8.160156 -1.957031 8.820312 -1.828125 9.53125 -1.828125 Z M 9.53125 -1.828125 "/></g></g></g><g fill="#000000" fill-opacity="1"><g transform="translate(0.542381, 34.602262)"><g><path d="M 2.65625 -2.1875 L 8.140625 -2.1875 L 8.140625 -19.140625 L 2.828125 -19.140625 L 2.828125 -21.328125 L 10.515625 -21.328125 L 10.515625 -2.1875 L 16 -2.1875 L 16 0 L 2.65625 0 Z M 2.65625 -2.1875 "/></g></g></g><g fill="#000000" fill-opacity="1"><g transform="translate(27.006833, 34.602262)"><g><path d="M 13.625 -2.5625 L 13.25 -2.5625 C 12.757812 -1.539062 12.082031 -0.785156 11.21875 -0.296875 C 10.363281 0.179688 9.457031 0.421875 8.5 0.421875 C 7.5 0.421875 6.570312 0.253906 5.71875 -0.078125 C 4.875 -0.410156 4.128906 -0.90625 3.484375 -1.5625 C 2.847656 -2.226562 2.347656 -3.035156 1.984375 -3.984375 C 1.617188 -4.941406 1.4375 -6.050781 1.4375 -7.3125 L 1.4375 -7.796875 C 1.4375 -9.035156 1.617188 -10.128906 1.984375 -11.078125 C 2.347656 -12.035156 2.847656 -12.84375 3.484375 -13.5 C 4.128906 -14.164062 4.875 -14.671875 5.71875 -15.015625 C 6.570312 -15.359375 7.476562 -15.53125 8.4375 -15.53125 C 9.476562 -15.53125 10.414062 -15.300781 11.25 -14.84375 C 12.09375 -14.394531 12.757812 -13.691406 13.25 -12.734375 L 13.625 -12.734375 L 13.625 -15.109375 L 16 -15.109375 L 16 -3.109375 C 16 -2.492188 16.269531 -2.1875 16.8125 -2.1875 L 17.578125 -2.1875 L 17.578125 0 L 15.96875 0 C 15.269531 0 14.703125 -0.222656 14.265625 -0.671875 C 13.835938 -1.117188 13.625 -1.6875 13.625 -2.375 Z M 8.75 -1.828125 C 9.457031 -1.828125 10.109375 -1.957031 10.703125 -2.21875 C 11.304688 -2.488281 11.820312 -2.863281 12.25 -3.34375 C 12.675781 -3.832031 13.007812 -4.414062 13.25 -5.09375 C 13.5 -5.78125 13.625 -6.539062 13.625 -7.375 L 13.625 -7.734375 C 13.625 -8.546875 13.5 -9.289062 13.25 -9.96875 C 13.007812 -10.65625 12.671875 -11.242188 12.234375 -11.734375 C 11.796875 -12.222656 11.273438 -12.601562 10.671875 -12.875 C 10.078125 -13.144531 9.4375 -13.28125 8.75 -13.28125 C 8.03125 -13.28125 7.375 -13.144531 6.78125 -12.875 C 6.195312 -12.613281 5.6875 -12.242188 5.25 -11.765625 C 4.8125 -11.296875 4.472656 -10.71875 4.234375 -10.03125 C 3.992188 -9.351562 3.875 -8.609375 3.875 -7.796875 L 3.875 -7.3125 C 3.875 -5.582031 4.320312 -4.234375 5.21875 -3.265625 C 6.125 -2.304688 7.300781 -1.828125 8.75 -1.828125 Z M 8.75 -1.828125 "/></g></g></g><g fill="#000000" fill-opacity="1"><g transform="translate(53.471286, 34.602262)"><g><path d="M 15.71875 0 L 11.328125 0 L 9.5 -14.015625 L 9.140625 -14.015625 L 7.3125 0 L 2.921875 0 L 0.546875 -15.109375 L 2.984375 -15.109375 L 5 -1.09375 L 5.359375 -1.09375 L 7.125 -15.109375 L 11.515625 -15.109375 L 13.28125 -1.09375 L 13.65625 -1.09375 L 15.65625 -15.109375 L 18.09375 -15.109375 Z M 15.71875 0 "/></g></g></g><g fill="#000000" fill-opacity="1"><g transform="translate(79.935738, 34.602262)"><g/></g></g><g fill="#000000" fill-opacity="1"><g transform="translate(106.400191, 34.602262)"><g><path d="M 7.34375 -19.625 C 7.34375 -20.207031 7.550781 -20.707031 7.96875 -21.125 C 8.382812 -21.539062 8.882812 -21.75 9.46875 -21.75 C 10.0625 -21.75 10.566406 -21.539062 10.984375 -21.125 C 11.398438 -20.707031 11.609375 -20.207031 11.609375 -19.625 C 11.609375 -19.03125 11.398438 -18.523438 10.984375 -18.109375 C 10.566406 -17.691406 10.0625 -17.484375 9.46875 -17.484375 C 8.882812 -17.484375 8.382812 -17.691406 7.96875 -18.109375 C 7.550781 -18.523438 7.34375 -19.03125 7.34375 -19.625 Z M 3.015625 -2.1875 L 8.3125 -2.1875 L 8.3125 -12.921875 L 3.5625 -12.921875 L 3.5625 -15.109375 L 10.6875 -15.109375 L 10.6875 -2.1875 L 15.625 -2.1875 L 15.625 0 L 3.015625 0 Z M 3.015625 -2.1875 "/></g></g></g><g fill="#000000" fill-opacity="1"><g transform="translate(132.864643, 34.602262)"><g><path d="M 5.03125 0 L 2.65625 0 L 2.65625 -15.109375 L 5.03125 -15.109375 L 5.03125 -12.546875 L 5.390625 -12.546875 C 6.328125 -14.535156 7.953125 -15.53125 10.265625 -15.53125 C 12.015625 -15.53125 13.40625 -14.988281 14.4375 -13.90625 C 15.476562 -12.820312 16 -11.191406 16 -9.015625 L 16 0 L 13.625 0 L 13.625 -8.53125 C 13.625 -10.113281 13.265625 -11.300781 12.546875 -12.09375 C 11.835938 -12.882812 10.875 -13.28125 9.65625 -13.28125 C 8.21875 -13.28125 7.085938 -12.785156 6.265625 -11.796875 C 5.441406 -10.816406 5.03125 -9.503906 5.03125 -7.859375 Z M 5.03125 0 "/></g></g></g><g fill="#000000" fill-opacity="1"><g transform="translate(159.329096, 34.602262)"><g><path d="M 5.03125 0 L 2.65625 0 L 2.65625 -15.109375 L 5.03125 -15.109375 L 5.03125 -12.546875 L 5.390625 -12.546875 C 6.328125 -14.535156 7.953125 -15.53125 10.265625 -15.53125 C 12.015625 -15.53125 13.40625 -14.988281 14.4375 -13.90625 C 15.476562 -12.820312 16 -11.191406 16 -9.015625 L 16 0 L 13.625 0 L 13.625 -8.53125 C 13.625 -10.113281 13.265625 -11.300781 12.546875 -12.09375 C 11.835938 -12.882812 10.875 -13.28125 9.65625 -13.28125 C 8.21875 -13.28125 7.085938 -12.785156 6.265625 -11.796875 C 5.441406 -10.816406 5.03125 -9.503906 5.03125 -7.859375 Z M 5.03125 0 "/></g></g></g><g fill="#000000" fill-opacity="1"><g transform="translate(185.793548, 34.602262)"><g><path d="M 16.90625 -7.375 C 16.90625 -6.113281 16.695312 -5 16.28125 -4.03125 C 15.863281 -3.070312 15.3125 -2.257812 14.625 -1.59375 C 13.9375 -0.9375 13.128906 -0.4375 12.203125 -0.09375 C 11.273438 0.25 10.316406 0.421875 9.328125 0.421875 C 8.304688 0.421875 7.335938 0.25 6.421875 -0.09375 C 5.515625 -0.4375 4.710938 -0.9375 4.015625 -1.59375 C 3.328125 -2.257812 2.773438 -3.070312 2.359375 -4.03125 C 1.941406 -5 1.734375 -6.113281 1.734375 -7.375 L 1.734375 -7.734375 C 1.734375 -8.972656 1.941406 -10.070312 2.359375 -11.03125 C 2.773438 -12 3.332031 -12.816406 4.03125 -13.484375 C 4.738281 -14.160156 5.546875 -14.671875 6.453125 -15.015625 C 7.367188 -15.359375 8.328125 -15.53125 9.328125 -15.53125 C 10.316406 -15.53125 11.269531 -15.359375 12.1875 -15.015625 C 13.101562 -14.671875 13.910156 -14.160156 14.609375 -13.484375 C 15.304688 -12.816406 15.863281 -12 16.28125 -11.03125 C 16.695312 -10.070312 16.90625 -8.972656 16.90625 -7.734375 Z M 9.328125 -1.828125 C 10.054688 -1.828125 10.726562 -1.953125 11.34375 -2.203125 C 11.96875 -2.460938 12.515625 -2.832031 12.984375 -3.3125 C 13.453125 -3.800781 13.816406 -4.382812 14.078125 -5.0625 C 14.335938 -5.75 14.46875 -6.519531 14.46875 -7.375 L 14.46875 -7.734375 C 14.46875 -8.546875 14.335938 -9.289062 14.078125 -9.96875 C 13.816406 -10.65625 13.453125 -11.242188 12.984375 -11.734375 C 12.515625 -12.222656 11.960938 -12.601562 11.328125 -12.875 C 10.703125 -13.144531 10.035156 -13.28125 9.328125 -13.28125 C 8.609375 -13.28125 7.9375 -13.144531 7.3125 -12.875 C 6.6875 -12.601562 6.140625 -12.222656 5.671875 -11.734375 C 5.203125 -11.242188 4.832031 -10.65625 4.5625 -9.96875 C 4.300781 -9.289062 4.171875 -8.546875 4.171875 -7.734375 L 4.171875 -7.375 C 4.171875 -6.519531 4.300781 -5.75 4.5625 -5.0625 C 4.832031 -4.382812 5.203125 -3.800781 5.671875 -3.3125 C 6.140625 -2.832031 6.679688 -2.460938 7.296875 -2.203125 C 7.910156 -1.953125 8.585938 -1.828125 9.328125 -1.828125 Z M 9.328125 -1.828125 "/></g></g></g><g fill="#000000" fill-opacity="1"><g transform="translate(212.258001, 34.602262)"><g><path d="M 11.640625 0 L 6.953125 0 L 1.671875 -15.109375 L 4.484375 -15.109375 L 9.109375 -1.09375 L 9.46875 -1.09375 L 14.109375 -15.109375 L 16.90625 -15.109375 Z M 11.640625 0 "/></g></g></g><g fill="#000000" fill-opacity="1"><g transform="translate(238.722453, 34.602262)"><g><path d="M 13.625 -2.5625 L 13.25 -2.5625 C 12.757812 -1.539062 12.082031 -0.785156 11.21875 -0.296875 C 10.363281 0.179688 9.457031 0.421875 8.5 0.421875 C 7.5 0.421875 6.570312 0.253906 5.71875 -0.078125 C 4.875 -0.410156 4.128906 -0.90625 3.484375 -1.5625 C 2.847656 -2.226562 2.347656 -3.035156 1.984375 -3.984375 C 1.617188 -4.941406 1.4375 -6.050781 1.4375 -7.3125 L 1.4375 -7.796875 C 1.4375 -9.035156 1.617188 -10.128906 1.984375 -11.078125 C 2.347656 -12.035156 2.847656 -12.84375 3.484375 -13.5 C 4.128906 -14.164062 4.875 -14.671875 5.71875 -15.015625 C 6.570312 -15.359375 7.476562 -15.53125 8.4375 -15.53125 C 9.476562 -15.53125 10.414062 -15.300781 11.25 -14.84375 C 12.09375 -14.394531 12.757812 -13.691406 13.25 -12.734375 L 13.625 -12.734375 L 13.625 -15.109375 L 16 -15.109375 L 16 -3.109375 C 16 -2.492188 16.269531 -2.1875 16.8125 -2.1875 L 17.578125 -2.1875 L 17.578125 0 L 15.96875 0 C 15.269531 0 14.703125 -0.222656 14.265625 -0.671875 C 13.835938 -1.117188 13.625 -1.6875 13.625 -2.375 Z M 8.75 -1.828125 C 9.457031 -1.828125 10.109375 -1.957031 10.703125 -2.21875 C 11.304688 -2.488281 11.820312 -2.863281 12.25 -3.34375 C 12.675781 -3.832031 13.007812 -4.414062 13.25 -5.09375 C 13.5 -5.78125 13.625 -6.539062 13.625 -7.375 L 13.625 -7.734375 C 13.625 -8.546875 13.5 -9.289062 13.25 -9.96875 C 13.007812 -10.65625 12.671875 -11.242188 12.234375 -11.734375 C 11.796875 -12.222656 11.273438 -12.601562 10.671875 -12.875 C 10.078125 -13.144531 9.4375 -13.28125 8.75 -13.28125 C 8.03125 -13.28125 7.375 -13.144531 6.78125 -12.875 C 6.195312 -12.613281 5.6875 -12.242188 5.25 -11.765625 C 4.8125 -11.296875 4.472656 -10.71875 4.234375 -10.03125 C 3.992188 -9.351562 3.875 -8.609375 3.875 -7.796875 L 3.875 -7.3125 C 3.875 -5.582031 4.320312 -4.234375 5.21875 -3.265625 C 6.125 -2.304688 7.300781 -1.828125 8.75 -1.828125 Z M 8.75 -1.828125 "/></g></g></g><g fill="#000000" fill-opacity="1"><g transform="translate(265.186906, 34.602262)"><g><path d="M 2.125 -15.109375 L 6.890625 -15.109375 L 6.890625 -21.328125 L 9.265625 -21.328125 L 9.265625 -15.109375 L 15.109375 -15.109375 L 15.109375 -12.921875 L 9.265625 -12.921875 L 9.265625 -3.109375 C 9.265625 -2.492188 9.535156 -2.1875 10.078125 -2.1875 L 14.375 -2.1875 L 14.375 0 L 9.234375 0 C 8.546875 0 7.984375 -0.222656 7.546875 -0.671875 C 7.109375 -1.117188 6.890625 -1.6875 6.890625 -2.375 L 6.890625 -12.921875 L 2.125 -12.921875 Z M 2.125 -15.109375 "/></g></g></g><g fill="#000000" fill-opacity="1"><g transform="translate(291.651358, 34.602262)"><g><path d="M 7.34375 -19.625 C 7.34375 -20.207031 7.550781 -20.707031 7.96875 -21.125 C 8.382812 -21.539062 8.882812 -21.75 9.46875 -21.75 C 10.0625 -21.75 10.566406 -21.539062 10.984375 -21.125 C 11.398438 -20.707031 11.609375 -20.207031 11.609375 -19.625 C 11.609375 -19.03125 11.398438 -18.523438 10.984375 -18.109375 C 10.566406 -17.691406 10.0625 -17.484375 9.46875 -17.484375 C 8.882812 -17.484375 8.382812 -17.691406 7.96875 -18.109375 C 7.550781 -18.523438 7.34375 -19.03125 7.34375 -19.625 Z M 3.015625 -2.1875 L 8.3125 -2.1875 L 8.3125 -12.921875 L 3.5625 -12.921875 L 3.5625 -15.109375 L 10.6875 -15.109375 L 10.6875 -2.1875 L 15.625 -2.1875 L 15.625 0 L 3.015625 0 Z M 3.015625 -2.1875 "/></g></g></g><g fill="#000000" fill-opacity="1"><g transform="translate(318.115811, 34.602262)"><g><path d="M 16.90625 -7.375 C 16.90625 -6.113281 16.695312 -5 16.28125 -4.03125 C 15.863281 -3.070312 15.3125 -2.257812 14.625 -1.59375 C 13.9375 -0.9375 13.128906 -0.4375 12.203125 -0.09375 C 11.273438 0.25 10.316406 0.421875 9.328125 0.421875 C 8.304688 0.421875 7.335938 0.25 6.421875 -0.09375 C 5.515625 -0.4375 4.710938 -0.9375 4.015625 -1.59375 C 3.328125 -2.257812 2.773438 -3.070312 2.359375 -4.03125 C 1.941406 -5 1.734375 -6.113281 1.734375 -7.375 L 1.734375 -7.734375 C 1.734375 -8.972656 1.941406 -10.070312 2.359375 -11.03125 C 2.773438 -12 3.332031 -12.816406 4.03125 -13.484375 C 4.738281 -14.160156 5.546875 -14.671875 6.453125 -15.015625 C 7.367188 -15.359375 8.328125 -15.53125 9.328125 -15.53125 C 10.316406 -15.53125 11.269531 -15.359375 12.1875 -15.015625 C 13.101562 -14.671875 13.910156 -14.160156 14.609375 -13.484375 C 15.304688 -12.816406 15.863281 -12 16.28125 -11.03125 C 16.695312 -10.070312 16.90625 -8.972656 16.90625 -7.734375 Z M 9.328125 -1.828125 C 10.054688 -1.828125 10.726562 -1.953125 11.34375 -2.203125 C 11.96875 -2.460938 12.515625 -2.832031 12.984375 -3.3125 C 13.453125 -3.800781 13.816406 -4.382812 14.078125 -5.0625 C 14.335938 -5.75 14.46875 -6.519531 14.46875 -7.375 L 14.46875 -7.734375 C 14.46875 -8.546875 14.335938 -9.289062 14.078125 -9.96875 C 13.816406 -10.65625 13.453125 -11.242188 12.984375 -11.734375 C 12.515625 -12.222656 11.960938 -12.601562 11.328125 -12.875 C 10.703125 -13.144531 10.035156 -13.28125 9.328125 -13.28125 C 8.609375 -13.28125 7.9375 -13.144531 7.3125 -12.875 C 6.6875 -12.601562 6.140625 -12.222656 5.671875 -11.734375 C 5.203125 -11.242188 4.832031 -10.65625 4.5625 -9.96875 C 4.300781 -9.289062 4.171875 -8.546875 4.171875 -7.734375 L 4.171875 -7.375 C 4.171875 -6.519531 4.300781 -5.75 4.5625 -5.0625 C 4.832031 -4.382812 5.203125 -3.800781 5.671875 -3.3125 C 6.140625 -2.832031 6.679688 -2.460938 7.296875 -2.203125 C 7.910156 -1.953125 8.585938 -1.828125 9.328125 -1.828125 Z M 9.328125 -1.828125 "/></g></g></g><g fill="#000000" fill-opacity="1"><g transform="translate(344.580263, 34.602262)"><g><path d="M 5.03125 0 L 2.65625 0 L 2.65625 -15.109375 L 5.03125 -15.109375 L 5.03125 -12.546875 L 5.390625 -12.546875 C 6.328125 -14.535156 7.953125 -15.53125 10.265625 -15.53125 C 12.015625 -15.53125 13.40625 -14.988281 14.4375 -13.90625 C 15.476562 -12.820312 16 -11.191406 16 -9.015625 L 16 0 L 13.625 0 L 13.625 -8.53125 C 13.625 -10.113281 13.265625 -11.300781 12.546875 -12.09375 C 11.835938 -12.882812 10.875 -13.28125 9.65625 -13.28125 C 8.21875 -13.28125 7.085938 -12.785156 6.265625 -11.796875 C 5.441406 -10.816406 5.03125 -9.503906 5.03125 -7.859375 Z M 5.03125 0 "/></g></g></g><g fill="#000000" fill-opacity="1"><g transform="translate(371.044716, 34.602262)"><g/></g></g><g fill="#000000" fill-opacity="1"><g transform="translate(397.509168, 34.602262)"><g><path d="M 2.65625 -2.1875 L 8.140625 -2.1875 L 8.140625 -19.140625 L 2.828125 -19.140625 L 2.828125 -21.328125 L 10.515625 -21.328125 L 10.515625 -2.1875 L 16 -2.1875 L 16 0 L 2.65625 0 Z M 2.65625 -2.1875 "/></g></g></g><g fill="#000000" fill-opacity="1"><g transform="translate(423.973621, 34.602262)"><g><path d="M 13.625 -2.5625 L 13.25 -2.5625 C 12.757812 -1.539062 12.082031 -0.785156 11.21875 -0.296875 C 10.363281 0.179688 9.457031 0.421875 8.5 0.421875 C 7.5 0.421875 6.570312 0.253906 5.71875 -0.078125 C 4.875 -0.410156 4.128906 -0.90625 3.484375 -1.5625 C 2.847656 -2.226562 2.347656 -3.035156 1.984375 -3.984375 C 1.617188 -4.941406 1.4375 -6.050781 1.4375 -7.3125 L 1.4375 -7.796875 C 1.4375 -9.035156 1.617188 -10.128906 1.984375 -11.078125 C 2.347656 -12.035156 2.847656 -12.84375 3.484375 -13.5 C 4.128906 -14.164062 4.875 -14.671875 5.71875 -15.015625 C 6.570312 -15.359375 7.476562 -15.53125 8.4375 -15.53125 C 9.476562 -15.53125 10.414062 -15.300781 11.25 -14.84375 C 12.09375 -14.394531 12.757812 -13.691406 13.25 -12.734375 L 13.625 -12.734375 L 13.625 -15.109375 L 16 -15.109375 L 16 -3.109375 C 16 -2.492188 16.269531 -2.1875 16.8125 -2.1875 L 17.578125 -2.1875 L 17.578125 0 L 15.96875 0 C 15.269531 0 14.703125 -0.222656 14.265625 -0.671875 C 13.835938 -1.117188 13.625 -1.6875 13.625 -2.375 Z M 8.75 -1.828125 C 9.457031 -1.828125 10.109375 -1.957031 10.703125 -2.21875 C 11.304688 -2.488281 11.820312 -2.863281 12.25 -3.34375 C 12.675781 -3.832031 13.007812 -4.414062 13.25 -5.09375 C 13.5 -5.78125 13.625 -6.539062 13.625 -7.375 L 13.625 -7.734375 C 13.625 -8.546875 13.5 -9.289062 13.25 -9.96875 C 13.007812 -10.65625 12.671875 -11.242188 12.234375 -11.734375 C 11.796875 -12.222656 11.273438 -12.601562 10.671875 -12.875 C 10.078125 -13.144531 9.4375 -13.28125 8.75 -13.28125 C 8.03125 -13.28125 7.375 -13.144531 6.78125 -12.875 C 6.195312 -12.613281 5.6875 -12.242188 5.25 -11.765625 C 4.8125 -11.296875 4.472656 -10.71875 4.234375 -10.03125 C 3.992188 -9.351562 3.875 -8.609375 3.875 -7.796875 L 3.875 -7.3125 C 3.875 -5.582031 4.320312 -4.234375 5.21875 -3.265625 C 6.125 -2.304688 7.300781 -1.828125 8.75 -1.828125 Z M 8.75 -1.828125 "/></g></g></g><g fill="#000000" fill-opacity="1"><g transform="translate(450.438073, 34.602262)"><g><path d="M 4.484375 0 L 2.109375 0 L 2.109375 -21.328125 L 4.484375 -21.328125 L 4.484375 -12.734375 L 4.84375 -12.734375 C 5.375 -13.648438 6.101562 -14.34375 7.03125 -14.8125 C 7.96875 -15.289062 8.984375 -15.53125 10.078125 -15.53125 C 11.015625 -15.53125 11.898438 -15.359375 12.734375 -15.015625 C 13.566406 -14.671875 14.300781 -14.171875 14.9375 -13.515625 C 15.582031 -12.867188 16.09375 -12.066406 16.46875 -11.109375 C 16.84375 -10.160156 17.03125 -9.078125 17.03125 -7.859375 L 17.03125 -7.25 C 17.03125 -6.007812 16.847656 -4.910156 16.484375 -3.953125 C 16.117188 -3.003906 15.613281 -2.203125 14.96875 -1.546875 C 14.332031 -0.898438 13.585938 -0.410156 12.734375 -0.078125 C 11.878906 0.253906 10.976562 0.421875 10.03125 0.421875 C 9.539062 0.421875 9.039062 0.363281 8.53125 0.25 C 8.019531 0.144531 7.535156 -0.0195312 7.078125 -0.25 C 6.617188 -0.488281 6.195312 -0.773438 5.8125 -1.109375 C 5.425781 -1.441406 5.101562 -1.84375 4.84375 -2.3125 L 4.484375 -2.3125 Z M 9.53125 -1.828125 C 10.269531 -1.828125 10.941406 -1.953125 11.546875 -2.203125 C 12.160156 -2.460938 12.691406 -2.820312 13.140625 -3.28125 C 13.597656 -3.75 13.953125 -4.316406 14.203125 -4.984375 C 14.460938 -5.660156 14.59375 -6.414062 14.59375 -7.25 L 14.59375 -7.859375 C 14.59375 -8.671875 14.460938 -9.40625 14.203125 -10.0625 C 13.953125 -10.726562 13.597656 -11.296875 13.140625 -11.765625 C 12.691406 -12.242188 12.15625 -12.613281 11.53125 -12.875 C 10.914062 -13.144531 10.25 -13.28125 9.53125 -13.28125 C 8.820312 -13.28125 8.160156 -13.144531 7.546875 -12.875 C 6.941406 -12.601562 6.410156 -12.222656 5.953125 -11.734375 C 5.492188 -11.242188 5.132812 -10.65625 4.875 -9.96875 C 4.613281 -9.289062 4.484375 -8.546875 4.484375 -7.734375 L 4.484375 -7.375 C 4.484375 -6.539062 4.613281 -5.78125 4.875 -5.09375 C 5.132812 -4.414062 5.492188 -3.832031 5.953125 -3.34375 C 6.410156 -2.863281 6.941406 -2.488281 7.546875 -2.21875 C 8.160156 -1.957031 8.820312 -1.828125 9.53125 -1.828125 Z M 9.53125 -1.828125 "/></g></g></g></g></g></svg>