<svg xmlns="http://www.w3.org/2000/svg" xmlns:xlink="http://www.w3.org/1999/xlink" zoomAndPan="magnify" preserveAspectRatio="xMidYMid meet" version="1.0" viewBox="597.27 54.57 1106.16 1106.16"><defs><clipPath id="477d59f983"><path d="M 597.265625 54.574219 L 1703.515625 54.574219 L 1703.515625 1160.824219 L 597.265625 1160.824219 Z M 597.265625 54.574219 " clip-rule="nonzero"/></clipPath></defs><path fill="#ebb84a" d="M 1607.183594 894.773438 C 1606.976562 896.304688 1606.746094 897.515625 1606.457031 898.589844 L 1606.460938 898.589844 C 1604.40625 906.222656 1599.535156 912.59375 1592.765625 916.515625 L 1473.042969 985.628906 L 1582.25 985.628906 C 1633.050781 985.628906 1676.34375 949.328125 1685.191406 899.3125 L 1688.257812 881.992188 L 1608.90625 881.992188 Z M 1607.183594 894.773438 " fill-opacity="1" fill-rule="nonzero"/><path fill="#ebb84a" d="M 1591.839844 914.902344 C 1598.1875 911.222656 1602.742188 905.253906 1604.664062 898.101562 C 1605.207031 896.078125 1605.507812 893.976562 1605.574219 891.679688 L 1605.75 885.992188 L 1602.050781 881.660156 C 1601.898438 881.476562 1601.847656 881.3125 1601.832031 881.195312 L 1601.832031 876.945312 L 1593.296875 862.238281 C 1589.613281 855.820312 1583.660156 851.226562 1576.507812 849.300781 C 1569.433594 847.394531 1561.8125 848.398438 1555.546875 852.039062 L 1346.5 972.746094 C 1340.132812 976.402344 1335.570312 982.347656 1333.65625 989.5 C 1331.738281 996.660156 1332.710938 1004.105469 1336.367188 1010.410156 L 1345.0625 1025.566406 C 1350.164062 1034.363281 1359.441406 1039.28125 1368.980469 1039.28125 C 1373.679688 1039.28125 1378.445312 1038.085938 1382.804688 1035.574219 Z M 1591.839844 914.902344 " fill-opacity="1" fill-rule="nonzero"/><path fill="#ebb84a" d="M 1336.40625 979.453125 C 1336.757812 978.960938 1337.121094 978.484375 1337.5 978.015625 L 1343.878906 970.136719 L 1316.6875 923.070312 L 1313.972656 921.1875 C 1292.117188 906.027344 1274.132812 907.277344 1256.757812 908.503906 C 1233.148438 910.15625 1214.738281 909.527344 1192.597656 886.515625 L 1188.246094 881.992188 L 612.433594 881.992188 L 615.496094 899.308594 C 624.335938 949.324219 667.605469 985.628906 718.375 985.628906 L 1331.996094 985.628906 Z M 1336.40625 979.453125 " fill-opacity="1" fill-rule="nonzero"/><path fill="#ebb84a" d="M 1337.878906 1081.808594 L 962.8125 1081.808594 C 945.613281 1081.808594 931.625 1095.800781 931.625 1112.996094 L 931.625 1144.121094 L 1369.003906 1144.121094 L 1369.003906 1112.996094 C 1369.003906 1095.800781 1355.042969 1081.808594 1337.878906 1081.808594 Z M 1337.878906 1081.808594 " fill-opacity="1" fill-rule="nonzero"/><path fill="#ebb84a" d="M 1094.21875 557.78125 L 1102.15625 559.035156 L 1107.511719 553.046875 C 1110.359375 549.863281 1113.628906 547.195312 1117.222656 545.117188 C 1133.375 535.792969 1154.132812 539.0625 1166.589844 552.878906 L 1170.984375 557.753906 L 1240.851562 557.753906 L 1240.851562 350.234375 C 1240.851562 349.726562 1241.265625 349.308594 1241.777344 349.308594 L 1363.980469 349.308594 L 1150.3125 71.773438 L 936.707031 349.308594 L 1058.847656 349.308594 C 1059.359375 349.308594 1059.777344 349.726562 1059.777344 350.234375 L 1059.777344 557.753906 Z M 1094.21875 557.78125 " fill-opacity="1" fill-rule="nonzero"/><g clip-path="url(#477d59f983)"><path fill="#f1863d" d="M 1582.25 237.570312 L 1298.933594 237.570312 L 1270.511719 200.644531 L 1162.734375 60.683594 C 1159.765625 56.832031 1155.175781 54.574219 1150.3125 54.574219 C 1145.449219 54.574219 1140.859375 56.832031 1137.890625 60.683594 L 1030.109375 200.652344 L 1001.710938 237.570312 L 718.375 237.570312 C 651.59375 237.570312 597.265625 291.925781 597.265625 358.738281 L 597.265625 881.066406 C 597.265625 947.878906 651.59375 1002.234375 718.375 1002.234375 L 1055.195312 1002.234375 C 1052.851562 1025.085938 1048.226562 1046.195312 1041.296875 1065.203125 L 962.8125 1065.203125 C 936.457031 1065.203125 915.015625 1086.644531 915.015625 1112.996094 L 915.015625 1145.050781 C 915.015625 1153.710938 922.035156 1160.730469 930.695312 1160.730469 L 1369.933594 1160.730469 C 1378.589844 1160.730469 1385.609375 1153.710938 1385.609375 1145.050781 L 1385.609375 1112.996094 C 1385.609375 1086.644531 1364.199219 1065.203125 1337.878906 1065.203125 L 1259.347656 1065.203125 C 1252.398438 1046.078125 1247.78125 1024.96875 1245.472656 1002.234375 L 1316.429688 1002.234375 C 1317.152344 1007.996094 1319.015625 1013.59375 1321.996094 1018.734375 L 1330.660156 1033.835938 C 1338.851562 1047.972656 1353.746094 1055.878906 1369.035156 1055.878906 C 1376.542969 1055.878906 1384.148438 1053.972656 1391.101562 1049.964844 L 1474.433594 1001.855469 C 1475.53125 1002.097656 1476.667969 1002.234375 1477.835938 1002.234375 L 1582.25 1002.234375 C 1649.066406 1002.234375 1703.421875 947.878906 1703.421875 881.066406 L 1703.421875 358.738281 C 1703.421875 291.925781 1649.066406 237.570312 1582.25 237.570312 Z M 1021.402344 263.394531 C 1021.761719 262.972656 1022.105469 262.53125 1022.421875 262.070312 L 1054.957031 219.777344 L 1150.3125 95.949219 L 1245.667969 219.773438 L 1334.019531 334.558594 L 1241.777344 334.558594 C 1233.121094 334.558594 1226.101562 341.574219 1226.101562 350.234375 L 1226.101562 543.003906 L 1177.546875 543.003906 C 1160.710938 524.339844 1132.5 519.269531 1109.847656 532.347656 C 1104.777344 535.273438 1100.320312 538.964844 1096.519531 543.210938 C 1095.722656 543.085938 1094.910156 543.003906 1094.074219 543.003906 L 1074.523438 543.003906 L 1074.523438 350.234375 C 1074.523438 341.574219 1067.503906 334.558594 1058.847656 334.558594 L 966.660156 334.558594 Z M 628.621094 358.738281 C 628.621094 309.214844 668.886719 268.925781 718.375 268.925781 L 977.589844 268.925781 L 922.394531 340.675781 C 918.753906 345.410156 918.117188 351.800781 920.753906 357.160156 C 923.394531 362.519531 928.847656 365.914062 934.820312 365.914062 L 1043.167969 365.914062 L 1043.167969 558.679688 C 1043.167969 567.339844 1050.1875 574.359375 1058.847656 574.359375 L 1082.890625 574.359375 C 1081.789062 585.566406 1084.171875 596.789062 1089.890625 606.699219 L 1163.652344 734.449219 C 1132.644531 758.714844 1121.160156 790.816406 1133.691406 820.78125 C 1133.804688 821.050781 1133.921875 821.316406 1134.050781 821.578125 C 1142.449219 838.890625 1150.40625 853.335938 1158.042969 865.386719 L 628.621094 865.386719 Z M 1248.582031 1096.558594 C 1248.601562 1096.558594 1248.621094 1096.5625 1248.640625 1096.5625 C 1248.671875 1096.5625 1248.699219 1096.558594 1248.730469 1096.558594 L 1337.878906 1096.558594 C 1346.910156 1096.558594 1354.253906 1103.933594 1354.253906 1112.996094 L 1354.253906 1129.375 L 946.371094 1129.375 L 946.371094 1112.996094 C 946.371094 1104.085938 953.898438 1096.558594 962.8125 1096.558594 L 1051.898438 1096.558594 C 1051.925781 1096.558594 1051.957031 1096.5625 1051.984375 1096.5625 C 1052.007812 1096.5625 1052.027344 1096.558594 1052.046875 1096.558594 Z M 1074.386719 1065.203125 C 1080.503906 1045.761719 1084.636719 1024.699219 1086.734375 1002.234375 L 1213.9375 1002.234375 C 1216.003906 1024.613281 1220.128906 1045.675781 1226.269531 1065.203125 Z M 1324.40625 970.878906 L 718.375 970.878906 C 674.230469 970.878906 637.457031 938.8125 630.019531 896.742188 L 1181.96875 896.742188 C 1207.71875 923.5 1231.019531 925.074219 1257.785156 923.214844 C 1274.589844 922.042969 1288.027344 921.144531 1305.570312 933.308594 L 1326.035156 968.738281 C 1325.46875 969.433594 1324.929688 970.148438 1324.40625 970.878906 Z M 1331.023438 914.683594 C 1330.496094 913.769531 1329.878906 912.902344 1329.160156 912.097656 C 1328.449219 911.296875 1327.667969 910.585938 1326.832031 909.960938 L 1326.828125 909.957031 C 1298.710938 888.933594 1274.8125 890.59375 1255.609375 891.933594 C 1237.597656 893.191406 1221.980469 894.265625 1202.121094 872.550781 C 1201.289062 871.265625 1200.277344 870.113281 1199.113281 869.121094 C 1188.472656 856.515625 1176.578125 837.339844 1162.46875 808.316406 C 1154.644531 789.003906 1167.644531 772.386719 1179.574219 762.027344 L 1204.96875 806.007812 C 1207.875 811.035156 1213.144531 813.847656 1218.5625 813.847656 C 1221.222656 813.847656 1223.917969 813.171875 1226.386719 811.746094 C 1233.882812 807.414062 1236.453125 797.824219 1232.125 790.328125 L 1117.046875 591.019531 C 1113.988281 585.722656 1113.1875 579.511719 1114.792969 573.535156 C 1116.402344 567.554688 1120.214844 562.570312 1125.527344 559.5 C 1136.582031 553.121094 1150.75 556.898438 1157.109375 567.914062 L 1229.28125 692.957031 C 1229.929688 694.085938 1230.710938 695.085938 1231.574219 695.984375 C 1232.46875 698.125 1233.488281 700.234375 1234.675781 702.292969 L 1272.191406 767.230469 C 1275.09375 772.257812 1280.363281 775.066406 1285.78125 775.066406 C 1288.441406 775.066406 1291.140625 774.386719 1293.609375 772.960938 C 1301.105469 768.628906 1303.671875 759.039062 1299.339844 751.542969 L 1261.832031 686.613281 C 1255.472656 675.601562 1259.277344 661.460938 1270.308594 655.09375 C 1281.335938 648.722656 1295.476562 652.5 1301.832031 663.511719 L 1339.34375 728.445312 C 1343.675781 735.941406 1353.265625 738.511719 1360.761719 734.179688 C 1368.261719 729.847656 1370.828125 720.257812 1366.496094 712.761719 L 1336.792969 661.34375 C 1336.746094 661.261719 1336.710938 661.175781 1336.664062 661.097656 C 1330.285156 650.042969 1334.058594 635.875 1345.082031 629.511719 C 1356.117188 623.140625 1370.289062 626.945312 1376.667969 637.992188 L 1385.710938 653.660156 C 1385.832031 653.875 1385.941406 654.09375 1386.066406 654.3125 L 1406.011719 688.8125 L 1406.5 689.660156 C 1406.5 689.660156 1406.503906 689.664062 1406.503906 689.667969 C 1406.828125 690.230469 1407.191406 690.753906 1407.574219 691.261719 C 1407.691406 691.414062 1407.8125 691.5625 1407.933594 691.710938 C 1408.226562 692.070312 1408.53125 692.414062 1408.851562 692.742188 C 1408.980469 692.878906 1409.109375 693.015625 1409.242188 693.144531 C 1409.6875 693.566406 1410.148438 693.972656 1410.632812 694.339844 C 1410.667969 694.367188 1410.710938 694.390625 1410.746094 694.417969 C 1411.203125 694.753906 1411.675781 695.058594 1412.164062 695.34375 C 1412.328125 695.441406 1412.496094 695.527344 1412.667969 695.617188 C 1413.054688 695.824219 1413.445312 696.015625 1413.847656 696.1875 C 1414.019531 696.261719 1414.1875 696.339844 1414.359375 696.410156 C 1414.914062 696.625 1415.476562 696.820312 1416.050781 696.972656 C 1416.132812 696.992188 1416.214844 697.003906 1416.292969 697.023438 C 1416.800781 697.148438 1417.3125 697.25 1417.828125 697.324219 C 1418.023438 697.351562 1418.21875 697.371094 1418.414062 697.394531 C 1418.847656 697.4375 1419.285156 697.46875 1419.722656 697.476562 C 1419.84375 697.480469 1419.96875 697.5 1420.089844 697.5 C 1420.152344 697.5 1420.210938 697.492188 1420.273438 697.488281 C 1420.867188 697.484375 1421.460938 697.449219 1422.054688 697.375 C 1422.125 697.367188 1422.195312 697.347656 1422.269531 697.335938 C 1422.796875 697.261719 1423.324219 697.15625 1423.851562 697.027344 C 1424.035156 696.980469 1424.21875 696.925781 1424.40625 696.871094 C 1424.832031 696.75 1425.253906 696.605469 1425.675781 696.445312 C 1425.855469 696.375 1426.035156 696.3125 1426.214844 696.234375 C 1426.773438 695.996094 1427.324219 695.730469 1427.867188 695.421875 C 1427.882812 695.414062 1427.898438 695.40625 1427.914062 695.398438 C 1428.386719 695.125 1428.835938 694.832031 1429.269531 694.523438 C 1429.332031 694.476562 1429.386719 694.421875 1429.453125 694.375 C 1429.8125 694.105469 1430.164062 693.832031 1430.496094 693.539062 C 1430.671875 693.382812 1430.828125 693.210938 1430.996094 693.046875 C 1431.199219 692.851562 1431.414062 692.660156 1431.601562 692.453125 C 1431.800781 692.242188 1431.976562 692.011719 1432.15625 691.789062 C 1432.300781 691.617188 1432.453125 691.453125 1432.585938 691.277344 C 1432.828125 690.957031 1433.046875 690.621094 1433.261719 690.285156 C 1433.320312 690.195312 1433.386719 690.109375 1433.441406 690.019531 C 1433.683594 689.621094 1433.90625 689.210938 1434.113281 688.796875 C 1434.128906 688.761719 1434.152344 688.730469 1434.167969 688.695312 C 1434.589844 687.828125 1434.925781 686.921875 1435.183594 685.996094 C 1435.191406 685.957031 1435.210938 685.917969 1435.21875 685.878906 C 1435.324219 685.480469 1435.40625 685.082031 1435.480469 684.679688 C 1435.496094 684.585938 1435.523438 684.496094 1435.539062 684.40625 C 1435.601562 684.046875 1435.632812 683.683594 1435.667969 683.316406 C 1435.683594 683.179688 1435.707031 683.046875 1435.71875 682.910156 C 1435.738281 682.59375 1435.738281 682.273438 1435.738281 681.957031 C 1435.742188 681.769531 1435.757812 681.582031 1435.75 681.394531 C 1435.742188 681.125 1435.710938 680.855469 1435.691406 680.582031 C 1435.671875 680.347656 1435.667969 680.113281 1435.636719 679.878906 C 1435.609375 679.648438 1435.558594 679.421875 1435.519531 679.195312 C 1435.472656 678.917969 1435.433594 678.640625 1435.375 678.367188 C 1435.335938 678.210938 1435.285156 678.054688 1435.242188 677.902344 C 1435.152344 677.554688 1435.070312 677.210938 1434.953125 676.871094 C 1434.9375 676.820312 1434.914062 676.769531 1434.898438 676.71875 C 1434.742188 676.277344 1434.578125 675.835938 1434.382812 675.402344 C 1434.378906 675.394531 1434.375 675.386719 1434.371094 675.382812 C 1434.15625 674.90625 1433.917969 674.441406 1433.652344 673.980469 L 1413.058594 638.3125 C 1408.261719 629.546875 1411.3125 618.464844 1419.949219 613.472656 C 1428.765625 608.410156 1440.035156 611.417969 1445.089844 620.21875 L 1484.628906 688.699219 C 1486.976562 692.765625 1488.304688 696.195312 1489.214844 700.535156 L 1509.332031 796.222656 C 1510.949219 803.988281 1513.433594 810.507812 1517.394531 817.378906 L 1533.660156 845.5 L 1418.679688 911.890625 L 1351.738281 950.542969 Z M 1375.429688 1022.804688 C 1369.261719 1026.359375 1361.347656 1024.257812 1357.824219 1018.171875 L 1349.160156 1003.070312 C 1347.449219 1000.125 1347.003906 996.660156 1347.902344 993.3125 C 1348.792969 989.988281 1350.894531 987.230469 1353.84375 985.535156 L 1562.925781 864.808594 C 1562.929688 864.804688 1562.9375 864.800781 1562.945312 864.796875 C 1564.894531 863.667969 1567.070312 863.089844 1569.285156 863.089844 C 1570.417969 863.089844 1571.558594 863.242188 1572.6875 863.546875 C 1576.011719 864.441406 1578.769531 866.550781 1580.5 869.578125 L 1587.082031 880.917969 C 1587.082031 880.96875 1587.074219 881.015625 1587.074219 881.066406 C 1587.074219 884.945312 1588.496094 888.492188 1590.832031 891.230469 C 1590.804688 892.246094 1590.695312 893.261719 1590.421875 894.273438 C 1589.515625 897.636719 1587.386719 900.4375 1584.441406 902.144531 Z M 1582.25 970.878906 L 1528.089844 970.878906 L 1600.140625 929.289062 C 1610.324219 923.386719 1617.628906 913.84375 1620.703125 902.417969 C 1621.207031 900.535156 1621.542969 898.640625 1621.800781 896.742188 L 1670.667969 896.742188 C 1663.226562 938.8125 1626.425781 970.878906 1582.25 970.878906 Z M 1672.066406 865.386719 L 1614.324219 865.386719 L 1607.664062 853.917969 C 1601.808594 843.683594 1592.28125 836.347656 1580.839844 833.269531 C 1574.667969 831.605469 1568.367188 831.335938 1562.261719 832.324219 L 1544.546875 801.699219 C 1542.273438 797.75 1540.960938 794.3125 1540.023438 789.800781 L 1519.902344 694.078125 C 1518.300781 686.472656 1515.800781 679.984375 1511.789062 673.027344 L 1472.265625 604.574219 C 1458.621094 580.8125 1428.148438 572.605469 1404.292969 586.304688 C 1396.664062 590.714844 1390.652344 596.867188 1386.449219 603.972656 C 1369.789062 593.113281 1347.765625 591.757812 1329.402344 602.359375 C 1319.226562 608.234375 1311.679688 616.933594 1307.148438 626.894531 C 1291.171875 618.542969 1271.378906 618.269531 1254.632812 627.9375 C 1247.480469 632.066406 1241.628906 637.585938 1237.199219 643.953125 L 1197.03125 574.359375 L 1241.777344 574.359375 C 1250.4375 574.359375 1257.457031 567.339844 1257.457031 558.679688 L 1257.457031 365.914062 L 1365.871094 365.914062 C 1371.84375 365.914062 1377.296875 362.515625 1379.933594 357.15625 C 1382.574219 351.800781 1381.9375 345.40625 1378.292969 340.671875 L 1323.070312 268.925781 L 1582.25 268.925781 C 1631.773438 268.925781 1672.066406 309.214844 1672.066406 358.738281 Z M 1672.066406 865.386719 " fill-opacity="1" fill-rule="nonzero"/></g></svg>