<svg xmlns="http://www.w3.org/2000/svg" xmlns:xlink="http://www.w3.org/1999/xlink" zoomAndPan="magnify" preserveAspectRatio="xMidYMid meet" version="1.0" viewBox="579.42 126.62 1091.16 974.19"><defs><clipPath id="c03b13d121"><path d="M 579.21875 985 L 696 985 L 696 1100.851562 L 579.21875 1100.851562 Z M 579.21875 985 " clip-rule="nonzero"/></clipPath><clipPath id="8eed9793d4"><path d="M 1452 126.601562 L 1670.46875 126.601562 L 1670.46875 612 L 1452 612 Z M 1452 126.601562 " clip-rule="nonzero"/></clipPath></defs><g clip-path="url(#c03b13d121)"><path fill="#f1863d" d="M 695.140625 1038.160156 L 642.714844 985.09375 L 581.339844 1046.472656 L 579.421875 1100.816406 L 633.761719 1099.535156 Z M 695.140625 1038.160156 " fill-opacity="1" fill-rule="evenodd"/></g><path fill="#f1863d" d="M 682.992188 1006.832031 L 716.875 1040.71875 C 721.351562 1045.191406 728.382812 1045.191406 732.859375 1040.71875 L 1114.542969 659.675781 L 1021.199219 565.695312 L 639.515625 947.375 C 629.925781 956.964844 640.796875 965.277344 647.1875 971.03125 L 673.402344 997.882812 L 868.398438 802.886719 C 874.792969 796.492188 883.742188 806.082031 877.347656 811.835938 Z M 952.152344 737.675781 C 950.871094 738.953125 948.953125 739.59375 947.675781 739.59375 C 941.921875 739.59375 938.726562 732.558594 942.5625 728.082031 C 946.398438 724.246094 955.347656 713.378906 961.101562 713.378906 C 962.378906 713.378906 963.660156 714.65625 964.9375 715.296875 C 970.691406 721.050781 962.378906 728.082031 958.542969 731.28125 C 955.988281 733.839844 954.070312 735.757812 952.152344 737.675781 Z M 1015.445312 673.742188 C 1014.804688 675.019531 1012.886719 675.660156 1010.96875 675.660156 C 1005.214844 675.660156 1002.65625 668.625 1006.492188 664.789062 C 1010.332031 660.953125 1019.28125 650.085938 1024.394531 649.445312 C 1026.3125 649.445312 1027.59375 650.726562 1028.871094 652.003906 C 1033.984375 657.117188 1026.3125 663.511719 1022.476562 667.347656 C 1019.921875 669.90625 1018.003906 671.824219 1015.445312 673.742188 Z M 1015.445312 673.742188 " fill-opacity="1" fill-rule="evenodd"/><path fill="#f1863d" d="M 1004.574219 530.53125 L 1149.703125 676.296875 C 1154.179688 680.773438 1161.851562 680.773438 1166.328125 676.296875 L 1207.882812 634.101562 L 1046.132812 472.351562 L 1043.574219 475.546875 C 1035.265625 483.21875 1001.378906 513.269531 1001.378906 522.859375 C 1001.378906 525.414062 1002.019531 528.613281 1004.574219 530.53125 Z M 1004.574219 530.53125 " fill-opacity="1" fill-rule="evenodd"/><path fill="#f1863d" d="M 1032.066406 439.105469 L 1241.128906 648.808594 L 1278.210938 519.660156 L 1206.605469 448.054688 C 1200.851562 442.300781 1209.800781 432.710938 1216.195312 439.105469 L 1285.242188 508.152344 L 1459.140625 299.09375 C 1461.699219 295.894531 1462.976562 292.699219 1462.976562 288.222656 C 1462.976562 277.355469 1445.714844 264.566406 1438.042969 257.535156 L 1435.484375 254.339844 L 1357.488281 332.335938 C 1356.207031 333.617188 1354.289062 334.253906 1353.011719 334.253906 C 1347.257812 334.253906 1344.0625 327.222656 1347.898438 322.746094 L 1425.894531 245.386719 L 1422.699219 242.191406 C 1415.667969 234.519531 1402.878906 217.898438 1392.011719 217.257812 C 1388.175781 217.257812 1384.339844 219.175781 1381.144531 221.734375 L 1163.769531 401.386719 Z M 1270.539062 416.730469 C 1264.785156 416.730469 1261.585938 409.695312 1265.421875 405.222656 L 1292.277344 379.007812 C 1298.03125 372.613281 1307.621094 382.203125 1301.226562 387.960938 C 1296.75 393.074219 1275.652344 416.730469 1270.539062 416.730469 Z M 1270.539062 416.730469 " fill-opacity="1" fill-rule="evenodd"/><path fill="#f1863d" d="M 1418.863281 219.175781 L 1461.058594 262.011719 L 1464.257812 258.8125 C 1481.519531 241.550781 1514.761719 217.257812 1489.191406 191.042969 C 1477.683594 179.535156 1458.503906 179.535156 1446.355469 191.042969 Z M 1418.863281 219.175781 " fill-opacity="1" fill-rule="evenodd"/><g clip-path="url(#8eed9793d4)"><path fill="#f1863d" d="M 1562.074219 611.726562 C 1565.269531 611.726562 1567.828125 609.808594 1568.46875 607.25 L 1661.171875 310.601562 C 1670.121094 283.109375 1677.152344 258.8125 1660.53125 231.960938 L 1609.382812 146.292969 C 1602.351562 135.421875 1590.84375 128.390625 1578.058594 127.113281 C 1559.515625 124.554688 1539.058594 132.226562 1525.632812 145.011719 L 1454.027344 217.257812 C 1451.46875 219.816406 1451.46875 224.289062 1454.027344 226.847656 C 1456.585938 229.40625 1460.421875 229.40625 1462.976562 226.847656 L 1535.222656 154.601562 C 1545.453125 144.375 1562.074219 138.621094 1576.140625 139.898438 C 1585.089844 141.175781 1593.402344 145.652344 1597.875 153.324219 L 1649.664062 238.996094 C 1663.089844 261.371094 1656.054688 283.109375 1649.023438 306.765625 L 1556.320312 602.773438 C 1555.042969 606.609375 1556.960938 610.445312 1560.15625 611.085938 C 1560.796875 611.726562 1561.433594 611.726562 1562.074219 611.726562 Z M 1562.074219 611.726562 " fill-opacity="1" fill-rule="evenodd"/></g></svg>