<svg xmlns="http://www.w3.org/2000/svg" xmlns:xlink="http://www.w3.org/1999/xlink" zoomAndPan="magnify" preserveAspectRatio="xMidYMid meet" version="1.0" viewBox="683.71 64.54 826.58 1136.91"><defs><clipPath id="2b575ad56b"><path d="M 683.578125 64.542969 L 1510.828125 64.542969 L 1510.828125 1201.542969 L 683.578125 1201.542969 Z M 683.578125 64.542969 " clip-rule="nonzero"/></clipPath></defs><g clip-path="url(#2b575ad56b)"><path fill="#f1863d" d="M 1433.289062 64.542969 L 760.964844 64.542969 C 718.328125 64.542969 683.707031 99.164062 683.707031 141.800781 L 683.707031 1123.929688 C 683.707031 1166.824219 718.589844 1201.449219 761.222656 1201.449219 L 1432.773438 1201.449219 C 1475.664062 1201.449219 1510.289062 1166.566406 1510.289062 1123.929688 L 1510.289062 141.800781 C 1510.289062 99.164062 1475.664062 64.542969 1433.03125 64.542969 Z M 735.382812 141.800781 C 735.382812 127.589844 746.753906 116.21875 760.964844 116.21875 L 1433.289062 116.21875 C 1447.5 116.21875 1458.867188 127.589844 1458.867188 141.800781 L 1458.867188 968.898438 C 1458.867188 983.367188 1447.5 994.738281 1433.289062 994.738281 L 760.964844 994.738281 C 746.753906 994.738281 735.382812 983.367188 735.382812 969.15625 Z M 967.933594 1046.414062 L 967.933594 1149.769531 L 916.253906 1149.769531 L 916.253906 1046.414062 Z M 1019.609375 1046.414062 L 1071.289062 1046.414062 L 1071.289062 1149.769531 L 1019.609375 1149.769531 Z M 735.382812 1123.929688 L 735.382812 1041.765625 C 743.394531 1044.605469 751.921875 1046.414062 760.964844 1046.414062 L 864.578125 1046.414062 L 864.578125 1149.769531 L 761.222656 1149.769531 C 747.011719 1149.769531 735.382812 1138.144531 735.382812 1123.929688 Z M 1122.964844 1149.769531 L 1122.964844 1046.414062 L 1174.640625 1046.414062 L 1174.640625 1149.769531 Z M 1226.320312 1046.414062 L 1277.996094 1046.414062 L 1277.996094 1149.769531 L 1226.320312 1149.769531 Z M 1433.03125 1149.769531 L 1329.675781 1149.769531 L 1329.675781 1046.414062 L 1433.289062 1046.414062 C 1442.332031 1046.414062 1450.859375 1044.605469 1458.867188 1041.765625 L 1458.867188 1123.929688 C 1458.867188 1138.144531 1447.242188 1149.769531 1433.03125 1149.769531 Z M 851.917969 788.027344 L 1342.335938 788.027344 C 1377.992188 788.027344 1407.191406 758.828125 1407.191406 723.171875 L 1407.191406 387.785156 C 1407.191406 352.128906 1377.992188 322.929688 1342.335938 322.929688 L 851.917969 322.929688 C 816.257812 322.929688 787.0625 352.128906 787.0625 387.785156 L 787.0625 723.171875 C 787.0625 758.828125 816.257812 788.027344 851.917969 788.027344 Z M 838.738281 387.785156 C 838.738281 380.550781 844.679688 374.605469 851.917969 374.605469 L 1342.335938 374.605469 C 1349.570312 374.605469 1355.515625 380.550781 1355.515625 387.785156 L 1355.515625 723.171875 C 1355.515625 730.40625 1349.570312 736.351562 1342.335938 736.351562 L 851.917969 736.351562 C 844.679688 736.351562 838.738281 730.40625 838.738281 723.171875 Z M 787.0625 193.734375 C 787.0625 179.523438 798.6875 167.898438 812.898438 167.898438 C 827.109375 167.898438 838.738281 179.523438 838.738281 193.734375 C 838.738281 207.945312 827.109375 219.574219 812.898438 219.574219 C 798.6875 219.574219 787.0625 207.945312 787.0625 193.734375 Z M 1355.515625 193.734375 C 1355.515625 179.523438 1367.140625 167.898438 1381.351562 167.898438 C 1395.5625 167.898438 1407.191406 179.523438 1407.191406 193.734375 C 1407.191406 207.945312 1395.5625 219.574219 1381.351562 219.574219 C 1367.140625 219.574219 1355.515625 207.945312 1355.515625 193.734375 Z M 787.0625 917.222656 C 787.0625 903.011719 798.6875 891.382812 812.898438 891.382812 C 827.109375 891.382812 838.738281 903.011719 838.738281 917.222656 C 838.738281 931.433594 827.109375 943.058594 812.898438 943.058594 C 798.6875 943.058594 787.0625 931.433594 787.0625 917.222656 Z M 1407.191406 917.222656 C 1407.191406 931.433594 1395.5625 943.058594 1381.351562 943.058594 C 1367.140625 943.058594 1355.515625 931.433594 1355.515625 917.222656 C 1355.515625 903.011719 1367.140625 891.382812 1381.351562 891.382812 C 1395.5625 891.382812 1407.191406 903.011719 1407.191406 917.222656 Z M 890.417969 271.25 C 890.417969 257.039062 902.042969 245.414062 916.253906 245.414062 L 942.09375 245.414062 C 956.304688 245.414062 967.933594 257.039062 967.933594 271.25 C 967.933594 285.464844 956.304688 297.089844 942.09375 297.089844 L 916.253906 297.089844 C 902.042969 297.089844 890.417969 285.464844 890.417969 271.25 Z M 993.769531 271.25 C 993.769531 257.039062 1005.398438 245.414062 1019.609375 245.414062 L 1277.996094 245.414062 C 1292.210938 245.414062 1303.835938 257.039062 1303.835938 271.25 C 1303.835938 285.464844 1292.210938 297.089844 1277.996094 297.089844 L 1019.609375 297.089844 C 1005.398438 297.089844 993.769531 285.464844 993.769531 271.25 Z M 1303.835938 839.703125 C 1303.835938 853.917969 1292.210938 865.542969 1277.996094 865.542969 L 1252.160156 865.542969 C 1237.949219 865.542969 1226.320312 853.917969 1226.320312 839.703125 C 1226.320312 825.492188 1237.949219 813.867188 1252.160156 813.867188 L 1277.996094 813.867188 C 1292.210938 813.867188 1303.835938 825.492188 1303.835938 839.703125 Z M 1200.480469 839.703125 C 1200.480469 853.917969 1188.855469 865.542969 1174.640625 865.542969 L 916.253906 865.542969 C 902.042969 865.542969 890.417969 853.917969 890.417969 839.703125 C 890.417969 825.492188 902.042969 813.867188 916.253906 813.867188 L 1174.640625 813.867188 C 1188.855469 813.867188 1200.480469 825.492188 1200.480469 839.703125 Z M 1200.480469 839.703125 " fill-opacity="1" fill-rule="nonzero"/></g></svg>