<svg xmlns="http://www.w3.org/2000/svg" xmlns:xlink="http://www.w3.org/1999/xlink" width="3000" zoomAndPan="magnify" viewBox="0 0 2250 1265.999941" height="1688" preserveAspectRatio="xMidYMid meet" version="1.0"><defs><clipPath id="3cfb10868e"><path d="M 1637 734 L 1714.402344 734 L 1714.402344 812 L 1637 812 Z M 1637 734 " clip-rule="nonzero"/></clipPath><clipPath id="d859d6a254"><path d="M 1637 267 L 1714.402344 267 L 1714.402344 345 L 1637 345 Z M 1637 267 " clip-rule="nonzero"/></clipPath><clipPath id="e4424db458"><path d="M 535.402344 120.785156 L 1698 120.785156 L 1698 1145 L 535.402344 1145 Z M 535.402344 120.785156 " clip-rule="nonzero"/></clipPath></defs><path fill="#2b4e72" d="M 556.703125 1139.667969 C 552.210938 1139.667969 547.742188 1137.757812 544.597656 1134.0625 C 538.929688 1127.390625 539.738281 1117.363281 546.433594 1111.699219 L 814.296875 884.265625 C 819.621094 879.722656 827.296875 879.207031 833.199219 883.039062 L 999.230469 990.648438 L 1336.121094 731.242188 C 1342.363281 726.417969 1351.214844 726.933594 1356.871094 732.441406 L 1524.507812 895.585938 L 1665.179688 761.429688 C 1671.519531 755.394531 1681.554688 755.625 1687.617188 761.964844 C 1693.664062 768.308594 1693.429688 778.355469 1687.078125 784.402344 L 1535.339844 929.101562 C 1529.171875 934.988281 1519.453125 934.953125 1513.320312 928.992188 L 1344.582031 764.769531 L 1009.695312 1022.644531 C 1004.382812 1026.757812 997.039062 1027.050781 991.386719 1023.394531 L 825.839844 916.101562 L 566.960938 1135.898438 C 563.984375 1138.429688 560.339844 1139.667969 556.703125 1139.667969 " fill-opacity="1" fill-rule="nonzero"/><path fill="#2b4e72" d="M 863.199219 896.359375 C 863.199219 875.023438 845.902344 857.714844 824.566406 857.714844 C 803.230469 857.714844 785.921875 875.023438 785.921875 896.359375 C 785.921875 917.695312 803.230469 934.988281 824.566406 934.988281 C 845.902344 934.988281 863.199219 917.695312 863.199219 896.359375 " fill-opacity="1" fill-rule="nonzero"/><path fill="#2b4e72" d="M 1038.660156 1010.074219 C 1038.660156 988.738281 1021.363281 971.441406 1000.027344 971.441406 C 978.679688 971.441406 961.382812 988.738281 961.382812 1010.074219 C 961.382812 1031.410156 978.679688 1048.71875 1000.027344 1048.71875 C 1021.363281 1048.71875 1038.660156 1031.410156 1038.660156 1010.074219 " fill-opacity="1" fill-rule="nonzero"/><path fill="#2b4e72" d="M 1384.4375 743.8125 C 1384.4375 722.476562 1367.140625 705.179688 1345.804688 705.179688 C 1324.46875 705.179688 1307.160156 722.476562 1307.160156 743.8125 C 1307.160156 765.148438 1324.46875 782.445312 1345.804688 782.445312 C 1367.140625 782.445312 1384.4375 765.148438 1384.4375 743.8125 " fill-opacity="1" fill-rule="nonzero"/><path fill="#2b4e72" d="M 1563.824219 919.761719 C 1563.824219 898.425781 1546.527344 881.128906 1525.191406 881.128906 C 1503.855469 881.128906 1486.546875 898.425781 1486.546875 919.761719 C 1486.546875 941.109375 1503.855469 958.40625 1525.191406 958.40625 C 1546.527344 958.40625 1563.824219 941.109375 1563.824219 919.761719 " fill-opacity="1" fill-rule="nonzero"/><g clip-path="url(#3cfb10868e)"><path fill="#2b4e72" d="M 1714.765625 772.910156 C 1714.765625 751.574219 1697.46875 734.277344 1676.121094 734.277344 C 1654.785156 734.277344 1637.488281 751.574219 1637.488281 772.910156 C 1637.488281 794.257812 1654.785156 811.554688 1676.121094 811.554688 C 1697.46875 811.554688 1714.765625 794.257812 1714.765625 772.910156 " fill-opacity="1" fill-rule="nonzero"/></g><path fill="#f1863d" d="M 556.679688 1139.667969 C 554.121094 1139.667969 551.511719 1139.042969 549.101562 1137.722656 C 541.402344 1133.523438 538.574219 1123.890625 542.773438 1116.191406 L 810.636719 625.238281 C 812.851562 621.160156 816.769531 618.261719 821.3125 617.304688 C 825.839844 616.351562 830.601562 617.441406 834.273438 620.292969 L 1004.542969 752.074219 L 1309.289062 465.300781 C 1314.332031 460.539062 1321.886719 459.621094 1327.933594 463.023438 L 1486.449219 551.976562 L 1663.074219 296.71875 C 1668.066406 289.507812 1677.957031 287.710938 1685.15625 292.691406 C 1692.363281 297.6875 1694.164062 307.566406 1689.171875 314.773438 L 1504.320312 581.90625 C 1499.671875 588.636719 1490.648438 590.71875 1483.511719 586.714844 L 1322.558594 496.390625 L 1016.417969 784.476562 C 1010.738281 789.8125 1001.996094 790.242188 995.828125 785.46875 L 829.574219 656.78125 L 570.632812 1131.394531 C 567.746094 1136.667969 562.308594 1139.667969 556.679688 1139.667969 " fill-opacity="1" fill-rule="nonzero"/><g clip-path="url(#d859d6a254)"><path fill="#f1863d" d="M 1714.765625 305.742188 C 1714.765625 284.40625 1697.46875 267.109375 1676.121094 267.109375 C 1654.785156 267.109375 1637.488281 284.40625 1637.488281 305.742188 C 1637.488281 327.089844 1654.785156 344.386719 1676.121094 344.386719 C 1697.46875 344.386719 1714.765625 327.089844 1714.765625 305.742188 " fill-opacity="1" fill-rule="nonzero"/></g><path fill="#f1863d" d="M 1525.191406 559.652344 C 1525.191406 538.316406 1507.894531 521.019531 1486.546875 521.019531 C 1465.210938 521.019531 1447.917969 538.316406 1447.917969 559.652344 C 1447.917969 580.988281 1465.210938 598.296875 1486.546875 598.296875 C 1507.894531 598.296875 1525.191406 580.988281 1525.191406 559.652344 " fill-opacity="1" fill-rule="nonzero"/><path fill="#f1863d" d="M 1362.355469 482.375 C 1362.355469 461.039062 1345.058594 443.742188 1323.722656 443.742188 C 1302.386719 443.742188 1285.078125 461.039062 1285.078125 482.375 C 1285.078125 503.722656 1302.386719 521.019531 1323.722656 521.019531 C 1345.058594 521.019531 1362.355469 503.722656 1362.355469 482.375 " fill-opacity="1" fill-rule="nonzero"/><path fill="#f1863d" d="M 1038.660156 762.359375 C 1038.660156 741.011719 1021.363281 723.714844 1000.027344 723.714844 C 978.679688 723.714844 961.382812 741.011719 961.382812 762.359375 C 961.382812 783.695312 978.679688 800.988281 1000.027344 800.988281 C 1021.363281 800.988281 1038.660156 783.695312 1038.660156 762.359375 " fill-opacity="1" fill-rule="nonzero"/><path fill="#f1863d" d="M 863.199219 632.839844 C 863.199219 611.503906 845.902344 594.207031 824.566406 594.207031 C 803.230469 594.207031 785.921875 611.503906 785.921875 632.839844 C 785.921875 654.175781 803.230469 671.46875 824.566406 671.46875 C 845.902344 671.46875 863.199219 654.175781 863.199219 632.839844 " fill-opacity="1" fill-rule="nonzero"/><g clip-path="url(#e4424db458)"><path fill="#e3e3e3" d="M 1676.121094 1144.957031 L 556.691406 1144.957031 C 545.011719 1144.957031 535.539062 1135.480469 535.539062 1123.792969 L 535.539062 141.886719 C 535.539062 130.195312 545.011719 120.722656 556.691406 120.722656 C 568.378906 120.722656 577.855469 130.195312 577.855469 141.886719 L 577.855469 1102.640625 L 1676.121094 1102.640625 C 1687.8125 1102.640625 1697.285156 1112.113281 1697.285156 1123.792969 C 1697.285156 1135.480469 1687.8125 1144.957031 1676.121094 1144.957031 " fill-opacity="1" fill-rule="nonzero"/></g></svg>