<svg width="696" height="477" viewBox="0 0 696 477" fill="none" xmlns="http://www.w3.org/2000/svg">
<path d="M491.295 286.576C491.329 292.778 486.326 297.814 480.098 297.825L424.007 297.97C417.813 297.993 412.799 292.969 412.787 286.789C412.755 280.565 417.769 275.551 423.949 275.529L480.043 275.383C486.246 275.383 491.284 280.374 491.295 286.576ZM473.491 225.016C476.162 230.611 473.772 237.296 468.163 239.966L417.488 264.022C411.901 266.669 405.215 264.28 402.567 258.684C399.886 253.099 402.287 246.414 407.885 243.734L458.548 219.688C464.157 217.041 470.832 219.418 473.491 225.016ZM473.794 348.238C476.419 342.619 474.018 335.946 468.409 333.321L417.623 309.523C412.002 306.887 405.339 309.299 402.702 314.906C400.077 320.524 402.489 327.197 408.11 329.821L458.885 353.632C464.483 356.256 471.18 353.845 473.794 348.238Z" fill="#EBB84A"/>
<path d="M403.128 193.669C387.199 188.97 372.917 176.319 367.948 168.434C359.421 154.886 369.709 151.376 366.231 113.603C363.034 79.0261 315.41 41.837 257.522 38.0574C231.203 36.3413 203.83 41.7134 175.785 57.045C103.76 96.4211 75.22 179.649 130.842 260.029C180.989 332.48 133.938 365.218 133.938 365.218C133.938 365.218 135.8 380.47 166.63 400.972C197.469 421.462 235.299 407.567 235.299 407.567C235.299 407.567 247.773 363.221 288.564 367.303C317.8 371.61 358.86 365.857 369.237 355.819C378.941 346.432 367.543 334.667 375.284 308.445C348.752 305.845 334.168 293.205 332.766 275.383C362.215 278.243 374.364 268.901 382.778 258.616C382.542 252.56 381.937 239.707 381.354 231.094C407.403 223.557 417.388 197.874 403.128 193.669Z" fill="#F1863D"/>
<mask id="mask0_1065_36" style="mask-type:luminance" maskUnits="userSpaceOnUse" x="337" y="8" width="92" height="60">
<path d="M337.808 8.71375H428.192V67.8944H337.808V8.71375Z" fill="white"/>
</mask>
<g mask="url(#mask0_1065_36)">
<path d="M428.135 35.2448C428.135 49.3825 421.97 59.1355 407.936 60.8752C407.056 61.6165 405.437 62.9147 403.558 64.0951C400.335 66.1195 398.693 67.0773 397.491 67.8294C397.228 67.9941 396.892 67.7834 396.924 67.4743L397.701 61.3298C394.366 61.4073 390.381 61.4562 386.244 61.4091C377.42 61.309 362.283 60.9466 362.283 60.9466C356.639 60.5376 350.911 59.7514 347.056 57.0577C340.632 52.568 337.846 44.3483 337.846 35.2448C338.044 28.9092 338.638 22.9304 341.089 18.9693C345.766 11.4116 354.876 8.8717 364.554 8.8717C364.554 8.8717 373.717 9.24237 382.991 8.8717C391.877 8.51637 402.602 8.8717 402.602 8.8717C411.116 9.21805 419.515 12.4281 424.086 18.1038C427.577 22.4385 428.346 28.2113 428.135 35.2448Z" fill="#F1863D"/>
</g>
<mask id="mask1_1065_36" style="mask-type:luminance" maskUnits="userSpaceOnUse" x="475" y="152" width="92" height="60">
<path d="M475.808 152.714H566.192V211.894H475.808V152.714Z" fill="white"/>
</mask>
<g mask="url(#mask1_1065_36)">
<path d="M566.135 179.245C566.135 193.383 559.97 203.136 545.936 204.875C545.056 205.617 543.437 206.915 541.558 208.095C538.335 210.12 536.693 211.077 535.491 211.829C535.228 211.994 534.892 211.783 534.924 211.474L535.701 205.33C532.366 205.407 528.381 205.456 524.244 205.409C515.42 205.309 500.283 204.947 500.283 204.947C494.639 204.538 488.911 203.751 485.056 201.058C478.632 196.568 475.846 188.348 475.846 179.245C476.044 172.909 476.638 166.93 479.089 162.969C483.766 155.412 492.876 152.872 502.554 152.872C502.554 152.872 511.717 153.242 520.991 152.872C529.877 152.516 540.602 152.872 540.602 152.872C549.116 153.218 557.515 156.428 562.086 162.104C565.577 166.439 566.346 172.211 566.135 179.245Z" fill="#F1863D"/>
</g>
<mask id="mask2_1065_36" style="mask-type:luminance" maskUnits="userSpaceOnUse" x="508" y="334" width="92" height="60">
<path d="M508.808 334.714H599.192V393.894H508.808V334.714Z" fill="white"/>
</mask>
<g mask="url(#mask2_1065_36)">
<path d="M599.135 361.245C599.135 375.383 592.97 385.136 578.936 386.875C578.056 387.617 576.437 388.915 574.558 390.095C571.335 392.12 569.693 393.077 568.491 393.829C568.228 393.994 567.892 393.783 567.924 393.474L568.701 387.33C565.366 387.407 561.381 387.456 557.244 387.409C548.42 387.309 533.283 386.947 533.283 386.947C527.639 386.538 521.911 385.751 518.056 383.058C511.632 378.568 508.846 370.348 508.846 361.245C509.044 354.909 509.638 348.93 512.089 344.969C516.766 337.412 525.876 334.872 535.554 334.872C535.554 334.872 544.717 335.242 553.991 334.872C562.877 334.516 573.602 334.872 573.602 334.872C582.116 335.218 590.515 338.428 595.086 344.104C598.577 348.439 599.346 354.211 599.135 361.245Z" fill="#F1863D"/>
</g>
<mask id="mask3_1065_36" style="mask-type:luminance" maskUnits="userSpaceOnUse" x="528" y="234" width="92" height="60">
<path d="M528.808 234.714H619.192V293.894H528.808V234.714Z" fill="white"/>
</mask>
<g mask="url(#mask3_1065_36)">
<path d="M619.135 261.245C619.135 275.383 612.97 285.136 598.936 286.875C598.056 287.617 596.437 288.915 594.558 290.095C591.335 292.12 589.693 293.077 588.491 293.829C588.228 293.994 587.892 293.783 587.924 293.474L588.701 287.33C585.366 287.407 581.381 287.456 577.244 287.409C568.42 287.309 553.283 286.947 553.283 286.947C547.639 286.538 541.911 285.751 538.056 283.058C531.632 278.568 528.846 270.348 528.846 261.245C529.044 254.909 529.638 248.93 532.089 244.969C536.766 237.412 545.876 234.872 555.554 234.872C555.554 234.872 564.717 235.242 573.991 234.872C582.877 234.516 593.602 234.872 593.602 234.872C602.116 235.218 610.515 238.428 615.086 244.104C618.577 248.439 619.346 254.211 619.135 261.245Z" fill="#162B3F"/>
</g>
<mask id="mask4_1065_36" style="mask-type:luminance" maskUnits="userSpaceOnUse" x="343" y="371" width="92" height="60">
<path d="M343.808 371.714H434.192V430.894H343.808V371.714Z" fill="white"/>
</mask>
<g mask="url(#mask4_1065_36)">
<path d="M434.135 398.245C434.135 412.383 427.97 422.136 413.936 423.875C413.056 424.617 411.437 425.915 409.558 427.095C406.335 429.12 404.693 430.077 403.491 430.829C403.228 430.994 402.892 430.783 402.924 430.474L403.701 424.33C400.366 424.407 396.381 424.456 392.244 424.409C383.42 424.309 368.283 423.947 368.283 423.947C362.639 423.538 356.911 422.751 353.056 420.058C346.632 415.568 343.846 407.348 343.846 398.245C344.044 391.909 344.638 385.93 347.089 381.969C351.766 374.412 360.876 371.872 370.554 371.872C370.554 371.872 379.717 372.242 388.991 371.872C397.877 371.516 408.602 371.872 408.602 371.872C417.116 372.218 425.515 375.428 430.086 381.104C433.577 385.439 434.346 391.211 434.135 398.245Z" fill="#162B3F"/>
</g>
<mask id="mask5_1065_36" style="mask-type:luminance" maskUnits="userSpaceOnUse" x="393" y="88" width="92" height="60">
<path d="M393.808 88.7137H484.192V147.894H393.808V88.7137Z" fill="white"/>
</mask>
<g mask="url(#mask5_1065_36)">
<path d="M484.135 115.245C484.135 129.383 477.97 139.136 463.936 140.875C463.056 141.617 461.437 142.915 459.558 144.095C456.335 146.12 454.693 147.077 453.491 147.829C453.228 147.994 452.892 147.783 452.924 147.474L453.701 141.33C450.366 141.407 446.381 141.456 442.244 141.409C433.42 141.309 418.283 140.947 418.283 140.947C412.639 140.538 406.911 139.751 403.056 137.058C396.632 132.568 393.846 124.348 393.846 115.245C394.044 108.909 394.638 102.93 397.089 98.9693C401.766 91.4116 410.876 88.8717 420.554 88.8717C420.554 88.8717 429.717 89.2424 438.991 88.8717C447.877 88.5164 458.602 88.8717 458.602 88.8717C467.116 89.2181 475.515 92.4281 480.086 98.1038C483.577 102.439 484.346 108.211 484.135 115.245Z" fill="#162B3F"/>
</g>
<path d="M372.841 44.2663C371.598 44.2663 370.472 43.9467 369.464 43.3075C368.462 42.6612 367.667 41.7131 367.077 40.4631C366.495 39.206 366.204 37.6648 366.204 35.8395C366.204 33.9645 366.506 32.4055 367.109 31.1626C367.713 29.9126 368.516 28.9787 369.517 28.3608C370.526 27.7358 371.63 27.4233 372.83 27.4233C373.746 27.4233 374.51 27.5795 375.121 27.892C375.739 28.1974 376.236 28.581 376.612 29.0426C376.996 29.4972 377.287 29.9446 377.486 30.3849H377.624V22.1818H382.152V44H377.678V41.3793H377.486C377.273 41.8338 376.971 42.2848 376.58 42.7322C376.197 43.1726 375.696 43.5384 375.078 43.8295C374.467 44.1207 373.722 44.2663 372.841 44.2663ZM374.279 40.6548C375.011 40.6548 375.629 40.456 376.133 40.0582C376.644 39.6534 377.035 39.0888 377.305 38.3643C377.582 37.6399 377.72 36.7912 377.72 35.8182C377.72 34.8452 377.585 34 377.315 33.2827C377.045 32.5653 376.655 32.0114 376.143 31.6207C375.632 31.2301 375.011 31.0348 374.279 31.0348C373.533 31.0348 372.905 31.2372 372.393 31.642C371.882 32.0469 371.495 32.608 371.232 33.3253C370.969 34.0426 370.838 34.8736 370.838 35.8182C370.838 36.7699 370.969 37.6115 371.232 38.343C371.502 39.0675 371.889 39.6357 372.393 40.0476C372.905 40.4524 373.533 40.6548 374.279 40.6548ZM399.498 32.3026L395.344 32.5582C395.273 32.2031 395.12 31.8835 394.885 31.5994C394.651 31.3082 394.342 31.0774 393.959 30.907C393.582 30.7294 393.131 30.6406 392.606 30.6406C391.903 30.6406 391.309 30.7898 390.827 31.0881C390.344 31.3793 390.102 31.7699 390.102 32.2599C390.102 32.6506 390.258 32.9808 390.571 33.2507C390.883 33.5206 391.42 33.7372 392.18 33.9006L395.141 34.4972C396.732 34.8239 397.918 35.3494 398.699 36.0739C399.481 36.7983 399.871 37.75 399.871 38.929C399.871 40.0014 399.555 40.9425 398.923 41.7521C398.298 42.5618 397.439 43.1939 396.345 43.6484C395.258 44.0959 394.005 44.3196 392.584 44.3196C390.418 44.3196 388.692 43.8686 387.407 42.9666C386.128 42.0575 385.379 40.8217 385.159 39.2592L389.623 39.0249C389.758 39.6854 390.084 40.1896 390.603 40.5376C391.121 40.8786 391.785 41.049 392.595 41.049C393.39 41.049 394.03 40.8963 394.513 40.5909C395.003 40.2784 395.251 39.8771 395.258 39.3871C395.251 38.9751 395.077 38.6378 394.736 38.375C394.395 38.1051 393.87 37.8991 393.16 37.7571L390.326 37.1925C388.728 36.8729 387.538 36.3189 386.757 35.5305C385.983 34.7422 385.596 33.7372 385.596 32.5156C385.596 31.4645 385.88 30.5589 386.448 29.799C387.023 29.0391 387.829 28.4531 388.866 28.0412C389.91 27.6293 391.132 27.4233 392.531 27.4233C394.598 27.4233 396.224 27.8601 397.41 28.7337C398.604 29.6072 399.3 30.7969 399.498 32.3026Z" fill="white"/>
<path d="M426.657 124H421.714L429.246 102.182H435.19L442.712 124H437.768L432.303 107.168H432.133L426.657 124ZM426.348 115.424H438.024V119.025H426.348V115.424ZM449.951 102.182V124H445.338V102.182H449.951Z" fill="white"/>
<path d="M501.349 176.54V186H496.811V169.636H501.136V172.523H501.328C501.69 171.572 502.298 170.819 503.15 170.265C504.002 169.704 505.036 169.423 506.25 169.423C507.386 169.423 508.377 169.672 509.222 170.169C510.067 170.666 510.724 171.376 511.193 172.3C511.662 173.216 511.896 174.31 511.896 175.581V186H507.358V176.391C507.365 175.389 507.109 174.608 506.591 174.047C506.072 173.479 505.359 173.195 504.45 173.195C503.839 173.195 503.299 173.326 502.83 173.589C502.369 173.852 502.006 174.235 501.744 174.739C501.488 175.237 501.357 175.837 501.349 176.54ZM520.012 164.182V186H515.473V164.182H520.012ZM523.647 192.136V169.636H528.121V172.385H528.324C528.523 171.945 528.81 171.497 529.187 171.043C529.57 170.581 530.067 170.197 530.678 169.892C531.296 169.58 532.063 169.423 532.979 169.423C534.173 169.423 535.273 169.736 536.282 170.361C537.29 170.979 538.097 171.913 538.7 173.163C539.304 174.406 539.606 175.964 539.606 177.839C539.606 179.665 539.311 181.206 538.722 182.463C538.139 183.713 537.344 184.661 536.335 185.308C535.334 185.947 534.212 186.266 532.969 186.266C532.088 186.266 531.339 186.121 530.721 185.83C530.11 185.538 529.609 185.173 529.219 184.732C528.828 184.285 528.53 183.834 528.324 183.379H528.185V192.136H523.647ZM528.089 177.818C528.089 178.791 528.224 179.64 528.494 180.364C528.764 181.089 529.155 181.653 529.666 182.058C530.178 182.456 530.799 182.655 531.531 182.655C532.269 182.655 532.894 182.452 533.406 182.048C533.917 181.636 534.304 181.067 534.567 180.343C534.837 179.612 534.972 178.77 534.972 177.818C534.972 176.874 534.84 176.043 534.577 175.325C534.315 174.608 533.928 174.047 533.416 173.642C532.905 173.237 532.276 173.035 531.531 173.035C530.792 173.035 530.167 173.23 529.656 173.621C529.151 174.011 528.764 174.565 528.494 175.283C528.224 176 528.089 176.845 528.089 177.818Z" fill="white"/>
<path d="M548.52 274.114V266.816H548.405C548.227 267.195 547.976 267.571 547.65 267.944C547.331 268.31 546.913 268.615 546.398 268.858C545.889 269.101 545.268 269.222 544.534 269.222C543.498 269.222 542.56 268.956 541.72 268.423C540.885 267.884 540.222 267.094 539.731 266.053C539.246 265.005 539.003 263.721 539.003 262.2C539.003 260.637 539.255 259.338 539.758 258.302C540.261 257.261 540.93 256.482 541.764 255.967C542.605 255.446 543.525 255.186 544.525 255.186C545.289 255.186 545.925 255.316 546.434 255.577C546.949 255.831 547.363 256.151 547.677 256.536C547.996 256.914 548.239 257.287 548.405 257.654H548.565V255.364H552.293V274.114H548.52ZM545.733 266.212C546.342 266.212 546.857 266.047 547.277 265.715C547.703 265.378 548.029 264.907 548.254 264.304C548.485 263.7 548.6 262.993 548.6 262.182C548.6 261.371 548.488 260.667 548.263 260.069C548.038 259.471 547.712 259.009 547.286 258.684C546.86 258.358 546.342 258.196 545.733 258.196C545.111 258.196 544.587 258.364 544.161 258.702C543.735 259.039 543.413 259.507 543.194 260.104C542.975 260.702 542.865 261.395 542.865 262.182C542.865 262.975 542.975 263.676 543.194 264.286C543.418 264.89 543.741 265.363 544.161 265.706C544.587 266.044 545.111 266.212 545.733 266.212ZM564.074 263.194V255.364H567.856V269H564.225V266.523H564.083C563.775 267.322 563.263 267.964 562.547 268.45C561.837 268.935 560.97 269.178 559.946 269.178C559.035 269.178 558.233 268.97 557.54 268.556C556.848 268.142 556.306 267.553 555.915 266.789C555.531 266.026 555.335 265.112 555.33 264.046V255.364H559.112V263.371C559.117 264.176 559.333 264.813 559.76 265.28C560.186 265.748 560.757 265.982 561.473 265.982C561.929 265.982 562.355 265.878 562.751 265.671C563.148 265.458 563.468 265.144 563.71 264.73C563.959 264.315 564.08 263.804 564.074 263.194ZM574.77 269.257C573.9 269.257 573.124 269.107 572.444 268.805C571.763 268.497 571.225 268.044 570.828 267.446C570.437 266.843 570.242 266.091 570.242 265.191C570.242 264.434 570.381 263.798 570.659 263.283C570.938 262.768 571.316 262.353 571.796 262.04C572.275 261.726 572.82 261.489 573.429 261.33C574.045 261.17 574.69 261.057 575.365 260.992C576.158 260.909 576.797 260.832 577.282 260.761C577.768 260.684 578.12 260.572 578.339 260.424C578.558 260.276 578.667 260.057 578.667 259.767V259.714C578.667 259.152 578.49 258.717 578.134 258.409C577.785 258.101 577.288 257.947 576.643 257.947C575.962 257.947 575.421 258.098 575.018 258.4C574.616 258.696 574.35 259.069 574.219 259.518L570.722 259.234C570.899 258.406 571.248 257.69 571.769 257.086C572.29 256.476 572.962 256.009 573.784 255.683C574.613 255.352 575.572 255.186 576.661 255.186C577.418 255.186 578.143 255.275 578.836 255.452C579.534 255.63 580.153 255.905 580.691 256.278C581.236 256.651 581.665 257.13 581.979 257.716C582.292 258.296 582.449 258.992 582.449 259.803V269H578.862V267.109H578.756C578.537 267.535 578.244 267.911 577.877 268.237C577.51 268.556 577.069 268.808 576.554 268.991C576.039 269.169 575.445 269.257 574.77 269.257ZM575.853 266.647C576.409 266.647 576.9 266.538 577.327 266.319C577.753 266.094 578.087 265.792 578.33 265.413C578.572 265.035 578.694 264.605 578.694 264.126V262.679C578.575 262.756 578.413 262.827 578.206 262.892C578.004 262.951 577.776 263.007 577.522 263.061C577.267 263.108 577.013 263.152 576.758 263.194C576.504 263.229 576.273 263.262 576.066 263.292C575.622 263.357 575.234 263.46 574.903 263.602C574.572 263.744 574.314 263.937 574.131 264.179C573.947 264.416 573.855 264.712 573.855 265.067C573.855 265.582 574.042 265.976 574.415 266.248C574.793 266.514 575.273 266.647 575.853 266.647ZM589.165 261.116V269H585.383V255.364H588.988V257.77H589.147C589.449 256.976 589.955 256.349 590.666 255.887C591.376 255.42 592.237 255.186 593.249 255.186C594.196 255.186 595.022 255.393 595.726 255.808C596.43 256.222 596.978 256.814 597.368 257.583C597.759 258.347 597.954 259.258 597.954 260.317V269H594.172V260.992C594.178 260.158 593.965 259.507 593.533 259.039C593.101 258.566 592.506 258.329 591.749 258.329C591.24 258.329 590.79 258.438 590.399 258.657C590.015 258.876 589.713 259.196 589.494 259.616C589.281 260.03 589.171 260.531 589.165 261.116ZM608.188 255.364V258.205H599.976V255.364H608.188ZM601.841 252.097H605.623V264.81C605.623 265.159 605.676 265.431 605.782 265.626C605.889 265.816 606.037 265.949 606.226 266.026C606.422 266.103 606.646 266.141 606.901 266.141C607.078 266.141 607.256 266.127 607.434 266.097C607.611 266.061 607.747 266.035 607.842 266.017L608.437 268.831C608.247 268.891 607.981 268.959 607.638 269.036C607.295 269.118 606.877 269.169 606.386 269.186C605.475 269.222 604.676 269.101 603.989 268.822C603.308 268.544 602.779 268.112 602.4 267.526C602.021 266.94 601.835 266.201 601.841 265.307V252.097Z" fill="white"/>
<path d="M528.75 355.234C527.521 355.234 526.464 354.974 525.578 354.453C524.698 353.927 524.021 353.198 523.547 352.266C523.078 351.333 522.844 350.26 522.844 349.047C522.844 347.818 523.081 346.74 523.555 345.812C524.034 344.88 524.714 344.154 525.594 343.633C526.474 343.107 527.521 342.844 528.734 342.844C529.781 342.844 530.698 343.034 531.484 343.414C532.271 343.794 532.893 344.328 533.352 345.016C533.81 345.703 534.063 346.51 534.109 347.438H530.969C530.88 346.839 530.646 346.357 530.266 345.992C529.891 345.622 529.398 345.437 528.789 345.437C528.273 345.437 527.823 345.578 527.438 345.859C527.057 346.135 526.76 346.539 526.547 347.07C526.333 347.602 526.227 348.245 526.227 349C526.227 349.766 526.331 350.417 526.539 350.953C526.753 351.49 527.052 351.898 527.438 352.18C527.823 352.461 528.273 352.602 528.789 352.602C529.169 352.602 529.51 352.523 529.813 352.367C530.12 352.211 530.372 351.984 530.57 351.687C530.773 351.385 530.906 351.023 530.969 350.602H534.109C534.057 351.518 533.807 352.326 533.359 353.023C532.917 353.716 532.305 354.258 531.523 354.648C530.742 355.039 529.818 355.234 528.75 355.234ZM541.662 355.234C540.449 355.234 539.399 354.977 538.514 354.461C537.633 353.94 536.954 353.216 536.475 352.289C535.995 351.357 535.756 350.276 535.756 349.047C535.756 347.807 535.995 346.724 536.475 345.797C536.954 344.865 537.633 344.141 538.514 343.625C539.399 343.104 540.449 342.844 541.662 342.844C542.876 342.844 543.923 343.104 544.803 343.625C545.688 344.141 546.37 344.865 546.85 345.797C547.329 346.724 547.568 347.807 547.568 349.047C547.568 350.276 547.329 351.357 546.85 352.289C546.37 353.216 545.688 353.94 544.803 354.461C543.923 354.977 542.876 355.234 541.662 355.234ZM541.678 352.656C542.23 352.656 542.691 352.5 543.061 352.188C543.43 351.87 543.709 351.437 543.896 350.891C544.089 350.344 544.186 349.721 544.186 349.023C544.186 348.326 544.089 347.703 543.896 347.156C543.709 346.609 543.43 346.177 543.061 345.859C542.691 345.542 542.23 345.383 541.678 345.383C541.12 345.383 540.652 345.542 540.271 345.859C539.896 346.177 539.613 346.609 539.42 347.156C539.232 347.703 539.139 348.326 539.139 349.023C539.139 349.721 539.232 350.344 539.42 350.891C539.613 351.437 539.896 351.87 540.271 352.188C540.652 352.5 541.12 352.656 541.678 352.656ZM549.732 355V343H552.904V345.117H553.045C553.295 344.414 553.712 343.859 554.295 343.453C554.878 343.047 555.576 342.844 556.389 342.844C557.212 342.844 557.912 343.049 558.49 343.461C559.068 343.867 559.454 344.419 559.646 345.117H559.771C560.016 344.43 560.459 343.88 561.1 343.469C561.745 343.052 562.508 342.844 563.389 342.844C564.508 342.844 565.417 343.201 566.115 343.914C566.818 344.622 567.17 345.628 567.17 346.93V355H563.85V347.586C563.85 346.919 563.673 346.419 563.318 346.086C562.964 345.753 562.521 345.586 561.99 345.586C561.386 345.586 560.915 345.779 560.576 346.164C560.238 346.544 560.068 347.047 560.068 347.672V355H556.842V347.516C556.842 346.927 556.673 346.458 556.334 346.109C556.001 345.76 555.561 345.586 555.014 345.586C554.644 345.586 554.311 345.68 554.014 345.867C553.722 346.049 553.49 346.307 553.318 346.641C553.146 346.969 553.061 347.354 553.061 347.797V355H549.732ZM569.799 359.5V343H573.08V345.016H573.229C573.374 344.693 573.585 344.365 573.861 344.031C574.143 343.693 574.507 343.411 574.955 343.188C575.408 342.958 575.971 342.844 576.643 342.844C577.518 342.844 578.325 343.073 579.064 343.531C579.804 343.984 580.395 344.669 580.838 345.586C581.281 346.497 581.502 347.641 581.502 349.016C581.502 350.354 581.286 351.484 580.854 352.406C580.426 353.323 579.843 354.018 579.104 354.492C578.369 354.961 577.546 355.195 576.635 355.195C575.989 355.195 575.439 355.089 574.986 354.875C574.538 354.661 574.171 354.393 573.885 354.07C573.598 353.742 573.38 353.411 573.229 353.078H573.127V359.5H569.799ZM573.057 349C573.057 349.714 573.156 350.336 573.354 350.867C573.551 351.398 573.838 351.812 574.213 352.109C574.588 352.401 575.044 352.547 575.58 352.547C576.122 352.547 576.58 352.398 576.955 352.102C577.33 351.799 577.614 351.383 577.807 350.852C578.005 350.315 578.104 349.698 578.104 349C578.104 348.307 578.007 347.698 577.814 347.172C577.622 346.646 577.338 346.234 576.963 345.937C576.588 345.641 576.127 345.492 575.58 345.492C575.038 345.492 574.58 345.635 574.205 345.922C573.835 346.208 573.551 346.615 573.354 347.141C573.156 347.667 573.057 348.286 573.057 349ZM534.516 370L530.32 382H526.57L522.375 370H525.891L528.383 378.586H528.508L530.992 370H534.516ZM536.219 382V370H539.547V382H536.219ZM537.891 368.453C537.396 368.453 536.971 368.289 536.617 367.961C536.268 367.628 536.094 367.229 536.094 366.766C536.094 366.307 536.268 365.914 536.617 365.586C536.971 365.253 537.396 365.086 537.891 365.086C538.385 365.086 538.807 365.253 539.156 365.586C539.51 365.914 539.688 366.307 539.688 366.766C539.688 367.229 539.51 367.628 539.156 367.961C538.807 368.289 538.385 368.453 537.891 368.453ZM552.197 373.422L549.15 373.609C549.098 373.349 548.986 373.115 548.814 372.906C548.643 372.693 548.416 372.523 548.135 372.398C547.859 372.268 547.528 372.203 547.143 372.203C546.627 372.203 546.192 372.312 545.838 372.531C545.484 372.745 545.307 373.031 545.307 373.391C545.307 373.677 545.421 373.919 545.65 374.117C545.88 374.315 546.273 374.474 546.83 374.594L549.002 375.031C550.169 375.271 551.038 375.656 551.611 376.187C552.184 376.719 552.471 377.417 552.471 378.281C552.471 379.068 552.239 379.758 551.775 380.352C551.317 380.945 550.687 381.409 549.885 381.742C549.088 382.07 548.169 382.234 547.127 382.234C545.538 382.234 544.273 381.904 543.33 381.242C542.393 380.576 541.843 379.669 541.682 378.523L544.955 378.352C545.054 378.836 545.294 379.206 545.674 379.461C546.054 379.711 546.541 379.836 547.135 379.836C547.718 379.836 548.187 379.724 548.541 379.5C548.9 379.271 549.083 378.977 549.088 378.617C549.083 378.315 548.955 378.068 548.705 377.875C548.455 377.677 548.07 377.526 547.549 377.422L545.471 377.008C544.299 376.773 543.426 376.367 542.854 375.789C542.286 375.211 542.002 374.474 542.002 373.578C542.002 372.807 542.21 372.143 542.627 371.586C543.049 371.029 543.64 370.599 544.4 370.297C545.166 369.995 546.062 369.844 547.088 369.844C548.604 369.844 549.796 370.164 550.666 370.805C551.541 371.445 552.051 372.318 552.197 373.422ZM562.262 376.891V370H565.59V382H562.395V379.82H562.27C561.999 380.523 561.548 381.089 560.918 381.516C560.293 381.943 559.53 382.156 558.629 382.156C557.827 382.156 557.121 381.974 556.512 381.609C555.902 381.245 555.426 380.727 555.082 380.055C554.743 379.383 554.572 378.578 554.566 377.641V370H557.895V377.047C557.9 377.755 558.09 378.315 558.465 378.727C558.84 379.138 559.342 379.344 559.973 379.344C560.374 379.344 560.749 379.253 561.098 379.07C561.447 378.883 561.728 378.607 561.941 378.242C562.16 377.878 562.267 377.427 562.262 376.891ZM571.674 382.227C570.908 382.227 570.226 382.094 569.627 381.828C569.028 381.557 568.554 381.159 568.205 380.633C567.861 380.102 567.689 379.44 567.689 378.648C567.689 377.982 567.812 377.422 568.057 376.969C568.301 376.516 568.635 376.151 569.057 375.875C569.479 375.599 569.958 375.391 570.494 375.25C571.036 375.109 571.604 375.01 572.197 374.953C572.895 374.88 573.458 374.812 573.885 374.75C574.312 374.682 574.622 374.583 574.814 374.453C575.007 374.323 575.104 374.13 575.104 373.875V373.828C575.104 373.333 574.947 372.951 574.635 372.68C574.327 372.409 573.89 372.273 573.322 372.273C572.723 372.273 572.247 372.406 571.893 372.672C571.538 372.932 571.304 373.26 571.189 373.656L568.111 373.406C568.268 372.677 568.575 372.047 569.033 371.516C569.492 370.979 570.083 370.568 570.807 370.281C571.536 369.99 572.38 369.844 573.338 369.844C574.005 369.844 574.643 369.922 575.252 370.078C575.867 370.234 576.411 370.477 576.885 370.805C577.364 371.133 577.742 371.555 578.018 372.07C578.294 372.581 578.432 373.193 578.432 373.906V382H575.275V380.336H575.182C574.989 380.711 574.731 381.042 574.408 381.328C574.085 381.609 573.697 381.831 573.244 381.992C572.791 382.148 572.268 382.227 571.674 382.227ZM572.627 379.93C573.117 379.93 573.549 379.833 573.924 379.641C574.299 379.443 574.593 379.177 574.807 378.844C575.02 378.51 575.127 378.133 575.127 377.711V376.438C575.023 376.505 574.88 376.568 574.697 376.625C574.52 376.677 574.32 376.727 574.096 376.773C573.872 376.815 573.648 376.854 573.424 376.891C573.2 376.922 572.997 376.951 572.814 376.977C572.424 377.034 572.083 377.125 571.791 377.25C571.499 377.375 571.273 377.544 571.111 377.758C570.95 377.966 570.869 378.227 570.869 378.539C570.869 378.992 571.033 379.339 571.361 379.578C571.695 379.812 572.117 379.93 572.627 379.93ZM584.342 366V382H581.014V366H584.342Z" fill="white"/>
<path d="M379.811 408V391.636H384.211V394.491H384.381C384.68 393.476 385.18 392.709 385.884 392.19C386.587 391.665 387.396 391.402 388.312 391.402C388.54 391.402 388.785 391.416 389.048 391.445C389.31 391.473 389.541 391.512 389.74 391.562V395.589C389.527 395.525 389.232 395.468 388.856 395.418C388.479 395.369 388.135 395.344 387.822 395.344C387.155 395.344 386.558 395.489 386.033 395.781C385.514 396.065 385.102 396.462 384.797 396.974C384.499 397.485 384.349 398.075 384.349 398.742V408H379.811ZM396.625 386.182V408H392.086V386.182H396.625Z" fill="white"/>
</svg>
