<svg xmlns="http://www.w3.org/2000/svg" xmlns:xlink="http://www.w3.org/1999/xlink" width="3000" zoomAndPan="magnify" viewBox="0 0 2250 1265.999941" height="1688" preserveAspectRatio="xMidYMid meet" version="1.0"><path fill="#ebb84a" d="M 1706.855469 760.597656 C 1706.945312 777.058594 1693.671875 790.425781 1677.148438 790.453125 L 1528.320312 790.839844 C 1511.886719 790.898438 1498.582031 777.566406 1498.550781 761.164062 C 1498.464844 744.644531 1511.769531 731.335938 1528.167969 731.277344 L 1677 730.890625 C 1693.460938 730.890625 1706.828125 744.136719 1706.855469 760.597656 Z M 1659.617188 597.210938 C 1666.703125 612.0625 1660.363281 629.804688 1645.480469 636.890625 L 1511.023438 700.738281 C 1496.199219 707.761719 1478.460938 701.421875 1471.433594 686.570312 C 1464.320312 671.746094 1470.691406 654.003906 1485.542969 646.890625 L 1619.96875 583.070312 C 1634.851562 576.046875 1652.5625 582.355469 1659.617188 597.210938 Z M 1660.421875 924.253906 C 1667.386719 909.339844 1661.015625 891.628906 1646.132812 884.664062 L 1511.382812 821.5 C 1496.46875 814.503906 1478.789062 820.90625 1471.792969 835.789062 C 1464.828125 850.699219 1471.226562 868.410156 1486.140625 875.375 L 1620.863281 938.570312 C 1635.714844 945.535156 1653.484375 939.136719 1660.421875 924.253906 Z M 1660.421875 924.253906 " fill-opacity="1" fill-rule="nonzero"/><path fill="#f1863d" d="M 1472.921875 514.015625 C 1430.65625 501.542969 1392.761719 467.964844 1379.578125 447.039062 C 1356.953125 411.082031 1384.25 401.765625 1375.023438 301.511719 C 1366.539062 209.742188 1240.179688 111.039062 1086.585938 101.007812 C 1016.753906 96.453125 944.125 110.710938 869.710938 151.402344 C 678.609375 255.910156 602.882812 476.804688 750.464844 690.140625 C 883.519531 882.429688 758.679688 969.320312 758.679688 969.320312 C 758.679688 969.320312 763.621094 1009.800781 845.421875 1064.214844 C 927.246094 1118.597656 1027.621094 1081.71875 1027.621094 1081.71875 C 1027.621094 1081.71875 1060.71875 964.019531 1168.949219 974.855469 C 1246.519531 986.285156 1355.464844 971.015625 1383 944.375 C 1408.746094 919.460938 1378.503906 888.234375 1399.042969 818.640625 C 1328.644531 811.738281 1289.949219 778.191406 1286.230469 730.890625 C 1364.367188 738.480469 1396.601562 713.6875 1418.925781 686.390625 C 1418.300781 670.316406 1416.695312 636.203125 1415.148438 613.34375 C 1484.265625 593.339844 1510.757812 525.175781 1472.921875 514.015625 Z M 1472.921875 514.015625 " fill-opacity="1" fill-rule="nonzero"/></svg>